<svg width="28" height="31" viewBox="0 0 28 31" fill="none" xmlns="http://www.w3.org/2000/svg">
<path d="M14.0004 5.91675C16.0934 5.91695 17.9164 7.82097 17.9164 10.3337C17.9162 12.8463 16.0933 14.7496 14.0004 14.7498C11.9073 14.7498 10.0835 12.8465 10.0834 10.3337C10.0834 7.82084 11.9072 5.91675 14.0004 5.91675Z" stroke="#222222" stroke-width="1.5" stroke-linecap="round"/>
<path d="M5.86618 19.1943C6.61296 16.7371 9.10447 15.5 11.6726 15.5H16.3274C18.8955 15.5 21.387 16.7371 22.1338 19.1943C22.4065 20.0915 22.6271 21.1216 22.7122 22.25C22.7537 22.8007 22.3023 23.25 21.75 23.25H6.25C5.69772 23.25 5.24628 22.8007 5.28781 22.25C5.37292 21.1216 5.59352 20.0915 5.86618 19.1943Z" stroke="#222222" stroke-width="1.5" stroke-linecap="round"/>
</svg>
