<svg width="24" height="25" viewBox="0 0 24 25" fill="none" xmlns="http://www.w3.org/2000/svg">
<path d="M13.5 5.75C18.3712 5.75 22.25 9.48134 22.25 14C22.25 18.5187 18.3712 22.25 13.5 22.25C8.62878 22.25 4.75 18.5187 4.75 14C4.75 9.48134 8.62878 5.75 13.5 5.75Z" stroke="black" stroke-width="1.5" stroke-linecap="round"/>
<path d="M16.8633 1.20996C16.7188 1.93251 16.4554 2.63051 16.043 3.04297C15.6305 3.45543 14.9325 3.71877 14.21 3.86328C14.1799 3.8693 14.1497 3.8734 14.1201 3.87891C14.1256 3.84958 14.1308 3.81988 14.1367 3.79004C14.2812 3.06749 14.5446 2.36949 14.957 1.95703C15.3695 1.54457 16.0675 1.28123 16.79 1.13672C16.8199 1.13075 16.8496 1.12558 16.8789 1.12012C16.8734 1.14969 16.8693 1.17986 16.8633 1.20996Z" stroke="black" stroke-width="2" stroke-linecap="round"/>
<circle cx="10" cy="15" r="1" fill="black"/>
<circle cx="17" cy="15" r="1" fill="black"/>
<path d="M11 17C11 17 12.4611 18 13.5 18C14.5389 18 16 17 16 17" stroke="black" stroke-linecap="round"/>
</svg>
