<svg width="640" height="480" viewBox="0 0 640 480" fill="none" xmlns="http://www.w3.org/2000/svg">
  <rect width="640" height="480" rx="40" fill="url(#bg)"/>
  <circle cx="120" cy="82" r="74" fill="url(#sun)" fill-opacity="0.95"/>
  <circle cx="514" cy="124" r="98" fill="#FFD7B7" fill-opacity="0.6"/>
  <path d="M0 355C105 311 170 306 240 334C319 365 390 407 469 391C553 374 595 312 640 266V480H0V355Z" fill="url(#hill)"/>
  <path d="M68 380C152 288 215 242 301 232C385 222 467 264 578 366" stroke="white" stroke-opacity="0.65" stroke-width="18" stroke-linecap="round"/>
  <rect x="88" y="118" width="158" height="192" rx="28" fill="white" fill-opacity="0.18"/>
  <rect x="112" y="144" width="104" height="18" rx="9" fill="white" fill-opacity="0.72"/>
  <rect x="112" y="176" width="88" height="14" rx="7" fill="white" fill-opacity="0.48"/>
  <rect x="112" y="214" width="74" height="74" rx="20" fill="#FFE3C4"/>
  <rect x="226" y="138" width="326" height="110" rx="28" fill="white" fill-opacity="0.2"/>
  <rect x="254" y="170" width="122" height="18" rx="9" fill="white" fill-opacity="0.74"/>
  <rect x="254" y="202" width="174" height="14" rx="7" fill="white" fill-opacity="0.5"/>
  <rect x="356" y="292" width="198" height="110" rx="28" fill="white" fill-opacity="0.16"/>
  <rect x="386" y="322" width="130" height="16" rx="8" fill="white" fill-opacity="0.7"/>
  <rect x="386" y="350" width="102" height="14" rx="7" fill="white" fill-opacity="0.45"/>
  <defs>
    <linearGradient id="bg" x1="64" y1="34" x2="566" y2="454" gradientUnits="userSpaceOnUse">
      <stop stop-color="#1A2440"/>
      <stop offset="0.48" stop-color="#415A8B"/>
      <stop offset="1" stop-color="#F4B591"/>
    </linearGradient>
    <radialGradient id="sun" cx="0" cy="0" r="1" gradientUnits="userSpaceOnUse" gradientTransform="translate(120 82) rotate(90) scale(74)">
      <stop stop-color="#FFF5D8"/>
      <stop offset="1" stop-color="#FFD087"/>
    </radialGradient>
    <linearGradient id="hill" x1="150" y1="260" x2="449" y2="501" gradientUnits="userSpaceOnUse">
      <stop stop-color="#1E273C"/>
      <stop offset="1" stop-color="#314B73"/>
    </linearGradient>
  </defs>
</svg>
