<svg width="204" height="102" viewBox="0 0 204 102" fill="none" xmlns="http://www.w3.org/2000/svg">
<path d="M13.468 14.168V20H10.3V3.872H16.324C18.26 3.872 19.724 4.296 20.716 5.144C21.724 5.992 22.228 7.288 22.228 9.032C22.228 10.76 21.724 12.048 20.716 12.896C19.724 13.744 18.26 14.168 16.324 14.168H13.468ZM13.468 6.44V11.6H16.276C17.14 11.6 17.82 11.392 18.316 10.976C18.812 10.544 19.06 9.896 19.06 9.032C19.06 8.168 18.812 7.52 18.316 7.088C17.82 6.656 17.14 6.44 16.276 6.44H13.468ZM35.7563 3.872V6.44H31.1483V20H27.9803V6.44H23.3483V3.872H35.7563ZM44.7601 17.672C45.5441 17.672 46.3201 17.568 47.0881 17.36C47.8561 17.136 48.6001 16.832 49.3201 16.448L50.1121 18.944C49.3441 19.36 48.4961 19.68 47.5681 19.904C46.6401 20.128 45.6961 20.24 44.7361 20.24C42.0321 20.24 40.0321 19.52 38.7361 18.08C37.4561 16.64 36.8161 14.592 36.8161 11.936C36.8161 9.088 37.4481 6.992 38.7121 5.648C39.9761 4.304 41.8641 3.632 44.3761 3.632C45.5761 3.632 46.6641 3.84 47.6401 4.256C48.6321 4.672 49.4321 5.216 50.0401 5.888L48.2881 7.856C47.8081 7.328 47.2401 6.92 46.5841 6.632C45.9441 6.344 45.2081 6.2 44.3761 6.2C42.9201 6.2 41.8241 6.664 41.0881 7.592C40.3521 8.504 39.9841 9.952 39.9841 11.936C39.9841 13.824 40.3681 15.256 41.1361 16.232C41.9041 17.192 43.1121 17.672 44.7601 17.672ZM59.8733 20L56.5133 11.936L55.8893 10.304H55.8653L55.9133 11.984V20H52.7453V3.872H56.2253L60.6893 14.864L61.2653 16.376H61.3133L61.8893 14.864L66.3533 3.872H69.8093V20H66.6413V11.984L66.6893 10.304H66.6653L66.0653 11.936L62.7053 20H59.8733Z" fill="#FF4646"/>
<rect opacity="0.5" x="7.5" y="85" width="69" height="12" fill="#F7FF5E"/>
<path d="M1.5 6V99.5" stroke="#FF4646" stroke-width="3"/>
<path d="M14.46 42.6V38.54H9.22V37.28H19.5C19.7133 36.72 19.86 36.1267 19.94 35.5C20.0333 34.86 20.08 34.24 20.08 33.64V31.64H11.56V30.38H21.6V33.34C21.6 34.1267 21.54 34.84 21.42 35.48C21.3133 36.12 21.1467 36.72 20.92 37.28H24.04V38.54H20.06V42.6H18.56V38.54H15.96V42.6H14.46ZM22.12 46.66H12.7C12.34 46.66 12.06 46.5667 11.86 46.38C11.66 46.2067 11.56 45.92 11.56 45.52V41.18H13.08V45.02C13.08 45.1667 13.1 45.26 13.14 45.3C13.18 45.3533 13.2733 45.38 13.42 45.38H22.12V46.66ZM33.7695 47.04C31.9429 47.04 30.6162 46.7533 29.7895 46.18C28.9629 45.6067 28.5495 44.8067 28.5495 43.78C28.5495 42.7533 28.9629 41.9533 29.7895 41.38C30.6162 40.8067 31.9429 40.52 33.7695 40.52C35.5962 40.52 36.9229 40.8067 37.7495 41.38C38.5762 41.9533 38.9895 42.7533 38.9895 43.78C38.9895 44.8067 38.5762 45.6067 37.7495 46.18C36.9229 46.7533 35.5962 47.04 33.7695 47.04ZM30.1895 39.46C28.9762 39.46 28.0695 39.1667 27.4695 38.58C26.8829 37.98 26.5895 37.1667 26.5895 36.14C26.5895 35.7133 26.6629 35.3 26.8095 34.9C26.9695 34.4867 27.1829 34.1667 27.4495 33.94H25.4695V32.66H34.8095V33.94H32.8895C33.1562 34.1667 33.3629 34.4867 33.5095 34.9C33.6695 35.3 33.7495 35.7133 33.7495 36.14C33.7495 37.1667 33.4495 37.98 32.8495 38.58C32.2629 39.1667 31.3762 39.46 30.1895 39.46ZM33.7695 45.82C35.1029 45.82 36.0429 45.6333 36.5895 45.26C37.1362 44.9 37.4095 44.4067 37.4095 43.78C37.4095 43.1533 37.1362 42.66 36.5895 42.3C36.0429 41.9267 35.1029 41.74 33.7695 41.74C32.4362 41.74 31.4962 41.9267 30.9495 42.3C30.4029 42.66 30.1295 43.1533 30.1295 43.78C30.1295 44.4067 30.4029 44.9 30.9495 45.26C31.4962 45.6333 32.4362 45.82 33.7695 45.82ZM35.2295 34.18H37.2695V29.88H38.7895V39.9H37.2695V38.44H34.9295V37.18H37.2695V35.44H35.2295V34.18ZM30.1695 38.26C30.8095 38.26 31.3229 38.08 31.7095 37.72C32.1095 37.3467 32.3095 36.8 32.3095 36.08C32.3095 35.36 32.1095 34.82 31.7095 34.46C31.3229 34.1 30.8095 33.92 30.1695 33.92C29.5295 33.92 29.0095 34.1 28.6095 34.46C28.2229 34.82 28.0295 35.36 28.0295 36.08C28.0295 36.8 28.2229 37.3467 28.6095 37.72C29.0095 38.08 29.5295 38.26 30.1695 38.26ZM27.7495 31.26V29.88H32.6095V31.26H27.7495ZM49.8391 32.68C49.8391 33.4667 49.7057 34.1533 49.4391 34.74C49.1724 35.3133 48.7524 35.8533 48.1791 36.36C47.6057 36.8533 46.8591 37.3333 45.9391 37.8C45.0324 38.2667 43.9391 38.7733 42.6591 39.32L42.0191 38.08C43.0724 37.64 43.9924 37.22 44.7791 36.82C45.5657 36.42 46.2191 36.02 46.7391 35.62C47.2724 35.2067 47.6657 34.7867 47.9191 34.36C48.1857 33.92 48.3191 33.4467 48.3191 32.94V32.06H42.6591V30.8H49.8391V32.68ZM45.4591 46.76C45.0991 46.76 44.8391 46.6733 44.6791 46.5C44.5191 46.34 44.4391 46.0667 44.4391 45.68V40.4H54.4791V46.76H45.4591ZM52.9391 41.62H45.9391V45.26C45.9391 45.3667 45.9591 45.44 45.9991 45.48C46.0391 45.52 46.1191 45.54 46.2391 45.54H52.9391V41.62ZM54.4791 33.68H57.0591V35H54.4791V39.2H52.9391V29.88H54.4791V33.68ZM75.4141 29.88H76.9341V39.18H75.4141V29.88ZM72.5141 34.28C72.5141 34.8133 72.4341 35.32 72.2741 35.8C72.1274 36.28 71.8807 36.7067 71.5341 37.08C71.2007 37.44 70.7674 37.7267 70.2341 37.94C69.7007 38.1533 69.0541 38.26 68.2941 38.26C67.5341 38.26 66.8874 38.1533 66.3541 37.94C65.8207 37.7267 65.3874 37.44 65.0541 37.08C64.7341 36.7067 64.4941 36.28 64.3341 35.8C64.1874 35.32 64.1141 34.8133 64.1141 34.28C64.1141 33.7467 64.1874 33.24 64.3341 32.76C64.4941 32.28 64.7341 31.86 65.0541 31.5C65.3874 31.1267 65.8207 30.8333 66.3541 30.62C66.8874 30.3933 67.5341 30.28 68.2941 30.28C69.0541 30.28 69.7007 30.3933 70.2341 30.62C70.7674 30.8333 71.2007 31.1267 71.5341 31.5C71.8807 31.86 72.1274 32.28 72.2741 32.76C72.4341 33.24 72.5141 33.7467 72.5141 34.28ZM70.9941 34.28C70.9941 33.3467 70.7541 32.6467 70.2741 32.18C69.7941 31.7133 69.1341 31.48 68.2941 31.48C67.4541 31.48 66.7941 31.7133 66.3141 32.18C65.8474 32.6467 65.6141 33.3467 65.6141 34.28C65.6141 35.2533 65.8474 35.96 66.3141 36.4C66.7941 36.84 67.4541 37.06 68.2941 37.06C69.1207 37.06 69.7741 36.8467 70.2541 36.42C70.7474 35.98 70.9941 35.2667 70.9941 34.28ZM71.9141 46.96C71.2341 46.6533 70.6274 46.2467 70.0941 45.74C69.5741 45.2467 69.1674 44.66 68.8741 43.98C68.7941 44.2733 68.6474 44.5667 68.4341 44.86C68.2207 45.1533 67.9741 45.4333 67.6941 45.7C67.4141 45.9667 67.1141 46.2067 66.7941 46.42C66.4874 46.6467 66.1874 46.8267 65.8941 46.96L65.1941 45.9C66.2341 45.3133 66.9874 44.6667 67.4541 43.96C67.9341 43.2533 68.1741 42.4 68.1741 41.4V40.42H69.5741V41.4C69.5874 42.36 69.8007 43.18 70.2141 43.86C70.6407 44.5267 71.2074 45.0667 71.9141 45.48C72.6074 45.0667 73.1607 44.5267 73.5741 43.86C74.0007 43.18 74.2207 42.36 74.2341 41.4V40.42H75.6341V41.4C75.6341 42.4 75.8674 43.2533 76.3341 43.96C76.8141 44.6533 77.5741 45.2933 78.6141 45.88L77.9141 46.94C77.6207 46.8067 77.3141 46.6267 76.9941 46.4C76.6874 46.1867 76.3941 45.9467 76.1141 45.68C75.8341 45.4267 75.5874 45.1533 75.3741 44.86C75.1607 44.5667 75.0141 44.2733 74.9341 43.98C74.6407 44.66 74.2274 45.2467 73.6941 45.74C73.1741 46.2467 72.5807 46.6533 71.9141 46.96ZM94.7236 38.3V39.56H79.9036V38.3H94.7236ZM83.3636 36.3C82.9903 36.3 82.7236 36.2 82.5636 36C82.4169 35.8 82.3436 35.5133 82.3436 35.14V30.2H83.8636V34.74C83.8636 34.8733 83.8769 34.96 83.9036 35C83.9436 35.0267 84.0303 35.04 84.1636 35.04H92.4836V36.3H83.3636ZM92.8036 46.66H83.3836C83.0236 46.66 82.7436 46.5667 82.5436 46.38C82.3436 46.2067 82.2436 45.92 82.2436 45.52V41.38H83.7636V45.02C83.7636 45.1667 83.7836 45.26 83.8236 45.3C83.8636 45.3533 83.9569 45.38 84.1036 45.38H92.8036V46.66ZM103.839 32.14V30.88H114.559V32.14H110.039V32.8C110.039 33.2667 110.172 33.7333 110.439 34.2C110.705 34.6533 111.079 35.08 111.559 35.48C112.039 35.88 112.612 36.2467 113.279 36.58C113.959 36.9133 114.705 37.1867 115.519 37.4L114.879 38.56C114.319 38.4267 113.752 38.2333 113.179 37.98C112.605 37.7267 112.059 37.44 111.539 37.12C111.032 36.7867 110.579 36.4333 110.179 36.06C109.779 35.6867 109.472 35.3067 109.259 34.92C109.032 35.32 108.719 35.7133 108.319 36.1C107.932 36.4867 107.485 36.8467 106.979 37.18C106.472 37.5 105.925 37.7867 105.339 38.04C104.765 38.2933 104.192 38.4867 103.619 38.62L102.919 37.48C103.732 37.2667 104.479 36.9867 105.159 36.64C105.839 36.2933 106.419 35.9133 106.899 35.5C107.392 35.0867 107.772 34.6533 108.039 34.2C108.305 33.7333 108.439 33.2667 108.439 32.8V32.14H103.839ZM101.779 42.32H108.399V38.7H109.939V42.32H116.599V43.6H101.779V42.32ZM130.628 43.9H121.788V45.5C121.788 45.6067 121.801 45.6733 121.828 45.7C121.868 45.7267 121.935 45.74 122.028 45.74H131.028V46.96H121.208C120.901 46.96 120.668 46.8933 120.508 46.76C120.361 46.6267 120.288 46.3867 120.288 46.04V42.7H129.128V41.14H120.328V39.9H122.228V38.26H118.048V37H132.868V38.26H128.808V39.9H130.628V43.9ZM125.448 36.06C124.488 36.06 123.675 35.9867 123.008 35.84C122.355 35.6933 121.815 35.4867 121.388 35.22C120.975 34.9533 120.675 34.6333 120.488 34.26C120.301 33.8733 120.208 33.4467 120.208 32.98C120.208 32.5 120.301 32.0667 120.488 31.68C120.675 31.2933 120.975 30.9667 121.388 30.7C121.815 30.4333 122.355 30.2267 123.008 30.08C123.675 29.9333 124.488 29.86 125.448 29.86C126.408 29.86 127.215 29.9333 127.868 30.08C128.535 30.2267 129.075 30.4333 129.488 30.7C129.915 30.9667 130.221 31.2933 130.408 31.68C130.595 32.0667 130.688 32.5 130.688 32.98C130.688 33.4467 130.595 33.8733 130.408 34.26C130.221 34.6333 129.915 34.9533 129.488 35.22C129.075 35.4867 128.535 35.6933 127.868 35.84C127.215 35.9867 126.408 36.06 125.448 36.06ZM125.448 34.86C126.768 34.86 127.721 34.7 128.308 34.38C128.895 34.06 129.188 33.5867 129.188 32.96C129.188 32.3333 128.895 31.86 128.308 31.54C127.721 31.22 126.768 31.06 125.448 31.06C124.128 31.06 123.175 31.22 122.588 31.54C122.001 31.86 121.708 32.3333 121.708 32.96C121.708 33.5867 122.001 34.06 122.588 34.38C123.175 34.7 124.128 34.86 125.448 34.86ZM123.728 39.9H127.308V38.26H123.728V39.9ZM138.018 46.76C137.658 46.76 137.398 46.6733 137.238 46.5C137.078 46.34 136.998 46.0667 136.998 45.68V40.4H147.038V46.76H138.018ZM145.498 41.62H138.498V45.26C138.498 45.3667 138.518 45.44 138.558 45.48C138.598 45.52 138.678 45.54 138.798 45.54H145.498V41.62ZM147.038 33.68H149.618V35H147.038V39.2H145.498V29.88H147.038V33.68ZM142.498 30.7V37.96H135.818C135.458 37.96 135.198 37.88 135.038 37.72C134.878 37.56 134.798 37.2667 134.798 36.84V30.7H142.498ZM136.298 36.46C136.298 36.5667 136.311 36.64 136.338 36.68C136.378 36.72 136.451 36.74 136.558 36.74H141.018V31.92H136.298V36.46Z" fill="#FF4646"/>
<path d="M19.15 76.605H18.385V74.925H15.46V74.235H18.385V72.63C18.135 72.73 17.865 72.82 17.575 72.9C17.295 72.98 17.01 73.05 16.72 73.11C16.44 73.16 16.165 73.2 15.895 73.23C15.625 73.26 15.38 73.275 15.16 73.275H13.45V75.555H12.67V73.275H9.25V72.6H14.935C15.515 72.6 16.09 72.56 16.66 72.48C17.24 72.4 17.815 72.24 18.385 72V66.72H19.15V76.605ZM10.105 69.105C10.105 68.375 10.38 67.81 10.93 67.41C11.48 67 12.23 66.795 13.18 66.795C14.13 66.795 14.88 67 15.43 67.41C15.98 67.81 16.255 68.375 16.255 69.105C16.255 69.835 15.98 70.405 15.43 70.815C14.88 71.215 14.13 71.415 13.18 71.415C12.23 71.415 11.48 71.215 10.93 70.815C10.38 70.405 10.105 69.835 10.105 69.105ZM15.475 69.105C15.475 68.645 15.29 68.26 14.92 67.95C14.55 67.63 13.97 67.47 13.18 67.47C12.39 67.47 11.81 67.63 11.44 67.95C11.07 68.26 10.885 68.645 10.885 69.105C10.885 69.565 11.07 69.955 11.44 70.275C11.81 70.585 12.39 70.74 13.18 70.74C13.97 70.74 14.55 70.585 14.92 70.275C15.29 69.955 15.475 69.565 15.475 69.105ZM12.355 78.285C12.355 78.385 12.365 78.445 12.385 78.465C12.415 78.485 12.475 78.495 12.565 78.495H19.45V79.185H12.205C11.975 79.185 11.815 79.125 11.725 79.005C11.635 78.895 11.59 78.725 11.59 78.495V76.245H12.355V78.285ZM24.8746 71.415C24.7246 71.675 24.5396 71.925 24.3196 72.165C24.0996 72.395 23.8546 72.615 23.5846 72.825C23.3246 73.025 23.0496 73.215 22.7596 73.395C22.4696 73.575 22.1796 73.73 21.8896 73.86L21.5146 73.335C22.4246 72.885 23.1446 72.395 23.6746 71.865C24.2146 71.325 24.4846 70.755 24.4846 70.155V69.525H21.8146V68.865H27.9346V69.525H25.2646V70.155C25.2646 70.455 25.3396 70.745 25.4896 71.025C25.6496 71.295 25.8596 71.55 26.1196 71.79C26.3896 72.03 26.7046 72.255 27.0646 72.465C27.4346 72.675 27.8296 72.87 28.2496 73.05L27.9346 73.59C27.6446 73.49 27.3496 73.365 27.0496 73.215C26.7596 73.055 26.4746 72.885 26.1946 72.705C25.9246 72.515 25.6746 72.31 25.4446 72.09C25.2146 71.87 25.0246 71.645 24.8746 71.415ZM30.9496 79.41H30.1696V75.75H23.5246V75.09H30.9496V79.41ZM30.9496 74.115H30.1696V66.72H30.9496V74.115ZM22.9996 66.795H26.7496V67.5H22.9996V66.795ZM39.8992 70.185C39.8992 70.445 39.8892 70.72 39.8692 71.01C39.8592 71.29 39.8392 71.575 39.8092 71.865C39.7792 72.145 39.7342 72.42 39.6742 72.69C39.6142 72.95 39.5392 73.19 39.4492 73.41L38.7442 73.29C38.8042 73.11 38.8542 72.905 38.8942 72.675C38.9442 72.445 38.9842 72.215 39.0142 71.985C39.0542 71.745 39.0792 71.51 39.0892 71.28C39.1092 71.05 39.1192 70.845 39.1192 70.665V68.145H34.0942V67.485H39.8992V70.185ZM36.8092 71.475V75.615H38.3242C38.6442 75.615 38.9742 75.6 39.3142 75.57C39.6642 75.53 39.9942 75.48 40.3042 75.42C40.6242 75.36 40.9142 75.285 41.1742 75.195C41.4442 75.105 41.6592 75.005 41.8192 74.895V66.72H42.5992V71.01H44.6242V71.715H42.5992V79.26H41.8192V75.525C41.6392 75.665 41.4092 75.785 41.1292 75.885C40.8592 75.985 40.5692 76.065 40.2592 76.125C39.9492 76.185 39.6342 76.23 39.3142 76.26C38.9942 76.28 38.6942 76.29 38.4142 76.29H33.2992V75.615H36.0442V71.475H36.8092ZM56.2479 69.12C56.2479 69.57 56.2179 70.02 56.1579 70.47C56.1079 70.92 55.9879 71.37 55.7979 71.82L55.1679 71.715C55.2979 71.335 55.3829 70.955 55.4229 70.575C55.4629 70.195 55.4829 69.845 55.4829 69.525V67.965H50.6529V67.32H56.2479V69.12ZM52.5129 70.41H53.2779V73.275H54.6429C55.3629 73.275 55.9929 73.22 56.5329 73.11C57.0729 72.99 57.6029 72.795 58.1229 72.525V66.72H58.9029V70.41H60.9279V71.115H58.9029V75.69H58.1229V73.17C57.6829 73.43 57.1779 73.625 56.6079 73.755C56.0479 73.875 55.4229 73.935 54.7329 73.935H49.6029V73.275H52.5129V70.41ZM52.1829 79.185C51.9529 79.185 51.7929 79.125 51.7029 79.005C51.6129 78.895 51.5679 78.725 51.5679 78.495V75.345H52.3329V78.285C52.3329 78.365 52.3429 78.42 52.3629 78.45C52.3929 78.48 52.4529 78.495 52.5429 78.495H59.2029V79.185H52.1829ZM66.5325 70.53C66.5325 71.09 66.4775 71.605 66.3675 72.075C66.2575 72.535 66.0525 72.985 65.7525 73.425C65.4525 73.865 65.0325 74.31 64.4925 74.76C63.9625 75.21 63.2775 75.705 62.4375 76.245L62.0175 75.63C62.8075 75.13 63.4475 74.67 63.9375 74.25C64.4275 73.82 64.8075 73.41 65.0775 73.02C65.3475 72.63 65.5275 72.255 65.6175 71.895C65.7175 71.525 65.7675 71.145 65.7675 70.755V68.295H62.1225V67.62H66.5325V69.51H68.8275V66.885H69.5925V78.84H68.8275V73.695H66.3075V73.005H68.8275V70.2H66.5325V70.53ZM71.8275 79.26H71.0625V66.72H71.8275V79.26ZM83.0721 77.175H76.2921V78.555C76.2921 78.635 76.2971 78.685 76.3071 78.705C76.3271 78.725 76.3721 78.735 76.4421 78.735H83.3721V79.41H76.1421C75.9321 79.41 75.7771 79.365 75.6771 79.275C75.5771 79.185 75.5271 79.015 75.5271 78.765V76.515H82.3071V75.21H75.5721V74.55H83.0721V77.175ZM83.2521 70.8V71.475H76.2471C76.0171 71.475 75.8571 71.42 75.7671 71.31C75.6771 71.19 75.6321 71.015 75.6321 70.785V68.805H82.1871V67.53H75.6771V66.84H82.9521V69.45H76.3971V70.59C76.3971 70.69 76.4071 70.75 76.4271 70.77C76.4571 70.79 76.5171 70.8 76.6071 70.8H83.2521ZM84.7971 73.335H73.8021V72.66H84.7971V73.335ZM95.2359 67.41H91.6359V66.72H95.2359V67.41ZM93.4209 73.77C92.6309 73.77 92.0059 73.56 91.5459 73.14C91.0859 72.72 90.8559 72.15 90.8559 71.43C90.8559 71.04 90.9359 70.665 91.0959 70.305C91.2659 69.945 91.5009 69.685 91.8009 69.525H89.8809V68.865H96.8859V69.525H95.0709C95.3709 69.685 95.6009 69.945 95.7609 70.305C95.9309 70.665 96.0159 71.04 96.0159 71.43C96.0159 72.15 95.7859 72.72 95.3259 73.14C94.8659 73.56 94.2309 73.77 93.4209 73.77ZM93.4359 69.63C93.1059 69.63 92.8259 69.685 92.5959 69.795C92.3659 69.895 92.1759 70.03 92.0259 70.2C91.8859 70.36 91.7859 70.55 91.7259 70.77C91.6659 70.99 91.6359 71.21 91.6359 71.43C91.6359 71.97 91.7859 72.385 92.0859 72.675C92.3859 72.955 92.8359 73.095 93.4359 73.095C94.0359 73.095 94.4859 72.955 94.7859 72.675C95.0859 72.385 95.2359 71.97 95.2359 71.43C95.2359 71.21 95.2059 70.99 95.1459 70.77C95.0859 70.55 94.9809 70.36 94.8309 70.2C94.6909 70.03 94.5059 69.895 94.2759 69.795C94.0459 69.685 93.7659 69.63 93.4359 69.63ZM101.431 71.07H99.4059V74.025H98.6259V66.72H99.4059V70.38H101.431V71.07ZM99.4059 79.26H92.7759C92.5259 79.26 92.3559 79.2 92.2659 79.08C92.1759 78.97 92.1309 78.795 92.1309 78.555V74.985H99.4059V79.26ZM92.9109 75.615V78.405C92.9109 78.505 92.9209 78.565 92.9409 78.585C92.9609 78.605 93.0209 78.615 93.1209 78.615H98.6259V75.615H92.9109ZM107.905 67.635V70.77H109.645V66.885H110.41V78.84H109.645V71.46H107.875C107.855 71.85 107.81 72.225 107.74 72.585C107.68 72.945 107.575 73.315 107.425 73.695C107.275 74.075 107.065 74.475 106.795 74.895C106.525 75.315 106.18 75.785 105.76 76.305L105.19 75.885C105.63 75.335 105.98 74.83 106.24 74.37C106.5 73.9 106.695 73.45 106.825 73.02C106.965 72.59 107.05 72.17 107.08 71.76C107.12 71.35 107.14 70.925 107.14 70.485V68.295H105.58V67.635H107.905ZM112.525 79.26H111.76V66.72H112.525V79.26ZM105.04 70.2C105.04 70.69 105.025 71.14 104.995 71.55C104.965 71.96 104.88 72.375 104.74 72.795C104.6 73.215 104.38 73.665 104.08 74.145C103.78 74.615 103.36 75.155 102.82 75.765L102.265 75.33C102.675 74.87 103.01 74.445 103.27 74.055C103.53 73.665 103.735 73.285 103.885 72.915C104.035 72.545 104.135 72.18 104.185 71.82C104.245 71.45 104.275 71.055 104.275 70.635V68.295H102.52V67.635H105.04V70.2ZM122.229 72.015C122.149 72.305 122.014 72.62 121.824 72.96C121.634 73.3 121.404 73.645 121.134 73.995C120.864 74.335 120.554 74.67 120.204 75C119.854 75.32 119.479 75.61 119.079 75.87L118.629 75.285C119.109 74.955 119.544 74.595 119.934 74.205C120.324 73.805 120.659 73.38 120.939 72.93C121.229 72.48 121.449 72.01 121.599 71.52C121.759 71.03 121.839 70.525 121.839 70.005V68.22H119.109V67.56H125.199V68.22H122.619V70.005C122.619 71.025 122.899 71.97 123.459 72.84C124.029 73.71 124.794 74.475 125.754 75.135L125.304 75.72C124.924 75.48 124.564 75.205 124.224 74.895C123.894 74.585 123.594 74.265 123.324 73.935C123.054 73.605 122.824 73.275 122.634 72.945C122.444 72.615 122.309 72.305 122.229 72.015ZM127.479 66.72H128.259V79.26H127.479V66.72ZM136.684 70.53C136.684 71.14 136.604 71.69 136.444 72.18C136.284 72.66 136.009 73.115 135.619 73.545C135.239 73.975 134.724 74.395 134.074 74.805C133.434 75.205 132.634 75.63 131.674 76.08L131.329 75.465C132.079 75.105 132.724 74.765 133.264 74.445C133.804 74.125 134.254 73.81 134.614 73.5C134.974 73.18 135.249 72.86 135.439 72.54C135.639 72.22 135.774 71.88 135.844 71.52H131.269V70.86H135.919V68.235H131.404V67.56H136.684V70.53ZM140.359 79.275H139.579V66.72H140.359V79.275ZM151.948 71.46H145.228C144.998 71.46 144.838 71.405 144.748 71.295C144.658 71.175 144.613 71 144.613 70.77V66.96H145.393V70.59C145.393 70.69 145.403 70.75 145.423 70.77C145.453 70.79 145.513 70.8 145.603 70.8H151.948V71.46ZM152.203 78.495V79.185H145.123C144.893 79.185 144.733 79.125 144.643 79.005C144.553 78.895 144.508 78.725 144.508 78.495V75.345H145.273V78.285C145.273 78.385 145.283 78.445 145.303 78.465C145.333 78.485 145.393 78.495 145.483 78.495H152.203ZM153.703 73.275V73.95H142.708V73.275H153.703ZM18.19 87.24C18.19 87.59 18.18 87.905 18.16 88.185C18.14 88.455 18.105 88.715 18.055 88.965C18.015 89.205 17.96 89.44 17.89 89.67C17.82 89.89 17.735 90.12 17.635 90.36H20.095V91.035H17.02V94.2H16.24V91.035H13.945V94.2H13.165V91.035H9.1V90.36H16.87C17.07 89.9 17.21 89.445 17.29 88.995C17.37 88.545 17.41 88.035 17.41 87.465V85.92H10.93V85.26H18.19V87.24ZM18.595 96.48V97.185H11.515C11.285 97.185 11.125 97.125 11.035 97.005C10.945 96.895 10.9 96.725 10.9 96.495V93.195H11.665V96.285C11.665 96.385 11.675 96.445 11.695 96.465C11.725 96.485 11.785 96.495 11.875 96.495L18.595 96.48ZM27.3346 97.47C26.6246 97.47 26.0296 97.405 25.5496 97.275C25.0696 97.145 24.6796 96.97 24.3796 96.75C24.0896 96.54 23.8796 96.29 23.7496 96C23.6196 95.7 23.5546 95.385 23.5546 95.055C23.5546 94.725 23.6196 94.415 23.7496 94.125C23.8796 93.825 24.0896 93.565 24.3796 93.345C24.6796 93.125 25.0696 92.95 25.5496 92.82C26.0296 92.69 26.6246 92.625 27.3346 92.625C28.0346 92.625 28.6246 92.69 29.1046 92.82C29.5946 92.95 29.9846 93.125 30.2746 93.345C30.5746 93.565 30.7896 93.825 30.9196 94.125C31.0496 94.415 31.1146 94.725 31.1146 95.055C31.1146 95.385 31.0496 95.7 30.9196 96C30.7896 96.29 30.5746 96.54 30.2746 96.75C29.9846 96.97 29.5946 97.145 29.1046 97.275C28.6246 97.405 28.0346 97.47 27.3346 97.47ZM24.6646 91.77C23.8746 91.77 23.2496 91.56 22.7896 91.14C22.3296 90.72 22.0996 90.15 22.0996 89.43C22.0996 89.04 22.1796 88.665 22.3396 88.305C22.5096 87.945 22.7446 87.685 23.0446 87.525H21.1246V86.865H28.1296V87.525H26.3146C26.6146 87.685 26.8446 87.945 27.0046 88.305C27.1746 88.665 27.2596 89.04 27.2596 89.43C27.2596 90.15 27.0296 90.72 26.5696 91.14C26.1096 91.56 25.4746 91.77 24.6646 91.77ZM27.3346 96.795C28.3346 96.795 29.0846 96.655 29.5846 96.375C30.0946 96.095 30.3496 95.655 30.3496 95.055C30.3496 94.455 30.0946 94.015 29.5846 93.735C29.0846 93.445 28.3346 93.3 27.3346 93.3C26.3346 93.3 25.5796 93.445 25.0696 93.735C24.5696 94.015 24.3196 94.455 24.3196 95.055C24.3196 95.655 24.5696 96.095 25.0696 96.375C25.5796 96.655 26.3346 96.795 27.3346 96.795ZM24.6796 87.63C24.3496 87.63 24.0696 87.685 23.8396 87.795C23.6096 87.895 23.4196 88.03 23.2696 88.2C23.1296 88.36 23.0296 88.55 22.9696 88.77C22.9096 88.99 22.8796 89.21 22.8796 89.43C22.8796 89.97 23.0296 90.385 23.3296 90.675C23.6296 90.955 24.0796 91.095 24.6796 91.095C25.2796 91.095 25.7296 90.955 26.0296 90.675C26.3296 90.385 26.4796 89.97 26.4796 89.43C26.4796 89.21 26.4496 88.99 26.3896 88.77C26.3296 88.55 26.2246 88.36 26.0746 88.2C25.9346 88.03 25.7496 87.895 25.5196 87.795C25.2896 87.685 25.0096 87.63 24.6796 87.63ZM30.9496 92.175H30.1696V90.735H28.2196V90.03H30.1696V88.41H28.4446V87.705H30.1696V84.72H30.9496V92.175ZM26.4796 85.425H22.8796V84.72H26.4796V85.425ZM39.4342 97.47C38.7242 97.47 38.1292 97.405 37.6492 97.275C37.1692 97.145 36.7792 96.97 36.4792 96.75C36.1892 96.54 35.9792 96.29 35.8492 96C35.7192 95.7 35.6542 95.385 35.6542 95.055C35.6542 94.725 35.7192 94.415 35.8492 94.125C35.9792 93.825 36.1892 93.565 36.4792 93.345C36.7792 93.125 37.1692 92.95 37.6492 92.82C38.1292 92.69 38.7242 92.625 39.4342 92.625C40.1342 92.625 40.7242 92.69 41.2042 92.82C41.6942 92.95 42.0842 93.125 42.3742 93.345C42.6742 93.565 42.8892 93.825 43.0192 94.125C43.1492 94.415 43.2142 94.725 43.2142 95.055C43.2142 95.385 43.1492 95.7 43.0192 96C42.8892 96.29 42.6742 96.54 42.3742 96.75C42.0842 96.97 41.6942 97.145 41.2042 97.275C40.7242 97.405 40.1342 97.47 39.4342 97.47ZM36.7642 91.77C35.9742 91.77 35.3492 91.56 34.8892 91.14C34.4292 90.72 34.1992 90.15 34.1992 89.43C34.1992 89.04 34.2792 88.665 34.4392 88.305C34.6092 87.945 34.8442 87.685 35.1442 87.525H33.2242V86.865H40.2292V87.525H38.4142C38.7142 87.685 38.9442 87.945 39.1042 88.305C39.2742 88.665 39.3592 89.04 39.3592 89.43C39.3592 90.15 39.1292 90.72 38.6692 91.14C38.2092 91.56 37.5742 91.77 36.7642 91.77ZM39.4342 96.795C40.4342 96.795 41.1842 96.655 41.6842 96.375C42.1942 96.095 42.4492 95.655 42.4492 95.055C42.4492 94.455 42.1942 94.015 41.6842 93.735C41.1842 93.445 40.4342 93.3 39.4342 93.3C38.4342 93.3 37.6792 93.445 37.1692 93.735C36.6692 94.015 36.4192 94.455 36.4192 95.055C36.4192 95.655 36.6692 96.095 37.1692 96.375C37.6792 96.655 38.4342 96.795 39.4342 96.795ZM36.7792 87.63C36.4492 87.63 36.1692 87.685 35.9392 87.795C35.7092 87.895 35.5192 88.03 35.3692 88.2C35.2292 88.36 35.1292 88.55 35.0692 88.77C35.0092 88.99 34.9792 89.21 34.9792 89.43C34.9792 89.97 35.1292 90.385 35.4292 90.675C35.7292 90.955 36.1792 91.095 36.7792 91.095C37.3792 91.095 37.8292 90.955 38.1292 90.675C38.4292 90.385 38.5792 89.97 38.5792 89.43C38.5792 89.21 38.5492 88.99 38.4892 88.77C38.4292 88.55 38.3242 88.36 38.1742 88.2C38.0342 88.03 37.8492 87.895 37.6192 87.795C37.3892 87.685 37.1092 87.63 36.7792 87.63ZM43.0492 92.175H42.2692V90.735H40.3192V90.03H42.2692V88.41H40.5442V87.705H42.2692V84.72H43.0492V92.175ZM38.5792 85.425H34.9792V84.72H38.5792V85.425ZM52.9329 90.96C52.3729 90.96 51.8979 90.885 51.5079 90.735C51.1279 90.585 50.8129 90.38 50.5629 90.12C50.3129 89.85 50.1329 89.535 50.0229 89.175C49.9129 88.805 49.8579 88.41 49.8579 87.99C49.8579 87.57 49.9129 87.18 50.0229 86.82C50.1329 86.45 50.3129 86.135 50.5629 85.875C50.8129 85.605 51.1279 85.395 51.5079 85.245C51.8979 85.095 52.3729 85.02 52.9329 85.02C53.4129 85.02 53.8329 85.08 54.1929 85.2C54.5529 85.31 54.8529 85.47 55.0929 85.68C55.3429 85.89 55.5379 86.14 55.6779 86.43C55.8179 86.72 55.9129 87.035 55.9629 87.375H58.5729V84.72H59.3529V91.65H58.5729V88.08H56.0079C55.9979 88.49 55.9329 88.875 55.8129 89.235C55.7029 89.585 55.5229 89.89 55.2729 90.15C55.0229 90.4 54.7029 90.6 54.3129 90.75C53.9329 90.89 53.4729 90.96 52.9329 90.96ZM59.3529 97.26H52.5429C52.3129 97.26 52.1529 97.2 52.0629 97.08C51.9729 96.97 51.9279 96.8 51.9279 96.57V92.61H59.3529V97.26ZM58.5879 96.615V93.24H52.6929V96.405C52.6929 96.505 52.7029 96.565 52.7229 96.585C52.7529 96.605 52.8129 96.615 52.9029 96.615H58.5879ZM52.9329 90.285C53.6329 90.285 54.1879 90.1 54.5979 89.73C55.0179 89.35 55.2279 88.77 55.2279 87.99C55.2279 87.21 55.0179 86.635 54.5979 86.265C54.1879 85.885 53.6329 85.695 52.9329 85.695C52.2329 85.695 51.6729 85.885 51.2529 86.265C50.8429 86.635 50.6379 87.21 50.6379 87.99C50.6379 88.77 50.8429 89.35 51.2529 89.73C51.6729 90.1 52.2329 90.285 52.9329 90.285ZM73.0275 89.73H71.0025V97.26H70.2225V84.72H71.0025V89.025H73.0275V89.73ZM67.6425 93.735H62.7825C62.5525 93.735 62.3925 93.68 62.3025 93.57C62.2125 93.45 62.1675 93.275 62.1675 93.045V85.56H67.6425V93.735ZM66.8625 93.06V86.235H62.9325V92.85C62.9325 92.95 62.9425 93.01 62.9625 93.03C62.9925 93.05 63.0525 93.06 63.1425 93.06H66.8625Z" fill="#282828"/>
</svg>
