<svg width="209" height="102" viewBox="0 0 209 102" fill="none" xmlns="http://www.w3.org/2000/svg">
<path d="M18.468 6.44V11.096H21.516C22.348 11.096 22.988 10.904 23.436 10.52C23.9 10.136 24.132 9.552 24.132 8.768C24.132 7.984 23.9 7.4 23.436 7.016C22.988 6.632 22.348 6.44 21.516 6.44H18.468ZM15.3 20V3.872H21.54C23.476 3.872 24.94 4.28 25.932 5.096C26.924 5.896 27.42 7.12 27.42 8.768C27.42 9.776 27.156 10.672 26.628 11.456C26.116 12.224 25.404 12.792 24.492 13.16L28.044 20H24.684L21.396 13.664H18.468V20H15.3ZM33.9836 20H30.8156V3.872H41.0636V6.44H33.9836V10.304H40.5596V12.872H33.9836V20ZM51.1194 17.672C51.9034 17.672 52.6794 17.568 53.4474 17.36C54.2154 17.136 54.9594 16.832 55.6794 16.448L56.4714 18.944C55.7034 19.36 54.8554 19.68 53.9274 19.904C52.9994 20.128 52.0554 20.24 51.0954 20.24C48.3914 20.24 46.3914 19.52 45.0954 18.08C43.8154 16.64 43.1754 14.592 43.1754 11.936C43.1754 9.088 43.8074 6.992 45.0714 5.648C46.3354 4.304 48.2234 3.632 50.7354 3.632C51.9354 3.632 53.0234 3.84 53.9994 4.256C54.9914 4.672 55.7914 5.216 56.3994 5.888L54.6474 7.856C54.1674 7.328 53.5994 6.92 52.9434 6.632C52.3034 6.344 51.5674 6.2 50.7354 6.2C49.2794 6.2 48.1834 6.664 47.4474 7.592C46.7114 8.504 46.3434 9.952 46.3434 11.936C46.3434 13.824 46.7274 15.256 47.4954 16.232C48.2634 17.192 49.4714 17.672 51.1194 17.672ZM69.9527 17.432V20H59.1047V3.872H69.7127V6.44H62.2727V10.328H69.4487V12.848H62.2727V17.432H69.9527Z" fill="#FF4646"/>
<rect opacity="0.5" x="13.5" y="86" width="52" height="12" fill="#F7FF5E"/>
<path d="M1.5 6V99.5" stroke="#FF4646" stroke-width="3"/>
<path d="M19.59 72.675C18.34 72.675 17.375 72.405 16.695 71.865C16.025 71.325 15.69 70.61 15.69 69.72C15.69 69.29 15.775 68.895 15.945 68.535C16.125 68.175 16.38 67.865 16.71 67.605C17.04 67.345 17.445 67.145 17.925 67.005C18.415 66.865 18.97 66.795 19.59 66.795C20.21 66.795 20.76 66.865 21.24 67.005C21.73 67.145 22.14 67.345 22.47 67.605C22.8 67.865 23.05 68.175 23.22 68.535C23.4 68.895 23.49 69.29 23.49 69.72C23.49 70.61 23.15 71.325 22.47 71.865C21.8 72.405 20.84 72.675 19.59 72.675ZM19.59 72C20.58 72 21.35 71.805 21.9 71.415C22.45 71.015 22.725 70.455 22.725 69.735C22.725 69.015 22.45 68.46 21.9 68.07C21.35 67.67 20.58 67.47 19.59 67.47C18.6 67.47 17.83 67.67 17.28 68.07C16.73 68.46 16.455 69.015 16.455 69.735C16.455 70.455 16.73 71.015 17.28 71.415C17.83 71.805 18.6 72 19.59 72ZM25.095 74.715H22.155V79.26H21.39V74.715H17.79V79.26H17.025V74.715H14.1V74.055H25.095V74.715ZM29.5146 73.23C28.9546 73.23 28.4796 73.15 28.0896 72.99C27.6996 72.82 27.3796 72.595 27.1296 72.315C26.8796 72.035 26.6996 71.71 26.5896 71.34C26.4796 70.96 26.4246 70.555 26.4246 70.125C26.4246 69.695 26.4796 69.295 26.5896 68.925C26.6996 68.545 26.8796 68.215 27.1296 67.935C27.3796 67.655 27.6996 67.435 28.0896 67.275C28.4796 67.105 28.9546 67.02 29.5146 67.02C30.2046 67.02 30.7646 67.145 31.1946 67.395C31.6246 67.635 31.9546 67.955 32.1846 68.355H35.1696V66.72H35.9496V75.495H35.1696V72.06H32.0946C31.8546 72.42 31.5246 72.705 31.1046 72.915C30.6846 73.125 30.1546 73.23 29.5146 73.23ZM29.5146 72.555C30.2246 72.555 30.7846 72.345 31.1946 71.925C31.6146 71.505 31.8246 70.905 31.8246 70.125C31.8246 69.345 31.6146 68.745 31.1946 68.325C30.7846 67.905 30.2246 67.695 29.5146 67.695C28.8046 67.695 28.2396 67.905 27.8196 68.325C27.4096 68.745 27.2046 69.345 27.2046 70.125C27.2046 70.905 27.4096 71.505 27.8196 71.925C28.2396 72.345 28.8046 72.555 29.5146 72.555ZM29.4396 78.285C29.4396 78.385 29.4496 78.445 29.4696 78.465C29.4996 78.485 29.5596 78.495 29.6496 78.495H36.2496V79.185H29.2896C29.0596 79.185 28.8996 79.125 28.8096 79.005C28.7196 78.895 28.6746 78.725 28.6746 78.495V74.955H29.4396V78.285ZM35.1696 69.045H32.4696C32.5596 69.395 32.6046 69.755 32.6046 70.125C32.6046 70.585 32.5446 71 32.4246 71.37H35.1696V69.045ZM45.3342 69.195V69.87H38.3742V69.195H45.3342ZM40.0242 67.005H43.8342V67.695H40.0242V67.005ZM41.9292 76.695C41.0292 76.695 40.3242 76.46 39.8142 75.99C39.3042 75.51 39.0492 74.79 39.0492 73.83C39.0492 72.87 39.3042 72.155 39.8142 71.685C40.3242 71.205 41.0292 70.965 41.9292 70.965C42.8292 70.965 43.5342 71.205 44.0442 71.685C44.5542 72.155 44.8092 72.87 44.8092 73.83C44.8092 74.79 44.5542 75.51 44.0442 75.99C43.5342 76.46 42.8292 76.695 41.9292 76.695ZM41.9292 76.035C42.5792 76.035 43.0892 75.86 43.4592 75.51C43.8392 75.16 44.0292 74.6 44.0292 73.83C44.0292 73.06 43.8392 72.5 43.4592 72.15C43.0892 71.8 42.5792 71.625 41.9292 71.625C41.2792 71.625 40.7642 71.8 40.3842 72.15C40.0142 72.5 39.8292 73.06 39.8292 73.83C39.8292 74.6 40.0142 75.16 40.3842 75.51C40.7642 75.86 41.2792 76.035 41.9292 76.035ZM49.6242 72.93H47.5992V79.26H46.8192V66.72H47.5992V72.225H49.6242V72.93ZM55.5138 76.155H61.3938V76.83H50.4138V76.155H54.7488V71.97H55.5138V76.155ZM59.6388 67.56V70.38C59.6388 70.95 59.5888 71.57 59.4888 72.24C59.3888 72.9 59.2088 73.52 58.9488 74.1L58.2438 73.95C58.4338 73.47 58.5838 72.945 58.6938 72.375C58.8038 71.805 58.8588 71.235 58.8588 70.665V68.235H52.1538V67.56H59.6388ZM72.1625 72.6H77.6975V73.26H66.7025V72.6H71.3975V69.885H72.1625V72.6ZM72.1925 79.47C71.5325 79.47 70.9675 79.405 70.4975 79.275C70.0275 79.155 69.6375 78.98 69.3275 78.75C69.0275 78.53 68.8075 78.27 68.6675 77.97C68.5275 77.66 68.4575 77.33 68.4575 76.98C68.4575 76.63 68.5275 76.305 68.6675 76.005C68.8075 75.705 69.0275 75.445 69.3275 75.225C69.6375 74.995 70.0275 74.82 70.4975 74.7C70.9675 74.57 71.5325 74.505 72.1925 74.505C72.8525 74.505 73.4175 74.57 73.8875 74.7C74.3575 74.82 74.7425 74.995 75.0425 75.225C75.3525 75.445 75.5775 75.71 75.7175 76.02C75.8575 76.32 75.9275 76.645 75.9275 76.995C75.9275 77.345 75.8575 77.67 75.7175 77.97C75.5775 78.27 75.3525 78.53 75.0425 78.75C74.7425 78.98 74.3575 79.155 73.8875 79.275C73.4175 79.405 72.8525 79.47 72.1925 79.47ZM72.1925 78.795C73.2225 78.795 73.9725 78.63 74.4425 78.3C74.9225 77.97 75.1625 77.53 75.1625 76.98C75.1625 76.43 74.9225 75.995 74.4425 75.675C73.9725 75.345 73.2225 75.18 72.1925 75.18C71.1625 75.18 70.4075 75.345 69.9275 75.675C69.4575 76.005 69.2225 76.445 69.2225 76.995C69.2225 77.545 69.4575 77.98 69.9275 78.3C70.4075 78.63 71.1625 78.795 72.1925 78.795ZM75.7925 67.065V68.775C75.7925 69.745 75.6375 70.6 75.3275 71.34L74.6525 71.25C74.7525 70.93 74.8375 70.585 74.9075 70.215C74.9875 69.845 75.0275 69.51 75.0275 69.21V67.725H68.5325V67.065H75.7925ZM80.8271 74.61H88.1021V79.26H81.4421C81.2121 79.26 81.0521 79.2 80.9621 79.08C80.8721 78.97 80.8271 78.8 80.8271 78.57V74.61ZM87.3371 78.615V75.24H81.5921V78.405C81.5921 78.505 81.6021 78.565 81.6221 78.585C81.6521 78.605 81.7121 78.615 81.8021 78.615H87.3371ZM84.7271 68.805C84.7271 69.355 84.6121 69.845 84.3821 70.275C84.1521 70.695 83.8121 71.09 83.3621 71.46C82.9121 71.82 82.3471 72.17 81.6671 72.51C80.9971 72.84 80.2171 73.19 79.3271 73.56L79.0121 72.945C79.8521 72.615 80.5771 72.295 81.1871 71.985C81.8071 71.675 82.3221 71.365 82.7321 71.055C83.1421 70.735 83.4471 70.41 83.6471 70.08C83.8471 69.74 83.9471 69.38 83.9471 69V68.07H79.4921V67.41H84.7271V68.805ZM90.1271 70.32H88.1021V73.65H87.3221V66.72H88.1021V69.63H90.1271V70.32ZM94.4568 70.14C94.2968 70.73 93.9518 71.33 93.4218 71.94C92.8918 72.54 92.2018 73.06 91.3518 73.5L90.9318 72.9C91.8918 72.38 92.6468 71.75 93.1968 71.01C93.7568 70.26 94.0368 69.415 94.0368 68.475V67.995H91.3068V67.335H97.4268V67.995H94.8168V68.475C94.8168 68.945 94.9018 69.39 95.0718 69.81C95.2418 70.22 95.4668 70.61 95.7468 70.98C96.0268 71.34 96.3468 71.67 96.7068 71.97C97.0768 72.27 97.4618 72.535 97.8618 72.765L97.4718 73.35C96.7318 72.94 96.0968 72.46 95.5668 71.91C95.0468 71.35 94.6768 70.76 94.4568 70.14ZM100.652 79.41H99.8718V75.45H93.2268V74.79H100.652V79.41ZM100.652 73.845H99.8718V70.395H97.1868V69.69H99.8718V66.72H100.652V73.845ZM111.971 66.72H112.751V79.245H111.971V66.72ZM106.511 68.01C105.781 68.01 105.231 68.3 104.861 68.88C104.501 69.45 104.321 70.39 104.321 71.7C104.321 73.01 104.501 73.955 104.861 74.535C105.231 75.105 105.781 75.39 106.511 75.39C107.241 75.39 107.786 75.105 108.146 74.535C108.516 73.955 108.701 73.01 108.701 71.7C108.701 70.39 108.516 69.45 108.146 68.88C107.786 68.3 107.241 68.01 106.511 68.01ZM106.511 76.065C105.551 76.065 104.811 75.725 104.291 75.045C103.781 74.355 103.526 73.24 103.526 71.7C103.526 70.16 103.781 69.05 104.291 68.37C104.811 67.68 105.551 67.335 106.511 67.335C107.471 67.335 108.206 67.68 108.716 68.37C109.236 69.05 109.496 70.16 109.496 71.7C109.496 73.24 109.236 74.355 108.716 75.045C108.206 75.725 107.471 76.065 106.511 76.065ZM121.356 73.14H116.361C116.131 73.14 115.971 73.085 115.881 72.975C115.791 72.855 115.746 72.68 115.746 72.45V67.44H121.356V68.52H124.071V66.72H124.851V75.645H124.071V72H121.356V73.14ZM116.511 68.07V72.3C116.511 72.4 116.521 72.46 116.541 72.48C116.571 72.5 116.631 72.51 116.721 72.51H120.576V68.07H116.511ZM125.151 78.495V79.185H118.191C117.961 79.185 117.801 79.125 117.711 79.005C117.621 78.895 117.576 78.725 117.576 78.495V74.955H118.341V78.285C118.341 78.385 118.351 78.445 118.371 78.465C118.401 78.485 118.461 78.495 118.551 78.495H125.151ZM124.071 69.21H121.356V71.31H124.071V69.21ZM133.231 70.785H136.171V66.72H136.951V79.26H136.171V71.49H133.231V70.785ZM130.846 71.865C130.766 72.115 130.626 72.405 130.426 72.735C130.236 73.055 129.996 73.39 129.706 73.74C129.426 74.08 129.101 74.425 128.731 74.775C128.361 75.115 127.966 75.43 127.546 75.72L127.096 75.18C127.576 74.85 128.021 74.495 128.431 74.115C128.841 73.735 129.196 73.325 129.496 72.885C129.796 72.445 130.031 71.975 130.201 71.475C130.371 70.965 130.456 70.42 130.456 69.84V67.335H131.236V69.84C131.236 70.41 131.316 70.94 131.476 71.43C131.636 71.92 131.856 72.38 132.136 72.81C132.426 73.23 132.766 73.63 133.156 74.01C133.546 74.38 133.976 74.73 134.446 75.06L133.996 75.615C133.586 75.345 133.206 75.045 132.856 74.715C132.506 74.385 132.196 74.055 131.926 73.725C131.656 73.385 131.426 73.055 131.236 72.735C131.056 72.405 130.926 72.115 130.846 71.865ZM148.6 72.375V73.05H145.33V76.155H150.295V76.83H139.3V76.155H144.565V73.05H141.745C141.515 73.05 141.355 72.995 141.265 72.885C141.175 72.765 141.13 72.59 141.13 72.36V67.485H148.525V68.175H141.91V72.165C141.91 72.245 141.92 72.3 141.94 72.33C141.97 72.36 142.03 72.375 142.12 72.375H148.6ZM17.565 92.22C16.775 92.22 16.15 92.005 15.69 91.575C15.23 91.145 15 90.53 15 89.73C15 89.26 15.08 88.84 15.24 88.47C15.41 88.1 15.645 87.835 15.945 87.675H14.025V87.015H21.03V87.675H19.215C19.515 87.835 19.745 88.1 19.905 88.47C20.075 88.84 20.16 89.26 20.16 89.73C20.16 90.53 19.93 91.145 19.47 91.575C19.01 92.005 18.375 92.22 17.565 92.22ZM17.58 87.78C17.25 87.78 16.97 87.835 16.74 87.945C16.51 88.045 16.32 88.185 16.17 88.365C16.03 88.545 15.93 88.755 15.87 88.995C15.81 89.225 15.78 89.47 15.78 89.73C15.78 90.94 16.38 91.545 17.58 91.545C18.78 91.545 19.38 90.94 19.38 89.73C19.38 89.47 19.35 89.225 19.29 88.995C19.23 88.755 19.125 88.545 18.975 88.365C18.835 88.185 18.65 88.045 18.42 87.945C18.19 87.835 17.91 87.78 17.58 87.78ZM23.85 93.945H23.07V91.305H21.12V90.615H23.07V88.935H21.345V88.245H23.07V84.72H23.85V93.945ZM17.355 96.285C17.355 96.385 17.365 96.445 17.385 96.465C17.415 96.485 17.475 96.495 17.565 96.495H24.165V97.185H17.205C16.975 97.185 16.815 97.125 16.725 97.005C16.635 96.895 16.59 96.725 16.59 96.495V93.42H17.355V96.285ZM19.38 85.575H15.78V84.87H19.38V85.575ZM35.1696 84.72H35.9496V90.93H35.1696V84.72ZM30.0246 87.675C29.9346 87.965 29.7946 88.26 29.6046 88.56C29.4246 88.85 29.1996 89.14 28.9296 89.43C28.6596 89.71 28.3496 89.98 27.9996 90.24C27.6496 90.5 27.2646 90.74 26.8446 90.96L26.4696 90.45C26.9496 90.19 27.3796 89.91 27.7596 89.61C28.1496 89.3 28.4846 88.965 28.7646 88.605C29.0446 88.245 29.2596 87.86 29.4096 87.45C29.5596 87.03 29.6346 86.58 29.6346 86.1V84.915H30.4146V86.1C30.4146 86.99 30.6746 87.76 31.1946 88.41C31.7246 89.06 32.4646 89.645 33.4146 90.165L33.0546 90.66C32.2846 90.26 31.6396 89.805 31.1196 89.295C30.5996 88.785 30.2346 88.245 30.0246 87.675ZM29.2896 97.41C29.0596 97.41 28.8996 97.355 28.8096 97.245C28.7196 97.145 28.6746 96.98 28.6746 96.75V94.185H35.1846V92.535H28.7196V91.875H35.9496V94.83H29.4396V96.555C29.4396 96.675 29.4946 96.735 29.6046 96.735H36.3996V97.41H29.2896ZM44.5283 92.61H51.8033V97.26H45.1433C44.9133 97.26 44.7533 97.2 44.6633 97.08C44.5733 96.97 44.5283 96.8 44.5283 96.57V92.61ZM51.0383 96.615V93.24H45.2933V96.405C45.2933 96.505 45.3033 96.565 45.3233 96.585C45.3533 96.605 45.4133 96.615 45.5033 96.615H51.0383ZM48.4283 86.805C48.4283 87.355 48.3133 87.845 48.0833 88.275C47.8533 88.695 47.5133 89.09 47.0633 89.46C46.6133 89.82 46.0483 90.17 45.3683 90.51C44.6983 90.84 43.9183 91.19 43.0283 91.56L42.7133 90.945C43.5533 90.615 44.2783 90.295 44.8883 89.985C45.5083 89.675 46.0233 89.365 46.4333 89.055C46.8433 88.735 47.1483 88.41 47.3483 88.08C47.5483 87.74 47.6483 87.38 47.6483 87V86.07H43.1933V85.41H48.4283V86.805ZM53.8283 88.32H51.8033V91.65H51.0233V84.72H51.8033V87.63H53.8283V88.32ZM60.5279 86.805C60.5279 87.355 60.4129 87.845 60.1829 88.275C59.9529 88.695 59.6129 89.09 59.1629 89.46C58.7129 89.82 58.1479 90.17 57.4679 90.51C56.7979 90.84 56.0179 91.19 55.1279 91.56L54.8129 90.945C55.6529 90.615 56.3779 90.295 56.9879 89.985C57.6079 89.675 58.1229 89.365 58.5329 89.055C58.9429 88.735 59.2479 88.41 59.4479 88.08C59.6479 87.74 59.7479 87.38 59.7479 87V86.07H55.2929V85.41H60.5279V86.805ZM63.9029 97.41H63.1229V93.45H56.4779V92.79H63.9029V97.41ZM65.9279 88.47H63.9029V91.815H63.1229V84.72H63.9029V87.78H65.9279V88.47ZM75.6725 84.72H76.4525V97.245H75.6725V84.72ZM70.2125 86.01C69.4825 86.01 68.9325 86.3 68.5625 86.88C68.2025 87.45 68.0225 88.39 68.0225 89.7C68.0225 91.01 68.2025 91.955 68.5625 92.535C68.9325 93.105 69.4825 93.39 70.2125 93.39C70.9425 93.39 71.4875 93.105 71.8475 92.535C72.2175 91.955 72.4025 91.01 72.4025 89.7C72.4025 88.39 72.2175 87.45 71.8475 86.88C71.4875 86.3 70.9425 86.01 70.2125 86.01ZM70.2125 94.065C69.2525 94.065 68.5125 93.725 67.9925 93.045C67.4825 92.355 67.2275 91.24 67.2275 89.7C67.2275 88.16 67.4825 87.05 67.9925 86.37C68.5125 85.68 69.2525 85.335 70.2125 85.335C71.1725 85.335 71.9075 85.68 72.4175 86.37C72.9375 87.05 73.1975 88.16 73.1975 89.7C73.1975 91.24 72.9375 92.355 72.4175 93.045C71.9075 93.725 71.1725 94.065 70.2125 94.065ZM88.5263 97.47C87.4163 97.47 86.6163 97.295 86.1263 96.945C85.6363 96.595 85.3913 96.13 85.3913 95.55C85.3913 95.22 85.4913 94.915 85.6913 94.635C85.8913 94.345 86.1413 94.16 86.4413 94.08H84.2963V93.45H92.7563V94.08H90.6113C90.9113 94.16 91.1613 94.345 91.3613 94.635C91.5613 94.915 91.6613 95.22 91.6613 95.55C91.6613 96.13 91.4163 96.595 90.9263 96.945C90.4363 97.295 89.6363 97.47 88.5263 97.47ZM88.4963 86.52C88.3563 86.79 88.1463 87.055 87.8663 87.315C87.5863 87.565 87.2563 87.805 86.8763 88.035C86.5063 88.255 86.0913 88.465 85.6313 88.665C85.1813 88.855 84.7113 89.015 84.2213 89.145L83.8913 88.575C84.4713 88.425 85.0063 88.24 85.4963 88.02C85.9963 87.79 86.4313 87.545 86.8013 87.285C87.1813 87.015 87.4813 86.74 87.7013 86.46C87.9313 86.17 88.0613 85.885 88.0913 85.605H84.7463V84.93H92.2463V85.605H88.8863C88.9163 85.905 89.0563 86.2 89.3063 86.49C89.5563 86.78 89.8713 87.055 90.2513 87.315C90.6313 87.565 91.0663 87.79 91.5563 87.99C92.0463 88.19 92.5463 88.35 93.0563 88.47L92.7713 89.055C92.3513 88.965 91.9163 88.835 91.4663 88.665C91.0163 88.485 90.5913 88.285 90.1913 88.065C89.7913 87.835 89.4363 87.59 89.1263 87.33C88.8263 87.06 88.6163 86.79 88.4963 86.52ZM88.5263 94.2C88.0663 94.2 87.6813 94.235 87.3713 94.305C87.0713 94.375 86.8313 94.47 86.6513 94.59C86.4713 94.71 86.3413 94.85 86.2612 95.01C86.1912 95.17 86.1562 95.34 86.1562 95.52C86.1562 95.71 86.1912 95.885 86.2612 96.045C86.3413 96.205 86.4713 96.345 86.6513 96.465C86.8313 96.585 87.0713 96.675 87.3713 96.735C87.6813 96.805 88.0663 96.84 88.5263 96.84C88.9863 96.84 89.3663 96.805 89.6663 96.735C89.9763 96.675 90.2213 96.585 90.4013 96.465C90.5813 96.345 90.7063 96.205 90.7763 96.045C90.8563 95.885 90.8963 95.71 90.8963 95.52C90.8963 95.34 90.8563 95.17 90.7763 95.01C90.7063 94.85 90.5813 94.71 90.4013 94.59C90.2213 94.47 89.9763 94.375 89.6663 94.305C89.3663 94.235 88.9863 94.2 88.5263 94.2ZM88.1213 88.56H88.8863V90.09H94.0013V90.765H83.0063V90.09H88.1213V88.56ZM86.0963 91.755H91.0163V92.415H86.0963V91.755ZM95.1059 91.845V91.17H106.101V91.845H95.1059ZM100.596 89.895C99.9459 89.895 99.3809 89.83 98.9009 89.7C98.4209 89.56 98.0209 89.38 97.7009 89.16C97.3909 88.93 97.1559 88.665 96.9959 88.365C96.8459 88.055 96.7709 87.725 96.7709 87.375C96.7709 87.035 96.8459 86.71 96.9959 86.4C97.1559 86.09 97.3909 85.825 97.7009 85.605C98.0209 85.375 98.4209 85.195 98.9009 85.065C99.3809 84.925 99.9459 84.855 100.596 84.855C101.246 84.855 101.811 84.925 102.291 85.065C102.771 85.195 103.166 85.375 103.476 85.605C103.796 85.825 104.031 86.09 104.181 86.4C104.341 86.71 104.421 87.035 104.421 87.375C104.421 87.725 104.341 88.055 104.181 88.365C104.031 88.665 103.796 88.93 103.476 89.16C103.166 89.38 102.771 89.56 102.291 89.7C101.811 89.83 101.246 89.895 100.596 89.895ZM100.596 89.22C101.146 89.22 101.611 89.175 101.991 89.085C102.381 88.995 102.696 88.87 102.936 88.71C103.186 88.54 103.366 88.345 103.476 88.125C103.586 87.895 103.641 87.645 103.641 87.375C103.641 87.105 103.586 86.86 103.476 86.64C103.366 86.41 103.186 86.215 102.936 86.055C102.696 85.885 102.381 85.755 101.991 85.665C101.611 85.575 101.146 85.53 100.596 85.53C100.046 85.53 99.5759 85.575 99.1859 85.665C98.8059 85.755 98.4909 85.885 98.2409 86.055C98.0009 86.215 97.8259 86.41 97.7159 86.64C97.6059 86.86 97.5509 87.105 97.5509 87.375C97.5509 87.645 97.6059 87.895 97.7159 88.125C97.8259 88.345 98.0009 88.54 98.2409 88.71C98.4909 88.87 98.8059 88.995 99.1859 89.085C99.5759 89.175 100.046 89.22 100.596 89.22ZM97.6709 96.285C97.6709 96.385 97.6809 96.445 97.7009 96.465C97.7309 96.485 97.7909 96.495 97.8809 96.495H104.601V97.185H97.5209C97.2909 97.185 97.1309 97.125 97.0409 97.005C96.9509 96.895 96.9059 96.725 96.9059 96.495V93.375H97.6709V96.285ZM114.74 90.96C114.18 90.96 113.705 90.885 113.315 90.735C112.935 90.585 112.62 90.38 112.37 90.12C112.12 89.85 111.94 89.535 111.83 89.175C111.72 88.805 111.665 88.41 111.665 87.99C111.665 87.57 111.72 87.18 111.83 86.82C111.94 86.45 112.12 86.135 112.37 85.875C112.62 85.605 112.935 85.395 113.315 85.245C113.705 85.095 114.18 85.02 114.74 85.02C115.22 85.02 115.64 85.08 116 85.2C116.36 85.31 116.66 85.47 116.9 85.68C117.15 85.89 117.345 86.14 117.485 86.43C117.625 86.72 117.72 87.035 117.77 87.375H120.38V84.72H121.16V91.65H120.38V88.08H117.815C117.805 88.49 117.74 88.875 117.62 89.235C117.51 89.585 117.33 89.89 117.08 90.15C116.83 90.4 116.51 90.6 116.12 90.75C115.74 90.89 115.28 90.96 114.74 90.96ZM121.16 97.26H114.35C114.12 97.26 113.96 97.2 113.87 97.08C113.78 96.97 113.735 96.8 113.735 96.57V92.61H121.16V97.26ZM120.395 96.615V93.24H114.5V96.405C114.5 96.505 114.51 96.565 114.53 96.585C114.56 96.605 114.62 96.615 114.71 96.615H120.395ZM114.74 90.285C115.44 90.285 115.995 90.1 116.405 89.73C116.825 89.35 117.035 88.77 117.035 87.99C117.035 87.21 116.825 86.635 116.405 86.265C115.995 85.885 115.44 85.695 114.74 85.695C114.04 85.695 113.48 85.885 113.06 86.265C112.65 86.635 112.445 87.21 112.445 87.99C112.445 88.77 112.65 89.35 113.06 89.73C113.48 90.1 114.04 90.285 114.74 90.285ZM134.834 89.73H132.809V97.26H132.029V84.72H132.809V89.025H134.834V89.73ZM129.449 93.735H124.589C124.359 93.735 124.199 93.68 124.109 93.57C124.019 93.45 123.974 93.275 123.974 93.045V85.56H129.449V93.735ZM128.669 93.06V86.235H124.739V92.85C124.739 92.95 124.749 93.01 124.769 93.03C124.799 93.05 124.859 93.06 124.949 93.06H128.669Z" fill="#282828"/>
<path d="M14.22 37.52H20.22V34.1H21.72V37.52H29.04V38.78H14.22V37.52ZM21.64 47.04C20.7067 47.04 19.9067 46.96 19.24 46.8C18.5867 46.6533 18.0533 46.4333 17.64 46.14C17.2267 45.86 16.9267 45.5067 16.74 45.08C16.5533 44.6667 16.46 44.2 16.46 43.68C16.46 43.16 16.5533 42.6933 16.74 42.28C16.9267 41.8533 17.2267 41.5 17.64 41.22C18.0533 40.9267 18.5867 40.7067 19.24 40.56C19.9067 40.4 20.7067 40.32 21.64 40.32C22.5733 40.32 23.3667 40.4 24.02 40.56C24.6867 40.7067 25.2267 40.9267 25.64 41.22C26.0533 41.5 26.3533 41.8533 26.54 42.28C26.7267 42.6933 26.82 43.16 26.82 43.68C26.82 44.2 26.7267 44.6667 26.54 45.08C26.3533 45.5067 26.0533 45.86 25.64 46.14C25.2267 46.4333 24.6867 46.6533 24.02 46.8C23.3667 46.96 22.5733 47.04 21.64 47.04ZM21.64 45.82C22.36 45.82 22.9533 45.7667 23.42 45.66C23.8867 45.5667 24.26 45.42 24.54 45.22C24.82 45.0333 25.0133 44.8133 25.12 44.56C25.24 44.2933 25.3 44 25.3 43.68C25.3 43.36 25.24 43.0733 25.12 42.82C25.0133 42.5533 24.82 42.3267 24.54 42.14C24.26 41.94 23.8867 41.7933 23.42 41.7C22.9533 41.5933 22.36 41.54 21.64 41.54C20.92 41.54 20.3267 41.5933 19.86 41.7C19.3933 41.7933 19.02 41.94 18.74 42.14C18.46 42.3267 18.26 42.5533 18.14 42.82C18.0333 43.0733 17.98 43.36 17.98 43.68C17.98 44 18.0333 44.2933 18.14 44.56C18.26 44.8133 18.46 45.0333 18.74 45.22C19.02 45.42 19.3933 45.5667 19.86 45.66C20.3267 45.7667 20.92 45.82 21.64 45.82ZM16.56 31.6V30.34H26.6V32.5C26.6 33.14 26.5467 33.78 26.44 34.42C26.3333 35.06 26.18 35.6067 25.98 36.06L24.66 35.88C24.82 35.4533 24.9333 35 25 34.52C25.08 34.04 25.12 33.5667 25.12 33.1V31.6H16.56ZM38.5695 32.68C38.5695 33.4667 38.4362 34.1533 38.1695 34.74C37.9029 35.3133 37.4829 35.8533 36.9095 36.36C36.3362 36.8533 35.5895 37.3333 34.6695 37.8C33.7629 38.2667 32.6695 38.7733 31.3895 39.32L30.7495 38.08C31.8029 37.64 32.7229 37.22 33.5095 36.82C34.2962 36.42 34.9495 36.02 35.4695 35.62C36.0029 35.2067 36.3962 34.7867 36.6495 34.36C36.9162 33.92 37.0495 33.4467 37.0495 32.94V32.06H31.3895V30.8H38.5695V32.68ZM34.1895 46.76C33.8295 46.76 33.5695 46.6733 33.4095 46.5C33.2495 46.34 33.1695 46.0667 33.1695 45.68V40.4H43.2095V46.76H34.1895ZM41.6695 41.62H34.6695V45.26C34.6695 45.3667 34.6895 45.44 34.7295 45.48C34.7695 45.52 34.8495 45.54 34.9695 45.54H41.6695V41.62ZM43.2095 33.68H45.7895V35H43.2095V39.2H41.6695V29.88H43.2095V33.68ZM54.3591 30.62V35.28H48.9191V37.2C48.9191 37.3333 48.9457 37.42 48.9991 37.46C49.0657 37.5 49.1457 37.52 49.2391 37.52H51.6991C52.4191 37.52 53.0524 37.4933 53.5991 37.44C54.1591 37.3733 54.6857 37.2533 55.1791 37.08L55.3391 38.18C54.8857 38.3933 54.3391 38.5467 53.6991 38.64C53.0591 38.72 52.3391 38.76 51.5391 38.76H48.4591C48.1257 38.76 47.8657 38.6733 47.6791 38.5C47.5057 38.3267 47.4191 38.0467 47.4191 37.66V34.08H52.8591V31.84H47.4791V30.62H54.3591ZM60.0591 39.64H58.5391V36.7H55.6791V35.4H58.5391V33.4H55.6791V32.1H58.5391V29.88H60.0591V39.64ZM60.0591 46.96H58.5391V42.1H49.8191V40.84H60.0591V46.96ZM76.0541 47.04C75.2807 47.04 74.6207 46.9733 74.0741 46.84C73.5274 46.72 73.0807 46.5467 72.7341 46.32C72.3874 46.0933 72.1341 45.8267 71.9741 45.52C71.8141 45.2267 71.7341 44.9 71.7341 44.54C71.7341 44.0467 71.8607 43.64 72.1141 43.32C72.3674 42.9867 72.6874 42.7667 73.0741 42.66H70.2741V41.48H81.8341V42.66H79.0341C79.4474 42.8067 79.7741 43.0333 80.0141 43.34C80.2541 43.6467 80.3741 44.0467 80.3741 44.54C80.3741 44.9 80.2941 45.2267 80.1341 45.52C79.9741 45.8267 79.7207 46.0933 79.3741 46.32C79.0274 46.5467 78.5807 46.72 78.0341 46.84C77.4874 46.9733 76.8274 47.04 76.0541 47.04ZM70.9341 31.42V30.16H81.1141V31.42H76.8141C76.8674 31.7267 77.0341 32.02 77.3141 32.3C77.6074 32.58 77.9874 32.8533 78.4541 33.12C78.9207 33.3733 79.4741 33.62 80.1141 33.86C80.7541 34.0867 81.4607 34.3 82.2341 34.5L81.6141 35.66C81.1074 35.5533 80.5807 35.4133 80.0341 35.24C79.4874 35.0667 78.9607 34.8667 78.4541 34.64C77.9474 34.4 77.4807 34.1333 77.0541 33.84C76.6274 33.5333 76.2807 33.2067 76.0141 32.86C75.7741 33.22 75.4541 33.5533 75.0541 33.86C74.6541 34.1533 74.2074 34.42 73.7141 34.66C73.2207 34.9 72.6874 35.1133 72.1141 35.3C71.5407 35.4867 70.9607 35.64 70.3741 35.76L69.6941 34.64C70.4541 34.48 71.1541 34.28 71.7941 34.04C72.4474 33.8 73.0074 33.5333 73.4741 33.24C73.9541 32.9467 74.3341 32.6467 74.6141 32.34C74.9074 32.0333 75.0874 31.7267 75.1541 31.42H70.9341ZM76.8141 35V36.9H83.4541V38.16H68.6341V36.9H75.3141V35H76.8141ZM76.0541 45.96C77.0541 45.96 77.7874 45.82 78.2541 45.54C78.7207 45.2733 78.9541 44.9133 78.9541 44.46C78.9541 43.98 78.7074 43.5933 78.2141 43.3C77.7341 42.9933 77.0141 42.84 76.0541 42.84C75.0941 42.84 74.3674 42.9933 73.8741 43.3C73.3941 43.5933 73.1541 43.98 73.1541 44.46C73.1541 44.9133 73.3874 45.2733 73.8541 45.54C74.3207 45.82 75.0541 45.96 76.0541 45.96ZM79.4741 40.44H72.7541V39.2H79.4741V40.44ZM92.3036 37.02C91.3436 37.02 90.5303 36.9267 89.8636 36.74C89.2103 36.5533 88.6703 36.3 88.2436 35.98C87.8303 35.66 87.5303 35.2933 87.3436 34.88C87.1569 34.4533 87.0636 34.0067 87.0636 33.54C87.0636 33.06 87.1569 32.6067 87.3436 32.18C87.5303 31.7533 87.8303 31.38 88.2436 31.06C88.6703 30.74 89.2103 30.4867 89.8636 30.3C90.5303 30.1133 91.3436 30.02 92.3036 30.02C93.2636 30.02 94.0703 30.1133 94.7236 30.3C95.3903 30.4867 95.9303 30.74 96.3436 31.06C96.7703 31.38 97.0769 31.7533 97.2636 32.18C97.4503 32.6067 97.5436 33.06 97.5436 33.54C97.5436 34.0067 97.4503 34.4533 97.2636 34.88C97.0769 35.2933 96.7703 35.66 96.3436 35.98C95.9303 36.3 95.3903 36.5533 94.7236 36.74C94.0703 36.9267 93.2636 37.02 92.3036 37.02ZM92.3036 35.82C92.9569 35.82 93.5169 35.76 93.9836 35.64C94.4636 35.52 94.8569 35.3533 95.1636 35.14C95.4703 34.9267 95.6903 34.6867 95.8236 34.42C95.9703 34.14 96.0436 33.84 96.0436 33.52C96.0436 33.2 95.9703 32.9067 95.8236 32.64C95.6903 32.36 95.4703 32.1133 95.1636 31.9C94.8569 31.6867 94.4636 31.52 93.9836 31.4C93.5169 31.28 92.9569 31.22 92.3036 31.22C91.6369 31.22 91.0703 31.28 90.6036 31.4C90.1369 31.52 89.7503 31.6867 89.4436 31.9C89.1369 32.1133 88.9103 32.36 88.7636 32.64C88.6303 32.9067 88.5636 33.2 88.5636 33.52C88.5636 33.84 88.6303 34.14 88.7636 34.42C88.9103 34.6867 89.1369 34.9267 89.4436 35.14C89.7503 35.3533 90.1369 35.52 90.6036 35.64C91.0703 35.76 91.6369 35.82 92.3036 35.82ZM99.7236 39.64H84.9036V38.36H99.7236V39.64ZM97.8036 46.66H88.3836C88.0236 46.66 87.7436 46.5667 87.5436 46.38C87.3436 46.2067 87.2436 45.92 87.2436 45.52V41.48H88.7636V45.02C88.7636 45.1667 88.7836 45.26 88.8236 45.3C88.8636 45.3533 88.9569 45.38 89.1036 45.38H97.8036V46.66ZM120.599 39.5H119.139V35H117.259V38.9H115.839V30.1H117.259V33.7H119.139V29.88H120.599V39.5ZM115.439 47.04C113.572 47.04 112.205 46.7533 111.339 46.18C110.472 45.6067 110.039 44.74 110.039 43.58C110.039 42.42 110.472 41.5533 111.339 40.98C112.205 40.4067 113.572 40.12 115.439 40.12C117.305 40.12 118.665 40.4067 119.519 40.98C120.372 41.5533 120.799 42.42 120.799 43.58C120.799 44.74 120.372 45.6067 119.519 46.18C118.665 46.7533 117.305 47.04 115.439 47.04ZM115.439 45.82C116.812 45.82 117.785 45.6267 118.359 45.24C118.945 44.8667 119.239 44.3133 119.239 43.58C119.239 42.8467 118.945 42.2933 118.359 41.92C117.785 41.5333 116.812 41.34 115.439 41.34C114.065 41.34 113.079 41.5333 112.479 41.92C111.892 42.2933 111.599 42.8467 111.599 43.58C111.599 44.3133 111.892 44.8667 112.479 45.24C113.079 45.6267 114.065 45.82 115.439 45.82ZM110.819 35.26C110.712 35.58 110.539 35.92 110.299 36.28C110.072 36.6267 109.799 36.9667 109.479 37.3C109.159 37.6333 108.799 37.9467 108.399 38.24C108.012 38.5333 107.612 38.78 107.199 38.98L106.459 37.84C108.845 36.4667 110.039 34.6667 110.039 32.44V30.36H111.519V32.44C111.519 33.52 111.819 34.48 112.419 35.32C113.019 36.1467 113.905 36.84 115.079 37.4L114.339 38.56C114.019 38.4133 113.685 38.2267 113.339 38C113.005 37.7733 112.679 37.52 112.359 37.24C112.052 36.9467 111.759 36.6333 111.479 36.3C111.212 35.9667 110.992 35.62 110.819 35.26ZM134.248 38.58C133.941 38.7667 133.608 38.92 133.248 39.04C132.901 39.16 132.535 39.2533 132.148 39.32C131.761 39.3867 131.368 39.44 130.968 39.48C130.581 39.5067 130.201 39.52 129.828 39.52H122.988V38.3H127.528V37.12C126.528 37.04 125.801 36.7933 125.348 36.38C124.895 35.9667 124.668 35.4333 124.668 34.78C124.668 34.4467 124.748 34.1533 124.908 33.9C125.068 33.6467 125.281 33.4467 125.548 33.3H123.348V32.1H133.008V33.3H130.908C131.175 33.4467 131.388 33.6467 131.548 33.9C131.708 34.1533 131.788 34.4467 131.788 34.78C131.788 35.42 131.575 35.9467 131.148 36.36C130.721 36.7733 130.015 37.0267 129.028 37.12V38.3H129.628C130.468 38.3 131.275 38.2467 132.048 38.14C132.835 38.0333 133.568 37.8067 134.248 37.46V29.88H135.768V34.28H138.348V35.6H135.768V39.64H134.248V38.58ZM135.768 40.64V44.3H127.088V45.48C127.088 45.5867 127.101 45.6533 127.128 45.68C127.168 45.72 127.235 45.74 127.328 45.74H136.348V46.96H126.608C126.221 46.96 125.955 46.8733 125.808 46.7C125.661 46.5267 125.588 46.26 125.588 45.9V43.1H134.248V41.86H125.648V40.64H135.768ZM128.228 36C129.681 36 130.408 35.5933 130.408 34.78C130.408 33.94 129.681 33.52 128.228 33.52C126.775 33.52 126.048 33.94 126.048 34.78C126.048 35.5933 126.775 36 128.228 36ZM125.468 31.1V29.8H130.728V31.1H125.468ZM143.018 46.76C142.658 46.76 142.398 46.6733 142.238 46.5C142.078 46.34 141.998 46.0667 141.998 45.68V40.4H152.038V46.76H143.018ZM150.498 41.62H143.498V45.26C143.498 45.3667 143.518 45.44 143.558 45.48C143.598 45.52 143.678 45.54 143.798 45.54H150.498V41.62ZM152.038 33.68H154.618V35H152.038V39.2H150.498V29.88H152.038V33.68ZM147.498 30.7V37.96H140.818C140.458 37.96 140.198 37.88 140.038 37.72C139.878 37.56 139.798 37.2667 139.798 36.84V30.7H147.498ZM141.298 36.46C141.298 36.5667 141.311 36.64 141.338 36.68C141.378 36.72 141.451 36.74 141.558 36.74H146.018V31.92H141.298V36.46Z" fill="#FF4646"/>
</svg>
