<svg width="209" height="102" viewBox="0 0 209 102" fill="none" xmlns="http://www.w3.org/2000/svg">
<path d="M18.468 6.44V11.096H21.516C22.348 11.096 22.988 10.904 23.436 10.52C23.9 10.136 24.132 9.552 24.132 8.768C24.132 7.984 23.9 7.4 23.436 7.016C22.988 6.632 22.348 6.44 21.516 6.44H18.468ZM15.3 20V3.872H21.54C23.476 3.872 24.94 4.28 25.932 5.096C26.924 5.896 27.42 7.12 27.42 8.768C27.42 9.776 27.156 10.672 26.628 11.456C26.116 12.224 25.404 12.792 24.492 13.16L28.044 20H24.684L21.396 13.664H18.468V20H15.3ZM33.9836 20H30.8156V3.872H41.0636V6.44H33.9836V10.304H40.5596V12.872H33.9836V20ZM44.0874 3.872H47.2554V20H44.0874V3.872ZM61.9605 17.432V20H51.1125V3.872H61.7205V6.44H54.2805V10.328H61.4565V12.848H54.2805V17.432H61.9605Z" fill="#FF4646"/>
<rect opacity="0.5" x="13.5" y="67" width="26" height="12" fill="#F7FF5E"/>
<path d="M1.5 6V99.5" stroke="#FF4646" stroke-width="3"/>
<path d="M22.3 32.68C22.3 33.4667 22.1667 34.1533 21.9 34.74C21.6333 35.3133 21.2133 35.8533 20.64 36.36C20.0667 36.8533 19.32 37.3333 18.4 37.8C17.4933 38.2667 16.4 38.7733 15.12 39.32L14.48 38.08C15.5333 37.64 16.4533 37.22 17.24 36.82C18.0267 36.42 18.68 36.02 19.2 35.62C19.7333 35.2067 20.1267 34.7867 20.38 34.36C20.6467 33.92 20.78 33.4467 20.78 32.94V32.06H15.12V30.8H22.3V32.68ZM17.92 46.76C17.56 46.76 17.3 46.6733 17.14 46.5C16.98 46.34 16.9 46.0667 16.9 45.68V40.4H26.94V46.76H17.92ZM25.4 41.62H18.4V45.26C18.4 45.3667 18.42 45.44 18.46 45.48C18.5 45.52 18.58 45.54 18.7 45.54H25.4V41.62ZM26.94 33.68H29.52V35H26.94V39.2H25.4V29.88H26.94V33.68ZM43.2095 33.88H45.7895V35.2H43.2095V39.42H41.6695V29.88H43.2095V33.88ZM43.2095 46.96H41.6895V41.88H32.9695V40.62H43.2095V46.96ZM38.5695 32.68C38.5695 33.4667 38.4362 34.1533 38.1695 34.74C37.9029 35.3133 37.4829 35.8533 36.9095 36.36C36.3362 36.8533 35.5895 37.3333 34.6695 37.8C33.7629 38.2667 32.6695 38.7733 31.3895 39.32L30.7495 38.08C31.8029 37.64 32.7229 37.22 33.5095 36.82C34.2962 36.42 34.9495 36.02 35.4695 35.62C36.0029 35.2067 36.3962 34.7867 36.6495 34.36C36.9162 33.92 37.0495 33.4467 37.0495 32.94V32.06H31.3895V30.8H38.5695V32.68ZM51.4991 35.44C51.3391 35.8267 51.1191 36.2067 50.8391 36.58C50.5591 36.94 50.2391 37.28 49.8791 37.6C49.5191 37.92 49.1324 38.2133 48.7191 38.48C48.3191 38.7333 47.9191 38.96 47.5191 39.16L46.7191 38.02C48.0124 37.34 48.9991 36.5533 49.6791 35.66C50.3591 34.7667 50.6991 33.8133 50.6991 32.8V31.94H47.3591V30.7H55.6991V31.94H52.2991V32.8C52.2991 33.68 52.6124 34.56 53.2391 35.44C53.8657 36.3067 54.8791 37.1 56.2791 37.82L55.4791 38.96C55.1057 38.7867 54.7257 38.5733 54.3391 38.32C53.9524 38.0667 53.5791 37.7933 53.2191 37.5C52.8591 37.1933 52.5324 36.8667 52.2391 36.52C51.9457 36.1733 51.6991 35.8133 51.4991 35.44ZM60.0591 46.96H58.5391V41.88H49.8191V40.62H60.0591V46.96ZM55.1991 33.68H58.5391V29.88H60.0591V39.42H58.5391V34.98H55.1991V33.68ZM67.3886 46.66C66.6553 46.66 66.2886 46.3067 66.2886 45.6V40.66H67.7886V45.02C67.7886 45.1933 67.8086 45.2933 67.8486 45.32C67.8886 45.36 67.9886 45.38 68.1486 45.38H76.7286V46.66H67.3886ZM74.8086 29.88H76.3286V41.66H74.8086V29.88ZM67.7086 38.66C66.9486 38.66 66.3019 38.5467 65.7686 38.32C65.2353 38.08 64.8019 37.7667 64.4686 37.38C64.1353 36.98 63.8886 36.5333 63.7286 36.04C63.5819 35.5333 63.5086 35.0133 63.5086 34.48C63.5086 33.9467 63.5819 33.4333 63.7286 32.94C63.8886 32.4333 64.1353 31.9867 64.4686 31.6C64.8019 31.2 65.2353 30.88 65.7686 30.64C66.3019 30.4 66.9486 30.28 67.7086 30.28C68.4686 30.28 69.1153 30.4 69.6486 30.64C70.1819 30.88 70.6153 31.2 70.9486 31.6C71.2819 31.9867 71.5219 32.4333 71.6686 32.94C71.8286 33.4333 71.9086 33.9467 71.9086 34.48C71.9086 35.0133 71.8286 35.5333 71.6686 36.04C71.5219 36.5333 71.2819 36.98 70.9486 37.38C70.6153 37.7667 70.1819 38.08 69.6486 38.32C69.1153 38.5467 68.4686 38.66 67.7086 38.66ZM67.7086 37.46C68.5486 37.46 69.2086 37.2067 69.6886 36.7C70.1686 36.1933 70.4086 35.4533 70.4086 34.48C70.4086 33.5467 70.1686 32.8133 69.6886 32.28C69.2086 31.7467 68.5486 31.48 67.7086 31.48C66.8686 31.48 66.2086 31.7467 65.7286 32.28C65.2486 32.8133 65.0086 33.5467 65.0086 34.48C65.0086 35.4533 65.2486 36.1933 65.7286 36.7C66.2086 37.2067 66.8686 37.46 67.7086 37.46ZM98.2036 39.44V43.68H89.6636V45.46C89.6636 45.5667 89.6769 45.6333 89.7036 45.66C89.7436 45.7 89.8103 45.72 89.9036 45.72H98.7836V46.96H89.1836C88.7969 46.96 88.5303 46.8733 88.3836 46.7C88.2369 46.5267 88.1636 46.26 88.1636 45.9V42.46H96.6836V40.66H88.2236V39.44H98.2036ZM96.6836 29.88H98.2036V38.24H96.6836V29.88ZM90.0436 34.52C89.9103 34.92 89.7036 35.3 89.4236 35.66C89.1569 36.02 88.8436 36.3667 88.4836 36.7C88.1236 37.0333 87.7236 37.3467 87.2836 37.64C86.8436 37.92 86.3969 38.1867 85.9436 38.44L85.1836 37.3C87.8903 35.86 89.2436 34.12 89.2436 32.08V30.14H90.8436V32.08C90.8436 32.56 90.9169 33.0133 91.0636 33.44C91.2236 33.8667 91.4636 34.28 91.7836 34.68C92.1169 35.0667 92.5303 35.4467 93.0236 35.82C93.5303 36.1933 94.1303 36.5733 94.8236 36.96L94.0236 38.08C93.6236 37.8667 93.2236 37.6267 92.8236 37.36C92.4236 37.0933 92.0436 36.8133 91.6836 36.52C91.3236 36.2133 90.9969 35.8933 90.7036 35.56C90.4236 35.2267 90.2036 34.88 90.0436 34.52ZM105.913 35.64C105.753 36.0267 105.533 36.4067 105.253 36.78C104.973 37.14 104.653 37.48 104.293 37.8C103.933 38.12 103.546 38.4133 103.133 38.68C102.733 38.9333 102.333 39.16 101.933 39.36L101.133 38.22C102.426 37.54 103.413 36.7533 104.093 35.86C104.773 34.9667 105.113 34.0133 105.113 33V32.1H101.773V30.84H110.113V32.1H106.713V33C106.713 33.88 107.026 34.76 107.653 35.64C108.28 36.5067 109.293 37.3 110.693 38.02L109.893 39.16C109.52 38.9867 109.14 38.7733 108.753 38.52C108.366 38.2667 107.993 37.9933 107.633 37.7C107.273 37.3933 106.946 37.0667 106.653 36.72C106.36 36.3733 106.113 36.0133 105.913 35.64ZM109.613 33.88H112.953V29.88H114.473V41.96H112.953V35.18H109.613V33.88ZM105.533 46.66C104.8 46.66 104.433 46.3067 104.433 45.6V40.86H105.933V45.02C105.933 45.1933 105.953 45.2933 105.993 45.32C106.033 45.36 106.133 45.38 106.293 45.38H114.873V46.66H105.533ZM121.143 46.76C120.783 46.76 120.523 46.6733 120.363 46.5C120.203 46.34 120.123 46.0667 120.123 45.68V40.4H130.163V46.76H121.143ZM128.623 41.62H121.623V45.26C121.623 45.3667 121.643 45.44 121.683 45.48C121.723 45.52 121.803 45.54 121.923 45.54H128.623V41.62ZM130.163 33.68H132.743V35H130.163V39.2H128.623V29.88H130.163V33.68ZM125.623 30.7V37.96H118.943C118.583 37.96 118.323 37.88 118.163 37.72C118.003 37.56 117.923 37.2667 117.923 36.84V30.7H125.623ZM119.423 36.46C119.423 36.5667 119.436 36.64 119.463 36.68C119.503 36.72 119.576 36.74 119.683 36.74H124.143V31.92H119.423V36.46Z" fill="#FF4646"/>
<path d="M16.125 74.61H23.4V79.26H16.74C16.51 79.26 16.35 79.2 16.26 79.08C16.17 78.97 16.125 78.8 16.125 78.57V74.61ZM22.635 78.615V75.24H16.89V78.405C16.89 78.505 16.9 78.565 16.92 78.585C16.95 78.605 17.01 78.615 17.1 78.615H22.635ZM20.025 68.805C20.025 69.355 19.91 69.845 19.68 70.275C19.45 70.695 19.11 71.09 18.66 71.46C18.21 71.82 17.645 72.17 16.965 72.51C16.295 72.84 15.515 73.19 14.625 73.56L14.31 72.945C15.15 72.615 15.875 72.295 16.485 71.985C17.105 71.675 17.62 71.365 18.03 71.055C18.44 70.735 18.745 70.41 18.945 70.08C19.145 69.74 19.245 69.38 19.245 69V68.07H14.79V67.41H20.025V68.805ZM25.425 70.32H23.4V73.65H22.62V66.72H23.4V69.63H25.425V70.32ZM32.1246 68.805C32.1246 69.355 32.0096 69.845 31.7796 70.275C31.5496 70.695 31.2096 71.09 30.7596 71.46C30.3096 71.82 29.7446 72.17 29.0646 72.51C28.3946 72.84 27.6146 73.19 26.7246 73.56L26.4096 72.945C27.2496 72.615 27.9746 72.295 28.5846 71.985C29.2046 71.675 29.7196 71.365 30.1296 71.055C30.5396 70.735 30.8446 70.41 31.0446 70.08C31.2446 69.74 31.3446 69.38 31.3446 69V68.07H26.8896V67.41H32.1246V68.805ZM35.4996 79.41H34.7196V75.45H28.0746V74.79H35.4996V79.41ZM37.5246 70.47H35.4996V73.815H34.7196V66.72H35.4996V69.78H37.5246V70.47ZM47.2692 66.72H48.0492V79.245H47.2692V66.72ZM41.8092 68.01C41.0792 68.01 40.5292 68.3 40.1592 68.88C39.7992 69.45 39.6192 70.39 39.6192 71.7C39.6192 73.01 39.7992 73.955 40.1592 74.535C40.5292 75.105 41.0792 75.39 41.8092 75.39C42.5392 75.39 43.0842 75.105 43.4442 74.535C43.8142 73.955 43.9992 73.01 43.9992 71.7C43.9992 70.39 43.8142 69.45 43.4442 68.88C43.0842 68.3 42.5392 68.01 41.8092 68.01ZM41.8092 76.065C40.8492 76.065 40.1092 75.725 39.5892 75.045C39.0792 74.355 38.8242 73.24 38.8242 71.7C38.8242 70.16 39.0792 69.05 39.5892 68.37C40.1092 67.68 40.8492 67.335 41.8092 67.335C42.7692 67.335 43.5042 67.68 44.0142 68.37C44.5342 69.05 44.7942 70.16 44.7942 71.7C44.7942 73.24 44.5342 74.355 44.0142 75.045C43.5042 75.725 42.7692 76.065 41.8092 76.065ZM58.0079 75.45H55.5029C55.2729 75.45 55.1129 75.395 55.0229 75.285C54.9329 75.165 54.8879 74.99 54.8879 74.76V67.41H55.6079V70.65H57.2879V67.41H58.0079V75.45ZM58.9679 67.41H59.6879V70.65H61.3079V67.41H62.0279V75.45H59.5829C59.3529 75.45 59.1929 75.395 59.1029 75.285C59.0129 75.165 58.9679 74.99 58.9679 74.76V67.41ZM65.9279 71.775H64.0529V79.26H63.2729V66.72H64.0529V71.07H65.9279V71.775ZM57.2879 74.79V71.31H55.6079V74.58C55.6079 74.68 55.6179 74.74 55.6379 74.76C55.6679 74.78 55.7279 74.79 55.8179 74.79H57.2879ZM61.3079 74.79V71.31H59.6879V74.58C59.6879 74.68 59.6979 74.74 59.7179 74.76C59.7479 74.78 59.8079 74.79 59.8979 74.79H61.3079ZM76.1525 73.065V73.74H69.1475C68.9175 73.74 68.7575 73.685 68.6675 73.575C68.5775 73.455 68.5325 73.28 68.5325 73.05V70.2H75.0875V68.1H68.5775V67.41H75.8525V70.845H69.2975V72.855C69.2975 72.955 69.3075 73.015 69.3275 73.035C69.3575 73.055 69.4175 73.065 69.5075 73.065H76.1525ZM77.6975 76.155V76.83H66.7025V76.155H77.6975ZM83.9171 76.155H89.7971V76.83H78.8171V76.155H83.1521V71.97H83.9171V76.155ZM88.0421 67.56V70.38C88.0421 70.95 87.9921 71.57 87.8921 72.24C87.7921 72.9 87.6121 73.52 87.3521 74.1L86.6471 73.95C86.8371 73.47 86.9871 72.945 87.0971 72.375C87.2071 71.805 87.2621 71.235 87.2621 70.665V68.235H80.5571V67.56H88.0421ZM19.215 89.475H19.98V91.47H25.095V92.145H14.1V91.47H19.215V89.475ZM16.665 96.285C16.665 96.385 16.675 96.445 16.695 96.465C16.725 96.485 16.785 96.495 16.875 96.495H23.595V97.185H16.515C16.285 97.185 16.125 97.125 16.035 97.005C15.945 96.895 15.9 96.725 15.9 96.495V93.51H16.665V96.285ZM19.59 86.955C19.48 87.195 19.305 87.445 19.065 87.705C18.825 87.965 18.525 88.22 18.165 88.47C17.805 88.72 17.385 88.955 16.905 89.175C16.425 89.385 15.895 89.565 15.315 89.715L14.985 89.13C15.625 88.95 16.2 88.735 16.71 88.485C17.23 88.235 17.675 87.96 18.045 87.66C18.415 87.36 18.7 87.04 18.9 86.7C19.1 86.36 19.2 86.01 19.2 85.65V84.885H19.98V85.65C19.98 86.02 20.08 86.375 20.28 86.715C20.48 87.045 20.76 87.35 21.12 87.63C21.48 87.91 21.915 88.165 22.425 88.395C22.935 88.625 23.5 88.82 24.12 88.98L23.85 89.565C22.68 89.275 21.73 88.895 21 88.425C20.27 87.945 19.8 87.455 19.59 86.955ZM35.1696 84.72H35.9496V97.245H35.1696V84.72ZM29.7096 86.01C28.9796 86.01 28.4296 86.3 28.0596 86.88C27.6996 87.45 27.5196 88.39 27.5196 89.7C27.5196 91.01 27.6996 91.955 28.0596 92.535C28.4296 93.105 28.9796 93.39 29.7096 93.39C30.4396 93.39 30.9846 93.105 31.3446 92.535C31.7146 91.955 31.8996 91.01 31.8996 89.7C31.8996 88.39 31.7146 87.45 31.3446 86.88C30.9846 86.3 30.4396 86.01 29.7096 86.01ZM29.7096 94.065C28.7496 94.065 28.0096 93.725 27.4896 93.045C26.9796 92.355 26.7246 91.24 26.7246 89.7C26.7246 88.16 26.9796 87.05 27.4896 86.37C28.0096 85.68 28.7496 85.335 29.7096 85.335C30.6696 85.335 31.4046 85.68 31.9146 86.37C32.4346 87.05 32.6946 88.16 32.6946 89.7C32.6946 91.24 32.4346 92.355 31.9146 93.045C31.4046 93.725 30.6696 94.065 29.7096 94.065ZM45.9083 93.45H43.4033C43.1733 93.45 43.0133 93.395 42.9233 93.285C42.8333 93.165 42.7883 92.99 42.7883 92.76V85.41H43.5083V88.65H45.1883V85.41H45.9083V93.45ZM46.8683 85.41H47.5883V88.65H49.2083V85.41H49.9283V93.45H47.4833C47.2533 93.45 47.0933 93.395 47.0033 93.285C46.9133 93.165 46.8683 92.99 46.8683 92.76V85.41ZM53.8283 89.775H51.9533V97.26H51.1733V84.72H51.9533V89.07H53.8283V89.775ZM45.1883 92.79V89.31H43.5083V92.58C43.5083 92.68 43.5183 92.74 43.5383 92.76C43.5683 92.78 43.6283 92.79 43.7183 92.79H45.1883ZM49.2083 92.79V89.31H47.5883V92.58C47.5883 92.68 47.5983 92.74 47.6183 92.76C47.6483 92.78 47.7083 92.79 47.7983 92.79H49.2083ZM64.0529 89.67V90.345H57.0479C56.8179 90.345 56.6579 90.29 56.5679 90.18C56.4779 90.06 56.4329 89.885 56.4329 89.655V87.255H62.9879V85.65H56.4779V84.96H63.7529V87.9H57.1979V89.46C57.1979 89.56 57.2079 89.62 57.2279 89.64C57.2579 89.66 57.3179 89.67 57.4079 89.67H64.0529ZM65.5979 92.52H54.6029V91.845H65.5979V92.52ZM57.1679 96.285C57.1679 96.385 57.1779 96.445 57.1979 96.465C57.2279 96.485 57.2879 96.495 57.3779 96.495H64.0979V97.185H57.0179C56.7879 97.185 56.6279 97.125 56.5379 97.005C56.4479 96.895 56.4029 96.725 56.4029 96.495V93.795H57.1679V96.285ZM79.8766 84.72H80.6566V90.93H79.8766V84.72ZM74.7316 87.675C74.6416 87.965 74.5016 88.26 74.3116 88.56C74.1316 88.85 73.9066 89.14 73.6366 89.43C73.3666 89.71 73.0566 89.98 72.7066 90.24C72.3566 90.5 71.9716 90.74 71.5516 90.96L71.1766 90.45C71.6566 90.19 72.0866 89.91 72.4666 89.61C72.8566 89.3 73.1916 88.965 73.4716 88.605C73.7516 88.245 73.9666 87.86 74.1166 87.45C74.2666 87.03 74.3416 86.58 74.3416 86.1V84.915H75.1216V86.1C75.1216 86.99 75.3816 87.76 75.9016 88.41C76.4316 89.06 77.1716 89.645 78.1216 90.165L77.7616 90.66C76.9916 90.26 76.3466 89.805 75.8266 89.295C75.3066 88.785 74.9416 88.245 74.7316 87.675ZM73.9966 97.41C73.7666 97.41 73.6066 97.355 73.5166 97.245C73.4266 97.145 73.3816 96.98 73.3816 96.75V94.185H79.8916V92.535H73.4266V91.875H80.6566V94.83H74.1466V96.555C74.1466 96.675 74.2016 96.735 74.3116 96.735H81.1066V97.41H73.9966ZM86.5613 88.29C86.4013 88.88 86.0563 89.48 85.5263 90.09C84.9963 90.69 84.3063 91.21 83.4563 91.65L83.0363 91.05C83.9963 90.53 84.7513 89.9 85.3013 89.16C85.8613 88.41 86.1413 87.565 86.1413 86.625V86.1H83.4113V85.44H89.5313V86.1H86.9213V86.625C86.9213 87.095 87.0063 87.54 87.1763 87.96C87.3463 88.37 87.5713 88.76 87.8513 89.13C88.1313 89.49 88.4513 89.82 88.8113 90.12C89.1813 90.42 89.5663 90.685 89.9663 90.915L89.5763 91.5C88.8363 91.09 88.2013 90.61 87.6713 90.06C87.1513 89.5 86.7813 88.91 86.5613 88.29ZM92.7563 93.645H91.9763V88.47H89.2913V87.765H91.9763V84.72H92.7563V93.645ZM86.2463 96.285C86.2463 96.385 86.2563 96.445 86.2763 96.465C86.3063 96.485 86.3663 96.495 86.4563 96.495H93.0563V97.185H86.0963C85.8663 97.185 85.7063 97.125 85.6163 97.005C85.5263 96.895 85.4813 96.725 85.4813 96.495V92.925H86.2463V96.285ZM101.241 97.47C100.531 97.47 99.9359 97.405 99.4559 97.275C98.9759 97.145 98.5859 96.97 98.2859 96.75C97.9959 96.54 97.7859 96.29 97.6559 96C97.5259 95.7 97.4609 95.385 97.4609 95.055C97.4609 94.725 97.5259 94.415 97.6559 94.125C97.7859 93.825 97.9959 93.565 98.2859 93.345C98.5859 93.125 98.9759 92.95 99.4559 92.82C99.9359 92.69 100.531 92.625 101.241 92.625C101.941 92.625 102.531 92.69 103.011 92.82C103.501 92.95 103.891 93.125 104.181 93.345C104.481 93.565 104.696 93.825 104.826 94.125C104.956 94.415 105.021 94.725 105.021 95.055C105.021 95.385 104.956 95.7 104.826 96C104.696 96.29 104.481 96.54 104.181 96.75C103.891 96.97 103.501 97.145 103.011 97.275C102.531 97.405 101.941 97.47 101.241 97.47ZM98.5709 91.77C97.7809 91.77 97.1559 91.56 96.6959 91.14C96.2359 90.72 96.0059 90.15 96.0059 89.43C96.0059 89.04 96.0859 88.665 96.2459 88.305C96.4159 87.945 96.6509 87.685 96.9509 87.525H95.0309V86.865H102.036V87.525H100.221C100.521 87.685 100.751 87.945 100.911 88.305C101.081 88.665 101.166 89.04 101.166 89.43C101.166 90.15 100.936 90.72 100.476 91.14C100.016 91.56 99.3809 91.77 98.5709 91.77ZM101.241 96.795C102.241 96.795 102.991 96.655 103.491 96.375C104.001 96.095 104.256 95.655 104.256 95.055C104.256 94.455 104.001 94.015 103.491 93.735C102.991 93.445 102.241 93.3 101.241 93.3C100.241 93.3 99.4859 93.445 98.9759 93.735C98.4759 94.015 98.2259 94.455 98.2259 95.055C98.2259 95.655 98.4759 96.095 98.9759 96.375C99.4859 96.655 100.241 96.795 101.241 96.795ZM98.5859 87.63C98.2559 87.63 97.9759 87.685 97.7459 87.795C97.5159 87.895 97.3259 88.03 97.1759 88.2C97.0359 88.36 96.9359 88.55 96.8759 88.77C96.8159 88.99 96.7859 89.21 96.7859 89.43C96.7859 89.97 96.9359 90.385 97.2359 90.675C97.5359 90.955 97.9859 91.095 98.5859 91.095C99.1859 91.095 99.6359 90.955 99.9359 90.675C100.236 90.385 100.386 89.97 100.386 89.43C100.386 89.21 100.356 88.99 100.296 88.77C100.236 88.55 100.131 88.36 99.9809 88.2C99.8409 88.03 99.6559 87.895 99.4259 87.795C99.1959 87.685 98.9159 87.63 98.5859 87.63ZM104.856 92.175H104.076V90.735H102.126V90.03H104.076V88.41H102.351V87.705H104.076V84.72H104.856V92.175ZM100.386 85.425H96.7859V84.72H100.386V85.425ZM114.74 90.96C114.18 90.96 113.705 90.885 113.315 90.735C112.935 90.585 112.62 90.38 112.37 90.12C112.12 89.85 111.94 89.535 111.83 89.175C111.72 88.805 111.665 88.41 111.665 87.99C111.665 87.57 111.72 87.18 111.83 86.82C111.94 86.45 112.12 86.135 112.37 85.875C112.62 85.605 112.935 85.395 113.315 85.245C113.705 85.095 114.18 85.02 114.74 85.02C115.22 85.02 115.64 85.08 116 85.2C116.36 85.31 116.66 85.47 116.9 85.68C117.15 85.89 117.345 86.14 117.485 86.43C117.625 86.72 117.72 87.035 117.77 87.375H120.38V84.72H121.16V91.65H120.38V88.08H117.815C117.805 88.49 117.74 88.875 117.62 89.235C117.51 89.585 117.33 89.89 117.08 90.15C116.83 90.4 116.51 90.6 116.12 90.75C115.74 90.89 115.28 90.96 114.74 90.96ZM121.16 97.26H114.35C114.12 97.26 113.96 97.2 113.87 97.08C113.78 96.97 113.735 96.8 113.735 96.57V92.61H121.16V97.26ZM120.395 96.615V93.24H114.5V96.405C114.5 96.505 114.51 96.565 114.53 96.585C114.56 96.605 114.62 96.615 114.71 96.615H120.395ZM114.74 90.285C115.44 90.285 115.995 90.1 116.405 89.73C116.825 89.35 117.035 88.77 117.035 87.99C117.035 87.21 116.825 86.635 116.405 86.265C115.995 85.885 115.44 85.695 114.74 85.695C114.04 85.695 113.48 85.885 113.06 86.265C112.65 86.635 112.445 87.21 112.445 87.99C112.445 88.77 112.65 89.35 113.06 89.73C113.48 90.1 114.04 90.285 114.74 90.285ZM134.834 89.73H132.809V97.26H132.029V84.72H132.809V89.025H134.834V89.73ZM129.449 93.735H124.589C124.359 93.735 124.199 93.68 124.109 93.57C124.019 93.45 123.974 93.275 123.974 93.045V85.56H129.449V93.735ZM128.669 93.06V86.235H124.739V92.85C124.739 92.95 124.749 93.01 124.769 93.03C124.799 93.05 124.859 93.06 124.949 93.06H128.669Z" fill="#282828"/>
</svg>
