<svg width="209" height="102" viewBox="0 0 209 102" fill="none" xmlns="http://www.w3.org/2000/svg">
<path d="M18.468 6.44V11.096H21.516C22.348 11.096 22.988 10.904 23.436 10.52C23.9 10.136 24.132 9.552 24.132 8.768C24.132 7.984 23.9 7.4 23.436 7.016C22.988 6.632 22.348 6.44 21.516 6.44H18.468ZM15.3 20V3.872H21.54C23.476 3.872 24.94 4.28 25.932 5.096C26.924 5.896 27.42 7.12 27.42 8.768C27.42 9.776 27.156 10.672 26.628 11.456C26.116 12.224 25.404 12.792 24.492 13.16L28.044 20H24.684L21.396 13.664H18.468V20H15.3ZM33.9836 20H30.8156V3.872H41.0636V6.44H33.9836V10.304H40.5596V12.872H33.9836V20ZM44.0874 3.872H47.2554V20H44.0874V3.872ZM58.2405 20L54.8805 11.936L54.2565 10.304H54.2325L54.2805 11.984V20H51.1125V3.872H54.5925L59.0565 14.864L59.6325 16.376H59.6805L60.2565 14.864L64.7205 3.872H68.1765V20H65.0085V11.984L65.0565 10.304H65.0325L64.4325 11.936L61.0725 20H58.2405Z" fill="#FF4646"/>
<rect opacity="0.5" x="13.5" y="85" width="105" height="12" fill="#F7FF5E"/>
<path d="M1.5 6V99.5" stroke="#FF4646" stroke-width="3"/>
<path d="M23.4 71.88V79.26H22.62V66.72H23.4V71.25H25.425V71.88H23.4ZM17.295 68.01C16.565 68.01 16.005 68.3 15.615 68.88C15.225 69.45 15.03 70.39 15.03 71.7C15.03 73.01 15.225 73.955 15.615 74.535C16.005 75.105 16.565 75.39 17.295 75.39C18.025 75.39 18.585 75.105 18.975 74.535C19.365 73.955 19.56 73.01 19.56 71.7C19.56 70.39 19.365 69.45 18.975 68.88C18.585 68.3 18.025 68.01 17.295 68.01ZM17.295 76.065C16.815 76.065 16.385 75.985 16.005 75.825C15.625 75.655 15.305 75.395 15.045 75.045C14.785 74.685 14.585 74.23 14.445 73.68C14.305 73.13 14.235 72.47 14.235 71.7C14.235 70.93 14.305 70.27 14.445 69.72C14.585 69.17 14.785 68.72 15.045 68.37C15.305 68.01 15.625 67.75 16.005 67.59C16.385 67.42 16.815 67.335 17.295 67.335C17.775 67.335 18.205 67.42 18.585 67.59C18.965 67.75 19.285 68.01 19.545 68.37C19.805 68.72 20.005 69.17 20.145 69.72C20.285 70.27 20.355 70.93 20.355 71.7C20.355 72.47 20.285 73.13 20.145 73.68C20.005 74.23 19.805 74.685 19.545 75.045C19.285 75.395 18.965 75.655 18.585 75.825C18.205 75.985 17.775 76.065 17.295 76.065ZM35.1696 66.72H35.9496V79.245H35.1696V66.72ZM29.7096 68.01C28.9796 68.01 28.4296 68.3 28.0596 68.88C27.6996 69.45 27.5196 70.39 27.5196 71.7C27.5196 73.01 27.6996 73.955 28.0596 74.535C28.4296 75.105 28.9796 75.39 29.7096 75.39C30.4396 75.39 30.9846 75.105 31.3446 74.535C31.7146 73.955 31.8996 73.01 31.8996 71.7C31.8996 70.39 31.7146 69.45 31.3446 68.88C30.9846 68.3 30.4396 68.01 29.7096 68.01ZM29.7096 76.065C28.7496 76.065 28.0096 75.725 27.4896 75.045C26.9796 74.355 26.7246 73.24 26.7246 71.7C26.7246 70.16 26.9796 69.05 27.4896 68.37C28.0096 67.68 28.7496 67.335 29.7096 67.335C30.6696 67.335 31.4046 67.68 31.9146 68.37C32.4346 69.05 32.6946 70.16 32.6946 71.7C32.6946 73.24 32.4346 74.355 31.9146 75.045C31.4046 75.725 30.6696 76.065 29.7096 76.065ZM42.3642 73.17C41.8242 73.17 41.3642 73.095 40.9842 72.945C40.6042 72.785 40.2892 72.57 40.0392 72.3C39.7992 72.02 39.6192 71.695 39.4992 71.325C39.3892 70.955 39.3342 70.55 39.3342 70.11C39.3342 69.68 39.3892 69.28 39.4992 68.91C39.6192 68.53 39.7992 68.205 40.0392 67.935C40.2892 67.655 40.6042 67.44 40.9842 67.29C41.3642 67.13 41.8242 67.05 42.3642 67.05C42.9042 67.05 43.3642 67.13 43.7442 67.29C44.1242 67.44 44.4342 67.655 44.6742 67.935C44.9242 68.205 45.1042 68.53 45.2142 68.91C45.3342 69.28 45.3942 69.68 45.3942 70.11C45.3942 70.55 45.3342 70.955 45.2142 71.325C45.1042 71.695 44.9242 72.02 44.6742 72.3C44.4342 72.57 44.1242 72.785 43.7442 72.945C43.3642 73.095 42.9042 73.17 42.3642 73.17ZM42.3642 72.555C43.1042 72.555 43.6642 72.35 44.0442 71.94C44.4242 71.52 44.6142 70.91 44.6142 70.11C44.6142 69.31 44.4242 68.705 44.0442 68.295C43.6642 67.875 43.1042 67.665 42.3642 67.665C41.6242 67.665 41.0642 67.875 40.6842 68.295C40.3042 68.705 40.1142 69.31 40.1142 70.11C40.1142 70.91 40.3042 71.52 40.6842 71.94C41.0642 72.35 41.6242 72.555 42.3642 72.555ZM44.0742 75.39C44.7142 75.39 45.3442 75.345 45.9642 75.255C46.5842 75.155 47.1192 75.005 47.5692 74.805V66.72H48.3492V79.26H47.5692V75.405C47.0792 75.655 46.5292 75.83 45.9192 75.93C45.3092 76.02 44.7242 76.065 44.1642 76.065H38.4492V75.39H44.0742ZM65.5979 76.155V76.83H54.6029V76.155H65.5979ZM57.9179 66.945H62.2529V67.68H57.9179V66.945ZM60.0929 74.385C58.9429 74.385 58.0929 74.16 57.5429 73.71C56.9929 73.26 56.7179 72.655 56.7179 71.895C56.7179 71.355 56.8429 70.91 57.0929 70.56C57.3529 70.21 57.6679 69.96 58.0379 69.81H55.5629V69.12H64.6229V69.81H62.1479C62.5179 69.96 62.8279 70.21 63.0779 70.56C63.3379 70.91 63.4679 71.355 63.4679 71.895C63.4679 72.655 63.1929 73.26 62.6429 73.71C62.0929 74.16 61.2429 74.385 60.0929 74.385ZM60.0929 69.9C59.3029 69.9 58.6729 70.07 58.2029 70.41C57.7329 70.74 57.4979 71.235 57.4979 71.895C57.4979 72.475 57.7079 72.925 58.1279 73.245C58.5579 73.555 59.2129 73.71 60.0929 73.71C60.9729 73.71 61.6229 73.555 62.0429 73.245C62.4729 72.925 62.6879 72.475 62.6879 71.895C62.6879 71.235 62.4529 70.74 61.9829 70.41C61.5129 70.07 60.8829 69.9 60.0929 69.9ZM75.9725 79.26H69.0425C68.8125 79.26 68.6525 79.2 68.5625 79.08C68.4725 78.97 68.4275 78.8 68.4275 78.57V75.345H75.9725V79.26ZM76.1525 71.835H69.1475C68.9175 71.835 68.7575 71.78 68.6675 71.67C68.5775 71.55 68.5325 71.375 68.5325 71.145V69.015H75.0875V67.59H68.5775V66.9H75.8525V69.66H69.2975V70.95C69.2975 71.05 69.3075 71.11 69.3275 71.13C69.3575 71.15 69.4175 71.16 69.5075 71.16H76.1525V71.835ZM75.1925 78.615V75.99H69.1925V78.405C69.1925 78.505 69.2025 78.565 69.2225 78.585C69.2525 78.605 69.3125 78.615 69.4025 78.615H75.1925ZM77.6975 73.83H66.7025V73.155H77.6975V73.83ZM79.0121 71.655C79.0121 70.885 79.0671 70.225 79.1771 69.675C79.2971 69.125 79.4721 68.68 79.7021 68.34C79.9321 67.99 80.2121 67.735 80.5421 67.575C80.8821 67.415 81.2721 67.335 81.7121 67.335C82.5021 67.335 83.1221 67.615 83.5721 68.175C84.0221 68.735 84.2821 69.655 84.3521 70.935H86.1371V66.885H86.8871V78.84H86.1371V71.625H84.3821C84.3821 72.405 84.3221 73.07 84.2021 73.62C84.0921 74.17 83.9221 74.62 83.6921 74.97C83.4721 75.32 83.1921 75.575 82.8521 75.735C82.5221 75.895 82.1421 75.975 81.7121 75.975C81.2721 75.975 80.8821 75.895 80.5421 75.735C80.2121 75.575 79.9321 75.325 79.7021 74.985C79.4721 74.635 79.2971 74.185 79.1771 73.635C79.0671 73.085 79.0121 72.425 79.0121 71.655ZM79.7621 71.655C79.7621 72.345 79.8071 72.925 79.8971 73.395C79.9871 73.865 80.1121 74.245 80.2721 74.535C80.4421 74.815 80.6471 75.015 80.8871 75.135C81.1271 75.255 81.3971 75.315 81.6971 75.315C81.9971 75.315 82.2671 75.255 82.5071 75.135C82.7571 75.015 82.9621 74.815 83.1221 74.535C83.2921 74.245 83.4221 73.865 83.5121 73.395C83.6021 72.925 83.6471 72.345 83.6471 71.655C83.6471 70.965 83.6021 70.385 83.5121 69.915C83.4221 69.445 83.2921 69.07 83.1221 68.79C82.9621 68.5 82.7571 68.295 82.5071 68.175C82.2671 68.055 81.9971 67.995 81.6971 67.995C81.3971 67.995 81.1271 68.055 80.8871 68.175C80.6471 68.295 80.4421 68.5 80.2721 68.79C80.1121 69.07 79.9871 69.445 79.8971 69.915C79.8071 70.385 79.7621 70.965 79.7621 71.655ZM88.9271 79.26H88.1771V66.72H88.9271V79.26ZM23.85 91.5H23.07V84.72H23.85V91.5ZM20.295 86.985C20.295 87.535 20.18 88.025 19.95 88.455C19.72 88.875 19.38 89.27 18.93 89.64C18.48 90 17.915 90.35 17.235 90.69C16.565 91.02 15.785 91.37 14.895 91.74L14.58 91.125C15.42 90.795 16.145 90.475 16.755 90.165C17.375 89.855 17.89 89.545 18.3 89.235C18.71 88.915 19.015 88.59 19.215 88.26C19.415 87.92 19.515 87.56 19.515 87.18V86.07H15.06V85.41H20.295V86.985ZM24.015 93.105H22.5V96.63H24.165V97.26H16.14V96.63H17.895V93.105H16.29V92.46H24.015V93.105ZM18.66 96.63H21.72V93.105H18.66V96.63ZM31.0296 88.53C31.0296 88.61 31.0246 88.69 31.0146 88.77C31.0146 88.85 31.0146 88.93 31.0146 89.01H33.3246V84.885H34.0896V96.84H33.3246V89.7H30.9396C30.8696 90.1 30.7496 90.48 30.5796 90.84C30.4196 91.2 30.1796 91.56 29.8596 91.92C29.5496 92.28 29.1546 92.65 28.6746 93.03C28.2046 93.41 27.6246 93.815 26.9346 94.245L26.5146 93.63C27.3046 93.13 27.9446 92.67 28.4346 92.25C28.9246 91.82 29.3046 91.41 29.5746 91.02C29.8446 90.63 30.0246 90.255 30.1146 89.895C30.2146 89.525 30.2646 89.145 30.2646 88.755V86.295H26.6196V85.62H31.0296V88.53ZM36.3246 97.26H35.5596V84.72H36.3246V97.26ZM53.8283 88.32H51.8033V91.65H51.0233V84.72H51.8033V87.63H53.8283V88.32ZM48.2633 94.59C48.1533 94.84 47.9783 95.105 47.7383 95.385C47.4983 95.665 47.2083 95.935 46.8683 96.195C46.5283 96.465 46.1433 96.705 45.7133 96.915C45.2833 97.125 44.8233 97.29 44.3333 97.41L44.0783 96.795C44.6983 96.625 45.2433 96.405 45.7133 96.135C46.1833 95.865 46.5733 95.58 46.8833 95.28C47.2033 94.97 47.4433 94.66 47.6033 94.35C47.7633 94.03 47.8433 93.74 47.8433 93.48V93.33H44.4533V92.685H52.0733V93.33H48.6833V93.48C48.6833 93.74 48.7633 94.03 48.9233 94.35C49.0833 94.66 49.3183 94.97 49.6283 95.28C49.9483 95.58 50.3433 95.865 50.8133 96.135C51.2833 96.405 51.8283 96.625 52.4483 96.795L52.1933 97.41C51.7033 97.29 51.2433 97.125 50.8133 96.915C50.3833 96.705 49.9983 96.465 49.6583 96.195C49.3183 95.935 49.0283 95.665 48.7883 95.385C48.5483 95.105 48.3733 94.84 48.2633 94.59ZM48.5033 90.63H43.5083C43.2783 90.63 43.1183 90.575 43.0283 90.465C42.9383 90.345 42.8933 90.17 42.8933 89.94V85.335H48.5033V90.63ZM43.6583 85.965V89.79C43.6583 89.89 43.6683 89.95 43.6883 89.97C43.7183 89.99 43.7783 90 43.8683 90H47.7233V85.965H43.6583ZM64.6529 97.26H63.8729V94.635H60.8879V93.945H63.8729V91.995C63.6229 92.115 63.3529 92.215 63.0629 92.295C62.7829 92.375 62.4979 92.445 62.2079 92.505C61.9279 92.555 61.6529 92.59 61.3829 92.61C61.1229 92.63 60.8829 92.64 60.6629 92.64H59.0879V96.9H58.3079V92.64H54.7529V91.965H60.4379C61.0079 91.965 61.5779 91.925 62.1479 91.845C62.7279 91.765 63.3029 91.61 63.8729 91.38V84.72H64.6529V97.26ZM58.8179 88.725C58.6779 88.945 58.4929 89.16 58.2629 89.37C58.0329 89.57 57.7829 89.765 57.5129 89.955C57.2429 90.135 56.9579 90.3 56.6579 90.45C56.3579 90.6 56.0729 90.73 55.8029 90.84L55.4279 90.27C55.8579 90.08 56.2529 89.88 56.6129 89.67C56.9729 89.45 57.2829 89.225 57.5429 88.995C57.8129 88.755 58.0229 88.505 58.1729 88.245C58.3229 87.985 58.3979 87.715 58.3979 87.435V87.15H55.7279V86.49H61.8479V87.15H59.1779V87.435C59.1779 87.735 59.2629 88.015 59.4329 88.275C59.6129 88.525 59.8379 88.76 60.1079 88.98C60.3879 89.19 60.7029 89.385 61.0529 89.565C61.4129 89.735 61.7729 89.89 62.1329 90.03L61.8179 90.6C61.5579 90.53 61.2879 90.43 61.0079 90.3C60.7279 90.17 60.4529 90.025 60.1829 89.865C59.9129 89.705 59.6579 89.53 59.4179 89.34C59.1779 89.14 58.9779 88.935 58.8179 88.725ZM56.9129 84.795H60.6629V85.5H56.9129V84.795ZM80.1766 97.26H73.2466C73.0166 97.26 72.8566 97.2 72.7666 97.08C72.6766 96.97 72.6316 96.8 72.6316 96.57V92.895H76.0216V91.17H70.9066V90.495H81.9016V91.17H76.7866V92.895H80.1766V97.26ZM76.3966 89.475C75.7466 89.475 75.1816 89.42 74.7016 89.31C74.2316 89.19 73.8416 89.025 73.5316 88.815C73.2216 88.605 72.9916 88.36 72.8416 88.08C72.6916 87.79 72.6166 87.48 72.6166 87.15C72.6166 86.82 72.6916 86.515 72.8416 86.235C72.9916 85.945 73.2216 85.695 73.5316 85.485C73.8416 85.275 74.2316 85.115 74.7016 85.005C75.1816 84.885 75.7466 84.825 76.3966 84.825C77.0466 84.825 77.6066 84.885 78.0766 85.005C78.5566 85.115 78.9516 85.275 79.2616 85.485C79.5716 85.695 79.8016 85.945 79.9516 86.235C80.1016 86.515 80.1766 86.82 80.1766 87.15C80.1766 87.48 80.1016 87.79 79.9516 88.08C79.8016 88.36 79.5716 88.605 79.2616 88.815C78.9516 89.025 78.5566 89.19 78.0766 89.31C77.6066 89.42 77.0466 89.475 76.3966 89.475ZM79.3966 96.615V93.54H73.3966V96.405C73.3966 96.505 73.4066 96.565 73.4266 96.585C73.4566 96.605 73.5166 96.615 73.6066 96.615H79.3966ZM76.3966 88.8C76.9466 88.8 77.4116 88.765 77.7916 88.695C78.1716 88.615 78.4816 88.505 78.7216 88.365C78.9616 88.215 79.1316 88.04 79.2316 87.84C79.3416 87.64 79.3966 87.41 79.3966 87.15C79.3966 86.9 79.3416 86.675 79.2316 86.475C79.1316 86.265 78.9616 86.09 78.7216 85.95C78.4816 85.8 78.1716 85.69 77.7916 85.62C77.4116 85.54 76.9466 85.5 76.3966 85.5C75.8466 85.5 75.3816 85.54 75.0016 85.62C74.6216 85.69 74.3116 85.8 74.0716 85.95C73.8316 86.09 73.6566 86.265 73.5466 86.475C73.4466 86.675 73.3966 86.9 73.3966 87.15C73.3966 87.41 73.4466 87.64 73.5466 87.84C73.6566 88.04 73.8316 88.215 74.0716 88.365C74.3116 88.505 74.6216 88.615 75.0016 88.695C75.3816 88.765 75.8466 88.8 76.3966 88.8ZM86.7113 88.14C86.5513 88.73 86.2063 89.33 85.6763 89.94C85.1463 90.54 84.4563 91.06 83.6063 91.5L83.1863 90.9C84.1463 90.38 84.9013 89.75 85.4513 89.01C86.0113 88.26 86.2913 87.415 86.2913 86.475V85.995H83.5613V85.335H89.6813V85.995H87.0713V86.475C87.0713 86.945 87.1563 87.39 87.3263 87.81C87.4963 88.22 87.7213 88.61 88.0013 88.98C88.2813 89.34 88.6013 89.67 88.9613 89.97C89.3313 90.27 89.7163 90.535 90.1162 90.765L89.7263 91.35C88.9863 90.94 88.3513 90.46 87.8213 89.91C87.3013 89.35 86.9313 88.76 86.7113 88.14ZM92.7563 97.41H91.9763V93.45H85.3313V92.79H92.7563V97.41ZM92.7563 91.815H91.9763V84.72H92.7563V91.815ZM104.076 84.72H104.856V97.245H104.076V84.72ZM98.6159 86.01C97.8859 86.01 97.3359 86.3 96.9659 86.88C96.6059 87.45 96.4259 88.39 96.4259 89.7C96.4259 91.01 96.6059 91.955 96.9659 92.535C97.3359 93.105 97.8859 93.39 98.6159 93.39C99.3459 93.39 99.8909 93.105 100.251 92.535C100.621 91.955 100.806 91.01 100.806 89.7C100.806 88.39 100.621 87.45 100.251 86.88C99.8909 86.3 99.3459 86.01 98.6159 86.01ZM98.6159 94.065C97.6559 94.065 96.9159 93.725 96.3959 93.045C95.8859 92.355 95.6309 91.24 95.6309 89.7C95.6309 88.16 95.8859 87.05 96.3959 86.37C96.9159 85.68 97.6559 85.335 98.6159 85.335C99.5759 85.335 100.311 85.68 100.821 86.37C101.341 87.05 101.601 88.16 101.601 89.7C101.601 91.24 101.341 92.355 100.821 93.045C100.311 93.725 99.5759 94.065 98.6159 94.065ZM116.445 89.46H109.725C109.495 89.46 109.335 89.405 109.245 89.295C109.155 89.175 109.11 89 109.11 88.77V84.96H109.89V88.59C109.89 88.69 109.9 88.75 109.92 88.77C109.95 88.79 110.01 88.8 110.1 88.8H116.445V89.46ZM116.7 96.495V97.185H109.62C109.39 97.185 109.23 97.125 109.14 97.005C109.05 96.895 109.005 96.725 109.005 96.495V93.345H109.77V96.285C109.77 96.385 109.78 96.445 109.8 96.465C109.83 96.485 109.89 96.495 109.98 96.495H116.7ZM118.2 91.275V91.95H107.205V91.275H118.2ZM126.839 90.96C126.279 90.96 125.804 90.885 125.414 90.735C125.034 90.585 124.719 90.38 124.469 90.12C124.219 89.85 124.039 89.535 123.929 89.175C123.819 88.805 123.764 88.41 123.764 87.99C123.764 87.57 123.819 87.18 123.929 86.82C124.039 86.45 124.219 86.135 124.469 85.875C124.719 85.605 125.034 85.395 125.414 85.245C125.804 85.095 126.279 85.02 126.839 85.02C127.319 85.02 127.739 85.08 128.099 85.2C128.459 85.31 128.759 85.47 128.999 85.68C129.249 85.89 129.444 86.14 129.584 86.43C129.724 86.72 129.819 87.035 129.869 87.375H132.479V84.72H133.259V91.65H132.479V88.08H129.914C129.904 88.49 129.839 88.875 129.719 89.235C129.609 89.585 129.429 89.89 129.179 90.15C128.929 90.4 128.609 90.6 128.219 90.75C127.839 90.89 127.379 90.96 126.839 90.96ZM133.259 97.26H126.449C126.219 97.26 126.059 97.2 125.969 97.08C125.879 96.97 125.834 96.8 125.834 96.57V92.61H133.259V97.26ZM132.494 96.615V93.24H126.599V96.405C126.599 96.505 126.609 96.565 126.629 96.585C126.659 96.605 126.719 96.615 126.809 96.615H132.494ZM126.839 90.285C127.539 90.285 128.094 90.1 128.504 89.73C128.924 89.35 129.134 88.77 129.134 87.99C129.134 87.21 128.924 86.635 128.504 86.265C128.094 85.885 127.539 85.695 126.839 85.695C126.139 85.695 125.579 85.885 125.159 86.265C124.749 86.635 124.544 87.21 124.544 87.99C124.544 88.77 124.749 89.35 125.159 89.73C125.579 90.1 126.139 90.285 126.839 90.285ZM146.934 89.73H144.909V97.26H144.129V84.72H144.909V89.025H146.934V89.73ZM141.549 93.735H136.689C136.459 93.735 136.299 93.68 136.209 93.57C136.119 93.45 136.074 93.275 136.074 93.045V85.56H141.549V93.735ZM140.769 93.06V86.235H136.839V92.85C136.839 92.95 136.849 93.01 136.869 93.03C136.899 93.05 136.959 93.06 137.049 93.06H140.769Z" fill="#282828"/>
<path d="M26 29.88H27.52V39H26V29.88ZM22.68 32.68C22.68 33.4667 22.5467 34.1533 22.28 34.74C22.0133 35.3133 21.5933 35.8533 21.02 36.36C20.4467 36.8533 19.7 37.3333 18.78 37.8C17.8733 38.2667 16.78 38.7733 15.5 39.32L14.86 38.08C15.9133 37.64 16.8333 37.22 17.62 36.82C18.4067 36.42 19.06 36.02 19.58 35.62C20.1133 35.2067 20.5067 34.7867 20.76 34.36C21.0267 33.92 21.16 33.4467 21.16 32.94V32.06H15.5V30.8H22.68V32.68ZM16.94 46.76V45.54H19.28V41.42H17.2V40.2H27.72V41.42H25.64V45.54H27.98V46.76H16.94ZM20.74 41.42V45.54H24.18V41.42H20.74ZM43.7895 29.88V46.74H42.2895V29.88H43.7895ZM35.2895 42.52C32.5695 42.52 31.2095 40.5533 31.2095 36.62C31.2095 32.6733 32.5695 30.7 35.2895 30.7C38.0095 30.7 39.3695 32.6733 39.3695 36.62C39.3695 40.5533 38.0095 42.52 35.2895 42.52ZM35.2895 41.2C36.1429 41.2 36.7829 40.8467 37.2095 40.14C37.6362 39.42 37.8495 38.2467 37.8495 36.62C37.8495 34.9933 37.6362 33.82 37.2095 33.1C36.7829 32.38 36.1429 32.02 35.2895 32.02C34.4229 32.02 33.7762 32.38 33.3495 33.1C32.9362 33.82 32.7295 34.9933 32.7295 36.62C32.7295 38.2467 32.9362 39.42 33.3495 40.14C33.7762 40.8467 34.4229 41.2 35.2895 41.2ZM52.3645 37.52H58.3645V34.1H59.8645V37.52H67.1845V38.78H52.3645V37.52ZM59.7845 47.04C58.8512 47.04 58.0512 46.96 57.3845 46.8C56.7312 46.6533 56.1979 46.4333 55.7845 46.14C55.3712 45.86 55.0712 45.5067 54.8845 45.08C54.6979 44.6667 54.6045 44.2 54.6045 43.68C54.6045 43.16 54.6979 42.6933 54.8845 42.28C55.0712 41.8533 55.3712 41.5 55.7845 41.22C56.1979 40.9267 56.7312 40.7067 57.3845 40.56C58.0512 40.4 58.8512 40.32 59.7845 40.32C60.7179 40.32 61.5112 40.4 62.1645 40.56C62.8312 40.7067 63.3712 40.9267 63.7845 41.22C64.1979 41.5 64.4979 41.8533 64.6845 42.28C64.8712 42.6933 64.9645 43.16 64.9645 43.68C64.9645 44.2 64.8712 44.6667 64.6845 45.08C64.4979 45.5067 64.1979 45.86 63.7845 46.14C63.3712 46.4333 62.8312 46.6533 62.1645 46.8C61.5112 46.96 60.7179 47.04 59.7845 47.04ZM59.7845 45.82C60.5045 45.82 61.0979 45.7667 61.5645 45.66C62.0312 45.5667 62.4045 45.42 62.6845 45.22C62.9645 45.0333 63.1579 44.8133 63.2645 44.56C63.3845 44.2933 63.4445 44 63.4445 43.68C63.4445 43.36 63.3845 43.0733 63.2645 42.82C63.1579 42.5533 62.9645 42.3267 62.6845 42.14C62.4045 41.94 62.0312 41.7933 61.5645 41.7C61.0979 41.5933 60.5045 41.54 59.7845 41.54C59.0645 41.54 58.4712 41.5933 58.0045 41.7C57.5379 41.7933 57.1645 41.94 56.8845 42.14C56.6045 42.3267 56.4045 42.5533 56.2845 42.82C56.1779 43.0733 56.1245 43.36 56.1245 43.68C56.1245 44 56.1779 44.2933 56.2845 44.56C56.4045 44.8133 56.6045 45.0333 56.8845 45.22C57.1645 45.42 57.5379 45.5667 58.0045 45.66C58.4712 45.7667 59.0645 45.82 59.7845 45.82ZM54.7045 31.6V30.34H64.7445V32.5C64.7445 33.14 64.6912 33.78 64.5845 34.42C64.4779 35.06 64.3245 35.6067 64.1245 36.06L62.8045 35.88C62.9645 35.4533 63.0779 35 63.1445 34.52C63.2245 34.04 63.2645 33.5667 63.2645 33.1V31.6H54.7045ZM76.7141 32.68C76.7141 33.4667 76.5807 34.1533 76.3141 34.74C76.0474 35.3133 75.6274 35.8533 75.0541 36.36C74.4807 36.8533 73.7341 37.3333 72.8141 37.8C71.9074 38.2667 70.8141 38.7733 69.5341 39.32L68.8941 38.08C69.9474 37.64 70.8674 37.22 71.6541 36.82C72.4407 36.42 73.0941 36.02 73.6141 35.62C74.1474 35.2067 74.5407 34.7867 74.7941 34.36C75.0607 33.92 75.1941 33.4467 75.1941 32.94V32.06H69.5341V30.8H76.7141V32.68ZM72.3341 46.76C71.9741 46.76 71.7141 46.6733 71.5541 46.5C71.3941 46.34 71.3141 46.0667 71.3141 45.68V40.4H81.3541V46.76H72.3341ZM79.8141 41.62H72.8141V45.26C72.8141 45.3667 72.8341 45.44 72.8741 45.48C72.9141 45.52 72.9941 45.54 73.1141 45.54H79.8141V41.62ZM81.3541 33.68H83.9341V35H81.3541V39.2H79.8141V29.88H81.3541V33.68ZM85.1236 33.14H94.4036V34.38H85.1236V33.14ZM87.2436 31.6V30.26H92.4836V31.6H87.2436ZM96.0836 29.88H97.6036V37.32H100.204V38.64H97.6036V46.76H96.0836V29.88ZM89.8236 43.36C88.5836 43.36 87.6303 43.0467 86.9636 42.42C86.2969 41.78 85.9636 40.8 85.9636 39.48C85.9636 38.16 86.2969 37.1867 86.9636 36.56C87.6303 35.92 88.5836 35.6 89.8236 35.6C91.0636 35.6 92.0169 35.92 92.6836 36.56C93.3503 37.1867 93.6836 38.16 93.6836 39.48C93.6836 40.8 93.3503 41.78 92.6836 42.42C92.0169 43.0467 91.0636 43.36 89.8236 43.36ZM89.8236 42.12C90.5836 42.12 91.1836 41.9067 91.6236 41.48C92.0636 41.0533 92.2836 40.3867 92.2836 39.48C92.2836 38.5733 92.0636 37.9067 91.6236 37.48C91.1836 37.0533 90.5836 36.84 89.8236 36.84C89.0636 36.84 88.4636 37.0533 88.0236 37.48C87.5836 37.9067 87.3636 38.5733 87.3636 39.48C87.3636 40.3867 87.5836 41.0533 88.0236 41.48C88.4636 41.9067 89.0636 42.12 89.8236 42.12ZM115.993 38.3V39.56H101.173V38.3H115.993ZM104.633 36.3C104.26 36.3 103.993 36.2 103.833 36C103.686 35.8 103.613 35.5133 103.613 35.14V30.2H105.133V34.74C105.133 34.8733 105.146 34.96 105.173 35C105.213 35.0267 105.3 35.04 105.433 35.04H113.753V36.3H104.633ZM114.073 46.66H104.653C104.293 46.66 104.013 46.5667 103.813 46.38C103.613 46.2067 103.513 45.92 103.513 45.52V41.38H105.033V45.02C105.033 45.1667 105.053 45.26 105.093 45.3C105.133 45.3533 105.226 45.38 105.373 45.38H114.073V46.66ZM126.508 35.7C126.148 35.7 125.888 35.6133 125.728 35.44C125.568 35.2667 125.488 35 125.488 34.64V30.16H135.428V35.7H131.228V37.58H137.868V38.84H123.048V37.58H129.728V35.7H126.508ZM135.628 43.96H126.788V45.5C126.788 45.6067 126.801 45.6733 126.828 45.7C126.868 45.7267 126.935 45.74 127.028 45.74H136.028V46.96H126.208C125.901 46.96 125.668 46.8933 125.508 46.76C125.361 46.6267 125.288 46.3867 125.288 46.04V42.76H134.128V41.38H125.328V40.14H135.628V43.96ZM127.008 31.42V34.16C127.008 34.2667 127.021 34.34 127.048 34.38C127.088 34.42 127.175 34.44 127.308 34.44H133.908V31.42H127.008ZM142.578 40.14H144.098V42.36H151.138V40.14H152.638V46.76H143.698C143.351 46.76 143.078 46.6733 142.878 46.5C142.678 46.34 142.578 46.0667 142.578 45.68V40.14ZM151.138 45.5V43.62H144.098V45.12C144.098 45.2533 144.111 45.3467 144.138 45.4C144.178 45.4667 144.271 45.5 144.418 45.5H151.138ZM151.098 29.88H152.618V38.94H151.098V29.88ZM148.198 34.18C148.198 34.7133 148.118 35.22 147.958 35.7C147.798 36.18 147.544 36.6 147.198 36.96C146.864 37.32 146.431 37.6067 145.898 37.82C145.364 38.0333 144.718 38.14 143.958 38.14C143.198 38.14 142.551 38.0333 142.018 37.82C141.484 37.6067 141.051 37.32 140.718 36.96C140.398 36.6 140.158 36.18 139.998 35.7C139.851 35.22 139.778 34.7133 139.778 34.18C139.778 33.6467 139.851 33.14 139.998 32.66C140.158 32.18 140.398 31.76 140.718 31.4C141.051 31.0267 141.484 30.7333 142.018 30.52C142.551 30.3067 143.198 30.2 143.958 30.2C144.718 30.2 145.364 30.3067 145.898 30.52C146.431 30.7333 146.864 31.0267 147.198 31.4C147.544 31.76 147.798 32.18 147.958 32.66C148.118 33.14 148.198 33.6467 148.198 34.18ZM146.678 34.18C146.678 33.2467 146.431 32.5533 145.938 32.1C145.458 31.6333 144.798 31.4 143.958 31.4C143.118 31.4 142.458 31.6333 141.978 32.1C141.511 32.5533 141.278 33.2467 141.278 34.18C141.278 35.1533 141.511 35.86 141.978 36.3C142.458 36.7267 143.118 36.94 143.958 36.94C144.784 36.94 145.444 36.7267 145.938 36.3C146.431 35.8733 146.678 35.1667 146.678 34.18ZM159.287 46.76C158.927 46.76 158.667 46.6733 158.507 46.5C158.347 46.34 158.267 46.0667 158.267 45.68V40.4H168.307V46.76H159.287ZM166.767 41.62H159.767V45.26C159.767 45.3667 159.787 45.44 159.827 45.48C159.867 45.52 159.947 45.54 160.067 45.54H166.767V41.62ZM168.307 33.68H170.887V35H168.307V39.2H166.767V29.88H168.307V33.68ZM163.767 30.7V37.96H157.087C156.727 37.96 156.467 37.88 156.307 37.72C156.147 37.56 156.067 37.2667 156.067 36.84V30.7H163.767ZM157.567 36.46C157.567 36.5667 157.581 36.64 157.607 36.68C157.647 36.72 157.721 36.74 157.827 36.74H162.287V31.92H157.567V36.46Z" fill="#FF4646"/>
</svg>
