<svg width="204" height="102" viewBox="0 0 204 102" fill="none" xmlns="http://www.w3.org/2000/svg">
<path d="M13.468 6.44V11.096H16.516C17.348 11.096 17.988 10.904 18.436 10.52C18.9 10.136 19.132 9.552 19.132 8.768C19.132 7.984 18.9 7.4 18.436 7.016C17.988 6.632 17.348 6.44 16.516 6.44H13.468ZM10.3 20V3.872H16.54C18.476 3.872 19.94 4.28 20.932 5.096C21.924 5.896 22.42 7.12 22.42 8.768C22.42 9.776 22.156 10.672 21.628 11.456C21.116 12.224 20.404 12.792 19.492 13.16L23.044 20H19.684L16.396 13.664H13.468V20H10.3ZM36.9516 3.872V6.44H32.3436V20H29.1756V6.44H24.5436V3.872H36.9516ZM45.9554 17.672C46.7394 17.672 47.5154 17.568 48.2834 17.36C49.0514 17.136 49.7954 16.832 50.5154 16.448L51.3074 18.944C50.5394 19.36 49.6914 19.68 48.7634 19.904C47.8354 20.128 46.8914 20.24 45.9314 20.24C43.2274 20.24 41.2274 19.52 39.9314 18.08C38.6514 16.64 38.0114 14.592 38.0114 11.936C38.0114 9.088 38.6434 6.992 39.9074 5.648C41.1714 4.304 43.0594 3.632 45.5714 3.632C46.7714 3.632 47.8594 3.84 48.8354 4.256C49.8274 4.672 50.6274 5.216 51.2354 5.888L49.4834 7.856C49.0034 7.328 48.4354 6.92 47.7794 6.632C47.1394 6.344 46.4034 6.2 45.5714 6.2C44.1154 6.2 43.0194 6.664 42.2834 7.592C41.5474 8.504 41.1794 9.952 41.1794 11.936C41.1794 13.824 41.5634 15.256 42.3314 16.232C43.0994 17.192 44.3074 17.672 45.9554 17.672ZM64.7886 17.432V20H53.9406V3.872H64.5486V6.44H57.1086V10.328H64.2846V12.848H57.1086V17.432H64.7886Z" fill="#FF4646"/>
<path d="M9.72 33.94V32.7H17.92V33.94H14.66V34.52C14.66 35.2133 14.9667 35.8467 15.58 36.42C16.2067 36.98 17.2133 37.58 18.6 38.22L17.94 39.38C17.14 39.0733 16.3733 38.68 15.64 38.2C14.9067 37.7067 14.3267 37.1467 13.9 36.52C13.4733 37.2 12.9067 37.8 12.2 38.32C11.4933 38.8267 10.7533 39.2667 9.98 39.64L9.22 38.58C10.5133 37.9 11.4733 37.2467 12.1 36.62C12.74 35.98 13.06 35.28 13.06 34.52V33.94H9.72ZM22.52 46.96H21V42.28H12.28V41.02H22.52V46.96ZM17.9 35.12H21V29.88H22.52V39.82H21V36.42H17.9V35.12ZM11.48 31.32V29.98H16.34V31.32H11.48ZM25.9895 33.94V32.7H34.1895V33.94H30.9295V34.52C30.9295 35.2133 31.2362 35.8467 31.8495 36.42C32.4762 36.98 33.4829 37.58 34.8695 38.22L34.2095 39.38C33.4095 39.0733 32.6429 38.68 31.9095 38.2C31.1762 37.7067 30.5962 37.1467 30.1695 36.52C29.7429 37.2 29.1762 37.8 28.4695 38.32C27.7629 38.8267 27.0229 39.2667 26.2495 39.64L25.4895 38.58C26.7829 37.9 27.7429 37.2467 28.3695 36.62C29.0095 35.98 29.3295 35.28 29.3295 34.52V33.94H25.9895ZM38.7895 46.96H37.2695V42.28H28.5495V41.02H38.7895V46.96ZM34.1695 35.12H37.2695V29.88H38.7895V39.82H37.2695V36.42H34.1695V35.12ZM27.7495 31.32V29.98H32.6095V31.32H27.7495ZM57.6645 30.1V35.84H59.7245V29.88H61.1845V46.76H59.7245V37.14H57.6645V46.2H56.2445V41.32C55.8312 41.5333 55.3312 41.7067 54.7445 41.84C54.1712 41.9733 53.5912 42.04 53.0045 42.04H49.3645C48.8979 42.04 48.5712 41.9467 48.3845 41.76C48.1979 41.56 48.1045 41.2067 48.1045 40.7V31.04H54.0645V32.3H49.5845V40.38C49.5845 40.5667 49.6045 40.68 49.6445 40.72C49.6979 40.76 49.8112 40.78 49.9845 40.78H53.1645C53.7245 40.78 54.2779 40.72 54.8245 40.6C55.3712 40.48 55.8445 40.3267 56.2445 40.14V30.1H57.6645ZM71.0341 36.42C70.0741 36.42 69.2607 36.3467 68.5941 36.2C67.9407 36.04 67.4007 35.82 66.9741 35.54C66.5607 35.26 66.2607 34.9267 66.0741 34.54C65.8874 34.14 65.7941 33.7067 65.7941 33.24C65.7941 32.76 65.8874 32.3267 66.0741 31.94C66.2607 31.54 66.5607 31.2 66.9741 30.92C67.4007 30.6267 67.9407 30.4067 68.5941 30.26C69.2607 30.1 70.0741 30.02 71.0341 30.02C71.9941 30.02 72.8007 30.1 73.4541 30.26C74.1207 30.4067 74.6607 30.6267 75.0741 30.92C75.5007 31.2 75.8074 31.54 75.9941 31.94C76.1807 32.3267 76.2741 32.76 76.2741 33.24C76.2741 33.7067 76.1807 34.14 75.9941 34.54C75.8074 34.9267 75.5007 35.26 75.0741 35.54C74.6607 35.82 74.1207 36.04 73.4541 36.2C72.8007 36.3467 71.9941 36.42 71.0341 36.42ZM71.0341 35.22C72.3541 35.22 73.3074 35.0467 73.8941 34.7C74.4807 34.34 74.7741 33.8467 74.7741 33.22C74.7741 32.5933 74.4807 32.1067 73.8941 31.76C73.3074 31.4 72.3541 31.22 71.0341 31.22C69.7141 31.22 68.7607 31.4 68.1741 31.76C67.5874 32.1067 67.2941 32.5933 67.2941 33.22C67.2941 33.8467 67.5874 34.34 68.1741 34.7C68.7607 35.0467 69.7141 35.22 71.0341 35.22ZM63.6341 39.04V37.74H78.4541V39.04H63.6341ZM71.0541 47.04C70.1207 47.04 69.3207 46.9667 68.6541 46.82C68.0007 46.6867 67.4674 46.48 67.0541 46.2C66.6407 45.92 66.3407 45.5733 66.1541 45.16C65.9674 44.76 65.8741 44.3 65.8741 43.78C65.8741 43.26 65.9674 42.8 66.1541 42.4C66.3407 41.9867 66.6407 41.64 67.0541 41.36C67.4674 41.08 68.0007 40.8733 68.6541 40.74C69.3207 40.5933 70.1207 40.52 71.0541 40.52C71.9874 40.52 72.7807 40.5933 73.4341 40.74C74.1007 40.8733 74.6407 41.08 75.0541 41.36C75.4674 41.64 75.7674 41.9867 75.9541 42.4C76.1407 42.8 76.2341 43.26 76.2341 43.78C76.2341 44.3 76.1407 44.76 75.9541 45.16C75.7674 45.5733 75.4674 45.92 75.0541 46.2C74.6407 46.48 74.1007 46.6867 73.4341 46.82C72.7807 46.9667 71.9874 47.04 71.0541 47.04ZM71.0541 45.82C71.7741 45.82 72.3674 45.7733 72.8341 45.68C73.3007 45.5867 73.6741 45.4533 73.9541 45.28C74.2341 45.1067 74.4274 44.8933 74.5341 44.64C74.6541 44.3867 74.7141 44.1 74.7141 43.78C74.7141 43.46 74.6541 43.1733 74.5341 42.92C74.4274 42.6667 74.2341 42.4533 73.9541 42.28C73.6741 42.1067 73.3007 41.9733 72.8341 41.88C72.3674 41.7867 71.7741 41.74 71.0541 41.74C70.3341 41.74 69.7407 41.7867 69.2741 41.88C68.8074 41.9733 68.4341 42.1067 68.1541 42.28C67.8741 42.4533 67.6741 42.6667 67.5541 42.92C67.4474 43.1733 67.3941 43.46 67.3941 43.78C67.3941 44.1 67.4474 44.3867 67.5541 44.64C67.6741 44.8933 67.8741 45.1067 68.1541 45.28C68.4341 45.4533 68.8074 45.5867 69.2741 45.68C69.7407 45.7733 70.3341 45.82 71.0541 45.82ZM83.6036 46.76C83.2436 46.76 82.9836 46.6733 82.8236 46.5C82.6636 46.34 82.5836 46.0667 82.5836 45.68V40.4H92.6236V46.76H83.6036ZM91.0836 41.62H84.0836V45.26C84.0836 45.3667 84.1036 45.44 84.1436 45.48C84.1836 45.52 84.2636 45.54 84.3836 45.54H91.0836V41.62ZM92.6236 33.68H95.2036V35H92.6236V39.2H91.0836V29.88H92.6236V33.68ZM88.0836 30.7V37.96H81.4036C81.0436 37.96 80.7836 37.88 80.6236 37.72C80.4636 37.56 80.3836 37.2667 80.3836 36.84V30.7H88.0836ZM81.8836 36.46C81.8836 36.5667 81.8969 36.64 81.9236 36.68C81.9636 36.72 82.0369 36.74 82.1436 36.74H86.6036V31.92H81.8836V36.46Z" fill="#FF4646"/>
<rect opacity="0.5" x="8.5" y="67" width="66" height="12" fill="#F7FF5E"/>
<rect opacity="0.5" x="8.5" y="85" width="66" height="12" fill="#F7FF5E"/>
<path d="M1.5 6V99.5" stroke="#FF4646" stroke-width="3"/>
<path d="M12.565 74.22C11.775 74.22 11.15 74.005 10.69 73.575C10.23 73.145 10 72.53 10 71.73C10 71.26 10.08 70.84 10.24 70.47C10.41 70.1 10.645 69.835 10.945 69.675H9.025V69.015H16.03V69.675H14.215C14.515 69.835 14.745 70.1 14.905 70.47C15.075 70.84 15.16 71.26 15.16 71.73C15.16 72.53 14.93 73.145 14.47 73.575C14.01 74.005 13.375 74.22 12.565 74.22ZM12.58 69.78C12.25 69.78 11.97 69.835 11.74 69.945C11.51 70.045 11.32 70.185 11.17 70.365C11.03 70.545 10.93 70.755 10.87 70.995C10.81 71.225 10.78 71.47 10.78 71.73C10.78 72.94 11.38 73.545 12.58 73.545C13.78 73.545 14.38 72.94 14.38 71.73C14.38 71.47 14.35 71.225 14.29 70.995C14.23 70.755 14.125 70.545 13.975 70.365C13.835 70.185 13.65 70.045 13.42 69.945C13.19 69.835 12.91 69.78 12.58 69.78ZM18.85 75.945H18.07V73.305H16.12V72.615H18.07V70.935H16.345V70.245H18.07V66.72H18.85V75.945ZM12.355 78.285C12.355 78.385 12.365 78.445 12.385 78.465C12.415 78.485 12.475 78.495 12.565 78.495H19.165V79.185H12.205C11.975 79.185 11.815 79.125 11.725 79.005C11.635 78.895 11.59 78.725 11.59 78.495V75.42H12.355V78.285ZM14.38 67.575H10.78V66.87H14.38V67.575ZM30.1696 66.72H30.9496V72.93H30.1696V66.72ZM25.0246 69.675C24.9346 69.965 24.7946 70.26 24.6046 70.56C24.4246 70.85 24.1996 71.14 23.9296 71.43C23.6596 71.71 23.3496 71.98 22.9996 72.24C22.6496 72.5 22.2646 72.74 21.8446 72.96L21.4696 72.45C21.9496 72.19 22.3796 71.91 22.7596 71.61C23.1496 71.3 23.4846 70.965 23.7646 70.605C24.0446 70.245 24.2596 69.86 24.4096 69.45C24.5596 69.03 24.6346 68.58 24.6346 68.1V66.915H25.4146V68.1C25.4146 68.99 25.6746 69.76 26.1946 70.41C26.7246 71.06 27.4646 71.645 28.4146 72.165L28.0546 72.66C27.2846 72.26 26.6396 71.805 26.1196 71.295C25.5996 70.785 25.2346 70.245 25.0246 69.675ZM24.2896 79.41C24.0596 79.41 23.8996 79.355 23.8096 79.245C23.7196 79.145 23.6746 78.98 23.6746 78.75V76.185H30.1846V74.535H23.7196V73.875H30.9496V76.83H24.4396V78.555C24.4396 78.675 24.4946 78.735 24.6046 78.735H31.3996V79.41H24.2896ZM41.6433 74.985C42.1833 74.985 42.6483 74.94 43.0383 74.85C43.4283 74.75 43.7833 74.615 44.1033 74.445V66.885H44.8533V71.085H46.8633V66.72H47.6283V79.26H46.8633V71.79H44.8533V78.84H44.1033V75.06C43.7933 75.23 43.4233 75.37 42.9933 75.48C42.5733 75.59 42.0633 75.645 41.4633 75.645H38.6883C38.4583 75.645 38.2983 75.59 38.2083 75.48C38.1183 75.36 38.0733 75.185 38.0733 74.955V67.59H42.4083V68.265H38.8383V74.775C38.8383 74.875 38.8483 74.935 38.8683 74.955C38.8983 74.975 38.9583 74.985 39.0483 74.985H41.6433ZM55.0929 71.475C54.4429 71.475 53.8779 71.42 53.3979 71.31C52.9279 71.19 52.5379 71.025 52.2279 70.815C51.9179 70.605 51.6879 70.36 51.5379 70.08C51.3879 69.79 51.3129 69.48 51.3129 69.15C51.3129 68.82 51.3879 68.515 51.5379 68.235C51.6879 67.945 51.9179 67.695 52.2279 67.485C52.5379 67.275 52.9279 67.115 53.3979 67.005C53.8779 66.885 54.4429 66.825 55.0929 66.825C55.7429 66.825 56.3029 66.885 56.7729 67.005C57.2529 67.115 57.6479 67.275 57.9579 67.485C58.2679 67.695 58.4979 67.945 58.6479 68.235C58.7979 68.515 58.8729 68.82 58.8729 69.15C58.8729 69.48 58.7979 69.79 58.6479 70.08C58.4979 70.36 58.2679 70.605 57.9579 70.815C57.6479 71.025 57.2529 71.19 56.7729 71.31C56.3029 71.42 55.7429 71.475 55.0929 71.475ZM55.0929 70.8C55.6429 70.8 56.1079 70.765 56.4879 70.695C56.8679 70.615 57.1779 70.505 57.4179 70.365C57.6579 70.215 57.8279 70.04 57.9279 69.84C58.0379 69.64 58.0929 69.41 58.0929 69.15C58.0929 68.9 58.0379 68.675 57.9279 68.475C57.8279 68.265 57.6579 68.09 57.4179 67.95C57.1779 67.8 56.8679 67.69 56.4879 67.62C56.1079 67.54 55.6429 67.5 55.0929 67.5C54.5429 67.5 54.0779 67.54 53.6979 67.62C53.3179 67.69 53.0079 67.8 52.7679 67.95C52.5279 68.09 52.3529 68.265 52.2429 68.475C52.1429 68.675 52.0929 68.9 52.0929 69.15C52.0929 69.41 52.1429 69.64 52.2429 69.84C52.3529 70.04 52.5279 70.215 52.7679 70.365C53.0079 70.505 53.3179 70.615 53.6979 70.695C54.0779 70.765 54.5429 70.8 55.0929 70.8ZM49.6029 73.395V72.72H60.5979V73.395H49.6029ZM55.1079 79.47C54.4479 79.47 53.8829 79.41 53.4129 79.29C52.9429 79.18 52.5529 79.02 52.2429 78.81C51.9429 78.6 51.7229 78.35 51.5829 78.06C51.4429 77.77 51.3729 77.45 51.3729 77.1C51.3729 76.75 51.4429 76.43 51.5829 76.14C51.7229 75.85 51.9429 75.605 52.2429 75.405C52.5529 75.195 52.9429 75.035 53.4129 74.925C53.8829 74.805 54.4479 74.745 55.1079 74.745C55.7679 74.745 56.3329 74.805 56.8029 74.925C57.2729 75.035 57.6579 75.195 57.9579 75.405C58.2679 75.615 58.4929 75.865 58.6329 76.155C58.7729 76.445 58.8429 76.765 58.8429 77.115C58.8429 77.465 58.7729 77.785 58.6329 78.075C58.4929 78.365 58.2679 78.61 57.9579 78.81C57.6579 79.02 57.2729 79.18 56.8029 79.29C56.3329 79.41 55.7679 79.47 55.1079 79.47ZM55.1079 78.795C56.1379 78.795 56.8879 78.65 57.3579 78.36C57.8379 78.07 58.0779 77.65 58.0779 77.1C58.0779 76.55 57.8379 76.135 57.3579 75.855C56.8879 75.565 56.1379 75.42 55.1079 75.42C54.0779 75.42 53.3229 75.565 52.8429 75.855C52.3729 76.145 52.1379 76.565 52.1379 77.115C52.1379 77.665 52.3729 78.08 52.8429 78.36C53.3229 78.65 54.0779 78.795 55.1079 78.795ZM62.2575 69.84H66.5175V67.935H62.3175V67.275H67.2825V70.5H63.0225V72.3C63.0225 72.4 63.0325 72.46 63.0525 72.48C63.0825 72.5 63.1425 72.51 63.2325 72.51H65.3775C65.8575 72.51 66.3075 72.5 66.7275 72.48C67.1575 72.45 67.5675 72.36 67.9575 72.21L68.0475 72.795C67.6575 72.945 67.2425 73.045 66.8025 73.095C66.3725 73.145 65.8675 73.17 65.2875 73.17H62.8725C62.6425 73.17 62.4825 73.115 62.3925 73.005C62.3025 72.885 62.2575 72.71 62.2575 72.48V69.84ZM71.4525 73.98H70.6725V71.475H68.3175V70.785H70.6725V69.015H68.3175V68.325H70.6725V66.72H71.4525V73.98ZM71.4525 79.41H70.6725V75.6H64.0275V74.94H71.4525V79.41ZM80.4021 70.185C80.4021 70.445 80.3921 70.72 80.3721 71.01C80.3621 71.29 80.3421 71.575 80.3121 71.865C80.2821 72.145 80.2371 72.42 80.1771 72.69C80.1171 72.95 80.0421 73.19 79.9521 73.41L79.2471 73.29C79.3071 73.11 79.3571 72.905 79.3971 72.675C79.4471 72.445 79.4871 72.215 79.5171 71.985C79.5571 71.745 79.5821 71.51 79.5921 71.28C79.6121 71.05 79.6221 70.845 79.6221 70.665V68.145H74.5971V67.485H80.4021V70.185ZM77.3121 71.475V75.615H78.8271C79.1471 75.615 79.4771 75.6 79.8171 75.57C80.1671 75.53 80.4971 75.48 80.8071 75.42C81.1271 75.36 81.4171 75.285 81.6771 75.195C81.9471 75.105 82.1621 75.005 82.3221 74.895V66.72H83.1021V71.01H85.1271V71.715H83.1021V79.26H82.3221V75.525C82.1421 75.665 81.9121 75.785 81.6321 75.885C81.3621 75.985 81.0721 76.065 80.7621 76.125C80.4521 76.185 80.1371 76.23 79.8171 76.26C79.4971 76.28 79.1971 76.29 78.9171 76.29H73.8021V75.615H76.5471V71.475H77.3121ZM11.44 94.95C11.44 94.62 11.505 94.305 11.635 94.005C11.765 93.695 11.975 93.425 12.265 93.195C12.565 92.955 12.955 92.765 13.435 92.625C13.915 92.485 14.51 92.415 15.22 92.415C15.92 92.415 16.51 92.485 16.99 92.625C17.48 92.765 17.87 92.955 18.16 93.195C18.46 93.425 18.675 93.695 18.805 94.005C18.935 94.305 19 94.62 19 94.95C19 95.28 18.935 95.6 18.805 95.91C18.675 96.21 18.46 96.475 18.16 96.705C17.87 96.945 17.48 97.135 16.99 97.275C16.51 97.415 15.92 97.485 15.22 97.485C14.51 97.485 13.915 97.415 13.435 97.275C12.955 97.135 12.565 96.945 12.265 96.705C11.975 96.475 11.765 96.21 11.635 95.91C11.505 95.6 11.44 95.28 11.44 94.95ZM18.235 94.95C18.235 94.67 18.175 94.42 18.055 94.2C17.945 93.97 17.765 93.775 17.515 93.615C17.275 93.445 16.965 93.315 16.585 93.225C16.205 93.135 15.75 93.09 15.22 93.09C14.15 93.09 13.38 93.265 12.91 93.615C12.44 93.955 12.205 94.4 12.205 94.95C12.205 95.23 12.26 95.485 12.37 95.715C12.49 95.935 12.67 96.125 12.91 96.285C13.16 96.455 13.475 96.585 13.855 96.675C14.235 96.765 14.69 96.81 15.22 96.81C16.28 96.81 17.045 96.64 17.515 96.3C17.995 95.96 18.235 95.51 18.235 94.95ZM12.655 88.14C12.495 88.73 12.15 89.33 11.62 89.94C11.09 90.54 10.4 91.06 9.55 91.5L9.13 90.9C10.09 90.38 10.845 89.75 11.395 89.01C11.955 88.26 12.235 87.415 12.235 86.475V85.995H9.505V85.335H15.625V85.995H13.015V86.475C13.015 86.945 13.1 87.39 13.27 87.81C13.44 88.22 13.665 88.61 13.945 88.98C14.225 89.34 14.545 89.67 14.905 89.97C15.275 90.27 15.66 90.535 16.06 90.765L15.67 91.35C14.93 90.94 14.295 90.46 13.765 89.91C13.245 89.35 12.875 88.76 12.655 88.14ZM18.85 91.92H18.07V88.305H15.385V87.6H18.07V84.72H18.85V91.92ZM29.5846 90.69V88.38H23.8096V90.48C23.8096 90.58 23.8196 90.64 23.8396 90.66C23.8696 90.68 23.9296 90.69 24.0196 90.69H29.5846ZM26.2996 94.155V91.35H23.6446C23.4146 91.35 23.2546 91.295 23.1646 91.185C23.0746 91.065 23.0296 90.89 23.0296 90.66V85.41H23.8096V87.72H29.5846V85.41H30.3496V91.35H27.0646V94.155H32.1946V94.83H21.1996V94.155H26.2996ZM42.5433 91.11C43.1733 91.11 43.7783 91.07 44.3583 90.99C44.9483 90.91 45.5033 90.735 46.0233 90.465V84.72H46.8033V88.08H48.8283V88.785H46.8033V91.98H46.0233V91.035C45.7933 91.185 45.5383 91.31 45.2583 91.41C44.9883 91.5 44.7033 91.575 44.4033 91.635C44.1033 91.685 43.8033 91.72 43.5033 91.74C43.2033 91.76 42.9133 91.77 42.6333 91.77H37.5033V91.11H40.9683V90C40.1783 89.96 39.5983 89.795 39.2283 89.505C38.8583 89.215 38.6733 88.82 38.6733 88.32C38.6733 87.72 38.9333 87.295 39.4533 87.045H37.7133V86.385H44.8833V87.045H43.1433C43.6633 87.295 43.9233 87.72 43.9233 88.32C43.9233 88.8 43.7433 89.19 43.3833 89.49C43.0333 89.78 42.4833 89.95 41.7333 90V91.11H42.5433ZM46.8033 95.325H40.2333V96.555C40.2333 96.675 40.2883 96.735 40.3983 96.735H47.2533V97.41H40.1583C39.8883 97.41 39.7033 97.355 39.6033 97.245C39.5133 97.135 39.4683 96.94 39.4683 96.66V94.68H46.0383V93.435H39.5133V92.775H46.8033V95.325ZM41.2983 87.135C40.6383 87.135 40.1533 87.24 39.8433 87.45C39.5433 87.65 39.3933 87.94 39.3933 88.32C39.3933 88.74 39.5583 89.025 39.8883 89.175C40.2183 89.325 40.6883 89.4 41.2983 89.4C41.9083 89.4 42.3783 89.325 42.7083 89.175C43.0383 89.025 43.2033 88.74 43.2033 88.32C43.2033 87.94 43.0483 87.65 42.7383 87.45C42.4383 87.24 41.9583 87.135 41.2983 87.135ZM43.2633 85.365H39.3333V84.66H43.2633V85.365ZM51.3129 87.135C51.3129 86.805 51.3879 86.5 51.5379 86.22C51.6879 85.93 51.9179 85.685 52.2279 85.485C52.5379 85.275 52.9279 85.115 53.3979 85.005C53.8779 84.885 54.4429 84.825 55.0929 84.825C56.3929 84.825 57.3479 85.045 57.9579 85.485C58.5679 85.915 58.8729 86.465 58.8729 87.135C58.8729 87.545 58.7629 87.915 58.5429 88.245C58.3229 88.565 57.9879 88.825 57.5379 89.025V91.095H60.5979V91.755H49.6029V91.095H52.7379V89.07C52.2479 88.87 51.8879 88.605 51.6579 88.275C51.4279 87.935 51.3129 87.555 51.3129 87.135ZM55.1079 97.47C54.4479 97.47 53.8829 97.41 53.4129 97.29C52.9429 97.18 52.5529 97.02 52.2429 96.81C51.9429 96.6 51.7229 96.35 51.5829 96.06C51.4429 95.77 51.3729 95.45 51.3729 95.1C51.3729 94.75 51.4429 94.43 51.5829 94.14C51.7229 93.85 51.9429 93.605 52.2429 93.405C52.5529 93.195 52.9429 93.035 53.4129 92.925C53.8829 92.805 54.4479 92.745 55.1079 92.745C55.7679 92.745 56.3329 92.805 56.8029 92.925C57.2729 93.035 57.6579 93.195 57.9579 93.405C58.2679 93.615 58.4929 93.865 58.6329 94.155C58.7729 94.445 58.8429 94.765 58.8429 95.115C58.8429 95.465 58.7729 95.785 58.6329 96.075C58.4929 96.365 58.2679 96.61 57.9579 96.81C57.6579 97.02 57.2729 97.18 56.8029 97.29C56.3329 97.41 55.7679 97.47 55.1079 97.47ZM55.1079 96.795C56.1379 96.795 56.8879 96.65 57.3579 96.36C57.8379 96.07 58.0779 95.65 58.0779 95.1C58.0779 94.55 57.8379 94.135 57.3579 93.855C56.8879 93.565 56.1379 93.42 55.1079 93.42C54.0779 93.42 53.3229 93.565 52.8429 93.855C52.3729 94.145 52.1379 94.565 52.1379 95.115C52.1379 95.665 52.3729 96.08 52.8429 96.36C53.3229 96.65 54.0779 96.795 55.1079 96.795ZM52.0929 87.135C52.0929 87.645 52.3329 88.045 52.8129 88.335C53.3029 88.625 54.0629 88.77 55.0929 88.77C56.1229 88.77 56.8779 88.625 57.3579 88.335C57.8479 88.045 58.0929 87.645 58.0929 87.135C58.0929 86.625 57.8479 86.225 57.3579 85.935C56.8779 85.645 56.1229 85.5 55.0929 85.5C54.0629 85.5 53.3029 85.645 52.8129 85.935C52.3329 86.225 52.0929 86.625 52.0929 87.135ZM56.7729 91.095V89.28C56.2729 89.39 55.7129 89.445 55.0929 89.445C54.4629 89.445 53.9329 89.395 53.5029 89.295V91.095H56.7729ZM62.2575 87.84H66.5175V85.935H62.3175V85.275H67.2825V88.5H63.0225V90.3C63.0225 90.4 63.0325 90.46 63.0525 90.48C63.0825 90.5 63.1425 90.51 63.2325 90.51H65.3775C65.8575 90.51 66.3075 90.5 66.7275 90.48C67.1575 90.45 67.5675 90.36 67.9575 90.21L68.0475 90.795C67.6575 90.945 67.2425 91.045 66.8025 91.095C66.3725 91.145 65.8675 91.17 65.2875 91.17H62.8725C62.6425 91.17 62.4825 91.115 62.3925 91.005C62.3025 90.885 62.2575 90.71 62.2575 90.48V87.84ZM71.4525 91.98H70.6725V89.475H68.3175V88.785H70.6725V87.015H68.3175V86.325H70.6725V84.72H71.4525V91.98ZM71.4525 97.41H70.6725V93.6H64.0275V92.94H71.4525V97.41ZM82.7721 84.72H83.5521V97.245H82.7721V84.72ZM77.3121 86.01C76.5821 86.01 76.0321 86.3 75.6621 86.88C75.3021 87.45 75.1221 88.39 75.1221 89.7C75.1221 91.01 75.3021 91.955 75.6621 92.535C76.0321 93.105 76.5821 93.39 77.3121 93.39C78.0421 93.39 78.5871 93.105 78.9471 92.535C79.3171 91.955 79.5021 91.01 79.5021 89.7C79.5021 88.39 79.3171 87.45 78.9471 86.88C78.5871 86.3 78.0421 86.01 77.3121 86.01ZM77.3121 94.065C76.3521 94.065 75.6121 93.725 75.0921 93.045C74.5821 92.355 74.3271 91.24 74.3271 89.7C74.3271 88.16 74.5821 87.05 75.0921 86.37C75.6121 85.68 76.3521 85.335 77.3121 85.335C78.2721 85.335 79.0071 85.68 79.5171 86.37C80.0371 87.05 80.2971 88.16 80.2971 89.7C80.2971 91.24 80.0371 92.355 79.5171 93.045C79.0071 93.725 78.2721 94.065 77.3121 94.065ZM100.306 97.26H99.5259V91.905C99.2759 92.025 99.0059 92.125 98.7159 92.205C98.4359 92.285 98.1509 92.355 97.8609 92.415C97.5809 92.465 97.3059 92.5 97.0359 92.52C96.7759 92.54 96.5359 92.55 96.3159 92.55H94.7409V96.9H93.9609V92.55H90.2409V91.875H96.0909C96.6609 91.875 97.2309 91.835 97.8009 91.755C98.3809 91.675 98.9559 91.52 99.5259 91.29V84.72H100.306V97.26ZM94.4559 85.35H97.5309V86.01H95.1909V89.28C95.1909 89.38 95.2009 89.44 95.2209 89.46C95.2509 89.48 95.3109 89.49 95.4009 89.49H97.6359V90.15H95.0859C94.8559 90.15 94.6959 90.105 94.6059 90.015C94.5159 89.915 94.4709 89.75 94.4709 89.52C94.3209 89.69 94.1009 89.84 93.8109 89.97C93.5309 90.09 93.1909 90.15 92.7909 90.15H91.6359C91.4059 90.15 91.2459 90.095 91.1559 89.985C91.0659 89.865 91.0209 89.69 91.0209 89.46V85.35H93.6009V86.01H91.7559V89.28C91.7559 89.38 91.7659 89.44 91.7859 89.46C91.8159 89.48 91.8759 89.49 91.9659 89.49H92.8809C93.2509 89.49 93.5709 89.44 93.8409 89.34C94.1109 89.24 94.3159 89.105 94.4559 88.935V85.35ZM105.565 94.065C104.605 94.065 103.865 93.725 103.345 93.045C102.835 92.355 102.58 91.24 102.58 89.7C102.58 88.16 102.835 87.05 103.345 86.37C103.865 85.68 104.605 85.335 105.565 85.335C106.465 85.335 107.165 85.63 107.665 86.22C108.175 86.81 108.465 87.765 108.535 89.085H111.175V84.72H111.955V97.26H111.175V89.79H108.55C108.53 91.3 108.26 92.39 107.74 93.06C107.23 93.73 106.505 94.065 105.565 94.065ZM105.565 86.01C104.835 86.01 104.285 86.3 103.915 86.88C103.555 87.45 103.375 88.39 103.375 89.7C103.375 91.01 103.555 91.955 103.915 92.535C104.285 93.105 104.835 93.39 105.565 93.39C106.295 93.39 106.84 93.105 107.2 92.535C107.57 91.955 107.755 91.01 107.755 89.7C107.755 88.39 107.57 87.45 107.2 86.88C106.84 86.3 106.295 86.01 105.565 86.01ZM117.095 97.185C116.865 97.185 116.705 97.125 116.615 97.005C116.525 96.895 116.48 96.725 116.48 96.495V93.075H117.245V96.285C117.245 96.385 117.255 96.445 117.275 96.465C117.305 96.485 117.365 96.495 117.455 96.495H123.905V97.185H117.095ZM115.535 91.125C115.305 91.125 115.145 91.07 115.055 90.96C114.965 90.84 114.92 90.665 114.92 90.435V85.365H115.7V90.255C115.7 90.355 115.71 90.415 115.73 90.435C115.76 90.455 115.82 90.465 115.91 90.465H120.05C120.62 90.465 121.13 90.415 121.58 90.315C122.03 90.215 122.445 90.075 122.825 89.895V84.72H123.605V87.78H125.63V88.485H123.605V93.765H122.825V90.495C122.475 90.675 122.045 90.825 121.535 90.945C121.035 91.065 120.48 91.125 119.87 91.125H115.535ZM133.939 90.96C133.379 90.96 132.904 90.885 132.514 90.735C132.134 90.585 131.819 90.38 131.569 90.12C131.319 89.85 131.139 89.535 131.029 89.175C130.919 88.805 130.864 88.41 130.864 87.99C130.864 87.57 130.919 87.18 131.029 86.82C131.139 86.45 131.319 86.135 131.569 85.875C131.819 85.605 132.134 85.395 132.514 85.245C132.904 85.095 133.379 85.02 133.939 85.02C134.419 85.02 134.839 85.08 135.199 85.2C135.559 85.31 135.859 85.47 136.099 85.68C136.349 85.89 136.544 86.14 136.684 86.43C136.824 86.72 136.919 87.035 136.969 87.375H139.579V84.72H140.359V91.65H139.579V88.08H137.014C137.004 88.49 136.939 88.875 136.819 89.235C136.709 89.585 136.529 89.89 136.279 90.15C136.029 90.4 135.709 90.6 135.319 90.75C134.939 90.89 134.479 90.96 133.939 90.96ZM140.359 97.26H133.549C133.319 97.26 133.159 97.2 133.069 97.08C132.979 96.97 132.934 96.8 132.934 96.57V92.61H140.359V97.26ZM139.594 96.615V93.24H133.699V96.405C133.699 96.505 133.709 96.565 133.729 96.585C133.759 96.605 133.819 96.615 133.909 96.615H139.594ZM133.939 90.285C134.639 90.285 135.194 90.1 135.604 89.73C136.024 89.35 136.234 88.77 136.234 87.99C136.234 87.21 136.024 86.635 135.604 86.265C135.194 85.885 134.639 85.695 133.939 85.695C133.239 85.695 132.679 85.885 132.259 86.265C131.849 86.635 131.644 87.21 131.644 87.99C131.644 88.77 131.849 89.35 132.259 89.73C132.679 90.1 133.239 90.285 133.939 90.285ZM154.033 89.73H152.008V97.26H151.228V84.72H152.008V89.025H154.033V89.73ZM148.648 93.735H143.788C143.558 93.735 143.398 93.68 143.308 93.57C143.218 93.45 143.173 93.275 143.173 93.045V85.56H148.648V93.735ZM147.868 93.06V86.235H143.938V92.85C143.938 92.95 143.948 93.01 143.968 93.03C143.998 93.05 144.058 93.06 144.148 93.06H147.868Z" fill="#282828"/>
</svg>
