<svg width="204" height="102" viewBox="0 0 204 102" fill="none" xmlns="http://www.w3.org/2000/svg">
<path d="M13.468 6.44V11.096H16.516C17.348 11.096 17.988 10.904 18.436 10.52C18.9 10.136 19.132 9.552 19.132 8.768C19.132 7.984 18.9 7.4 18.436 7.016C17.988 6.632 17.348 6.44 16.516 6.44H13.468ZM10.3 20V3.872H16.54C18.476 3.872 19.94 4.28 20.932 5.096C21.924 5.896 22.42 7.12 22.42 8.768C22.42 9.776 22.156 10.672 21.628 11.456C21.116 12.224 20.404 12.792 19.492 13.16L23.044 20H19.684L16.396 13.664H13.468V20H10.3ZM36.9516 3.872V6.44H32.3436V20H29.1756V6.44H24.5436V3.872H36.9516ZM39.5328 3.872H42.7008V20H39.5328V3.872ZM57.4058 17.432V20H46.5578V3.872H57.1658V6.44H49.7258V10.328H56.9018V12.848H49.7258V17.432H57.4058Z" fill="#FF4646"/>
<path d="M13.58 46.66C12.8467 46.66 12.48 46.3067 12.48 45.6V40.86H13.98V45.02C13.98 45.1933 14 45.2933 14.04 45.32C14.08 45.36 14.18 45.38 14.34 45.38H22.92V46.66H13.58ZM21 29.88H22.52V41.86H21V29.88ZM17.96 30.84V38.6H11.18C10.82 38.6 10.56 38.52 10.4 38.36C10.24 38.2 10.16 37.9067 10.16 37.48V30.84H17.96ZM11.66 37.1C11.66 37.2067 11.6733 37.28 11.7 37.32C11.74 37.36 11.8133 37.38 11.92 37.38H16.48V32.06H11.66V37.1ZM38.7895 46.76H29.8695C29.5229 46.76 29.2495 46.6667 29.0495 46.48C28.8495 46.3067 28.7495 46.0333 28.7495 45.66V40.48H30.2695V42.64H37.2695V40.48H38.7895V46.76ZM25.9895 33.84V32.6H34.1895V33.84H30.9295V34.22C30.9295 34.9133 31.2362 35.5467 31.8495 36.12C32.4762 36.68 33.4829 37.28 34.8695 37.92L34.2095 39.08C33.4095 38.7733 32.6429 38.38 31.9095 37.9C31.1762 37.4067 30.5962 36.8467 30.1695 36.22C29.7429 36.9 29.1762 37.5 28.4695 38.02C27.7629 38.5267 27.0229 38.9667 26.2495 39.34L25.4895 38.28C26.7829 37.6 27.7429 36.9467 28.3695 36.32C29.0095 35.68 29.3295 34.98 29.3295 34.22V33.84H25.9895ZM34.1695 34.78H37.2695V29.88H38.7895V39.28H37.2695V36.08H34.1695V34.78ZM37.2695 45.52V43.86H30.2695V45.24C30.2695 45.36 30.2829 45.4333 30.3095 45.46C30.3495 45.5 30.4295 45.52 30.5495 45.52H37.2695ZM27.7495 31.22V29.88H32.6095V31.22H27.7495ZM45.5391 46.66C44.8057 46.66 44.4391 46.3067 44.4391 45.6V41.66H45.9391V45.02C45.9391 45.1933 45.9591 45.2933 45.9991 45.32C46.0391 45.36 46.1391 45.38 46.2991 45.38H54.8791V46.66H45.5391ZM54.4791 35.08H57.0591V36.4H54.4791V42.66H52.9391V29.88H54.4791V35.08ZM43.8191 31.46V30.08H48.6791V31.46H43.8191ZM46.2591 40.06C45.6591 40.06 45.1324 39.9733 44.6791 39.8C44.2257 39.6267 43.8457 39.3867 43.5391 39.08C43.2457 38.76 43.0257 38.3867 42.8791 37.96C42.7324 37.52 42.6591 37.0467 42.6591 36.54C42.6591 36.3267 42.6791 36.1067 42.7191 35.88C42.7591 35.64 42.8124 35.4133 42.8791 35.2C42.9591 34.9733 43.0524 34.7667 43.1591 34.58C43.2657 34.3933 43.3857 34.2467 43.5191 34.14H41.5391V32.86H50.8791V34.14H48.9591C49.0924 34.2467 49.2124 34.3933 49.3191 34.58C49.4257 34.7667 49.5124 34.9733 49.5791 35.2C49.6591 35.4133 49.7191 35.64 49.7591 35.88C49.7991 36.1067 49.8191 36.3267 49.8191 36.54C49.8191 37.0467 49.7457 37.52 49.5991 37.96C49.4524 38.3867 49.2257 38.76 48.9191 39.08C48.6257 39.3867 48.2524 39.6267 47.7991 39.8C47.3591 39.9733 46.8457 40.06 46.2591 40.06ZM46.2391 38.86C46.9191 38.86 47.4457 38.6667 47.8191 38.28C48.1924 37.88 48.3791 37.3 48.3791 36.54C48.3791 35.7267 48.1924 35.12 47.8191 34.72C47.4457 34.32 46.9191 34.12 46.2391 34.12C45.5591 34.12 45.0324 34.32 44.6591 34.72C44.2857 35.12 44.0991 35.7267 44.0991 36.54C44.0991 37.3 44.2857 37.88 44.6591 38.28C45.0324 38.6667 45.5591 38.86 46.2391 38.86ZM75.9941 38.3H74.1741V46.2H72.7541V30.1H74.1741V37H75.9941V29.88H77.4541V46.76H75.9941V38.3ZM63.6341 33.14H71.7741V34.44H63.6341V33.14ZM65.4741 31.86V30.46H70.1141V31.86H65.4741ZM67.8541 43.08C67.2674 43.08 66.7607 42.98 66.3341 42.78C65.9074 42.58 65.5541 42.3067 65.2741 41.96C65.0074 41.6133 64.8074 41.2067 64.6741 40.74C64.5541 40.2733 64.4941 39.7733 64.4941 39.24C64.4941 38.7067 64.5541 38.2067 64.6741 37.74C64.8074 37.2733 65.0074 36.8667 65.2741 36.52C65.5407 36.1733 65.8874 35.9 66.3141 35.7C66.7407 35.5 67.2474 35.4 67.8341 35.4C68.4341 35.4 68.9474 35.5 69.3741 35.7C69.8007 35.9 70.1474 36.1733 70.4141 36.52C70.6941 36.8667 70.8941 37.2733 71.0141 37.74C71.1474 38.2067 71.2141 38.7067 71.2141 39.24C71.2141 39.7733 71.1474 40.2733 71.0141 40.74C70.8941 41.2067 70.7007 41.6133 70.4341 41.96C70.1674 42.3067 69.8207 42.58 69.3941 42.78C68.9674 42.98 68.4541 43.08 67.8541 43.08ZM67.8541 41.9C68.5341 41.9 69.0274 41.66 69.3341 41.18C69.6541 40.6867 69.8141 40.04 69.8141 39.24C69.8141 38.44 69.6541 37.8 69.3341 37.32C69.0274 36.8267 68.5341 36.58 67.8541 36.58C67.1741 36.58 66.6741 36.8267 66.3541 37.32C66.0474 37.8 65.8941 38.44 65.8941 39.24C65.8941 40.04 66.0474 40.6867 66.3541 41.18C66.6741 41.66 67.1741 41.9 67.8541 41.9ZM80.4436 37.68C81.4969 37.24 82.4169 36.82 83.2036 36.42C83.9903 36.02 84.6436 35.6267 85.1636 35.24C85.6969 34.84 86.0903 34.44 86.3436 34.04C86.6103 33.64 86.7436 33.2067 86.7436 32.74V31.84H81.0836V30.58H88.2636V32.12H91.6836V29.88H93.2036V38.32H91.6836V36.94H88.1236V35.64H91.6836V33.42H88.1836C88.0769 34.0067 87.8569 34.5333 87.5236 35C87.2036 35.4533 86.7569 35.8933 86.1836 36.32C85.6103 36.7333 84.8969 37.1533 84.0436 37.58C83.2036 37.9933 82.2169 38.44 81.0836 38.92L80.4436 37.68ZM93.2036 39.52V43.66H84.6636V45.46C84.6636 45.5667 84.6769 45.6333 84.7036 45.66C84.7436 45.7 84.8103 45.72 84.9036 45.72H93.7836V46.96H84.1836C83.7969 46.96 83.5303 46.8733 83.3836 46.7C83.2369 46.5267 83.1636 46.26 83.1636 45.9V42.44H91.6836V40.74H83.2236V39.52H93.2036ZM99.8731 46.76C99.5131 46.76 99.2531 46.6733 99.0931 46.5C98.9331 46.34 98.8531 46.0667 98.8531 45.68V40.4H108.893V46.76H99.8731ZM107.353 41.62H100.353V45.26C100.353 45.3667 100.373 45.44 100.413 45.48C100.453 45.52 100.533 45.54 100.653 45.54H107.353V41.62ZM108.893 33.68H111.473V35H108.893V39.2H107.353V29.88H108.893V33.68ZM104.353 30.7V37.96H97.6731C97.3131 37.96 97.0531 37.88 96.8931 37.72C96.7331 37.56 96.6531 37.2667 96.6531 36.84V30.7H104.353ZM98.1531 36.46C98.1531 36.5667 98.1665 36.64 98.1931 36.68C98.2331 36.72 98.3065 36.74 98.4131 36.74H102.873V31.92H98.1531V36.46Z" fill="#FF4646"/>
<rect opacity="0.5" x="8.5" y="85" width="77" height="12" fill="#F7FF5E"/>
<path d="M1.5 6V99.5" stroke="#FF4646" stroke-width="3"/>
<path d="M20.425 70.35H18.4V73.92H17.62V66.72H18.4V69.66H20.425V70.35ZM12.625 70.17C12.555 70.4 12.42 70.665 12.22 70.965C12.02 71.265 11.775 71.57 11.485 71.88C11.195 72.19 10.875 72.485 10.525 72.765C10.175 73.045 9.815 73.28 9.445 73.47L9.07 72.9C9.5 72.63 9.905 72.34 10.285 72.03C10.675 71.71 11.015 71.37 11.305 71.01C11.595 70.65 11.82 70.265 11.98 69.855C12.15 69.445 12.235 69.015 12.235 68.565V67.065H13.015V68.565C13.015 69.005 13.09 69.415 13.24 69.795C13.4 70.175 13.615 70.53 13.885 70.86C14.155 71.19 14.475 71.5 14.845 71.79C15.215 72.08 15.61 72.355 16.03 72.615L15.655 73.185C15.305 73.005 14.965 72.79 14.635 72.54C14.305 72.29 14 72.03 13.72 71.76C13.45 71.48 13.215 71.205 13.015 70.935C12.825 70.655 12.695 70.4 12.625 70.17ZM10.99 76.95C10.99 76.62 11.055 76.305 11.185 76.005C11.315 75.695 11.525 75.425 11.815 75.195C12.115 74.955 12.505 74.765 12.985 74.625C13.465 74.485 14.06 74.415 14.77 74.415C15.47 74.415 16.06 74.485 16.54 74.625C17.03 74.765 17.42 74.955 17.71 75.195C18.01 75.425 18.225 75.695 18.355 76.005C18.485 76.305 18.55 76.62 18.55 76.95C18.55 77.28 18.485 77.6 18.355 77.91C18.225 78.21 18.01 78.475 17.71 78.705C17.42 78.945 17.03 79.135 16.54 79.275C16.06 79.415 15.47 79.485 14.77 79.485C14.06 79.485 13.465 79.415 12.985 79.275C12.505 79.135 12.115 78.945 11.815 78.705C11.525 78.475 11.315 78.21 11.185 77.91C11.055 77.6 10.99 77.28 10.99 76.95ZM17.785 76.95C17.785 76.67 17.725 76.42 17.605 76.2C17.495 75.97 17.315 75.775 17.065 75.615C16.825 75.445 16.515 75.315 16.135 75.225C15.755 75.135 15.3 75.09 14.77 75.09C13.7 75.09 12.93 75.265 12.46 75.615C11.99 75.955 11.755 76.4 11.755 76.95C11.755 77.23 11.81 77.485 11.92 77.715C12.04 77.935 12.22 78.125 12.46 78.285C12.71 78.455 13.025 78.585 13.405 78.675C13.785 78.765 14.24 78.81 14.77 78.81C15.83 78.81 16.595 78.64 17.065 78.3C17.545 77.96 17.785 77.51 17.785 76.95ZM26.8696 79.47C25.5196 79.47 24.5496 79.27 23.9596 78.87C23.3696 78.47 23.0746 77.94 23.0746 77.28C23.0746 76.95 23.1446 76.65 23.2846 76.38C23.4346 76.11 23.6596 75.88 23.9596 75.69C24.2696 75.5 24.6646 75.355 25.1446 75.255C25.6246 75.145 26.1996 75.09 26.8696 75.09C28.1996 75.09 29.1646 75.29 29.7646 75.69C30.3646 76.09 30.6646 76.62 30.6646 77.28C30.6646 77.94 30.3696 78.47 29.7796 78.87C29.1896 79.27 28.2196 79.47 26.8696 79.47ZM26.8696 78.795C27.8696 78.795 28.6246 78.67 29.1346 78.42C29.6446 78.18 29.8996 77.8 29.8996 77.28C29.8996 76.76 29.6446 76.38 29.1346 76.14C28.6246 75.89 27.8696 75.765 26.8696 75.765C25.8696 75.765 25.1146 75.89 24.6046 76.14C24.0946 76.38 23.8396 76.76 23.8396 77.28C23.8396 77.8 24.0946 78.18 24.6046 78.42C25.1146 78.67 25.8696 78.795 26.8696 78.795ZM24.6646 73.65V72.69C23.8746 72.64 23.2946 72.445 22.9246 72.105C22.5546 71.755 22.3696 71.295 22.3696 70.725C22.3696 70.405 22.4396 70.115 22.5796 69.855C22.7296 69.595 22.9346 69.38 23.1946 69.21H21.4096V68.55H28.5796V69.21H26.7946C27.0546 69.38 27.2546 69.595 27.3946 69.855C27.5446 70.115 27.6196 70.405 27.6196 70.725C27.6196 71.285 27.4396 71.74 27.0796 72.09C26.7296 72.43 26.1796 72.63 25.4296 72.69V73.65H26.2396C26.8696 73.65 27.4746 73.61 28.0546 73.53C28.6446 73.45 29.1996 73.275 29.7196 73.005V66.72H30.4996V70.545H32.5246V71.25H30.4996V74.88H29.7196V73.575C29.4896 73.725 29.2346 73.85 28.9546 73.95C28.6846 74.04 28.3996 74.115 28.0996 74.175C27.7996 74.225 27.4996 74.26 27.1996 74.28C26.8996 74.3 26.6096 74.31 26.3296 74.31H21.1996V73.65H24.6646ZM24.9946 69.33C24.3846 69.33 23.9146 69.455 23.5846 69.705C23.2546 69.955 23.0896 70.295 23.0896 70.725C23.0896 71.215 23.2546 71.57 23.5846 71.79C23.9146 72 24.3846 72.105 24.9946 72.105C25.6046 72.105 26.0746 72 26.4046 71.79C26.7346 71.57 26.8996 71.215 26.8996 70.725C26.8996 70.295 26.7346 69.955 26.4046 69.705C26.0746 69.455 25.6046 69.33 24.9946 69.33ZM26.9596 66.855V67.56H23.0296V66.855H26.9596ZM46.8033 69.78H48.8283V70.485H46.8033V75.795H46.0233V72.75C45.7033 72.92 45.3033 73.06 44.8233 73.17C44.3433 73.28 43.8033 73.335 43.2033 73.335H37.6683V72.675H39.0933V68.1H37.7733V67.44H44.3283V68.1H43.0533V72.675H43.4133C43.9333 72.675 44.4133 72.63 44.8533 72.54C45.3033 72.44 45.6933 72.305 46.0233 72.135V66.72H46.8033V69.78ZM39.8583 72.675H42.2883V68.1H39.8583V72.675ZM40.2933 78.285C40.2933 78.385 40.3033 78.445 40.3233 78.465C40.3533 78.485 40.4133 78.495 40.5033 78.495H47.1033V79.185H40.1433C39.9133 79.185 39.7533 79.125 39.6633 79.005C39.5733 78.895 39.5283 78.725 39.5283 78.495V75.105H40.2933V78.285ZM55.4379 72.585C55.9779 72.585 56.4679 72.535 56.9079 72.435C57.3579 72.335 57.7629 72.205 58.1229 72.045V66.72H58.9029V69.765H60.9279V70.47H58.9029V75.825H58.1229V72.63C57.7829 72.79 57.3629 72.935 56.8629 73.065C56.3629 73.185 55.8229 73.245 55.2429 73.245H50.7579C50.5279 73.245 50.3679 73.19 50.2779 73.08C50.1879 72.96 50.1429 72.785 50.1429 72.555V67.44H55.4529V68.115H50.9229V72.375C50.9229 72.475 50.9329 72.535 50.9529 72.555C50.9829 72.575 51.0429 72.585 51.1329 72.585H55.4379ZM52.2429 79.185C52.0129 79.185 51.8529 79.125 51.7629 79.005C51.6729 78.895 51.6279 78.725 51.6279 78.495V75.06H52.3929V78.285C52.3929 78.385 52.4029 78.445 52.4229 78.465C52.4529 78.485 52.5129 78.495 52.6029 78.495H59.2029V79.185H52.2429ZM70.6725 66.72H71.4525V79.245H70.6725V66.72ZM65.2125 68.01C64.4825 68.01 63.9325 68.3 63.5625 68.88C63.2025 69.45 63.0225 70.39 63.0225 71.7C63.0225 73.01 63.2025 73.955 63.5625 74.535C63.9325 75.105 64.4825 75.39 65.2125 75.39C65.9425 75.39 66.4875 75.105 66.8475 74.535C67.2175 73.955 67.4025 73.01 67.4025 71.7C67.4025 70.39 67.2175 69.45 66.8475 68.88C66.4875 68.3 65.9425 68.01 65.2125 68.01ZM65.2125 76.065C64.2525 76.065 63.5125 75.725 62.9925 75.045C62.4825 74.355 62.2275 73.24 62.2275 71.7C62.2275 70.16 62.4825 69.05 62.9925 68.37C63.5125 67.68 64.2525 67.335 65.2125 67.335C66.1725 67.335 66.9075 67.68 67.4175 68.37C67.9375 69.05 68.1975 70.16 68.1975 71.7C68.1975 73.24 67.9375 74.355 67.4175 75.045C66.9075 75.725 66.1725 76.065 65.2125 76.065ZM81.4113 75.45H78.9063C78.6763 75.45 78.5163 75.395 78.4263 75.285C78.3363 75.165 78.2913 74.99 78.2913 74.76V67.41H79.0113V70.65H80.6913V67.41H81.4113V75.45ZM82.3713 67.41H83.0913V70.65H84.7113V67.41H85.4313V75.45H82.9863C82.7563 75.45 82.5963 75.395 82.5063 75.285C82.4163 75.165 82.3713 74.99 82.3713 74.76V67.41ZM89.3313 71.775H87.4563V79.26H86.6763V66.72H87.4563V71.07H89.3313V71.775ZM80.6913 74.79V71.31H79.0113V74.58C79.0113 74.68 79.0213 74.74 79.0413 74.76C79.0713 74.78 79.1313 74.79 79.2213 74.79H80.6913ZM84.7113 74.79V71.31H83.0913V74.58C83.0913 74.68 83.1013 74.74 83.1213 74.76C83.1513 74.78 83.2113 74.79 83.3013 74.79H84.7113ZM99.5559 73.065V73.74H92.5509C92.3209 73.74 92.1609 73.685 92.0709 73.575C91.9809 73.455 91.9359 73.28 91.9359 73.05V70.2H98.4909V68.1H91.9809V67.41H99.2559V70.845H92.7009V72.855C92.7009 72.955 92.7109 73.015 92.7309 73.035C92.7609 73.055 92.8209 73.065 92.9109 73.065H99.5559ZM101.101 76.155V76.83H90.1059V76.155H101.101ZM107.32 76.155H113.2V76.83H102.22V76.155H106.555V71.97H107.32V76.155ZM111.445 67.56V70.38C111.445 70.95 111.395 71.57 111.295 72.24C111.195 72.9 111.015 73.52 110.755 74.1L110.05 73.95C110.24 73.47 110.39 72.945 110.5 72.375C110.61 71.805 110.665 71.235 110.665 70.665V68.235H103.96V67.56H111.445ZM18.07 84.72H18.85V90.93H18.07V84.72ZM12.925 87.675C12.835 87.965 12.695 88.26 12.505 88.56C12.325 88.85 12.1 89.14 11.83 89.43C11.56 89.71 11.25 89.98 10.9 90.24C10.55 90.5 10.165 90.74 9.745 90.96L9.37 90.45C9.85 90.19 10.28 89.91 10.66 89.61C11.05 89.3 11.385 88.965 11.665 88.605C11.945 88.245 12.16 87.86 12.31 87.45C12.46 87.03 12.535 86.58 12.535 86.1V84.915H13.315V86.1C13.315 86.99 13.575 87.76 14.095 88.41C14.625 89.06 15.365 89.645 16.315 90.165L15.955 90.66C15.185 90.26 14.54 89.805 14.02 89.295C13.5 88.785 13.135 88.245 12.925 87.675ZM12.19 97.41C11.96 97.41 11.8 97.355 11.71 97.245C11.62 97.145 11.575 96.98 11.575 96.75V94.185H18.085V92.535H11.62V91.875H18.85V94.83H12.34V96.555C12.34 96.675 12.395 96.735 12.505 96.735H19.3V97.41H12.19ZM22.9096 87.135C22.9096 86.805 22.9846 86.5 23.1346 86.22C23.2846 85.93 23.5146 85.685 23.8246 85.485C24.1346 85.275 24.5246 85.115 24.9946 85.005C25.4746 84.885 26.0396 84.825 26.6896 84.825C27.9896 84.825 28.9446 85.045 29.5546 85.485C30.1646 85.915 30.4696 86.465 30.4696 87.135C30.4696 87.545 30.3596 87.915 30.1396 88.245C29.9196 88.565 29.5846 88.825 29.1346 89.025V91.095H32.1946V91.755H21.1996V91.095H24.3346V89.07C23.8446 88.87 23.4846 88.605 23.2546 88.275C23.0246 87.935 22.9096 87.555 22.9096 87.135ZM26.7046 97.47C26.0446 97.47 25.4796 97.41 25.0096 97.29C24.5396 97.18 24.1496 97.02 23.8396 96.81C23.5396 96.6 23.3196 96.35 23.1796 96.06C23.0396 95.77 22.9696 95.45 22.9696 95.1C22.9696 94.75 23.0396 94.43 23.1796 94.14C23.3196 93.85 23.5396 93.605 23.8396 93.405C24.1496 93.195 24.5396 93.035 25.0096 92.925C25.4796 92.805 26.0446 92.745 26.7046 92.745C27.3646 92.745 27.9296 92.805 28.3996 92.925C28.8696 93.035 29.2546 93.195 29.5546 93.405C29.8646 93.615 30.0896 93.865 30.2296 94.155C30.3696 94.445 30.4396 94.765 30.4396 95.115C30.4396 95.465 30.3696 95.785 30.2296 96.075C30.0896 96.365 29.8646 96.61 29.5546 96.81C29.2546 97.02 28.8696 97.18 28.3996 97.29C27.9296 97.41 27.3646 97.47 26.7046 97.47ZM26.7046 96.795C27.7346 96.795 28.4846 96.65 28.9546 96.36C29.4346 96.07 29.6746 95.65 29.6746 95.1C29.6746 94.55 29.4346 94.135 28.9546 93.855C28.4846 93.565 27.7346 93.42 26.7046 93.42C25.6746 93.42 24.9196 93.565 24.4396 93.855C23.9696 94.145 23.7346 94.565 23.7346 95.115C23.7346 95.665 23.9696 96.08 24.4396 96.36C24.9196 96.65 25.6746 96.795 26.7046 96.795ZM23.6896 87.135C23.6896 87.645 23.9296 88.045 24.4096 88.335C24.8996 88.625 25.6596 88.77 26.6896 88.77C27.7196 88.77 28.4746 88.625 28.9546 88.335C29.4446 88.045 29.6896 87.645 29.6896 87.135C29.6896 86.625 29.4446 86.225 28.9546 85.935C28.4746 85.645 27.7196 85.5 26.6896 85.5C25.6596 85.5 24.8996 85.645 24.4096 85.935C23.9296 86.225 23.6896 86.625 23.6896 87.135ZM28.3696 91.095V89.28C27.8696 89.39 27.3096 89.445 26.6896 89.445C26.0596 89.445 25.5296 89.395 25.0996 89.295V91.095H28.3696ZM36.8542 88.14C36.6942 88.73 36.3492 89.33 35.8192 89.94C35.2892 90.54 34.5992 91.06 33.7492 91.5L33.3292 90.9C34.2892 90.38 35.0442 89.75 35.5942 89.01C36.1542 88.26 36.4342 87.415 36.4342 86.475V85.995H33.7042V85.335H39.8242V85.995H37.2142V86.475C37.2142 86.945 37.2992 87.39 37.4692 87.81C37.6392 88.22 37.8642 88.61 38.1442 88.98C38.4242 89.34 38.7442 89.67 39.1042 89.97C39.4742 90.27 39.8592 90.535 40.2592 90.765L39.8692 91.35C39.1292 90.94 38.4942 90.46 37.9642 89.91C37.4442 89.35 37.0742 88.76 36.8542 88.14ZM43.0492 97.41H42.2692V93.45H35.6242V92.79H43.0492V97.41ZM43.0492 91.845H42.2692V88.395H39.5842V87.69H42.2692V84.72H43.0492V91.845ZM55.1488 93.495H54.3688V84.72H55.1488V93.495ZM48.8638 91.23C48.3038 91.23 47.8288 91.15 47.4388 90.99C47.0488 90.82 46.7288 90.595 46.4788 90.315C46.2288 90.035 46.0488 89.71 45.9388 89.34C45.8288 88.96 45.7738 88.555 45.7738 88.125C45.7738 87.695 45.8288 87.295 45.9388 86.925C46.0488 86.545 46.2288 86.215 46.4788 85.935C46.7288 85.655 47.0488 85.435 47.4388 85.275C47.8288 85.105 48.3038 85.02 48.8638 85.02C49.4238 85.02 49.8988 85.105 50.2888 85.275C50.6788 85.435 50.9988 85.655 51.2488 85.935C51.4988 86.215 51.6788 86.545 51.7888 86.925C51.8988 87.295 51.9538 87.695 51.9538 88.125C51.9538 88.555 51.8988 88.96 51.7888 89.34C51.6788 89.71 51.4988 90.035 51.2488 90.315C50.9988 90.595 50.6788 90.82 50.2888 90.99C49.8988 91.15 49.4238 91.23 48.8638 91.23ZM48.8638 90.555C49.5738 90.555 50.1338 90.345 50.5438 89.925C50.9638 89.505 51.1738 88.905 51.1738 88.125C51.1738 87.345 50.9638 86.745 50.5438 86.325C50.1338 85.905 49.5738 85.695 48.8638 85.695C48.1538 85.695 47.5888 85.905 47.1688 86.325C46.7588 86.745 46.5538 87.345 46.5538 88.125C46.5538 88.905 46.7588 89.505 47.1688 89.925C47.5888 90.345 48.1538 90.555 48.8638 90.555ZM48.6388 96.285C48.6388 96.385 48.6488 96.445 48.6688 96.465C48.6988 96.485 48.7588 96.495 48.8488 96.495H55.4488V97.185H48.4888C48.2588 97.185 48.0988 97.125 48.0088 97.005C47.9188 96.895 47.8738 96.725 47.8738 96.495V92.805H48.6388V96.285ZM69.2775 89.43H71.0775V84.72H71.8275V97.26H71.0775V90.135H69.2775V96.84H68.5275V84.885H69.2775V89.43ZM67.6875 87.195V87.87H61.7025V87.195H67.6875ZM63.0825 85.155H66.4425V85.875H63.0825V85.155ZM62.3025 91.68C62.3025 91.17 62.3625 90.735 62.4825 90.375C62.6125 90.015 62.7875 89.725 63.0075 89.505C63.2375 89.275 63.5025 89.11 63.8025 89.01C64.1125 88.9 64.4475 88.845 64.8075 88.845C65.1675 88.845 65.4975 88.9 65.7975 89.01C66.1075 89.11 66.3725 89.275 66.5925 89.505C66.8225 89.725 66.9975 90.015 67.1175 90.375C67.2475 90.735 67.3125 91.17 67.3125 91.68C67.3125 92.19 67.2475 92.625 67.1175 92.985C66.9975 93.345 66.8225 93.64 66.5925 93.87C66.3725 94.09 66.1075 94.255 65.7975 94.365C65.4975 94.465 65.1675 94.515 64.8075 94.515C64.4475 94.515 64.1125 94.465 63.8025 94.365C63.5025 94.255 63.2375 94.09 63.0075 93.87C62.7875 93.64 62.6125 93.345 62.4825 92.985C62.3625 92.625 62.3025 92.19 62.3025 91.68ZM63.0825 91.68C63.0825 92.45 63.2325 93.005 63.5325 93.345C63.8425 93.685 64.2675 93.855 64.8075 93.855C65.3475 93.855 65.7675 93.685 66.0675 93.345C66.3775 93.005 66.5325 92.45 66.5325 91.68C66.5325 90.91 66.3775 90.355 66.0675 90.015C65.7675 89.675 65.3475 89.505 64.8075 89.505C64.2675 89.505 63.8425 89.675 63.5325 90.015C63.2325 90.355 63.0825 90.91 63.0825 91.68ZM83.5521 90.99H82.7721V89.76H79.7571V89.07H82.7721V87.15H79.8621C79.7821 87.61 79.6121 88.025 79.3521 88.395C79.0921 88.755 78.7371 89.1 78.2871 89.43C77.8371 89.75 77.2971 90.065 76.6671 90.375C76.0371 90.685 75.3171 91.005 74.5071 91.335L74.1921 90.72C75.0321 90.39 75.7571 90.07 76.3671 89.76C76.9871 89.45 77.5021 89.14 77.9121 88.83C78.3221 88.51 78.6271 88.185 78.8271 87.855C79.0271 87.515 79.1271 87.155 79.1271 86.775V85.905H74.6721V85.245H79.9071V86.46H82.7721V84.72H83.5521V90.99ZM76.8921 97.41C76.6621 97.41 76.5021 97.355 76.4121 97.245C76.3221 97.145 76.2771 96.98 76.2771 96.75V94.26H82.7871V92.61H76.3221V91.95H83.5521V94.905H77.0421V96.555C77.0421 96.675 77.0971 96.735 77.2071 96.735H84.0021V97.41H76.8921ZM86.1118 89.655C86.1118 88.885 86.1668 88.225 86.2768 87.675C86.3968 87.125 86.5718 86.68 86.8018 86.34C87.0318 85.99 87.3118 85.735 87.6418 85.575C87.9818 85.415 88.3718 85.335 88.8118 85.335C89.6018 85.335 90.2218 85.615 90.6718 86.175C91.1218 86.735 91.3818 87.655 91.4518 88.935H93.2368V84.885H93.9868V96.84H93.2368V89.625H91.4818C91.4818 90.405 91.4218 91.07 91.3018 91.62C91.1918 92.17 91.0218 92.62 90.7918 92.97C90.5718 93.32 90.2918 93.575 89.9518 93.735C89.6218 93.895 89.2418 93.975 88.8118 93.975C88.3718 93.975 87.9818 93.895 87.6418 93.735C87.3118 93.575 87.0318 93.325 86.8018 92.985C86.5718 92.635 86.3968 92.185 86.2768 91.635C86.1668 91.085 86.1118 90.425 86.1118 89.655ZM86.8618 89.655C86.8618 90.345 86.9068 90.925 86.9968 91.395C87.0868 91.865 87.2118 92.245 87.3718 92.535C87.5418 92.815 87.7468 93.015 87.9868 93.135C88.2268 93.255 88.4968 93.315 88.7968 93.315C89.0968 93.315 89.3668 93.255 89.6068 93.135C89.8568 93.015 90.0618 92.815 90.2218 92.535C90.3918 92.245 90.5218 91.865 90.6118 91.395C90.7018 90.925 90.7468 90.345 90.7468 89.655C90.7468 88.965 90.7018 88.385 90.6118 87.915C90.5218 87.445 90.3918 87.07 90.2218 86.79C90.0618 86.5 89.8568 86.295 89.6068 86.175C89.3668 86.055 89.0968 85.995 88.7968 85.995C88.4968 85.995 88.2268 86.055 87.9868 86.175C87.7468 86.295 87.5418 86.5 87.3718 86.79C87.2118 87.07 87.0868 87.445 86.9968 87.915C86.9068 88.385 86.8618 88.965 86.8618 89.655ZM96.0268 97.26H95.2768V84.72H96.0268V97.26ZM108.13 86.925C108.13 87.475 108.015 87.965 107.785 88.395C107.555 88.825 107.215 89.225 106.765 89.595C106.315 89.955 105.75 90.305 105.07 90.645C104.4 90.985 103.62 91.345 102.73 91.725L102.415 91.11C103.255 90.77 103.98 90.44 104.59 90.12C105.21 89.8 105.725 89.485 106.135 89.175C106.545 88.855 106.85 88.53 107.05 88.2C107.25 87.86 107.35 87.5 107.35 87.12V86.07H102.895V85.41H108.13V86.925ZM113.53 88.335H111.505V91.92H110.725V84.72H111.505V87.645H113.53V88.335ZM104.08 94.95C104.08 94.62 104.145 94.305 104.275 94.005C104.405 93.695 104.615 93.425 104.905 93.195C105.205 92.955 105.595 92.765 106.075 92.625C106.555 92.485 107.15 92.415 107.86 92.415C108.56 92.415 109.15 92.485 109.63 92.625C110.12 92.765 110.51 92.955 110.8 93.195C111.1 93.425 111.315 93.695 111.445 94.005C111.575 94.305 111.64 94.62 111.64 94.95C111.64 95.28 111.575 95.6 111.445 95.91C111.315 96.21 111.1 96.475 110.8 96.705C110.51 96.945 110.12 97.135 109.63 97.275C109.15 97.415 108.56 97.485 107.86 97.485C107.15 97.485 106.555 97.415 106.075 97.275C105.595 97.135 105.205 96.945 104.905 96.705C104.615 96.475 104.405 96.21 104.275 95.91C104.145 95.6 104.08 95.28 104.08 94.95ZM110.875 94.95C110.875 94.67 110.815 94.42 110.695 94.2C110.585 93.97 110.405 93.775 110.155 93.615C109.915 93.445 109.605 93.315 109.225 93.225C108.845 93.135 108.39 93.09 107.86 93.09C106.79 93.09 106.02 93.265 105.55 93.615C105.08 93.955 104.845 94.4 104.845 94.95C104.845 95.23 104.9 95.485 105.01 95.715C105.13 95.935 105.31 96.125 105.55 96.285C105.8 96.455 106.115 96.585 106.495 96.675C106.875 96.765 107.33 96.81 107.86 96.81C108.92 96.81 109.685 96.64 110.155 96.3C110.635 95.96 110.875 95.51 110.875 94.95ZM123.605 88.71H125.63V89.4H123.605V93.945H122.825V84.72H123.605V88.71ZM119.435 85.575H115.835V84.87H119.435V85.575ZM117.62 92.22C116.83 92.22 116.205 92.005 115.745 91.575C115.285 91.145 115.055 90.53 115.055 89.73C115.055 89.26 115.135 88.84 115.295 88.47C115.465 88.1 115.7 87.835 116 87.675H114.08V87.015H121.085V87.675H119.27C119.57 87.835 119.8 88.1 119.96 88.47C120.13 88.84 120.215 89.26 120.215 89.73C120.215 90.53 119.985 91.145 119.525 91.575C119.065 92.005 118.43 92.22 117.62 92.22ZM117.635 87.78C117.305 87.78 117.025 87.835 116.795 87.945C116.565 88.045 116.375 88.185 116.225 88.365C116.085 88.545 115.985 88.755 115.925 88.995C115.865 89.225 115.835 89.47 115.835 89.73C115.835 90.94 116.435 91.545 117.635 91.545C118.835 91.545 119.435 90.94 119.435 89.73C119.435 89.47 119.405 89.225 119.345 88.995C119.285 88.755 119.18 88.545 119.03 88.365C118.89 88.185 118.705 88.045 118.475 87.945C118.245 87.835 117.965 87.78 117.635 87.78ZM117.095 96.285C117.095 96.385 117.105 96.445 117.125 96.465C117.155 96.485 117.215 96.495 117.305 96.495H123.905V97.185H116.945C116.715 97.185 116.555 97.125 116.465 97.005C116.375 96.895 116.33 96.725 116.33 96.495V93.555H117.095V96.285ZM133.939 90.96C133.379 90.96 132.904 90.885 132.514 90.735C132.134 90.585 131.819 90.38 131.569 90.12C131.319 89.85 131.139 89.535 131.029 89.175C130.919 88.805 130.864 88.41 130.864 87.99C130.864 87.57 130.919 87.18 131.029 86.82C131.139 86.45 131.319 86.135 131.569 85.875C131.819 85.605 132.134 85.395 132.514 85.245C132.904 85.095 133.379 85.02 133.939 85.02C134.419 85.02 134.839 85.08 135.199 85.2C135.559 85.31 135.859 85.47 136.099 85.68C136.349 85.89 136.544 86.14 136.684 86.43C136.824 86.72 136.919 87.035 136.969 87.375H139.579V84.72H140.359V91.65H139.579V88.08H137.014C137.004 88.49 136.939 88.875 136.819 89.235C136.709 89.585 136.529 89.89 136.279 90.15C136.029 90.4 135.709 90.6 135.319 90.75C134.939 90.89 134.479 90.96 133.939 90.96ZM140.359 97.26H133.549C133.319 97.26 133.159 97.2 133.069 97.08C132.979 96.97 132.934 96.8 132.934 96.57V92.61H140.359V97.26ZM139.594 96.615V93.24H133.699V96.405C133.699 96.505 133.709 96.565 133.729 96.585C133.759 96.605 133.819 96.615 133.909 96.615H139.594ZM133.939 90.285C134.639 90.285 135.194 90.1 135.604 89.73C136.024 89.35 136.234 88.77 136.234 87.99C136.234 87.21 136.024 86.635 135.604 86.265C135.194 85.885 134.639 85.695 133.939 85.695C133.239 85.695 132.679 85.885 132.259 86.265C131.849 86.635 131.644 87.21 131.644 87.99C131.644 88.77 131.849 89.35 132.259 89.73C132.679 90.1 133.239 90.285 133.939 90.285ZM154.033 89.73H152.008V97.26H151.228V84.72H152.008V89.025H154.033V89.73ZM148.648 93.735H143.788C143.558 93.735 143.398 93.68 143.308 93.57C143.218 93.45 143.173 93.275 143.173 93.045V85.56H148.648V93.735ZM147.868 93.06V86.235H143.938V92.85C143.938 92.95 143.948 93.01 143.968 93.03C143.998 93.05 144.058 93.06 144.148 93.06H147.868Z" fill="#282828"/>
</svg>
