<svg width="204" height="102" viewBox="0 0 204 102" fill="none" xmlns="http://www.w3.org/2000/svg">
<path d="M13.468 6.44V11.096H16.516C17.348 11.096 17.988 10.904 18.436 10.52C18.9 10.136 19.132 9.552 19.132 8.768C19.132 7.984 18.9 7.4 18.436 7.016C17.988 6.632 17.348 6.44 16.516 6.44H13.468ZM10.3 20V3.872H16.54C18.476 3.872 19.94 4.28 20.932 5.096C21.924 5.896 22.42 7.12 22.42 8.768C22.42 9.776 22.156 10.672 21.628 11.456C21.116 12.224 20.404 12.792 19.492 13.16L23.044 20H19.684L16.396 13.664H13.468V20H10.3ZM36.9516 3.872V6.44H32.3436V20H29.1756V6.44H24.5436V3.872H36.9516ZM39.5328 3.872H42.7008V20H39.5328V3.872ZM53.6858 20L50.3258 11.936L49.7018 10.304H49.6778L49.7258 11.984V20H46.5578V3.872H50.0378L54.5018 14.864L55.0778 16.376H55.1258L55.7018 14.864L60.1658 3.872H63.6218V20H60.4538V11.984L60.5018 10.304H60.4778L59.8778 11.936L56.5178 20H53.6858Z" fill="#FF4646"/>
<path d="M16.62 37.84C15.6867 37.84 14.8867 37.7467 14.22 37.56C13.5533 37.3733 13.0067 37.1133 12.58 36.78C12.1667 36.4333 11.86 36.02 11.66 35.54C11.46 35.0467 11.36 34.5067 11.36 33.92C11.36 33.32 11.46 32.78 11.66 32.3C11.86 31.8067 12.1667 31.3867 12.58 31.04C13.0067 30.6933 13.5533 30.4267 14.22 30.24C14.8867 30.0533 15.6867 29.96 16.62 29.96C17.5533 29.96 18.3533 30.0533 19.02 30.24C19.6867 30.4267 20.2267 30.6933 20.64 31.04C21.0667 31.3867 21.38 31.8067 21.58 32.3C21.78 32.78 21.88 33.32 21.88 33.92C21.88 34.5067 21.78 35.0467 21.58 35.54C21.38 36.02 21.0667 36.4333 20.64 36.78C20.2267 37.1133 19.6867 37.3733 19.02 37.56C18.3533 37.7467 17.5533 37.84 16.62 37.84ZM24.04 40.82H20.28V46.76H18.76V40.82H14.56V46.76H13.04V40.82H9.22V39.56H24.04V40.82ZM16.62 36.56C17.9 36.56 18.8333 36.32 19.42 35.84C20.02 35.36 20.32 34.7133 20.32 33.9C20.32 33.0867 20.02 32.44 19.42 31.96C18.8333 31.48 17.9 31.24 16.62 31.24C15.34 31.24 14.4 31.48 13.8 31.96C13.2133 32.44 12.92 33.0867 12.92 33.9C12.92 34.7133 13.2133 35.36 13.8 35.84C14.4 36.32 15.34 36.56 16.62 36.56ZM29.9695 38.66C29.2095 38.66 28.5629 38.5467 28.0295 38.32C27.4962 38.08 27.0629 37.7667 26.7295 37.38C26.3962 36.98 26.1495 36.5333 25.9895 36.04C25.8429 35.5333 25.7695 35.0133 25.7695 34.48C25.7695 33.9467 25.8429 33.4333 25.9895 32.94C26.1495 32.4333 26.3962 31.9867 26.7295 31.6C27.0629 31.2 27.4962 30.88 28.0295 30.64C28.5629 30.4 29.2095 30.28 29.9695 30.28C30.8495 30.28 31.5762 30.44 32.1495 30.76C32.7229 31.0667 33.1695 31.4667 33.4895 31.96H37.2695V29.88H38.7895V41.66H37.2695V37.26H33.2895C32.9562 37.6867 32.5162 38.0267 31.9695 38.28C31.4362 38.5333 30.7695 38.66 29.9695 38.66ZM29.9695 37.46C30.8095 37.46 31.4695 37.2067 31.9495 36.7C32.4295 36.1933 32.6695 35.4533 32.6695 34.48C32.6695 33.5467 32.4295 32.8133 31.9495 32.28C31.4695 31.7467 30.8095 31.48 29.9695 31.48C29.1295 31.48 28.4695 31.7467 27.9895 32.28C27.5095 32.8133 27.2695 33.5467 27.2695 34.48C27.2695 35.4533 27.5095 36.1933 27.9895 36.7C28.4695 37.2067 29.1295 37.46 29.9695 37.46ZM29.8495 46.66C29.1162 46.66 28.7495 46.3067 28.7495 45.6V40.66H30.2495V45.02C30.2495 45.1933 30.2695 45.2933 30.3095 45.32C30.3495 45.36 30.4495 45.38 30.6095 45.38H39.1895V46.66H29.8495ZM37.2695 33.26H34.0295C34.0829 33.46 34.1162 33.6667 34.1295 33.88C34.1562 34.08 34.1695 34.28 34.1695 34.48C34.1695 35.0267 34.1029 35.52 33.9695 35.96H37.2695V33.26ZM45.5391 46.66C44.8057 46.66 44.4391 46.3067 44.4391 45.6V41.66H45.9391V45.02C45.9391 45.1933 45.9591 45.2933 45.9991 45.32C46.0391 45.36 46.1391 45.38 46.2991 45.38H54.8791V46.66H45.5391ZM54.4791 35.08H57.0591V36.4H54.4791V42.66H52.9391V29.88H54.4791V35.08ZM43.8191 31.46V30.08H48.6791V31.46H43.8191ZM46.2591 40.06C45.6591 40.06 45.1324 39.9733 44.6791 39.8C44.2257 39.6267 43.8457 39.3867 43.5391 39.08C43.2457 38.76 43.0257 38.3867 42.8791 37.96C42.7324 37.52 42.6591 37.0467 42.6591 36.54C42.6591 36.3267 42.6791 36.1067 42.7191 35.88C42.7591 35.64 42.8124 35.4133 42.8791 35.2C42.9591 34.9733 43.0524 34.7667 43.1591 34.58C43.2657 34.3933 43.3857 34.2467 43.5191 34.14H41.5391V32.86H50.8791V34.14H48.9591C49.0924 34.2467 49.2124 34.3933 49.3191 34.58C49.4257 34.7667 49.5124 34.9733 49.5791 35.2C49.6591 35.4133 49.7191 35.64 49.7591 35.88C49.7991 36.1067 49.8191 36.3267 49.8191 36.54C49.8191 37.0467 49.7457 37.52 49.5991 37.96C49.4524 38.3867 49.2257 38.76 48.9191 39.08C48.6257 39.3867 48.2524 39.6267 47.7991 39.8C47.3591 39.9733 46.8457 40.06 46.2591 40.06ZM46.2391 38.86C46.9191 38.86 47.4457 38.6667 47.8191 38.28C48.1924 37.88 48.3791 37.3 48.3791 36.54C48.3791 35.7267 48.1924 35.12 47.8191 34.72C47.4457 34.32 46.9191 34.12 46.2391 34.12C45.5591 34.12 45.0324 34.32 44.6591 34.72C44.2857 35.12 44.0991 35.7267 44.0991 36.54C44.0991 37.3 44.2857 37.88 44.6591 38.28C45.0324 38.6667 45.5591 38.86 46.2391 38.86ZM67.9941 46.66C67.2607 46.66 66.8941 46.3067 66.8941 45.6V41.06H68.3941V45.02C68.3941 45.1933 68.4141 45.2933 68.4541 45.32C68.4941 45.36 68.5941 45.38 68.7541 45.38H77.3341V46.66H67.9941ZM75.4141 29.88H76.9341V42.06H75.4141V29.88ZM68.7941 35.36C68.4474 36.2 67.9074 36.9733 67.1741 37.68C66.4407 38.3733 65.6141 38.9733 64.6941 39.48L63.9141 38.38C64.5407 38.02 65.1007 37.62 65.5941 37.18C66.1007 36.74 66.5274 36.2733 66.8741 35.78C67.2341 35.2867 67.5074 34.78 67.6941 34.26C67.8807 33.74 67.9741 33.2267 67.9741 32.72V30.42H69.5741V33C69.5741 34.7333 70.9007 36.3867 73.5541 37.96L72.7541 39.08C72.3541 38.8667 71.9541 38.62 71.5541 38.34C71.1541 38.0467 70.7741 37.74 70.4141 37.42C70.0674 37.1 69.7474 36.7667 69.4541 36.42C69.1741 36.0733 68.9541 35.72 68.7941 35.36ZM83.1636 40.4H93.2036V46.76H84.2036C83.8436 46.76 83.5769 46.6733 83.4036 46.5C83.2436 46.34 83.1636 46.0667 83.1636 45.68V40.4ZM91.7036 45.54V41.62H84.6636V45.24C84.6636 45.36 84.6836 45.44 84.7236 45.48C84.7769 45.52 84.8636 45.54 84.9836 45.54H91.7036ZM86.8836 31.5H91.6836V29.88H93.2036V39.2H91.6836V35.68H86.8836V34.44H91.6836V32.74H86.8836V31.5ZM89.5436 37.74C89.0636 37.98 88.4769 38.16 87.7836 38.28C87.0903 38.4 86.3436 38.46 85.5436 38.46H82.3036C81.8236 38.46 81.4903 38.3667 81.3036 38.18C81.1303 37.9933 81.0436 37.6467 81.0436 37.14V30.62H82.5436V36.82C82.5436 36.9933 82.5703 37.1 82.6236 37.14C82.6769 37.18 82.7836 37.2 82.9436 37.2H85.7636C86.5236 37.2 87.1903 37.16 87.7636 37.08C88.3503 36.9867 88.8903 36.8467 89.3836 36.66L89.5436 37.74ZM99.8731 46.76C99.5131 46.76 99.2531 46.6733 99.0931 46.5C98.9331 46.34 98.8531 46.0667 98.8531 45.68V40.4H108.893V46.76H99.8731ZM107.353 41.62H100.353V45.26C100.353 45.3667 100.373 45.44 100.413 45.48C100.453 45.52 100.533 45.54 100.653 45.54H107.353V41.62ZM108.893 33.68H111.473V35H108.893V39.2H107.353V29.88H108.893V33.68ZM104.353 30.7V37.96H97.6731C97.3131 37.96 97.0531 37.88 96.8931 37.72C96.7331 37.56 96.6531 37.2667 96.6531 36.84V30.7H104.353ZM98.1531 36.46C98.1531 36.5667 98.1665 36.64 98.1931 36.68C98.2331 36.72 98.3065 36.74 98.4131 36.74H102.873V31.92H98.1531V36.46Z" fill="#FF4646"/>
<rect opacity="0.5" x="71.5" y="76" width="67" height="12" fill="#F7FF5E"/>
<path d="M1.5 2V92" stroke="#FF4646" stroke-width="3"/>
<path d="M14.59 81.675C13.34 81.675 12.375 81.405 11.695 80.865C11.025 80.325 10.69 79.61 10.69 78.72C10.69 78.29 10.775 77.895 10.945 77.535C11.125 77.175 11.38 76.865 11.71 76.605C12.04 76.345 12.445 76.145 12.925 76.005C13.415 75.865 13.97 75.795 14.59 75.795C15.21 75.795 15.76 75.865 16.24 76.005C16.73 76.145 17.14 76.345 17.47 76.605C17.8 76.865 18.05 77.175 18.22 77.535C18.4 77.895 18.49 78.29 18.49 78.72C18.49 79.61 18.15 80.325 17.47 80.865C16.8 81.405 15.84 81.675 14.59 81.675ZM14.59 81C15.58 81 16.35 80.805 16.9 80.415C17.45 80.015 17.725 79.455 17.725 78.735C17.725 78.015 17.45 77.46 16.9 77.07C16.35 76.67 15.58 76.47 14.59 76.47C13.6 76.47 12.83 76.67 12.28 77.07C11.73 77.46 11.455 78.015 11.455 78.735C11.455 79.455 11.73 80.015 12.28 80.415C12.83 80.805 13.6 81 14.59 81ZM20.095 83.715H17.155V88.26H16.39V83.715H12.79V88.26H12.025V83.715H9.1V83.055H20.095V83.715ZM24.5146 82.23C23.9546 82.23 23.4796 82.15 23.0896 81.99C22.6996 81.82 22.3796 81.595 22.1296 81.315C21.8796 81.035 21.6996 80.71 21.5896 80.34C21.4796 79.96 21.4246 79.555 21.4246 79.125C21.4246 78.695 21.4796 78.295 21.5896 77.925C21.6996 77.545 21.8796 77.215 22.1296 76.935C22.3796 76.655 22.6996 76.435 23.0896 76.275C23.4796 76.105 23.9546 76.02 24.5146 76.02C25.2046 76.02 25.7646 76.145 26.1946 76.395C26.6246 76.635 26.9546 76.955 27.1846 77.355H30.1696V75.72H30.9496V84.495H30.1696V81.06H27.0946C26.8546 81.42 26.5246 81.705 26.1046 81.915C25.6846 82.125 25.1546 82.23 24.5146 82.23ZM24.5146 81.555C25.2246 81.555 25.7846 81.345 26.1946 80.925C26.6146 80.505 26.8246 79.905 26.8246 79.125C26.8246 78.345 26.6146 77.745 26.1946 77.325C25.7846 76.905 25.2246 76.695 24.5146 76.695C23.8046 76.695 23.2396 76.905 22.8196 77.325C22.4096 77.745 22.2046 78.345 22.2046 79.125C22.2046 79.905 22.4096 80.505 22.8196 80.925C23.2396 81.345 23.8046 81.555 24.5146 81.555ZM24.4396 87.285C24.4396 87.385 24.4496 87.445 24.4696 87.465C24.4996 87.485 24.5596 87.495 24.6496 87.495H31.2496V88.185H24.2896C24.0596 88.185 23.8996 88.125 23.8096 88.005C23.7196 87.895 23.6746 87.725 23.6746 87.495V83.955H24.4396V87.285ZM30.1696 78.045H27.4696C27.5596 78.395 27.6046 78.755 27.6046 79.125C27.6046 79.585 27.5446 80 27.4246 80.37H30.1696V78.045ZM40.3342 78.195V78.87H33.3742V78.195H40.3342ZM35.0242 76.005H38.8342V76.695H35.0242V76.005ZM36.9292 85.695C36.0292 85.695 35.3242 85.46 34.8142 84.99C34.3042 84.51 34.0492 83.79 34.0492 82.83C34.0492 81.87 34.3042 81.155 34.8142 80.685C35.3242 80.205 36.0292 79.965 36.9292 79.965C37.8292 79.965 38.5342 80.205 39.0442 80.685C39.5542 81.155 39.8092 81.87 39.8092 82.83C39.8092 83.79 39.5542 84.51 39.0442 84.99C38.5342 85.46 37.8292 85.695 36.9292 85.695ZM36.9292 85.035C37.5792 85.035 38.0892 84.86 38.4592 84.51C38.8392 84.16 39.0292 83.6 39.0292 82.83C39.0292 82.06 38.8392 81.5 38.4592 81.15C38.0892 80.8 37.5792 80.625 36.9292 80.625C36.2792 80.625 35.7642 80.8 35.3842 81.15C35.0142 81.5 34.8292 82.06 34.8292 82.83C34.8292 83.6 35.0142 84.16 35.3842 84.51C35.7642 84.86 36.2792 85.035 36.9292 85.035ZM44.6242 81.93H42.5992V88.26H41.8192V75.72H42.5992V81.225H44.6242V81.93ZM49.1188 81.015C49.0388 81.305 48.9038 81.62 48.7138 81.96C48.5238 82.3 48.2938 82.645 48.0238 82.995C47.7538 83.335 47.4438 83.67 47.0938 84C46.7438 84.32 46.3688 84.61 45.9688 84.87L45.5188 84.285C45.9988 83.955 46.4338 83.595 46.8238 83.205C47.2138 82.805 47.5488 82.38 47.8288 81.93C48.1188 81.48 48.3388 81.01 48.4888 80.52C48.6488 80.03 48.7288 79.525 48.7288 79.005V77.22H45.9988V76.56H52.0888V77.22H49.5088V79.005C49.5088 80.025 49.7888 80.97 50.3488 81.84C50.9188 82.71 51.6838 83.475 52.6438 84.135L52.1938 84.72C51.8138 84.48 51.4538 84.205 51.1138 83.895C50.7838 83.585 50.4838 83.265 50.2138 82.935C49.9438 82.605 49.7138 82.275 49.5238 81.945C49.3338 81.615 49.1988 81.305 49.1188 81.015ZM54.3688 75.72H55.1488V88.26H54.3688V75.72ZM66.7984 78.93H68.8234V79.62H66.7984V84.645H66.0184V75.72H66.7984V78.93ZM67.0984 87.495V88.185H60.1384C59.9084 88.185 59.7484 88.125 59.6584 88.005C59.5684 87.895 59.5234 87.725 59.5234 87.495V83.955H60.2884V87.285C60.2884 87.385 60.2984 87.445 60.3184 87.465C60.3484 87.485 60.4084 87.495 60.4984 87.495H67.0984ZM63.4984 82.14H58.5034C58.2734 82.14 58.1134 82.085 58.0234 81.975C57.9334 81.855 57.8884 81.68 57.8884 81.45V76.44H63.4984V82.14ZM58.6534 77.07V81.3C58.6534 81.4 58.6634 81.46 58.6834 81.48C58.7134 81.5 58.7734 81.51 58.8634 81.51H62.7184V77.07H58.6534ZM79.3071 88.47C78.6471 88.47 78.0821 88.41 77.6121 88.29C77.1421 88.17 76.7521 88 76.4421 87.78C76.1421 87.57 75.9221 87.315 75.7821 87.015C75.6421 86.725 75.5721 86.405 75.5721 86.055C75.5721 85.725 75.6371 85.42 75.7671 85.14C75.8971 84.86 76.0971 84.615 76.3671 84.405C76.6371 84.195 76.9821 84.025 77.4021 83.895C77.8221 83.765 78.3271 83.69 78.9171 83.67V82.08H73.8021V81.42H84.7971V82.08H79.6821V83.67C80.8621 83.72 81.7171 83.965 82.2471 84.405C82.7771 84.845 83.0421 85.4 83.0421 86.07C83.0421 86.42 82.9721 86.74 82.8321 87.03C82.6921 87.33 82.4671 87.585 82.1571 87.795C81.8571 88.005 81.4721 88.17 81.0021 88.29C80.5321 88.41 79.9671 88.47 79.3071 88.47ZM79.3071 87.795C80.3371 87.795 81.0871 87.64 81.5571 87.33C82.0371 87.03 82.2771 86.605 82.2771 86.055C82.2771 85.505 82.0371 85.08 81.5571 84.78C81.0871 84.48 80.3371 84.33 79.3071 84.33C78.2771 84.33 77.5221 84.485 77.0421 84.795C76.5721 85.095 76.3371 85.52 76.3371 86.07C76.3371 86.62 76.5721 87.045 77.0421 87.345C77.5221 87.645 78.2771 87.795 79.3071 87.795ZM79.2921 77.91C79.1521 78.18 78.9421 78.445 78.6621 78.705C78.3821 78.955 78.0521 79.195 77.6721 79.425C77.3021 79.645 76.8871 79.855 76.4271 80.055C75.9771 80.245 75.5071 80.405 75.0171 80.535L74.6871 79.95C75.2871 79.79 75.8421 79.595 76.3521 79.365C76.8721 79.125 77.3171 78.87 77.6871 78.6C78.0671 78.32 78.3621 78.035 78.5721 77.745C78.7921 77.445 78.9021 77.15 78.9021 76.86V76.68H75.5421V76.005H83.0421V76.68H79.6821V76.86C79.6821 77.17 79.7971 77.475 80.0271 77.775C80.2671 78.075 80.5821 78.36 80.9721 78.63C81.3621 78.89 81.8071 79.13 82.3071 79.35C82.8071 79.56 83.3221 79.725 83.8521 79.845L83.5671 80.445C83.1471 80.355 82.7121 80.225 82.2621 80.055C81.8121 79.875 81.3871 79.675 80.9871 79.455C80.5871 79.225 80.2321 78.98 79.9221 78.72C79.6221 78.45 79.4121 78.18 79.2921 77.91ZM94.8718 75.72H95.6518V82.65H94.8718V75.72ZM89.7268 79.035C89.6568 79.265 89.5218 79.53 89.3218 79.83C89.1218 80.13 88.8768 80.435 88.5868 80.745C88.2968 81.045 87.9768 81.335 87.6268 81.615C87.2768 81.895 86.9168 82.13 86.5468 82.32L86.1718 81.81C86.6018 81.54 87.0068 81.25 87.3868 80.94C87.7768 80.62 88.1168 80.28 88.4068 79.92C88.6968 79.55 88.9218 79.16 89.0818 78.75C89.2518 78.34 89.3368 77.91 89.3368 77.46V76.065H90.1168V77.46C90.1168 77.9 90.1918 78.31 90.3418 78.69C90.5018 79.07 90.7168 79.43 90.9868 79.77C91.2568 80.1 91.5768 80.41 91.9468 80.7C92.3168 80.99 92.7118 81.265 93.1318 81.525L92.7568 82.035C92.4068 81.855 92.0668 81.645 91.7368 81.405C91.4068 81.155 91.1018 80.895 90.8218 80.625C90.5518 80.345 90.3168 80.07 90.1168 79.8C89.9268 79.52 89.7968 79.265 89.7268 79.035ZM95.6518 88.26H88.9918C88.7618 88.26 88.6018 88.2 88.5118 88.08C88.4218 87.97 88.3768 87.8 88.3768 87.57V83.61H95.6518V88.26ZM94.8868 87.615V84.24H89.1418V87.405C89.1418 87.505 89.1518 87.565 89.1718 87.585C89.2018 87.605 89.2618 87.615 89.3518 87.615H94.8868ZM98.0014 82.845V82.17H108.996V82.845H98.0014ZM103.491 80.895C102.841 80.895 102.276 80.83 101.796 80.7C101.316 80.56 100.916 80.38 100.596 80.16C100.286 79.93 100.051 79.665 99.8914 79.365C99.7414 79.055 99.6664 78.725 99.6664 78.375C99.6664 78.035 99.7414 77.71 99.8914 77.4C100.051 77.09 100.286 76.825 100.596 76.605C100.916 76.375 101.316 76.195 101.796 76.065C102.276 75.925 102.841 75.855 103.491 75.855C104.141 75.855 104.706 75.925 105.186 76.065C105.666 76.195 106.061 76.375 106.371 76.605C106.691 76.825 106.926 77.09 107.076 77.4C107.236 77.71 107.316 78.035 107.316 78.375C107.316 78.725 107.236 79.055 107.076 79.365C106.926 79.665 106.691 79.93 106.371 80.16C106.061 80.38 105.666 80.56 105.186 80.7C104.706 80.83 104.141 80.895 103.491 80.895ZM103.491 80.22C104.041 80.22 104.506 80.175 104.886 80.085C105.276 79.995 105.591 79.87 105.831 79.71C106.081 79.54 106.261 79.345 106.371 79.125C106.481 78.895 106.536 78.645 106.536 78.375C106.536 78.105 106.481 77.86 106.371 77.64C106.261 77.41 106.081 77.215 105.831 77.055C105.591 76.885 105.276 76.755 104.886 76.665C104.506 76.575 104.041 76.53 103.491 76.53C102.941 76.53 102.471 76.575 102.081 76.665C101.701 76.755 101.386 76.885 101.136 77.055C100.896 77.215 100.721 77.41 100.611 77.64C100.501 77.86 100.446 78.105 100.446 78.375C100.446 78.645 100.501 78.895 100.611 79.125C100.721 79.345 100.896 79.54 101.136 79.71C101.386 79.87 101.701 79.995 102.081 80.085C102.471 80.175 102.941 80.22 103.491 80.22ZM100.566 87.285C100.566 87.385 100.576 87.445 100.596 87.465C100.626 87.485 100.686 87.495 100.776 87.495H107.496V88.185H100.416C100.186 88.185 100.026 88.125 99.9364 88.005C99.8464 87.895 99.8014 87.725 99.8014 87.495V84.375H100.566V87.285ZM119.57 85.74V82.845H114.305V82.17H125.3V82.845H120.335V85.74H119.57ZM116.87 87.285C116.87 87.385 116.88 87.445 116.9 87.465C116.93 87.485 116.99 87.495 117.08 87.495H123.8V88.185H116.72C116.49 88.185 116.33 88.125 116.24 88.005C116.15 87.895 116.105 87.725 116.105 87.495V84.66H116.87V87.285ZM116.21 75.96H116.975V77.715H122.615V75.96H123.395V80.76H116.825C116.595 80.76 116.435 80.705 116.345 80.595C116.255 80.475 116.21 80.3 116.21 80.07V75.96ZM122.615 80.115V78.345H116.975V79.905C116.975 80.005 116.985 80.065 117.005 80.085C117.035 80.105 117.095 80.115 117.185 80.115H122.615ZM132.66 81.63H127.665C127.435 81.63 127.275 81.575 127.185 81.465C127.095 81.345 127.05 81.17 127.05 80.94V76.335H132.66V77.37H135.375V75.72H136.155V82.92H135.375V80.55H132.66V81.63ZM128.745 85.95C128.745 85.62 128.81 85.305 128.94 85.005C129.07 84.695 129.28 84.425 129.57 84.195C129.87 83.955 130.26 83.765 130.74 83.625C131.22 83.485 131.815 83.415 132.525 83.415C133.225 83.415 133.815 83.485 134.295 83.625C134.785 83.765 135.175 83.955 135.465 84.195C135.765 84.425 135.98 84.695 136.11 85.005C136.24 85.305 136.305 85.62 136.305 85.95C136.305 86.28 136.24 86.6 136.11 86.91C135.98 87.21 135.765 87.475 135.465 87.705C135.175 87.945 134.785 88.135 134.295 88.275C133.815 88.415 133.225 88.485 132.525 88.485C131.815 88.485 131.22 88.415 130.74 88.275C130.26 88.135 129.87 87.945 129.57 87.705C129.28 87.475 129.07 87.21 128.94 86.91C128.81 86.6 128.745 86.28 128.745 85.95ZM135.54 85.95C135.54 85.67 135.48 85.42 135.36 85.2C135.25 84.97 135.07 84.775 134.82 84.615C134.58 84.445 134.27 84.315 133.89 84.225C133.51 84.135 133.055 84.09 132.525 84.09C131.455 84.09 130.685 84.265 130.215 84.615C129.745 84.955 129.51 85.4 129.51 85.95C129.51 86.23 129.565 86.485 129.675 86.715C129.795 86.935 129.975 87.125 130.215 87.285C130.465 87.455 130.78 87.585 131.16 87.675C131.54 87.765 131.995 87.81 132.525 87.81C133.585 87.81 134.35 87.64 134.82 87.3C135.3 86.96 135.54 86.51 135.54 85.95ZM127.815 76.965V80.79C127.815 80.89 127.825 80.95 127.845 80.97C127.875 80.99 127.935 81 128.025 81H131.88V76.965H127.815ZM135.375 78.06H132.66V79.86H135.375V78.06ZM147.804 79.71H149.829V80.4H147.804V84.945H147.024V75.72H147.804V79.71ZM143.634 76.575H140.034V75.87H143.634V76.575ZM141.819 83.22C141.029 83.22 140.404 83.005 139.944 82.575C139.484 82.145 139.254 81.53 139.254 80.73C139.254 80.26 139.334 79.84 139.494 79.47C139.664 79.1 139.899 78.835 140.199 78.675H138.279V78.015H145.284V78.675H143.469C143.769 78.835 143.999 79.1 144.159 79.47C144.329 79.84 144.414 80.26 144.414 80.73C144.414 81.53 144.184 82.145 143.724 82.575C143.264 83.005 142.629 83.22 141.819 83.22ZM141.834 78.78C141.504 78.78 141.224 78.835 140.994 78.945C140.764 79.045 140.574 79.185 140.424 79.365C140.284 79.545 140.184 79.755 140.124 79.995C140.064 80.225 140.034 80.47 140.034 80.73C140.034 81.94 140.634 82.545 141.834 82.545C143.034 82.545 143.634 81.94 143.634 80.73C143.634 80.47 143.604 80.225 143.544 79.995C143.484 79.755 143.379 79.545 143.229 79.365C143.089 79.185 142.904 79.045 142.674 78.945C142.444 78.835 142.164 78.78 141.834 78.78ZM141.294 87.285C141.294 87.385 141.304 87.445 141.324 87.465C141.354 87.485 141.414 87.495 141.504 87.495H148.104V88.185H141.144C140.914 88.185 140.754 88.125 140.664 88.005C140.574 87.895 140.529 87.725 140.529 87.495V84.555H141.294V87.285ZM158.138 81.96C157.578 81.96 157.103 81.885 156.713 81.735C156.333 81.585 156.018 81.38 155.768 81.12C155.518 80.85 155.338 80.535 155.228 80.175C155.118 79.805 155.063 79.41 155.063 78.99C155.063 78.57 155.118 78.18 155.228 77.82C155.338 77.45 155.518 77.135 155.768 76.875C156.018 76.605 156.333 76.395 156.713 76.245C157.103 76.095 157.578 76.02 158.138 76.02C158.618 76.02 159.038 76.08 159.398 76.2C159.758 76.31 160.058 76.47 160.298 76.68C160.548 76.89 160.743 77.14 160.883 77.43C161.023 77.72 161.118 78.035 161.168 78.375H163.778V75.72H164.558V82.65H163.778V79.08H161.213C161.203 79.49 161.138 79.875 161.018 80.235C160.908 80.585 160.728 80.89 160.478 81.15C160.228 81.4 159.908 81.6 159.518 81.75C159.138 81.89 158.678 81.96 158.138 81.96ZM164.558 88.26H157.748C157.518 88.26 157.358 88.2 157.268 88.08C157.178 87.97 157.133 87.8 157.133 87.57V83.61H164.558V88.26ZM163.793 87.615V84.24H157.898V87.405C157.898 87.505 157.908 87.565 157.928 87.585C157.958 87.605 158.018 87.615 158.108 87.615H163.793ZM158.138 81.285C158.838 81.285 159.393 81.1 159.803 80.73C160.223 80.35 160.433 79.77 160.433 78.99C160.433 78.21 160.223 77.635 159.803 77.265C159.393 76.885 158.838 76.695 158.138 76.695C157.438 76.695 156.878 76.885 156.458 77.265C156.048 77.635 155.843 78.21 155.843 78.99C155.843 79.77 156.048 80.35 156.458 80.73C156.878 81.1 157.438 81.285 158.138 81.285ZM178.233 80.73H176.208V88.26H175.428V75.72H176.208V80.025H178.233V80.73ZM172.848 84.735H167.988C167.758 84.735 167.598 84.68 167.508 84.57C167.418 84.45 167.373 84.275 167.373 84.045V76.56H172.848V84.735ZM172.068 84.06V77.235H168.138V83.85C168.138 83.95 168.148 84.01 168.168 84.03C168.198 84.05 168.258 84.06 168.348 84.06H172.068Z" fill="#282828"/>
</svg>
