<svg width="23" height="38" viewBox="0 0 23 38" fill="none" xmlns="http://www.w3.org/2000/svg">
<path d="M15 11.2001V16.7001" stroke="black" stroke-linecap="round"/>
<path d="M11 13.2001V16.7001" stroke="black" stroke-linecap="round"/>
<path d="M7.5 14.7001V16.7001" stroke="black" stroke-linecap="round"/>
<path d="M6.5 12.2001L8.70997 9.99013C9.13142 9.56868 9.82562 9.60713 10.1979 10.0725L10.7594 10.7743C11.1465 11.2582 11.876 11.2771 12.2877 10.814L15.5 7.2001" stroke="black" stroke-linecap="round"/>
<path d="M3 18.2001V7.73626C3 7.43339 3.13726 7.14684 3.37326 6.95703L11.1268 0.720772C11.5021 0.418941 12.0392 0.42746 12.4047 0.741039L19.6511 6.95794C19.8726 7.14792 20 7.42514 20 7.7169V18.2001C20 18.7524 19.5523 19.2001 19 19.2001H4C3.44772 19.2001 3 18.7524 3 18.2001Z" stroke="black"/>
<path d="M7.14094 29.8961H5.59394C5.5506 30.2861 5.4596 30.6458 5.32094 30.9751C5.18227 31.3044 4.98294 31.6251 4.72294 31.9371C4.46294 32.2404 4.12927 32.5481 3.72194 32.8601C3.3146 33.1721 2.8206 33.5101 2.23994 33.8741L1.60294 32.9251C2.1056 32.5871 2.52594 32.2838 2.86394 32.0151C3.20194 31.7464 3.47494 31.4908 3.68294 31.2481C3.8996 31.0054 4.0556 30.7758 4.15094 30.5591C4.25494 30.3338 4.32427 30.0954 4.35894 29.8441H1.61594V28.7781H4.38494V27.1141H1.68094V26.0481H5.64594V28.8171H7.14094V25.4891H8.34994V36.0061H7.14094V29.8961ZM9.22094 25.3461H10.4429V36.3701H9.22094V25.3461ZM12.15 29.7661C12.15 28.3881 12.384 27.3914 12.852 26.7761C13.3287 26.1521 14.0307 25.8401 14.958 25.8401C15.79 25.8401 16.44 26.0958 16.908 26.6071C17.376 27.1184 17.649 27.9331 17.727 29.0511H19.469V25.3461H20.769V36.3701H19.469V30.1561H17.74C17.6967 31.3954 17.441 32.2968 16.973 32.8601C16.505 33.4148 15.8333 33.6921 14.958 33.6921C14.0307 33.6921 13.3287 33.3844 12.852 32.7691C12.384 32.1451 12.15 31.1441 12.15 29.7661ZM13.411 29.7661C13.411 30.7714 13.541 31.4908 13.801 31.9241C14.061 32.3488 14.4467 32.5611 14.958 32.5611C15.452 32.5611 15.8333 32.3488 16.102 31.9241C16.3793 31.4908 16.518 30.7714 16.518 29.7661C16.518 28.7608 16.3793 28.0458 16.102 27.6211C15.8247 27.1878 15.4433 26.9711 14.958 26.9711C14.4467 26.9711 14.061 27.1878 13.801 27.6211C13.541 28.0458 13.411 28.7608 13.411 29.7661Z" fill="black"/>
<path d="M15.7641 6.59009C16.0719 6.5821 16.3137 6.85154 16.2726 7.15668L15.9265 9.72572C15.8696 10.1483 15.3437 10.3103 15.0589 9.99293L12.8136 7.49114C12.5288 7.17377 12.7465 6.66841 13.1727 6.65734L15.7641 6.59009Z" fill="black"/>
</svg>
