<svg width="26" height="16" viewBox="0 0 26 16" fill="none" xmlns="http://www.w3.org/2000/svg">
<path fill-rule="evenodd" clip-rule="evenodd" d="M19.8881 11.5481H7.05703C4.55497 11.5481 2.56616 9.55932 2.56616 7.05727C2.56616 4.55522 4.55497 2.56641 7.05703 2.56641H19.8881C22.3901 2.56641 24.3789 4.55522 24.3789 7.05727C24.3789 9.55932 22.3901 11.5481 19.8881 11.5481Z" fill="#3C3C43" fill-opacity="0.3"/>
<g filter="url(#filter0_dd_468_1094)">
<path fill-rule="evenodd" clip-rule="evenodd" d="M7.6986 13.4726C11.2418 13.4726 14.1141 10.6003 14.1141 7.05712C14.1141 3.51393 11.2418 0.641602 7.6986 0.641602C4.15541 0.641602 1.28308 3.51393 1.28308 7.05712C1.28308 10.6003 4.15541 13.4726 7.6986 13.4726Z" fill="white"/>
<path d="M7.69812 0.801758C11.1526 0.801758 13.9537 3.60225 13.954 7.05664C13.954 10.5113 11.1527 13.3125 7.69812 13.3125C4.24373 13.3122 1.44324 10.5111 1.44324 7.05664C1.4435 3.60241 4.24389 0.802017 7.69812 0.801758Z" stroke="url(#paint0_linear_468_1094)" stroke-width="0.320776"/>
<path d="M7.69812 0.801758C11.1526 0.801758 13.9537 3.60225 13.954 7.05664C13.954 10.5113 11.1527 13.3125 7.69812 13.3125C4.24373 13.3122 1.44324 10.5111 1.44324 7.05664C1.4435 3.60241 4.24389 0.802017 7.69812 0.801758Z" stroke="url(#paint1_linear_468_1094)" stroke-width="0.320776"/>
</g>
<defs>
<filter id="filter0_dd_468_1094" x="-2.2769e-05" y="4.96507e-05" width="15.3973" height="15.3973" filterUnits="userSpaceOnUse" color-interpolation-filters="sRGB">
<feFlood flood-opacity="0" result="BackgroundImageFix"/>
<feColorMatrix in="SourceAlpha" type="matrix" values="0 0 0 0 0 0 0 0 0 0 0 0 0 0 0 0 0 0 127 0" result="hardAlpha"/>
<feOffset dy="0.641552"/>
<feGaussianBlur stdDeviation="0.641552"/>
<feColorMatrix type="matrix" values="0 0 0 0 0 0 0 0 0 0 0 0 0 0 0 0 0 0 0.2 0"/>
<feBlend mode="normal" in2="BackgroundImageFix" result="effect1_dropShadow_468_1094"/>
<feColorMatrix in="SourceAlpha" type="matrix" values="0 0 0 0 0 0 0 0 0 0 0 0 0 0 0 0 0 0 127 0" result="hardAlpha"/>
<feOffset dy="0.0641552"/>
<feGaussianBlur stdDeviation="0.0962328"/>
<feColorMatrix type="matrix" values="0 0 0 0 0 0 0 0 0 0 0 0 0 0 0 0 0 0 0.1 0"/>
<feBlend mode="normal" in2="effect1_dropShadow_468_1094" result="effect2_dropShadow_468_1094"/>
<feBlend mode="normal" in="SourceGraphic" in2="effect2_dropShadow_468_1094" result="shape"/>
</filter>
<linearGradient id="paint0_linear_468_1094" x1="1.34586" y1="0.641602" x2="1.34586" y2="13.3471" gradientUnits="userSpaceOnUse">
<stop stop-opacity="0.01"/>
<stop offset="0.8" stop-opacity="0.02"/>
<stop offset="1" stop-opacity="0.04"/>
</linearGradient>
<linearGradient id="paint1_linear_468_1094" x1="1.28308" y1="0.641602" x2="1.28308" y2="13.4726" gradientUnits="userSpaceOnUse">
<stop stop-color="white" stop-opacity="0.12"/>
<stop offset="0.2" stop-color="white" stop-opacity="0.06"/>
<stop offset="1" stop-color="white" stop-opacity="0.01"/>
</linearGradient>
</defs>
</svg>
