<svg width="25" height="16" viewBox="0 0 25 16" fill="none" xmlns="http://www.w3.org/2000/svg">
<path opacity="0.5" fill-rule="evenodd" clip-rule="evenodd" d="M21.8128 7.05727C21.8128 9.55932 19.824 11.5481 17.3219 11.5481H4.49086C1.98881 11.5481 0 9.55932 0 7.05727V7.05727C0 4.55522 1.98881 2.56641 4.49086 2.56641H17.3219C19.824 2.56641 21.8128 4.55522 21.8128 7.05727V7.05727V7.05727Z" fill="#D4355F"/>
<g filter="url(#filter0_dd_468_1093)">
<path fill-rule="evenodd" clip-rule="evenodd" d="M16.6802 13.4726C20.2234 13.4726 23.0957 10.6003 23.0957 7.05712C23.0957 3.51393 20.2234 0.641602 16.6802 0.641602C13.137 0.641602 10.2646 3.51393 10.2646 7.05712C10.2646 10.6003 13.137 13.4726 16.6802 13.4726Z" fill="#D4355F"/>
<path d="M16.6797 0.801758C20.1341 0.801758 22.9353 3.60225 22.9355 7.05664C22.9355 10.5113 20.1343 13.3125 16.6797 13.3125C13.2253 13.3122 10.4248 10.5111 10.4248 7.05664C10.4251 3.60241 13.2255 0.802017 16.6797 0.801758Z" stroke="url(#paint0_linear_468_1093)" stroke-width="0.320776"/>
<path d="M16.6797 0.801758C20.1341 0.801758 22.9353 3.60225 22.9355 7.05664C22.9355 10.5113 20.1343 13.3125 16.6797 13.3125C13.2253 13.3122 10.4248 10.5111 10.4248 7.05664C10.4251 3.60241 13.2255 0.802017 16.6797 0.801758Z" stroke="url(#paint1_linear_468_1093)" stroke-width="0.320776"/>
</g>
<defs>
<filter id="filter0_dd_468_1093" x="8.98154" y="4.96507e-05" width="15.3973" height="15.3973" filterUnits="userSpaceOnUse" color-interpolation-filters="sRGB">
<feFlood flood-opacity="0" result="BackgroundImageFix"/>
<feColorMatrix in="SourceAlpha" type="matrix" values="0 0 0 0 0 0 0 0 0 0 0 0 0 0 0 0 0 0 127 0" result="hardAlpha"/>
<feOffset dy="0.641552"/>
<feGaussianBlur stdDeviation="0.641552"/>
<feColorMatrix type="matrix" values="0 0 0 0 0 0 0 0 0 0 0 0 0 0 0 0 0 0 0.2 0"/>
<feBlend mode="normal" in2="BackgroundImageFix" result="effect1_dropShadow_468_1093"/>
<feColorMatrix in="SourceAlpha" type="matrix" values="0 0 0 0 0 0 0 0 0 0 0 0 0 0 0 0 0 0 127 0" result="hardAlpha"/>
<feOffset dy="0.0641552"/>
<feGaussianBlur stdDeviation="0.0962328"/>
<feColorMatrix type="matrix" values="0 0 0 0 0 0 0 0 0 0 0 0 0 0 0 0 0 0 0.1 0"/>
<feBlend mode="normal" in2="effect1_dropShadow_468_1093" result="effect2_dropShadow_468_1093"/>
<feBlend mode="normal" in="SourceGraphic" in2="effect2_dropShadow_468_1093" result="shape"/>
</filter>
<linearGradient id="paint0_linear_468_1093" x1="10.3274" y1="0.641602" x2="10.3274" y2="13.3471" gradientUnits="userSpaceOnUse">
<stop stop-opacity="0.01"/>
<stop offset="0.8" stop-opacity="0.02"/>
<stop offset="1" stop-opacity="0.04"/>
</linearGradient>
<linearGradient id="paint1_linear_468_1093" x1="10.2646" y1="0.641602" x2="10.2646" y2="13.4726" gradientUnits="userSpaceOnUse">
<stop stop-color="white" stop-opacity="0.12"/>
<stop offset="0.2" stop-color="white" stop-opacity="0.06"/>
<stop offset="1" stop-color="white" stop-opacity="0.01"/>
</linearGradient>
</defs>
</svg>
