<svg width="62" height="62" viewBox="0 0 62 62" fill="none" xmlns="http://www.w3.org/2000/svg">
<circle cx="31" cy="31" r="31" fill="white"/>
<path d="M19.6667 30C19.6667 27.8315 19.6667 26.7472 19.8526 25.8467C20.5791 22.3284 23.3284 19.5791 26.8467 18.8526C27.7472 18.6667 28.8314 18.6667 31 18.6667C33.1685 18.6667 34.2528 18.6667 35.1533 18.8526C38.6716 19.5791 41.4209 22.3284 42.1474 25.8467C42.3333 26.7472 42.3333 27.8315 42.3333 30V37.3334C42.3333 39.219 42.3333 40.1618 41.7475 40.7476C41.1617 41.3334 40.2189 41.3334 38.3333 41.3334H31C28.8314 41.3334 27.7472 41.3334 26.8467 41.1474C23.3284 40.4209 20.5791 37.6717 19.8526 34.1533C19.6667 33.2528 19.6667 32.1686 19.6667 30Z" fill="#5C7FE0" fill-opacity="0.25" stroke="#222222" stroke-width="1.5"/>
<path d="M26.75 28.5833L35.25 28.5833" stroke="#222222" stroke-width="1.5" stroke-linecap="round" stroke-linejoin="round"/>
<path d="M31 34.25H35.25" stroke="#222222" stroke-width="1.5" stroke-linecap="round" stroke-linejoin="round"/>
</svg>
