<svg width="32" height="32" viewBox="0 0 32 32" fill="none" xmlns="http://www.w3.org/2000/svg">
<circle cx="16" cy="16" r="16" fill="#AEA39F"/>
<g clip-path="url(#clip0_419_1107)">
<path d="M21.5 5.91699C20.3739 5.93451 19.2724 6.24885 18.3067 6.82826C17.341 7.40768 16.5453 8.23166 16 9.21699C15.4546 8.23166 14.6589 7.40768 13.6932 6.82826C12.7275 6.24885 11.626 5.93451 10.5 5.91699C8.7049 5.99498 7.01366 6.78025 5.79574 8.10122C4.57782 9.4222 3.93221 11.1715 3.99996 12.967C3.99996 17.514 8.78596 22.48 12.8 25.847C13.6962 26.6001 14.8293 27.013 16 27.013C17.1706 27.013 18.3037 26.6001 19.2 25.847C23.214 22.48 28 17.514 28 12.967C28.0677 11.1715 27.4221 9.4222 26.2042 8.10122C24.9863 6.78025 23.295 5.99498 21.5 5.91699ZM17.915 24.317C17.3789 24.7684 16.7007 25.0159 16 25.0159C15.2992 25.0159 14.621 24.7684 14.085 24.317C8.94696 20.006 5.99996 15.87 5.99996 12.967C5.9316 11.7017 6.36632 10.4607 7.20932 9.51469C8.05232 8.56866 9.23519 7.99434 10.5 7.91699C11.7647 7.99434 12.9476 8.56866 13.7906 9.51469C14.6336 10.4607 15.0683 11.7017 15 12.967C15 13.2322 15.1053 13.4866 15.2929 13.6741C15.4804 13.8616 15.7347 13.967 16 13.967C16.2652 13.967 16.5195 13.8616 16.7071 13.6741C16.8946 13.4866 17 13.2322 17 12.967C16.9316 11.7017 17.3663 10.4607 18.2093 9.51469C19.0523 8.56866 20.2352 7.99434 21.5 7.91699C22.7647 7.99434 23.9476 8.56866 24.7906 9.51469C25.6336 10.4607 26.0683 11.7017 26 12.967C26 15.87 23.053 20.006 17.915 24.313V24.317Z" fill="white"/>
</g>
<defs>
<clipPath id="clip0_419_1107">
<rect width="24" height="24" fill="white" transform="translate(4 4)"/>
</clipPath>
</defs>
</svg>
