<svg width="79" height="46" viewBox="0 0 79 46" fill="none" xmlns="http://www.w3.org/2000/svg">
<rect x="0.650049" y="9.36562" width="70.3" height="27.8385" rx="13.9192" fill="#A2D1FD" stroke="url(#paint0_linear_312_3523)" stroke-width="1.3"/>
<mask id="mask0_312_3523" style="mask-type:alpha" maskUnits="userSpaceOnUse" x="1" y="10" width="70" height="27">
<rect x="1.30005" y="10.0156" width="69" height="26.5385" rx="13.2692" fill="#E0FDFF"/>
</mask>
<g mask="url(#mask0_312_3523)">
<g filter="url(#filter0_i_312_3523)">
<rect x="1.30005" y="10.0156" width="69" height="26.5385" rx="13.2692" fill="#A2D1FD"/>
</g>
<rect x="-4.69995" y="7.01562" width="87" height="33" fill="#D9D9D9"/>
<g opacity="0.95">
<circle cx="38.9644" cy="34.0394" r="5.57308" transform="rotate(-3.84411 38.9644 34.0394)" fill="white"/>
<circle cx="46.6945" cy="30.3285" r="5.57308" transform="rotate(-3.84411 46.6945 30.3285)" fill="white"/>
<circle cx="47.1215" cy="36.6835" r="5.57308" transform="rotate(-3.84411 47.1215 36.6835)" fill="white"/>
<circle cx="53.6856" cy="31.4545" r="5.57308" transform="rotate(-3.84411 53.6856 31.4545)" fill="white"/>
<circle cx="56.6894" cy="36.5727" r="5.57308" transform="rotate(-3.84411 56.6894 36.5727)" fill="white"/>
<circle cx="62.2657" cy="32.474" r="5.57308" transform="rotate(-3.84411 62.2657 32.474)" fill="white"/>
</g>
<g opacity="0.95">
<circle cx="11.1629" cy="39.0434" r="5.57308" transform="rotate(-3.84411 11.1629 39.0434)" fill="white"/>
<circle cx="18.8932" cy="35.3324" r="5.57308" transform="rotate(-3.84411 18.8932 35.3324)" fill="white"/>
<circle cx="19.3202" cy="41.6874" r="5.57308" transform="rotate(-3.84411 19.3202 41.6874)" fill="white"/>
<circle cx="25.8842" cy="36.4584" r="5.57308" transform="rotate(-3.84411 25.8842 36.4584)" fill="white"/>
<circle cx="28.888" cy="41.5761" r="5.57308" transform="rotate(-3.84411 28.888 41.5761)" fill="white"/>
<circle cx="34.4643" cy="37.4779" r="5.57308" transform="rotate(-3.84411 34.4643 37.4779)" fill="white"/>
</g>
<g opacity="0.6">
<circle cx="43.7988" cy="26.8349" r="5.57308" transform="rotate(-3.84411 43.7988 26.8349)" fill="white"/>
<circle cx="51.5289" cy="23.1239" r="5.57308" transform="rotate(-3.84411 51.5289 23.1239)" fill="white"/>
<circle cx="51.9559" cy="29.4789" r="5.57308" transform="rotate(-3.84411 51.9559 29.4789)" fill="white"/>
<circle cx="58.5201" cy="24.2494" r="5.57308" transform="rotate(-3.84411 58.5201 24.2494)" fill="white"/>
<circle cx="61.5238" cy="29.3676" r="5.57308" transform="rotate(-3.84411 61.5238 29.3676)" fill="white"/>
<circle cx="67.1001" cy="25.2689" r="5.57308" transform="rotate(-3.84411 67.1001 25.2689)" fill="white"/>
</g>
<g opacity="0.6">
<circle cx="20.2513" cy="35.7069" r="5.57308" transform="rotate(-4.59401 20.2513 35.7069)" fill="white"/>
<circle cx="27.9322" cy="31.8949" r="5.57308" transform="rotate(-4.59401 27.9322 31.8949)" fill="white"/>
<circle cx="28.4423" cy="38.2436" r="5.57308" transform="rotate(-4.59401 28.4423 38.2436)" fill="white"/>
<circle cx="34.9376" cy="32.9296" r="5.57308" transform="rotate(-4.59401 34.9376 32.9296)" fill="white"/>
<circle cx="38.0079" cy="38.0077" r="5.57308" transform="rotate(-4.59401 38.0079 38.0077)" fill="white"/>
<circle cx="43.5302" cy="33.8363" r="5.57308" transform="rotate(-4.59401 43.5302 33.8363)" fill="white"/>
</g>
</g>
<g filter="url(#filter1_ddii_312_3523)">
<rect width="21.905" height="21.9053" rx="10.9525" transform="matrix(-1 3.99608e-09 3.99596e-09 1 67.2848 11.7002)" fill="#FFC187" fill-opacity="0.96"/>
</g>
<defs>
<filter id="filter0_i_312_3523" x="1.30005" y="10.0156" width="69" height="34.3386" filterUnits="userSpaceOnUse" color-interpolation-filters="sRGB">
<feFlood flood-opacity="0" result="BackgroundImageFix"/>
<feBlend mode="normal" in="SourceGraphic" in2="BackgroundImageFix" result="shape"/>
<feColorMatrix in="SourceAlpha" type="matrix" values="0 0 0 0 0 0 0 0 0 0 0 0 0 0 0 0 0 0 127 0" result="hardAlpha"/>
<feOffset dy="7.8"/>
<feGaussianBlur stdDeviation="5.85"/>
<feComposite in2="hardAlpha" operator="arithmetic" k2="-1" k3="1"/>
<feColorMatrix type="matrix" values="0 0 0 0 0.445833 0 0 0 0 0.734 0 0 0 0 1 0 0 0 1 0"/>
<feBlend mode="normal" in2="shape" result="effect1_innerShadow_312_3523"/>
</filter>
<filter id="filter1_ddii_312_3523" x="33.6799" y="0.00019455" width="45.3049" height="45.3053" filterUnits="userSpaceOnUse" color-interpolation-filters="sRGB">
<feFlood flood-opacity="0" result="BackgroundImageFix"/>
<feColorMatrix in="SourceAlpha" type="matrix" values="0 0 0 0 0 0 0 0 0 0 0 0 0 0 0 0 0 0 127 0" result="hardAlpha"/>
<feOffset/>
<feGaussianBlur stdDeviation="5.85"/>
<feColorMatrix type="matrix" values="0 0 0 0 1 0 0 0 0 0.756863 0 0 0 0 0.529412 0 0 0 0.6 0"/>
<feBlend mode="normal" in2="BackgroundImageFix" result="effect1_dropShadow_312_3523"/>
<feColorMatrix in="SourceAlpha" type="matrix" values="0 0 0 0 0 0 0 0 0 0 0 0 0 0 0 0 0 0 127 0" result="hardAlpha"/>
<feOffset dx="-3.9" dy="6.5"/>
<feGaussianBlur stdDeviation="2.6"/>
<feColorMatrix type="matrix" values="0 0 0 0 0.717122 0 0 0 0 0.717122 0 0 0 0 0.717122 0 0 0 0.35 0"/>
<feBlend mode="normal" in2="effect1_dropShadow_312_3523" result="effect2_dropShadow_312_3523"/>
<feBlend mode="normal" in="SourceGraphic" in2="effect2_dropShadow_312_3523" result="shape"/>
<feColorMatrix in="SourceAlpha" type="matrix" values="0 0 0 0 0 0 0 0 0 0 0 0 0 0 0 0 0 0 127 0" result="hardAlpha"/>
<feOffset dy="2.6"/>
<feGaussianBlur stdDeviation="2.6"/>
<feComposite in2="hardAlpha" operator="arithmetic" k2="-1" k3="1"/>
<feColorMatrix type="matrix" values="0 0 0 0 1 0 0 0 0 0.816106 0 0 0 0 0.645833 0 0 0 1 0"/>
<feBlend mode="normal" in2="shape" result="effect3_innerShadow_312_3523"/>
<feColorMatrix in="SourceAlpha" type="matrix" values="0 0 0 0 0 0 0 0 0 0 0 0 0 0 0 0 0 0 127 0" result="hardAlpha"/>
<feOffset dy="-2.6"/>
<feGaussianBlur stdDeviation="2.6"/>
<feComposite in2="hardAlpha" operator="arithmetic" k2="-1" k3="1"/>
<feColorMatrix type="matrix" values="0 0 0 0 1 0 0 0 0 0.631795 0 0 0 0 0.2875 0 0 0 1 0"/>
<feBlend mode="normal" in2="effect3_innerShadow_312_3523" result="effect4_innerShadow_312_3523"/>
</filter>
<linearGradient id="paint0_linear_312_3523" x1="36.5962" y1="3.64639" x2="36.8616" y2="44.781" gradientUnits="userSpaceOnUse">
<stop offset="0.125" stop-color="#6CB8FF"/>
<stop offset="1" stop-color="white" stop-opacity="0"/>
</linearGradient>
</defs>
</svg>
