<svg width="61" height="39" viewBox="0 0 61 39" fill="none" xmlns="http://www.w3.org/2000/svg">
<rect x="9.5325" y="9.38369" width="50.3" height="20.1462" rx="10.0731" fill="#A2D1FD" stroke="url(#paint0_linear_312_3330)" stroke-width="1.3"/>
<mask id="mask0_312_3330" style="mask-type:alpha" maskUnits="userSpaceOnUse" x="10" y="10" width="50" height="19">
<rect x="10.1825" y="10.0337" width="49" height="18.8462" rx="9.42308" fill="#E0FDFF"/>
</mask>
<g mask="url(#mask0_312_3330)">
<g filter="url(#filter0_i_312_3330)">
<rect x="10.1825" y="10.0337" width="49" height="18.8462" rx="9.42308" fill="#A2D1FD"/>
</g>
<g opacity="0.95">
<ellipse cx="36.9296" cy="27.0936" rx="3.95769" ry="3.95769" transform="rotate(-3.84411 36.9296 27.0936)" fill="white"/>
<ellipse cx="42.4191" cy="24.4588" rx="3.95769" ry="3.95769" transform="rotate(-3.84411 42.4191 24.4588)" fill="white"/>
<ellipse cx="42.7223" cy="28.9715" rx="3.95769" ry="3.95769" transform="rotate(-3.84411 42.7223 28.9715)" fill="white"/>
<ellipse cx="47.3838" cy="25.2587" rx="3.95769" ry="3.95769" transform="rotate(-3.84411 47.3838 25.2587)" fill="white"/>
<ellipse cx="49.5169" cy="28.8929" rx="3.95769" ry="3.95769" transform="rotate(-3.84411 49.5169 28.8929)" fill="white"/>
<ellipse cx="53.4769" cy="25.9823" rx="3.95769" ry="3.95769" transform="rotate(-3.84411 53.4769 25.9823)" fill="white"/>
</g>
<g opacity="0.95">
<ellipse cx="17.1864" cy="30.6473" rx="3.95769" ry="3.95769" transform="rotate(-3.84411 17.1864 30.6473)" fill="white"/>
<ellipse cx="22.6759" cy="28.0126" rx="3.95769" ry="3.95769" transform="rotate(-3.84411 22.6759 28.0126)" fill="white"/>
<ellipse cx="22.9791" cy="32.5253" rx="3.95769" ry="3.95769" transform="rotate(-3.84411 22.9791 32.5253)" fill="white"/>
<ellipse cx="27.6406" cy="28.8119" rx="3.95769" ry="3.95769" transform="rotate(-3.84411 27.6406 28.8119)" fill="white"/>
<ellipse cx="29.7738" cy="32.4462" rx="3.95769" ry="3.95769" transform="rotate(-3.84411 29.7738 32.4462)" fill="white"/>
<ellipse cx="33.7338" cy="29.536" rx="3.95769" ry="3.95769" transform="rotate(-3.84411 33.7338 29.536)" fill="white"/>
</g>
<g opacity="0.6">
<ellipse cx="40.3627" cy="21.9779" rx="3.95769" ry="3.95769" transform="rotate(-3.84411 40.3627 21.9779)" fill="white"/>
<ellipse cx="45.8521" cy="19.3426" rx="3.95769" ry="3.95769" transform="rotate(-3.84411 45.8521 19.3426)" fill="white"/>
<ellipse cx="46.1553" cy="23.8553" rx="3.95769" ry="3.95769" transform="rotate(-3.84411 46.1553 23.8553)" fill="white"/>
<ellipse cx="50.8169" cy="20.1415" rx="3.95769" ry="3.95769" transform="rotate(-3.84411 50.8169 20.1415)" fill="white"/>
<ellipse cx="52.95" cy="23.7767" rx="3.95769" ry="3.95769" transform="rotate(-3.84411 52.95 23.7767)" fill="white"/>
<ellipse cx="56.9099" cy="20.8661" rx="3.95769" ry="3.95769" transform="rotate(-3.84411 56.9099 20.8661)" fill="white"/>
</g>
<g opacity="0.6">
<ellipse cx="23.6408" cy="28.2779" rx="3.95769" ry="3.95769" transform="rotate(-4.59401 23.6408 28.2779)" fill="white"/>
<ellipse cx="29.0952" cy="25.5713" rx="3.95769" ry="3.95769" transform="rotate(-4.59401 29.0952 25.5713)" fill="white"/>
<ellipse cx="29.4574" cy="30.0796" rx="3.95769" ry="3.95769" transform="rotate(-4.59401 29.4574 30.0796)" fill="white"/>
<ellipse cx="34.07" cy="26.3062" rx="3.95769" ry="3.95769" transform="rotate(-4.59401 34.07 26.3062)" fill="white"/>
<ellipse cx="36.2504" cy="29.9122" rx="3.95769" ry="3.95769" transform="rotate(-4.59401 36.2504 29.9122)" fill="white"/>
<ellipse cx="40.172" cy="26.9498" rx="3.95769" ry="3.95769" transform="rotate(-4.59401 40.172 26.9498)" fill="white"/>
</g>
</g>
<g filter="url(#filter1_ddii_312_3330)">
<rect width="15.5557" height="15.5559" rx="7.77785" transform="matrix(-1 3.99608e-09 3.99596e-09 1 27.2556 11.7002)" fill="#FFC187" fill-opacity="0.96"/>
</g>
<defs>
<filter id="filter0_i_312_3330" x="10.1825" y="10.0337" width="49" height="26.6462" filterUnits="userSpaceOnUse" color-interpolation-filters="sRGB">
<feFlood flood-opacity="0" result="BackgroundImageFix"/>
<feBlend mode="normal" in="SourceGraphic" in2="BackgroundImageFix" result="shape"/>
<feColorMatrix in="SourceAlpha" type="matrix" values="0 0 0 0 0 0 0 0 0 0 0 0 0 0 0 0 0 0 127 0" result="hardAlpha"/>
<feOffset dy="7.8"/>
<feGaussianBlur stdDeviation="5.85"/>
<feComposite in2="hardAlpha" operator="arithmetic" k2="-1" k3="1"/>
<feColorMatrix type="matrix" values="0 0 0 0 0.445833 0 0 0 0 0.734 0 0 0 0 1 0 0 0 1 0"/>
<feBlend mode="normal" in2="shape" result="effect1_innerShadow_312_3330"/>
</filter>
<filter id="filter1_ddii_312_3330" x="-4.95911e-05" y="0.00019455" width="38.9557" height="38.9562" filterUnits="userSpaceOnUse" color-interpolation-filters="sRGB">
<feFlood flood-opacity="0" result="BackgroundImageFix"/>
<feColorMatrix in="SourceAlpha" type="matrix" values="0 0 0 0 0 0 0 0 0 0 0 0 0 0 0 0 0 0 127 0" result="hardAlpha"/>
<feOffset/>
<feGaussianBlur stdDeviation="5.85"/>
<feColorMatrix type="matrix" values="0 0 0 0 1 0 0 0 0 0.756863 0 0 0 0 0.529412 0 0 0 0.6 0"/>
<feBlend mode="normal" in2="BackgroundImageFix" result="effect1_dropShadow_312_3330"/>
<feColorMatrix in="SourceAlpha" type="matrix" values="0 0 0 0 0 0 0 0 0 0 0 0 0 0 0 0 0 0 127 0" result="hardAlpha"/>
<feOffset dx="-3.9" dy="6.5"/>
<feGaussianBlur stdDeviation="2.6"/>
<feColorMatrix type="matrix" values="0 0 0 0 0.717122 0 0 0 0 0.717122 0 0 0 0 0.717122 0 0 0 0.35 0"/>
<feBlend mode="normal" in2="effect1_dropShadow_312_3330" result="effect2_dropShadow_312_3330"/>
<feBlend mode="normal" in="SourceGraphic" in2="effect2_dropShadow_312_3330" result="shape"/>
<feColorMatrix in="SourceAlpha" type="matrix" values="0 0 0 0 0 0 0 0 0 0 0 0 0 0 0 0 0 0 127 0" result="hardAlpha"/>
<feOffset dy="2.6"/>
<feGaussianBlur stdDeviation="2.6"/>
<feComposite in2="hardAlpha" operator="arithmetic" k2="-1" k3="1"/>
<feColorMatrix type="matrix" values="0 0 0 0 1 0 0 0 0 0.816106 0 0 0 0 0.645833 0 0 0 1 0"/>
<feBlend mode="normal" in2="shape" result="effect3_innerShadow_312_3330"/>
<feColorMatrix in="SourceAlpha" type="matrix" values="0 0 0 0 0 0 0 0 0 0 0 0 0 0 0 0 0 0 127 0" result="hardAlpha"/>
<feOffset dy="-2.6"/>
<feGaussianBlur stdDeviation="2.6"/>
<feComposite in2="hardAlpha" operator="arithmetic" k2="-1" k3="1"/>
<feColorMatrix type="matrix" values="0 0 0 0 1 0 0 0 0 0.631795 0 0 0 0 0.2875 0 0 0 1 0"/>
<feBlend mode="normal" in2="effect3_innerShadow_312_3330" result="effect4_innerShadow_312_3330"/>
</filter>
<linearGradient id="paint0_linear_312_3330" x1="35.2479" y1="5.51062" x2="35.4363" y2="34.7222" gradientUnits="userSpaceOnUse">
<stop offset="0.125" stop-color="#6CB8FF"/>
<stop offset="1" stop-color="white" stop-opacity="0"/>
</linearGradient>
</defs>
</svg>
