<svg width="80" height="46" viewBox="0 0 80 46" fill="none" xmlns="http://www.w3.org/2000/svg">
<rect x="8.91335" y="8.70352" width="70.3" height="27.8385" rx="13.9192" fill="#A2D1FD" stroke="url(#paint0_linear_312_3330)" stroke-width="1.3"/>
<mask id="mask0_312_3330" style="mask-type:alpha" maskUnits="userSpaceOnUse" x="9" y="9" width="70" height="27">
<rect x="9.56335" y="9.35352" width="69" height="26.5385" rx="13.2692" fill="#E0FDFF"/>
</mask>
<g mask="url(#mask0_312_3330)">
<g filter="url(#filter0_i_312_3330)">
<rect x="9.56335" y="9.35352" width="69" height="26.5385" rx="13.2692" fill="#A2D1FD"/>
</g>
<g opacity="0.95">
<circle cx="47.2277" cy="33.3773" r="5.57308" transform="rotate(-3.84411 47.2277 33.3773)" fill="white"/>
<circle cx="54.9579" cy="29.6664" r="5.57308" transform="rotate(-3.84411 54.9579 29.6664)" fill="white"/>
<circle cx="55.3849" cy="36.0214" r="5.57308" transform="rotate(-3.84411 55.3849 36.0214)" fill="white"/>
<circle cx="61.9489" cy="30.7924" r="5.57308" transform="rotate(-3.84411 61.9489 30.7924)" fill="white"/>
<circle cx="64.9527" cy="35.9105" r="5.57308" transform="rotate(-3.84411 64.9527 35.9105)" fill="white"/>
<circle cx="70.529" cy="31.8119" r="5.57308" transform="rotate(-3.84411 70.529 31.8119)" fill="white"/>
</g>
<g opacity="0.95">
<circle cx="19.4262" cy="38.3812" r="5.57308" transform="rotate(-3.84411 19.4262 38.3812)" fill="white"/>
<circle cx="27.1565" cy="34.6703" r="5.57308" transform="rotate(-3.84411 27.1565 34.6703)" fill="white"/>
<circle cx="27.5835" cy="41.0253" r="5.57308" transform="rotate(-3.84411 27.5835 41.0253)" fill="white"/>
<circle cx="34.1475" cy="35.7963" r="5.57308" transform="rotate(-3.84411 34.1475 35.7963)" fill="white"/>
<circle cx="37.1513" cy="40.914" r="5.57308" transform="rotate(-3.84411 37.1513 40.914)" fill="white"/>
<circle cx="42.7276" cy="36.8158" r="5.57308" transform="rotate(-3.84411 42.7276 36.8158)" fill="white"/>
</g>
<g opacity="0.6">
<circle cx="52.0621" cy="26.1727" r="5.57308" transform="rotate(-3.84411 52.0621 26.1727)" fill="white"/>
<circle cx="59.7922" cy="22.4618" r="5.57308" transform="rotate(-3.84411 59.7922 22.4618)" fill="white"/>
<circle cx="60.2192" cy="28.8168" r="5.57308" transform="rotate(-3.84411 60.2192 28.8168)" fill="white"/>
<circle cx="66.7834" cy="23.5873" r="5.57308" transform="rotate(-3.84411 66.7834 23.5873)" fill="white"/>
<circle cx="69.7871" cy="28.7055" r="5.57308" transform="rotate(-3.84411 69.7871 28.7055)" fill="white"/>
<circle cx="75.3634" cy="24.6068" r="5.57308" transform="rotate(-3.84411 75.3634 24.6068)" fill="white"/>
</g>
<g opacity="0.6">
<circle cx="28.5146" cy="35.0448" r="5.57308" transform="rotate(-4.59401 28.5146 35.0448)" fill="white"/>
<circle cx="36.1955" cy="31.2328" r="5.57308" transform="rotate(-4.59401 36.1955 31.2328)" fill="white"/>
<circle cx="36.7056" cy="37.5815" r="5.57308" transform="rotate(-4.59401 36.7056 37.5815)" fill="white"/>
<circle cx="43.2009" cy="32.2675" r="5.57308" transform="rotate(-4.59401 43.2009 32.2675)" fill="white"/>
<circle cx="46.2712" cy="37.3456" r="5.57308" transform="rotate(-4.59401 46.2712 37.3456)" fill="white"/>
<circle cx="51.7935" cy="33.1742" r="5.57308" transform="rotate(-4.59401 51.7935 33.1742)" fill="white"/>
</g>
</g>
<g filter="url(#filter1_ddii_312_3330)">
<rect width="21.905" height="21.9053" rx="10.9525" transform="matrix(-1 3.99608e-09 3.99596e-09 1 33.6049 11.7002)" fill="#FFC187" fill-opacity="0.96"/>
</g>
<defs>
<filter id="filter0_i_312_3330" x="9.56335" y="9.35352" width="69" height="34.3386" filterUnits="userSpaceOnUse" color-interpolation-filters="sRGB">
<feFlood flood-opacity="0" result="BackgroundImageFix"/>
<feBlend mode="normal" in="SourceGraphic" in2="BackgroundImageFix" result="shape"/>
<feColorMatrix in="SourceAlpha" type="matrix" values="0 0 0 0 0 0 0 0 0 0 0 0 0 0 0 0 0 0 127 0" result="hardAlpha"/>
<feOffset dy="7.8"/>
<feGaussianBlur stdDeviation="5.85"/>
<feComposite in2="hardAlpha" operator="arithmetic" k2="-1" k3="1"/>
<feColorMatrix type="matrix" values="0 0 0 0 0.445833 0 0 0 0 0.734 0 0 0 0 1 0 0 0 1 0"/>
<feBlend mode="normal" in2="shape" result="effect1_innerShadow_312_3330"/>
</filter>
<filter id="filter1_ddii_312_3330" x="-4.95911e-05" y="0.00019455" width="45.3049" height="45.3053" filterUnits="userSpaceOnUse" color-interpolation-filters="sRGB">
<feFlood flood-opacity="0" result="BackgroundImageFix"/>
<feColorMatrix in="SourceAlpha" type="matrix" values="0 0 0 0 0 0 0 0 0 0 0 0 0 0 0 0 0 0 127 0" result="hardAlpha"/>
<feOffset/>
<feGaussianBlur stdDeviation="5.85"/>
<feColorMatrix type="matrix" values="0 0 0 0 1 0 0 0 0 0.756863 0 0 0 0 0.529412 0 0 0 0.6 0"/>
<feBlend mode="normal" in2="BackgroundImageFix" result="effect1_dropShadow_312_3330"/>
<feColorMatrix in="SourceAlpha" type="matrix" values="0 0 0 0 0 0 0 0 0 0 0 0 0 0 0 0 0 0 127 0" result="hardAlpha"/>
<feOffset dx="-3.9" dy="6.5"/>
<feGaussianBlur stdDeviation="2.6"/>
<feColorMatrix type="matrix" values="0 0 0 0 0.717122 0 0 0 0 0.717122 0 0 0 0 0.717122 0 0 0 0.35 0"/>
<feBlend mode="normal" in2="effect1_dropShadow_312_3330" result="effect2_dropShadow_312_3330"/>
<feBlend mode="normal" in="SourceGraphic" in2="effect2_dropShadow_312_3330" result="shape"/>
<feColorMatrix in="SourceAlpha" type="matrix" values="0 0 0 0 0 0 0 0 0 0 0 0 0 0 0 0 0 0 127 0" result="hardAlpha"/>
<feOffset dy="2.6"/>
<feGaussianBlur stdDeviation="2.6"/>
<feComposite in2="hardAlpha" operator="arithmetic" k2="-1" k3="1"/>
<feColorMatrix type="matrix" values="0 0 0 0 1 0 0 0 0 0.816106 0 0 0 0 0.645833 0 0 0 1 0"/>
<feBlend mode="normal" in2="shape" result="effect3_innerShadow_312_3330"/>
<feColorMatrix in="SourceAlpha" type="matrix" values="0 0 0 0 0 0 0 0 0 0 0 0 0 0 0 0 0 0 127 0" result="hardAlpha"/>
<feOffset dy="-2.6"/>
<feGaussianBlur stdDeviation="2.6"/>
<feComposite in2="hardAlpha" operator="arithmetic" k2="-1" k3="1"/>
<feColorMatrix type="matrix" values="0 0 0 0 1 0 0 0 0 0.631795 0 0 0 0 0.2875 0 0 0 1 0"/>
<feBlend mode="normal" in2="effect3_innerShadow_312_3330" result="effect4_innerShadow_312_3330"/>
</filter>
<linearGradient id="paint0_linear_312_3330" x1="44.8595" y1="2.98429" x2="45.1249" y2="44.1189" gradientUnits="userSpaceOnUse">
<stop offset="0.125" stop-color="#6CB8FF"/>
<stop offset="1" stop-color="white" stop-opacity="0"/>
</linearGradient>
</defs>
</svg>
