<svg width="11" height="11" viewBox="0 0 11 11" fill="none" xmlns="http://www.w3.org/2000/svg">
<g clip-path="url(#clip0_390_1145)">
<path d="M11 5.15513C10.9337 4.08264 10.5551 3.05299 9.91066 2.19312C9.26626 1.33325 8.38432 0.680743 7.37357 0.316048C6.36281 -0.0486471 5.26743 -0.109589 4.22245 0.140735C3.17748 0.39106 2.2286 0.941707 1.4928 1.72479C0.756994 2.50788 0.266431 3.48917 0.0815857 4.54769C-0.10326 5.6062 0.0256941 6.69568 0.452549 7.68179C0.879404 8.66791 1.5855 9.50756 2.48379 10.0972C3.38207 10.6869 4.43328 11.0008 5.50782 11.0003H8.70836C9.31596 10.9997 9.89851 10.758 10.3281 10.3284C10.7578 9.89874 10.9994 9.31619 11 8.70859V5.15513ZM10.0834 8.70859C10.0834 9.07327 9.9385 9.423 9.68063 9.68086C9.42277 9.93873 9.07304 10.0836 8.70836 10.0836H5.50782C4.86108 10.0833 4.22167 9.9467 3.63127 9.68269C3.04086 9.41868 2.51274 9.0332 2.08132 8.55138C1.64782 8.0698 1.32229 7.5011 1.12656 6.88341C0.930839 6.26572 0.869441 5.61333 0.946488 4.96997C1.06815 3.95519 1.52407 3.00976 2.2424 2.28272C2.96072 1.55569 3.90058 1.08839 4.91382 0.954508C5.11147 0.929736 5.31046 0.917184 5.50965 0.916925C6.57779 0.914012 7.61286 1.28721 8.43336 1.97109C8.91256 2.36936 9.3059 2.86079 9.58952 3.41559C9.87315 3.97039 10.0412 4.57701 10.0834 5.19868V8.70859Z" fill="#374957"/>
<path d="M3.66659 4.12467H5.49992C5.62148 4.12467 5.73805 4.07638 5.82401 3.99043C5.90996 3.90448 5.95825 3.7879 5.95825 3.66634C5.95825 3.54478 5.90996 3.4282 5.82401 3.34225C5.73805 3.2563 5.62148 3.20801 5.49992 3.20801H3.66659C3.54503 3.20801 3.42845 3.2563 3.34249 3.34225C3.25654 3.4282 3.20825 3.54478 3.20825 3.66634C3.20825 3.7879 3.25654 3.90448 3.34249 3.99043C3.42845 4.07638 3.54503 4.12467 3.66659 4.12467Z" fill="#374957"/>
<path d="M7.33325 5.04199H3.66659C3.54503 5.04199 3.42845 5.09028 3.34249 5.17624C3.25654 5.26219 3.20825 5.37877 3.20825 5.50033C3.20825 5.62189 3.25654 5.73847 3.34249 5.82442C3.42845 5.91038 3.54503 5.95866 3.66659 5.95866H7.33325C7.45481 5.95866 7.57139 5.91038 7.65734 5.82442C7.7433 5.73847 7.79159 5.62189 7.79159 5.50033C7.79159 5.37877 7.7433 5.26219 7.65734 5.17624C7.57139 5.09028 7.45481 5.04199 7.33325 5.04199Z" fill="#374957"/>
<path d="M7.33325 6.875H3.66659C3.54503 6.875 3.42845 6.92329 3.34249 7.00924C3.25654 7.0952 3.20825 7.21178 3.20825 7.33334C3.20825 7.45489 3.25654 7.57147 3.34249 7.65743C3.42845 7.74338 3.54503 7.79167 3.66659 7.79167H7.33325C7.45481 7.79167 7.57139 7.74338 7.65734 7.65743C7.7433 7.57147 7.79159 7.45489 7.79159 7.33334C7.79159 7.21178 7.7433 7.0952 7.65734 7.00924C7.57139 6.92329 7.45481 6.875 7.33325 6.875Z" fill="#374957"/>
</g>
<defs>
<clipPath id="clip0_390_1145">
<rect width="11" height="11" fill="white"/>
</clipPath>
</defs>
</svg>
