<svg width="13" height="13" viewBox="0 0 13 13" fill="none" xmlns="http://www.w3.org/2000/svg">
<g clip-path="url(#clip0_437_1744)">
<path d="M9.47917 1.03809C8.86922 1.04757 8.27258 1.21784 7.74949 1.53169C7.22641 1.84554 6.7954 2.29186 6.5 2.82559C6.20459 2.29186 5.77359 1.84554 5.2505 1.53169C4.72742 1.21784 4.13077 1.04757 3.52083 1.03809C2.54851 1.08033 1.63242 1.50568 0.972713 2.22121C0.313005 2.93674 -0.0367005 3.88429 -2.24728e-06 4.85684C-2.24728e-06 7.31979 2.59241 10.0097 4.76666 11.8335C5.25212 12.2414 5.8659 12.4651 6.5 12.4651C7.1341 12.4651 7.74788 12.2414 8.23333 11.8335C10.4076 10.0097 13 7.31979 13 4.85684C13.0367 3.88429 12.687 2.93674 12.0273 2.22121C11.3676 1.50568 10.4515 1.08033 9.47917 1.03809ZM7.53729 11.0048C7.24695 11.2492 6.87957 11.3833 6.5 11.3833C6.12042 11.3833 5.75305 11.2492 5.46271 11.0048C2.67962 8.66963 1.08333 6.42929 1.08333 4.85684C1.0463 4.17147 1.28178 3.49927 1.7384 2.98684C2.19503 2.47441 2.83575 2.16332 3.52083 2.12142C4.20591 2.16332 4.84664 2.47441 5.30326 2.98684C5.75988 3.49927 5.99536 4.17147 5.95833 4.85684C5.95833 5.00049 6.0154 5.13827 6.11698 5.23985C6.21856 5.34143 6.35634 5.3985 6.5 5.3985C6.64366 5.3985 6.78143 5.34143 6.88301 5.23985C6.9846 5.13827 7.04166 5.00049 7.04166 4.85684C7.00464 4.17147 7.24011 3.49927 7.69674 2.98684C8.15336 2.47441 8.79408 2.16332 9.47917 2.12142C10.1642 2.16332 10.805 2.47441 11.2616 2.98684C11.7182 3.49927 11.9537 4.17147 11.9167 4.85684C11.9167 6.42929 10.3204 8.66963 7.53729 11.0026V11.0048Z" fill="#595446"/>
</g>
<defs>
<clipPath id="clip0_437_1744">
<rect width="13" height="13" fill="white"/>
</clipPath>
</defs>
</svg>
