<svg width="14" height="14" viewBox="0 0 14 14" fill="none" xmlns="http://www.w3.org/2000/svg">
<path d="M12.25 2.33333H10.4416C10.3062 1.67499 9.94802 1.08345 9.42736 0.658419C8.90669 0.233386 8.25541 0.000848473 7.58329 0L6.41663 0C5.74451 0.000848473 5.09323 0.233386 4.57256 0.658419C4.0519 1.08345 3.69368 1.67499 3.55829 2.33333H1.74996C1.59525 2.33333 1.44688 2.39479 1.33748 2.50419C1.22808 2.61358 1.16663 2.76196 1.16663 2.91667C1.16663 3.07138 1.22808 3.21975 1.33748 3.32915C1.44688 3.43854 1.59525 3.5 1.74996 3.5H2.33329V11.0833C2.33422 11.8566 2.64181 12.5979 3.18859 13.1447C3.73537 13.6915 4.4767 13.9991 5.24996 14H8.74996C9.52322 13.9991 10.2646 13.6915 10.8113 13.1447C11.3581 12.5979 11.6657 11.8566 11.6666 11.0833V3.5H12.25C12.4047 3.5 12.553 3.43854 12.6624 3.32915C12.7718 3.21975 12.8333 3.07138 12.8333 2.91667C12.8333 2.76196 12.7718 2.61358 12.6624 2.50419C12.553 2.39479 12.4047 2.33333 12.25 2.33333ZM6.41663 1.16667H7.58329C7.94512 1.16711 8.29795 1.27947 8.5934 1.48834C8.88885 1.69721 9.11245 1.99237 9.23354 2.33333H4.76638C4.88747 1.99237 5.11107 1.69721 5.40652 1.48834C5.70197 1.27947 6.0548 1.16711 6.41663 1.16667ZM10.5 11.0833C10.5 11.5475 10.3156 11.9926 9.9874 12.3208C9.65921 12.649 9.21409 12.8333 8.74996 12.8333H5.24996C4.78583 12.8333 4.34071 12.649 4.01252 12.3208C3.68433 11.9926 3.49996 11.5475 3.49996 11.0833V3.5H10.5V11.0833Z" fill="#DD5470"/>
<path d="M5.83333 10.4997C5.98804 10.4997 6.13641 10.4382 6.24581 10.3288C6.35521 10.2194 6.41666 10.071 6.41666 9.91633V6.41634C6.41666 6.26163 6.35521 6.11326 6.24581 6.00386C6.13641 5.89447 5.98804 5.83301 5.83333 5.83301C5.67862 5.83301 5.53025 5.89447 5.42085 6.00386C5.31146 6.11326 5.25 6.26163 5.25 6.41634V9.91633C5.25 10.071 5.31146 10.2194 5.42085 10.3288C5.53025 10.4382 5.67862 10.4997 5.83333 10.4997Z" fill="#DD5470"/>
<path d="M8.16659 10.4997C8.3213 10.4997 8.46967 10.4382 8.57907 10.3288C8.68847 10.2194 8.74993 10.071 8.74993 9.91633V6.41634C8.74993 6.26163 8.68847 6.11326 8.57907 6.00386C8.46967 5.89447 8.3213 5.83301 8.16659 5.83301C8.01188 5.83301 7.8635 5.89447 7.75411 6.00386C7.64471 6.11326 7.58325 6.26163 7.58325 6.41634V9.91633C7.58325 10.071 7.64471 10.2194 7.75411 10.3288C7.8635 10.4382 8.01188 10.4997 8.16659 10.4997Z" fill="#DD5470"/>
</svg>
