<svg width="11" height="11" viewBox="0 0 11 11" fill="none" xmlns="http://www.w3.org/2000/svg">
<g clip-path="url(#clip0_390_1142)">
<path d="M8.02085 0.87793C7.50475 0.885957 6.9999 1.03003 6.55729 1.2956C6.11468 1.56116 5.74998 1.93882 5.50002 2.39043C5.25006 1.93882 4.88537 1.56116 4.44276 1.2956C4.00014 1.03003 3.49529 0.885957 2.97919 0.87793C2.15645 0.913675 1.3813 1.27359 0.823089 1.87904C0.264874 2.48448 -0.0310308 3.28625 2.15734e-05 4.10918C2.15734e-05 6.19322 2.1936 8.46931 4.03335 10.0125C4.44412 10.3577 4.96348 10.5469 5.50002 10.5469C6.03657 10.5469 6.55592 10.3577 6.96669 10.0125C8.80644 8.46931 11 6.19322 11 4.10918C11.0311 3.28625 10.7352 2.48448 10.177 1.87904C9.61874 1.27359 8.84359 0.913675 8.02085 0.87793ZM6.37773 9.31126C6.13206 9.51814 5.8212 9.63159 5.50002 9.63159C5.17884 9.63159 4.86799 9.51814 4.62231 9.31126C2.2674 7.33539 0.916688 5.43972 0.916688 4.10918C0.885357 3.52926 1.08461 2.96047 1.47098 2.52688C1.85735 2.09328 2.3995 1.83005 2.97919 1.7946C3.55887 1.83005 4.10102 2.09328 4.4874 2.52688C4.87377 2.96047 5.07302 3.52926 5.04169 4.10918C5.04169 4.23074 5.08998 4.34732 5.17593 4.43327C5.26189 4.51922 5.37846 4.56751 5.50002 4.56751C5.62158 4.56751 5.73816 4.51922 5.82411 4.43327C5.91007 4.34732 5.95835 4.23074 5.95835 4.10918C5.92702 3.52926 6.12627 2.96047 6.51265 2.52688C6.89902 2.09328 7.44117 1.83005 8.02085 1.7946C8.60054 1.83005 9.14269 2.09328 9.52906 2.52688C9.91544 2.96047 10.1147 3.52926 10.0834 4.10918C10.0834 5.43972 8.73265 7.33539 6.37773 9.30943V9.31126Z" fill="#374957"/>
</g>
<defs>
<clipPath id="clip0_390_1142">
<rect width="11" height="11" fill="white"/>
</clipPath>
</defs>
</svg>
