<svg width="14" height="14" viewBox="0 0 14 14" fill="none" xmlns="http://www.w3.org/2000/svg">
<g clip-path="url(#clip0_404_1089)">
<path d="M13.331 0.670128C12.9345 0.27416 12.397 0.0517578 11.8365 0.0517578C11.2761 0.0517578 10.7386 0.27416 10.342 0.670128L0.854714 10.1575C0.583027 10.4276 0.367609 10.749 0.220921 11.1029C0.074234 11.4569 -0.000810082 11.8364 0.000130809 12.2195V13.4171C0.000130809 13.5718 0.061589 13.7202 0.170985 13.8296C0.280381 13.939 0.428755 14.0005 0.583464 14.0005H1.78105C2.16416 14.0015 2.54368 13.9266 2.89764 13.78C3.2516 13.6334 3.57296 13.4181 3.84313 13.1465L13.331 3.65854C13.7268 3.26199 13.9491 2.72461 13.9491 2.16434C13.9491 1.60406 13.7268 1.06668 13.331 0.670128ZM3.0183 12.3216C2.6893 12.6484 2.24478 12.8325 1.78105 12.8338H1.1668V12.2195C1.16621 11.9897 1.21122 11.7619 1.29924 11.5496C1.38725 11.3372 1.51651 11.1444 1.67955 10.9823L8.87963 3.78221L10.2213 5.12388L3.0183 12.3216ZM12.5056 2.83371L11.0438 4.29613L9.70213 2.95738L11.1645 1.49496C11.2526 1.40706 11.3572 1.33737 11.4722 1.28987C11.5872 1.24237 11.7105 1.21799 11.835 1.21812C11.9594 1.21826 12.0826 1.24291 12.1975 1.29066C12.3125 1.33841 12.4169 1.40832 12.5048 1.49642C12.5927 1.58451 12.6624 1.68906 12.7099 1.80409C12.7574 1.91912 12.7817 2.04238 12.7816 2.16683C12.7815 2.29128 12.7568 2.41448 12.7091 2.52941C12.6613 2.64433 12.5914 2.74872 12.5033 2.83663L12.5056 2.83371Z" fill="#528832"/>
</g>
<defs>
<clipPath id="clip0_404_1089">
<rect width="14" height="14" fill="white"/>
</clipPath>
</defs>
</svg>
