<svg width="13" height="13" viewBox="0 0 13 13" fill="none" xmlns="http://www.w3.org/2000/svg">
<g clip-path="url(#clip0_437_1747)">
<path d="M12.9999 6.09243C12.9216 4.82494 12.474 3.60808 11.7125 2.59187C10.9509 1.57566 9.90862 0.804514 8.71409 0.373511C7.51956 -0.057492 6.22501 -0.129514 4.99005 0.166324C3.75508 0.462162 2.63368 1.11293 1.76409 2.03839C0.894505 2.96385 0.314748 4.12356 0.0962947 5.37454C-0.122159 6.62551 0.0302409 7.91307 0.534706 9.07848C1.03917 10.2439 1.87365 11.2362 2.93526 11.9331C3.99687 12.63 5.23921 13.001 6.50912 13.0003H10.2916C11.0097 12.9996 11.6981 12.714 12.2059 12.2063C12.7136 11.6985 12.9992 11.01 12.9999 10.292V6.09243ZM11.9166 10.292C11.9166 10.7229 11.7454 11.1363 11.4406 11.441C11.1359 11.7458 10.7226 11.917 10.2916 11.917H6.50912C5.74479 11.9166 4.98912 11.7552 4.29137 11.4432C3.59362 11.1312 2.96947 10.6756 2.45962 10.1062C1.9473 9.53704 1.56258 8.86494 1.33127 8.13494C1.09996 7.40495 1.0274 6.63393 1.11845 5.8736C1.26223 4.67432 1.80105 3.55699 2.64998 2.69776C3.49891 1.83854 4.60966 1.28628 5.80712 1.12806C6.0407 1.09878 6.27587 1.08395 6.51128 1.08364C7.77362 1.0802 8.99689 1.52125 9.96658 2.32947C10.5329 2.80015 10.9978 3.38093 11.3329 4.0366C11.6681 4.69228 11.8667 5.40919 11.9166 6.14389V10.292Z" fill="#595446"/>
<path d="M4.33323 4.87532H6.4999C6.64356 4.87532 6.78133 4.81826 6.88291 4.71667C6.9845 4.61509 7.04156 4.47732 7.04156 4.33366C7.04156 4.19 6.9845 4.05222 6.88291 3.95064C6.78133 3.84906 6.64356 3.79199 6.4999 3.79199H4.33323C4.18957 3.79199 4.0518 3.84906 3.95022 3.95064C3.84863 4.05222 3.79156 4.19 3.79156 4.33366C3.79156 4.47732 3.84863 4.61509 3.95022 4.71667C4.0518 4.81826 4.18957 4.87532 4.33323 4.87532Z" fill="#595446"/>
<path d="M8.66656 5.95801H4.33323C4.18957 5.95801 4.0518 6.01508 3.95022 6.11666C3.84863 6.21824 3.79156 6.35602 3.79156 6.49968C3.79156 6.64334 3.84863 6.78111 3.95022 6.8827C4.0518 6.98428 4.18957 7.04135 4.33323 7.04135H8.66656C8.81022 7.04135 8.948 6.98428 9.04958 6.8827C9.15116 6.78111 9.20823 6.64334 9.20823 6.49968C9.20823 6.35602 9.15116 6.21824 9.04958 6.11666C8.948 6.01508 8.81022 5.95801 8.66656 5.95801Z" fill="#595446"/>
<path d="M8.66656 8.125H4.33323C4.18957 8.125 4.0518 8.18207 3.95022 8.28365C3.84863 8.38523 3.79156 8.52301 3.79156 8.66667C3.79156 8.81033 3.84863 8.94811 3.95022 9.04969C4.0518 9.15127 4.18957 9.20834 4.33323 9.20834H8.66656C8.81022 9.20834 8.948 9.15127 9.04958 9.04969C9.15116 8.94811 9.20823 8.81033 9.20823 8.66667C9.20823 8.52301 9.15116 8.38523 9.04958 8.28365C8.948 8.18207 8.81022 8.125 8.66656 8.125Z" fill="#595446"/>
</g>
<defs>
<clipPath id="clip0_437_1747">
<rect width="13" height="13" fill="white"/>
</clipPath>
</defs>
</svg>
