<svg width="11" height="11" viewBox="0 0 11 11" fill="none" xmlns="http://www.w3.org/2000/svg">
<g clip-path="url(#clip0_396_1423)">
<path d="M10.8655 10.2176L8.1297 7.48186C8.87523 6.57004 9.24179 5.40656 9.15354 4.23207C9.0653 3.05758 8.529 1.96193 7.65559 1.17176C6.78218 0.381589 5.63847 -0.0426522 4.46103 -0.0132127C3.28359 0.0162269 2.16252 0.497095 1.32968 1.32993C0.496851 2.16276 0.0159828 3.28384 -0.0134568 4.46127C-0.0428964 5.63871 0.381345 6.78242 1.17152 7.65583C1.96169 8.52925 3.05733 9.06554 4.23183 9.15378C5.40632 9.24203 6.5698 8.87547 7.48161 8.12994L10.2174 10.8657C10.3038 10.9492 10.4196 10.9954 10.5398 10.9944C10.66 10.9933 10.7749 10.9451 10.8599 10.8601C10.9449 10.7752 10.9931 10.6602 10.9941 10.54C10.9952 10.4199 10.949 10.3041 10.8655 10.2176ZM4.58311 8.25002C3.85791 8.25002 3.149 8.03498 2.54602 7.63208C1.94304 7.22918 1.47307 6.65652 1.19555 5.98653C0.918032 5.31653 0.845419 4.57929 0.986899 3.86802C1.12838 3.15676 1.47759 2.50342 1.99039 1.99063C2.50318 1.47784 3.15652 1.12862 3.86778 0.987143C4.57904 0.845663 5.31629 0.918276 5.98628 1.1958C6.65628 1.47332 7.22893 1.94328 7.63183 2.54626C8.03473 3.14924 8.24978 3.85816 8.24978 4.58336C8.24869 5.55548 7.86203 6.48748 7.17463 7.17487C6.48723 7.86227 5.55524 8.24893 4.58311 8.25002Z" fill="#575550"/>
</g>
<defs>
<clipPath id="clip0_396_1423">
<rect width="11" height="11" fill="white"/>
</clipPath>
</defs>
</svg>
