<svg width="24" height="24" viewBox="0 0 24 24" fill="none" xmlns="http://www.w3.org/2000/svg">
<g clip-path="url(#clip0_410_1534)">
<path d="M17.9999 19.0001C18.1977 19.0001 18.391 18.9414 18.5554 18.8315C18.7198 18.7217 18.8479 18.5655 18.9236 18.3828C18.9993 18.2001 19.0191 17.9991 18.9805 17.8051C18.9419 17.6112 18.8467 17.433 18.7069 17.2931L12.5349 11.1221C11.5973 10.1848 10.3257 9.6582 8.99992 9.6582C7.6741 9.6582 6.40256 10.1848 5.46492 11.1221L3.29292 13.2931C3.11076 13.4817 3.00997 13.7343 3.01224 13.9965C3.01452 14.2587 3.11969 14.5095 3.3051 14.695C3.49051 14.8804 3.74132 14.9855 4.00352 14.9878C4.26571 14.9901 4.51832 14.8893 4.70692 14.7071L6.87892 12.5361C7.45014 11.9903 8.20982 11.6857 8.99992 11.6857C9.79002 11.6857 10.5497 11.9903 11.1209 12.5361L17.2929 18.7071C17.4804 18.8947 17.7347 19.0001 17.9999 19.0001Z" fill="white"/>
<path d="M16.0001 10.5C16.6924 10.5 17.369 10.2947 17.9446 9.91015C18.5202 9.52556 18.9688 8.97894 19.2337 8.33939C19.4986 7.69985 19.5679 6.99612 19.4329 6.31719C19.2978 5.63825 18.9645 5.01461 18.475 4.52513C17.9855 4.03564 17.3619 3.7023 16.6829 3.56725C16.004 3.4322 15.3003 3.50152 14.6607 3.76642C14.0212 4.03133 13.4746 4.47993 13.09 5.05551C12.7054 5.63108 12.5001 6.30777 12.5001 7C12.5001 7.92826 12.8689 8.8185 13.5252 9.47488C14.1816 10.1313 15.0719 10.5 16.0001 10.5ZM16.0001 5.5C16.2968 5.5 16.5868 5.58798 16.8335 5.7528C17.0802 5.91762 17.2724 6.15189 17.3859 6.42598C17.4995 6.70007 17.5292 7.00167 17.4713 7.29264C17.4134 7.58361 17.2706 7.85088 17.0608 8.06066C16.851 8.27044 16.5837 8.4133 16.2928 8.47118C16.0018 8.52906 15.7002 8.49935 15.4261 8.38582C15.152 8.27229 14.9177 8.08003 14.7529 7.83336C14.5881 7.58668 14.5001 7.29667 14.5001 7C14.5001 6.60218 14.6582 6.22065 14.9395 5.93934C15.2208 5.65804 15.6023 5.5 16.0001 5.5Z" fill="white"/>
<path d="M22.9999 16C22.7346 16 22.4803 16.1054 22.2928 16.2929C22.1052 16.4804 21.9999 16.7348 21.9999 17V19C21.9999 19.7956 21.6838 20.5587 21.1212 21.1213C20.5586 21.6839 19.7955 22 18.9999 22H16.9999C16.7347 22 16.4803 22.1053 16.2928 22.2929C16.1052 22.4804 15.9999 22.7348 15.9999 23C15.9999 23.2652 16.1052 23.5196 16.2928 23.7071C16.4803 23.8946 16.7347 24 16.9999 24H18.9999C20.3255 23.9984 21.5963 23.4711 22.5336 22.5338C23.471 21.5964 23.9983 20.3256 23.9999 19V17C23.9999 16.7348 23.8945 16.4804 23.707 16.2929C23.5194 16.1054 23.2651 16 22.9999 16Z" fill="white"/>
<path d="M1 8C1.26522 8 1.51957 7.89464 1.70711 7.70711C1.89464 7.51957 2 7.26522 2 7V5C2 4.20435 2.31607 3.44129 2.87868 2.87868C3.44129 2.31607 4.20435 2 5 2H7C7.26522 2 7.51957 1.89464 7.70711 1.70711C7.89464 1.51957 8 1.26522 8 1C8 0.734784 7.89464 0.48043 7.70711 0.292893C7.51957 0.105357 7.26522 0 7 0L5 0C3.67441 0.00158786 2.40356 0.528882 1.46622 1.46622C0.528882 2.40356 0.00158786 3.67441 0 5L0 7C0 7.26522 0.105357 7.51957 0.292893 7.70711C0.48043 7.89464 0.734784 8 1 8Z" fill="white"/>
<path d="M7 22H5C4.20435 22 3.44129 21.6839 2.87868 21.1213C2.31607 20.5587 2 19.7956 2 19V17C2 16.7348 1.89464 16.4804 1.70711 16.2929C1.51957 16.1054 1.26522 16 1 16C0.734784 16 0.48043 16.1054 0.292893 16.2929C0.105357 16.4804 0 16.7348 0 17L0 19C0.00158786 20.3256 0.528882 21.5964 1.46622 22.5338C2.40356 23.4711 3.67441 23.9984 5 24H7C7.26522 24 7.51957 23.8946 7.70711 23.7071C7.89464 23.5196 8 23.2652 8 23C8 22.7348 7.89464 22.4804 7.70711 22.2929C7.51957 22.1053 7.26522 22 7 22Z" fill="white"/>
<path d="M18.9999 0H16.9999C16.7347 0 16.4803 0.105357 16.2928 0.292893C16.1052 0.48043 15.9999 0.734784 15.9999 1C15.9999 1.26522 16.1052 1.51957 16.2928 1.70711C16.4803 1.89464 16.7347 2 16.9999 2H18.9999C19.7955 2 20.5586 2.31607 21.1212 2.87868C21.6838 3.44129 21.9999 4.20435 21.9999 5V7C21.9999 7.26522 22.1052 7.51957 22.2928 7.70711C22.4803 7.89464 22.7346 8 22.9999 8C23.2651 8 23.5194 7.89464 23.707 7.70711C23.8945 7.51957 23.9999 7.26522 23.9999 7V5C23.9983 3.67441 23.471 2.40356 22.5336 1.46622C21.5963 0.528882 20.3255 0.00158786 18.9999 0V0Z" fill="white"/>
</g>
<rect x="0.5" y="0.5" width="23" height="23" stroke="#6D6A95"/>
<defs>
<clipPath id="clip0_410_1534">
<rect width="24" height="24" fill="white"/>
</clipPath>
</defs>
</svg>
