<svg width="335" height="25" viewBox="0 0 335 25" fill="none" xmlns="http://www.w3.org/2000/svg">
<rect opacity="0.8" width="335" height="25" rx="11" fill="#8F8F8F"/>
<path d="M28.8 13.108V16.062H22.836V17.322C22.836 17.3967 22.8453 17.4433 22.864 17.462C22.892 17.49 22.9387 17.504 23.004 17.504H29.206V18.372H22.5C22.2293 18.372 22.0427 18.3113 21.94 18.19C21.8373 18.0687 21.786 17.882 21.786 17.63V15.222H27.736V13.962H21.828V13.108H28.8ZM27.75 6.416H28.814V12.268H27.75V6.416ZM22.78 12.016C22.2667 12.016 21.8233 11.946 21.45 11.806C21.0767 11.6567 20.7687 11.4607 20.526 11.218C20.2927 10.966 20.12 10.6767 20.008 10.35C19.896 10.014 19.84 9.65933 19.84 9.286C19.84 8.91267 19.896 8.56267 20.008 8.236C20.12 7.9 20.2927 7.61067 20.526 7.368C20.7687 7.116 21.0767 6.92 21.45 6.78C21.8233 6.63067 22.2667 6.556 22.78 6.556C23.2933 6.556 23.7367 6.63067 24.11 6.78C24.4833 6.92 24.7867 7.116 25.02 7.368C25.2627 7.61067 25.44 7.9 25.552 8.236C25.664 8.56267 25.72 8.91267 25.72 9.286C25.72 9.65933 25.664 10.014 25.552 10.35C25.44 10.6767 25.2627 10.966 25.02 11.218C24.7867 11.4607 24.4833 11.6567 24.11 11.806C23.7367 11.946 23.2933 12.016 22.78 12.016ZM22.78 11.176C23.368 11.176 23.83 11.0173 24.166 10.7C24.502 10.3733 24.67 9.902 24.67 9.286C24.67 8.67 24.502 8.20333 24.166 7.886C23.83 7.55933 23.368 7.396 22.78 7.396C22.192 7.396 21.73 7.55933 21.394 7.886C21.058 8.20333 20.89 8.67 20.89 9.286C20.89 9.902 21.058 10.3733 21.394 10.7C21.73 11.0173 22.192 11.176 22.78 11.176ZM36.4087 18.428C35.13 18.428 34.2013 18.2087 33.6227 17.77C33.044 17.3407 32.7547 16.7527 32.7547 16.006C32.7547 15.2593 33.044 14.6713 33.6227 14.242C34.2013 13.8033 35.13 13.584 36.4087 13.584C37.678 13.584 38.602 13.8033 39.1807 14.242C39.7687 14.6713 40.0627 15.2593 40.0627 16.006C40.0627 16.7527 39.7687 17.3407 39.1807 17.77C38.602 18.2087 37.678 18.428 36.4087 18.428ZM33.9307 10.098C33.8187 10.3687 33.6647 10.6393 33.4687 10.91C33.2727 11.1807 33.0487 11.4373 32.7967 11.68C32.5447 11.9133 32.274 12.1327 31.9847 12.338C31.7047 12.534 31.4247 12.702 31.1447 12.842L30.5847 12.044C31.49 11.568 32.1807 10.994 32.6567 10.322C33.1327 9.65 33.3707 8.95933 33.3707 8.25V7.858H31.0327V6.99H36.8707V7.858H34.4907V8.25C34.4907 8.866 34.71 9.482 35.1487 10.098C35.5873 10.7047 36.2967 11.26 37.2767 11.764L36.7167 12.562C36.4553 12.4407 36.1893 12.2913 35.9187 12.114C35.648 11.9367 35.3867 11.7453 35.1347 11.54C34.8827 11.3253 34.654 11.0967 34.4487 10.854C34.2433 10.6113 34.0707 10.3593 33.9307 10.098ZM36.4087 17.574C36.8753 17.574 37.2673 17.5367 37.5847 17.462C37.9113 17.3873 38.1773 17.28 38.3827 17.14C38.588 17.0093 38.7327 16.8507 38.8167 16.664C38.91 16.468 38.9567 16.2487 38.9567 16.006C38.9567 15.7727 38.91 15.558 38.8167 15.362C38.7327 15.166 38.588 15.0027 38.3827 14.872C38.1773 14.732 37.9113 14.6247 37.5847 14.55C37.2673 14.4753 36.8753 14.438 36.4087 14.438C35.942 14.438 35.5453 14.4753 35.2187 14.55C34.9013 14.6247 34.64 14.732 34.4347 14.872C34.2293 15.0027 34.08 15.166 33.9867 15.362C33.9027 15.558 33.8607 15.7727 33.8607 16.006C33.8607 16.2487 33.9027 16.468 33.9867 16.664C34.08 16.8507 34.2293 17.0093 34.4347 17.14C34.64 17.28 34.9013 17.3873 35.2187 17.462C35.5453 17.5367 35.942 17.574 36.4087 17.574ZM36.5207 8.936H38.8587V6.416H39.9227V13.192H38.8587V9.846H36.5207V8.936ZM46.9013 10.742C46.2293 10.742 45.66 10.6907 45.1933 10.588C44.736 10.4853 44.358 10.3407 44.0593 10.154C43.77 9.96733 43.56 9.74333 43.4293 9.482C43.2987 9.21133 43.2333 8.91267 43.2333 8.586C43.2333 8.25 43.2987 7.94667 43.4293 7.676C43.56 7.40533 43.77 7.17667 44.0593 6.99C44.358 6.80333 44.736 6.65867 45.1933 6.556C45.66 6.45333 46.2293 6.402 46.9013 6.402C47.5733 6.402 48.138 6.45333 48.5953 6.556C49.062 6.65867 49.44 6.80333 49.7293 6.99C50.028 7.17667 50.2427 7.40533 50.3733 7.676C50.504 7.94667 50.5693 8.25 50.5693 8.586C50.5693 8.91267 50.504 9.21133 50.3733 9.482C50.2427 9.74333 50.028 9.96733 49.7293 10.154C49.44 10.3407 49.062 10.4853 48.5953 10.588C48.138 10.6907 47.5733 10.742 46.9013 10.742ZM46.9013 9.902C47.8253 9.902 48.4927 9.79 48.9033 9.566C49.314 9.342 49.5193 9.01067 49.5193 8.572C49.5193 8.13333 49.314 7.802 48.9033 7.578C48.4927 7.354 47.8253 7.242 46.9013 7.242C45.9773 7.242 45.31 7.354 44.8993 7.578C44.4887 7.802 44.2833 8.13333 44.2833 8.572C44.2833 9.01067 44.4887 9.342 44.8993 9.566C45.31 9.79 45.9773 9.902 46.9013 9.902ZM52.0953 11.498V12.38H41.7213V11.498H52.0953ZM50.5273 16.188H44.3393V17.35C44.3393 17.4247 44.3487 17.4713 44.3673 17.49C44.3953 17.5087 44.442 17.518 44.5073 17.518H50.8073V18.372H43.9333C43.7187 18.372 43.5553 18.3253 43.4433 18.232C43.3407 18.1387 43.2893 17.9707 43.2893 17.728V15.348H49.4773V14.326H43.3173V13.458H50.5273V16.188ZM61.1918 18.232V14.648H56.4598V13.752H66.8338V14.648H62.2558V18.232H61.1918ZM61.6958 10.784C61.5558 11.036 61.3365 11.2787 61.0378 11.512C60.7485 11.736 60.4172 11.9413 60.0438 12.128C59.6705 12.3053 59.2692 12.4593 58.8398 12.59C58.4198 12.7113 58.0045 12.7907 57.5938 12.828L57.2998 11.988C57.7852 11.932 58.2565 11.82 58.7138 11.652C59.1805 11.484 59.5865 11.288 59.9318 11.064C60.2865 10.84 60.5712 10.602 60.7858 10.35C61.0005 10.0887 61.1078 9.84133 61.1078 9.608V9.3H57.9298V8.446H65.4618V9.3H62.2698V9.608C62.2698 9.832 62.3772 10.07 62.5918 10.322C62.8065 10.574 63.0912 10.812 63.4458 11.036C63.8005 11.2507 64.2065 11.4467 64.6638 11.624C65.1212 11.792 65.5972 11.9133 66.0918 11.988L65.8118 12.828C65.4198 12.7907 65.0138 12.7113 64.5938 12.59C64.1738 12.4593 63.7725 12.3053 63.3898 12.128C63.0165 11.9413 62.6805 11.736 62.3818 11.512C62.0832 11.2787 61.8545 11.036 61.6958 10.784ZM63.6838 7.41H59.6238V6.486H63.6838V7.41ZM76.4725 6.416V10.336H78.2925V11.232H76.4725V18.232H75.4085V6.416H76.4725ZM73.2385 7.2V10C73.2385 10.6347 73.1545 11.1853 72.9865 11.652C72.8278 12.1093 72.5618 12.534 72.1885 12.926C71.8245 13.318 71.3392 13.7007 70.7325 14.074C70.1258 14.4473 69.3792 14.8627 68.4925 15.32L68.0305 14.494C68.8238 14.0647 69.4818 13.682 70.0045 13.346C70.5365 13.0007 70.9612 12.674 71.2785 12.366C71.5958 12.0487 71.8198 11.722 71.9505 11.386C72.0812 11.05 72.1465 10.6673 72.1465 10.238V8.082H68.0445V7.2H73.2385ZM87.3432 12.31H86.0692V17.84H85.0752V6.57H86.0692V11.4H87.3432V6.416H88.3652V18.232H87.3432V12.31ZM78.6912 8.698H84.3892V9.608H78.6912V8.698ZM79.9792 7.802V6.822H83.2272V7.802H79.9792ZM81.6452 15.656C81.2345 15.656 80.8799 15.586 80.5812 15.446C80.2825 15.306 80.0352 15.1147 79.8392 14.872C79.6525 14.6293 79.5125 14.3447 79.4192 14.018C79.3352 13.6913 79.2932 13.3413 79.2932 12.968C79.2932 12.5947 79.3352 12.2447 79.4192 11.918C79.5125 11.5913 79.6525 11.3067 79.8392 11.064C80.0259 10.8213 80.2685 10.63 80.5672 10.49C80.8659 10.35 81.2205 10.28 81.6312 10.28C82.0512 10.28 82.4105 10.35 82.7092 10.49C83.0079 10.63 83.2505 10.8213 83.4372 11.064C83.6332 11.3067 83.7732 11.5913 83.8572 11.918C83.9505 12.2447 83.9972 12.5947 83.9972 12.968C83.9972 13.3413 83.9505 13.6913 83.8572 14.018C83.7732 14.3447 83.6379 14.6293 83.4512 14.872C83.2645 15.1147 83.0219 15.306 82.7232 15.446C82.4245 15.586 82.0652 15.656 81.6452 15.656ZM81.6452 14.83C82.1212 14.83 82.4665 14.662 82.6812 14.326C82.9052 13.9807 83.0172 13.528 83.0172 12.968C83.0172 12.408 82.9052 11.96 82.6812 11.624C82.4665 11.2787 82.1212 11.106 81.6452 11.106C81.1692 11.106 80.8192 11.2787 80.5952 11.624C80.3805 11.96 80.2732 12.408 80.2732 12.968C80.2732 13.528 80.3805 13.9807 80.5952 14.326C80.8192 14.662 81.1692 14.83 81.6452 14.83ZM91.2419 7.732V6.85H98.7459V7.732H95.5819V8.306C95.5819 8.586 95.6705 8.85667 95.8479 9.118C96.0345 9.37 96.2912 9.61267 96.6179 9.846C96.9445 10.07 97.3319 10.2847 97.7799 10.49C98.2372 10.686 98.7412 10.8587 99.2919 11.008L98.8159 11.82C98.4519 11.736 98.0832 11.6193 97.7099 11.47C97.3365 11.3207 96.9772 11.148 96.6319 10.952C96.2865 10.756 95.9739 10.546 95.6939 10.322C95.4232 10.098 95.2039 9.86467 95.0359 9.622C94.8492 9.902 94.6065 10.1587 94.3079 10.392C94.0185 10.6253 93.6919 10.8353 93.3279 11.022C92.9732 11.2087 92.5999 11.372 92.2079 11.512C91.8159 11.652 91.4239 11.7687 91.0319 11.862L90.5559 11.036C91.1252 10.896 91.6479 10.7233 92.1239 10.518C92.5999 10.3127 93.0105 10.0887 93.3559 9.846C93.7012 9.60333 93.9719 9.35133 94.1679 9.09C94.3639 8.82867 94.4619 8.56733 94.4619 8.306V7.732H91.2419ZM100.174 13.934H95.5819V18.232H94.5179V13.934H89.7999V13.052H100.174V13.934ZM105.515 10.014H107.517V6.57H108.511V17.84H107.517V10.924H105.515V10.014ZM110.583 6.416V18.232H109.561V6.416H110.583ZM103.709 12.086C103.662 12.3007 103.559 12.5433 103.401 12.814C103.242 13.0847 103.051 13.36 102.827 13.64C102.612 13.92 102.374 14.1953 102.113 14.466C101.861 14.7273 101.609 14.9513 101.357 15.138L100.755 14.396C101.081 14.1347 101.389 13.8407 101.679 13.514C101.968 13.1873 102.22 12.842 102.435 12.478C102.659 12.1047 102.831 11.722 102.953 11.33C103.083 10.9287 103.149 10.5273 103.149 10.126V7.046H104.213V10.126C104.213 10.5367 104.269 10.924 104.381 11.288C104.502 11.6427 104.67 11.988 104.885 12.324C105.099 12.6507 105.356 12.968 105.655 13.276C105.953 13.584 106.285 13.8873 106.649 14.186L106.005 14.956C105.781 14.7787 105.547 14.578 105.305 14.354C105.071 14.13 104.847 13.892 104.633 13.64C104.427 13.388 104.241 13.1313 104.073 12.87C103.914 12.5993 103.793 12.338 103.709 12.086ZM122.391 15.18V16.062H112.017V15.18H114.817V12.422C114.369 12.1513 114.038 11.7967 113.823 11.358C113.618 10.9193 113.515 10.4247 113.515 9.874C113.515 9.41667 113.585 8.99667 113.725 8.614C113.875 8.222 114.099 7.886 114.397 7.606C114.696 7.326 115.079 7.11133 115.545 6.962C116.012 6.80333 116.563 6.724 117.197 6.724C117.832 6.724 118.378 6.80333 118.835 6.962C119.302 7.11133 119.685 7.326 119.983 7.606C120.291 7.886 120.515 8.222 120.655 8.614C120.805 8.99667 120.879 9.41667 120.879 9.874C120.879 10.4247 120.772 10.9193 120.557 11.358C120.352 11.7967 120.025 12.1513 119.577 12.422V15.18H122.391ZM117.197 12.1C118.065 12.1 118.714 11.8947 119.143 11.484C119.573 11.0733 119.787 10.532 119.787 9.86C119.787 9.188 119.573 8.64667 119.143 8.236C118.714 7.82533 118.065 7.62 117.197 7.62C116.329 7.62 115.681 7.82533 115.251 8.236C114.822 8.64667 114.607 9.188 114.607 9.86C114.607 10.532 114.822 11.0733 115.251 11.484C115.681 11.8947 116.329 12.1 117.197 12.1ZM117.197 12.996C116.703 12.996 116.273 12.9493 115.909 12.856V15.18H118.513V12.856C118.317 12.9027 118.107 12.94 117.883 12.968C117.669 12.9867 117.44 12.996 117.197 12.996Z" fill="white"/>
<circle cx="306" cy="12" r="9" fill="#DBDBDB"/>
<path d="M306 8L306 16" stroke="#222222" stroke-width="1.2" stroke-linecap="round"/>
<path d="M310 12L302 12" stroke="#222222" stroke-width="1.2" stroke-linecap="round"/>
</svg>
