<svg width="29" height="29" viewBox="0 0 29 29" fill="none" xmlns="http://www.w3.org/2000/svg">
<path d="M20.3719 6.09822L11.7381 8.97617C8.78643 9.96006 7.31059 10.452 6.94263 11.2086C6.67409 11.7608 6.67409 12.4058 6.94263 12.958C7.31059 13.7146 8.78643 14.2066 11.7381 15.1905L11.7381 15.1905C12.3297 15.3877 12.6255 15.4863 12.8683 15.6587C13.0514 15.7886 13.2113 15.9486 13.3413 16.1317C13.5137 16.3745 13.6123 16.6703 13.8095 17.2619C14.7934 20.2136 15.2854 21.6894 16.042 22.0573C16.5942 22.3259 17.2392 22.3259 17.7914 22.0573C18.548 21.6894 19.0399 20.2136 20.0238 17.2619L22.9018 8.62805C23.4537 6.97226 23.7297 6.14436 23.2926 5.70735C22.8556 5.27033 22.0277 5.54629 20.3719 6.09822Z" fill="#7E869E" fill-opacity="0.25" stroke="#A0A0A0"/>
</svg>
