<svg width="118" height="33" viewBox="0 0 118 33" fill="none" xmlns="http://www.w3.org/2000/svg">
<path d="M29.9826 23.144C29.7486 23.144 29.5796 23.0877 29.4756 22.975C29.3716 22.871 29.3196 22.6933 29.3196 22.442V19.088H35.8456V23.144H29.9826ZM32.6346 13.992C32.6346 14.2347 32.613 14.4773 32.5696 14.72H34.8576V12.172H35.8456V18.308H34.8576V15.565H32.2446C32.0973 15.825 31.898 16.0677 31.6466 16.293C31.404 16.5183 31.105 16.7393 30.7496 16.956C30.403 17.1727 29.9956 17.3937 29.5276 17.619C29.0683 17.8357 28.5483 18.0653 27.9676 18.308L27.5516 17.502C28.2363 17.216 28.8343 16.943 29.3456 16.683C29.857 16.423 30.2816 16.163 30.6196 15.903C30.9663 15.6343 31.222 15.3613 31.3866 15.084C31.56 14.798 31.6466 14.4903 31.6466 14.161V13.589H27.9676V12.77H32.6346V13.992ZM34.8446 19.881H30.2946V22.169C30.2946 22.2383 30.3076 22.286 30.3336 22.312C30.3596 22.338 30.4116 22.351 30.4896 22.351H34.8446V19.881ZM45.7708 12.172V15.747H47.4608V16.592H45.7708V23.144H44.7828V12.172H45.7708ZM40.6878 17.086C40.5752 17.3547 40.4192 17.632 40.2198 17.918C40.0292 18.204 39.8082 18.4857 39.5568 18.763C39.3142 19.0403 39.0542 19.3047 38.7768 19.556C38.4995 19.7987 38.2265 20.0153 37.9578 20.206L37.3338 19.491C37.7585 19.1703 38.1442 18.8367 38.4908 18.49C38.8462 18.1347 39.1452 17.775 39.3878 17.411C39.6392 17.047 39.8298 16.6873 39.9598 16.332C40.0985 15.9767 40.1678 15.6387 40.1678 15.318V12.705H41.2078V15.357C41.2078 15.669 41.2772 16.0027 41.4158 16.358C41.5632 16.7047 41.7582 17.0557 42.0008 17.411C42.2522 17.7663 42.5425 18.113 42.8718 18.451C43.2012 18.789 43.5565 19.0967 43.9378 19.374L43.3658 20.102C42.8025 19.6687 42.2782 19.1963 41.7928 18.685C41.3075 18.165 40.9392 17.632 40.6878 17.086ZM53.8276 17.45C53.7756 17.6753 53.6629 17.9397 53.4896 18.243C53.3249 18.5377 53.1342 18.8323 52.9176 19.127C52.7009 19.413 52.4799 19.6817 52.2546 19.933C52.0379 20.1843 51.8516 20.3663 51.6956 20.479L51.0716 19.816C51.8516 19.0707 52.4192 18.321 52.7746 17.567C53.1299 16.8043 53.3076 16.0547 53.3076 15.318V13.693H51.4876V12.887H56.0506V13.693H54.3086V15.396C54.3086 16.15 54.5079 16.891 54.9066 17.619C55.3052 18.347 55.8729 19.023 56.6096 19.647L56.0116 20.336C55.8122 20.18 55.5956 19.985 55.3616 19.751C55.1276 19.5083 54.9066 19.2527 54.6986 18.984C54.4906 18.7153 54.3086 18.4467 54.1526 18.178C53.9966 17.9093 53.8882 17.6667 53.8276 17.45ZM57.4156 15.526V12.315H58.3386V22.78H57.4156V16.371H55.4526V15.526H57.4156ZM60.1846 12.172V23.144H59.2356V12.172H60.1846ZM69.7068 21.584H63.9608V22.325C63.9608 22.3943 63.9694 22.4377 63.9868 22.455C64.0128 22.4723 64.0561 22.481 64.1168 22.481H69.9668V23.274H63.5838C63.3844 23.274 63.2328 23.2307 63.1288 23.144C63.0334 23.0573 62.9858 22.9013 62.9858 22.676V20.804H68.7318V20.024H63.0118V19.218H65.9238V18.23H61.5298V17.411H71.1628V18.23H66.8988V19.218H69.7068V21.584ZM66.3918 15.37C66.2531 15.578 66.0408 15.7687 65.7548 15.942C65.4688 16.1153 65.1481 16.267 64.7928 16.397C64.4461 16.527 64.0864 16.631 63.7138 16.709C63.3498 16.787 63.0118 16.8347 62.6998 16.852L62.4268 16.072C63.3454 15.968 64.0908 15.7947 64.6628 15.552C65.2434 15.3007 65.6334 14.98 65.8328 14.59H63.0118V13.81H69.7718V14.59H66.9508C67.1501 14.954 67.5358 15.266 68.1078 15.526C68.6798 15.786 69.4208 15.968 70.3308 16.072L70.0838 16.852C69.7284 16.8433 69.3644 16.8 68.9918 16.722C68.6278 16.644 68.2811 16.54 67.9518 16.41C67.6224 16.28 67.3191 16.1283 67.0418 15.955C66.7731 15.773 66.5564 15.578 66.3918 15.37ZM64.5068 13.004V12.159H68.1858V13.004H64.5068ZM71.988 14.291H78.02V15.097H71.988V14.291ZM73.366 13.29V12.419H76.772V13.29H73.366ZM79.112 12.172H80.1V17.008H81.79V17.866H80.1V23.144H79.112V12.172ZM75.043 20.934C74.237 20.934 73.6173 20.7303 73.184 20.323C72.7506 19.907 72.534 19.27 72.534 18.412C72.534 17.554 72.7506 16.9213 73.184 16.514C73.6173 16.098 74.237 15.89 75.043 15.89C75.849 15.89 76.4686 16.098 76.902 16.514C77.3353 16.9213 77.552 17.554 77.552 18.412C77.552 19.27 77.3353 19.907 76.902 20.323C76.4686 20.7303 75.849 20.934 75.043 20.934ZM75.043 20.128C75.537 20.128 75.927 19.9893 76.213 19.712C76.499 19.4347 76.642 19.0013 76.642 18.412C76.642 17.8227 76.499 17.3893 76.213 17.112C75.927 16.8347 75.537 16.696 75.043 16.696C74.549 16.696 74.159 16.8347 73.873 17.112C73.587 17.3893 73.444 17.8227 73.444 18.412C73.444 19.0013 73.587 19.4347 73.873 19.712C74.159 19.9893 74.549 20.128 75.043 20.128ZM89.8172 12.172H90.8052V23.144H89.8172V12.172ZM87.8282 12.913V15.448C87.8282 16.0373 87.7545 16.5487 87.6072 16.982C87.4685 17.4067 87.2302 17.801 86.8922 18.165C86.5542 18.529 86.1078 18.8843 85.5532 19.231C84.9985 19.5777 84.3095 19.9633 83.4862 20.388L83.0572 19.621C83.7938 19.2223 84.4005 18.867 84.8772 18.555C85.3625 18.2343 85.7482 17.931 86.0342 17.645C86.3202 17.3503 86.5195 17.047 86.6322 16.735C86.7535 16.423 86.8142 16.0677 86.8142 15.669V13.732H83.0702V12.913H87.8282Z" fill="#404040"/>
<rect x="0.5" y="0.5" width="117" height="32" rx="16" stroke="#808080"/>
</svg>
