<svg width="24" height="24" viewBox="0 0 24 24" fill="none" xmlns="http://www.w3.org/2000/svg">
<path fill-rule="evenodd" clip-rule="evenodd" d="M18.0355 4.20644C18.5451 4.11583 19.0806 4.12171 19.4798 4.5209C19.8787 4.92011 19.8849 5.45564 19.7943 5.96523C19.7029 6.4786 19.4798 7.14193 19.2093 7.95351L17.0462 14.4437C16.7758 15.255 16.5669 15.8826 16.3861 16.3461C16.2119 16.7924 16.0358 17.1653 15.803 17.4076C14.8194 18.4312 13.1813 18.4309 12.1976 17.4076C11.9649 17.1653 11.7887 16.7923 11.6146 16.3461C11.4337 15.8826 11.2248 15.2549 10.9544 14.4437C10.8397 14.0996 10.7986 13.981 10.7454 13.8803C10.6047 13.6142 10.3865 13.3961 10.1204 13.2553C10.0197 13.202 9.90129 13.1611 9.55695 13.0463C8.74586 12.7759 8.11815 12.567 7.65461 12.3861C7.20841 12.212 6.83545 12.0357 6.59308 11.8031C5.56939 10.8194 5.5694 9.18139 6.59308 8.19765C6.83544 7.9649 7.20818 7.78883 7.65461 7.61465C8.11818 7.43379 8.7457 7.22491 9.55695 6.95449L16.0472 4.7914C16.8589 4.52085 17.5221 4.29777 18.0355 4.20644ZM18.7728 5.22793C18.735 5.1902 18.6374 5.11487 18.2103 5.19082C17.7866 5.26622 17.2074 5.45838 16.3636 5.73965L9.87238 7.90371C9.05064 8.17762 8.45227 8.37681 8.01789 8.54629C7.56686 8.72227 7.36854 8.83865 7.28547 8.91836C6.67126 9.5086 6.67125 10.4922 7.28547 11.0824C7.36875 11.1621 7.56752 11.2788 8.01789 11.4545C8.45225 11.6239 9.0508 11.8232 9.87238 12.0971C10.1852 12.2013 10.3973 12.2705 10.5882 12.3715C11.0316 12.6061 11.3946 12.9691 11.6292 13.4125C11.7301 13.6034 11.7994 13.8155 11.9036 14.1283C12.1775 14.9499 12.3768 15.5485 12.5462 15.9828C12.7221 16.4335 12.8386 16.6322 12.9183 16.7152C13.5085 17.3291 14.4922 17.3293 15.0823 16.7152C15.162 16.6322 15.2785 16.4337 15.4544 15.9828C15.6239 15.5485 15.8231 14.95 16.097 14.1283L18.2611 7.63711C18.5423 6.7934 18.7344 6.21412 18.8099 5.79043C18.8857 5.36442 18.8106 5.26592 18.7728 5.22793Z" fill="#222222"/>
</svg>
