<svg width="64" height="55" viewBox="0 0 64 55" fill="none" xmlns="http://www.w3.org/2000/svg">
<rect x="0.65" y="-0.65" width="50.3" height="20.1462" rx="10.0731" transform="matrix(-1 0 0 1 51.6 18.3164)" fill="#4F4F4F" stroke="url(#paint0_linear_382_2959)" stroke-width="1.3"/>
<mask id="mask0_382_2959" style="mask-type:alpha" maskUnits="userSpaceOnUse" x="1" y="18" width="50" height="20">
<rect width="49" height="18.8462" rx="9.42308" transform="matrix(-1 0 0 1 50.3 18.3164)" fill="black"/>
</mask>
<g mask="url(#mask0_382_2959)">
<g filter="url(#filter0_i_382_2959)">
<rect width="49" height="18.8462" rx="9.42308" transform="matrix(-1 0 0 1 50.3 18.3164)" fill="#1F2533"/>
</g>
<path d="M8.4316 24.2158L8.5843 24.6285L8.99698 24.7812L8.5843 24.9339L8.4316 25.3466L8.27889 24.9339L7.86621 24.7812L8.27889 24.6285L8.4316 24.2158Z" fill="#DEE5F3"/>
<path d="M15.2161 27.2319L15.3688 27.6446L15.7815 27.7973L15.3688 27.95L15.2161 28.3627L15.0634 27.95L14.6508 27.7973L15.0634 27.6446L15.2161 27.2319Z" fill="#DEE5F3"/>
<path d="M9.93916 34.0161L10.0919 34.4288L10.5045 34.5815L10.0919 34.7342L9.93916 35.1469L9.78646 34.7342L9.37378 34.5815L9.78646 34.4288L9.93916 34.0161Z" fill="#DEE5F3"/>
<path d="M11.8237 28.3618L11.8746 28.4994L12.0122 28.5503L11.8746 28.6012L11.8237 28.7387L11.7728 28.6012L11.6353 28.5503L11.7728 28.4994L11.8237 28.3618Z" fill="#DEE5F3"/>
<path d="M8.80846 31.001L8.85936 31.1385L8.99692 31.1894L8.85936 31.2403L8.80846 31.3779L8.75755 31.2403L8.62 31.1894L8.75755 31.1385L8.80846 31.001Z" fill="#DEE5F3"/>
<path d="M13.0488 34.77L13.1252 34.9764L13.3315 35.0527L13.1252 35.1291L13.0488 35.3354L12.9725 35.1291L12.7661 35.0527L12.9725 34.9764L13.0488 34.77Z" fill="#DEE5F3"/>
<g filter="url(#filter1_f_382_2959)">
<path d="M8.1489 27.2319L8.22526 27.4383L8.4316 27.5146L8.22526 27.591L8.1489 27.7973L8.07255 27.591L7.86621 27.5146L8.07255 27.4383L8.1489 27.2319Z" fill="#DEE5F3"/>
</g>
<path d="M6.54686 32.8857L6.59776 33.0233L6.73532 33.0742L6.59776 33.1251L6.54686 33.2627L6.49596 33.1251L6.3584 33.0742L6.49596 33.0233L6.54686 32.8857Z" fill="#DEE5F3"/>
<path d="M15.97 32.1313L16.0209 32.2689L16.1584 32.3198L16.0209 32.3707L15.97 32.5083L15.9191 32.3707L15.7815 32.3198L15.9191 32.2689L15.97 32.1313Z" fill="#DEE5F3"/>
<path d="M12.5777 22.3315L12.6286 22.4691L12.7662 22.52L12.6286 22.5709L12.5777 22.7085L12.5268 22.5709L12.3893 22.52L12.5268 22.4691L12.5777 22.3315Z" fill="#DEE5F3"/>
<path d="M5.03917 28.3618L5.09007 28.4994L5.22763 28.5503L5.09007 28.6012L5.03917 28.7387L4.98827 28.6012L4.85071 28.5503L4.98827 28.4994L5.03917 28.3618Z" fill="#DEE5F3"/>
<path d="M18.2315 20.4468L18.3842 20.8595L18.7969 21.0122L18.3842 21.1649L18.2315 21.5775L18.0788 21.1649L17.6661 21.0122L18.0788 20.8595L18.2315 20.4468Z" fill="#DEE5F3"/>
<path d="M26.9006 24.2158L27.0533 24.6285L27.466 24.7812L27.0533 24.9339L26.9006 25.3466L26.7479 24.9339L26.3352 24.7812L26.7479 24.6285L26.9006 24.2158Z" fill="#DEE5F3"/>
<path d="M21.6237 32.8857L21.7764 33.2984L22.1891 33.4511L21.7764 33.6038L21.6237 34.0165L21.471 33.6038L21.0583 33.4511L21.471 33.2984L21.6237 32.8857Z" fill="#DEE5F3"/>
<path d="M23.5084 25.3472L23.5593 25.4847L23.6969 25.5356L23.5593 25.5865L23.5084 25.7241L23.4575 25.5865L23.3199 25.5356L23.4575 25.4847L23.5084 25.3472Z" fill="#DEE5F3"/>
<path d="M22.0006 29.4937L22.0515 29.6312L22.1891 29.6821L22.0515 29.733L22.0006 29.8706L21.9497 29.733L21.8121 29.6821L21.9497 29.6312L22.0006 29.4937Z" fill="#DEE5F3"/>
<path d="M23.9796 27.6084L24.0559 27.8147L24.2623 27.8911L24.0559 27.9674L23.9796 28.1738L23.9032 27.9674L23.6969 27.8911L23.9032 27.8147L23.9796 27.6084Z" fill="#DEE5F3"/>
<g filter="url(#filter2_f_382_2959)">
<path d="M19.8335 24.2158L19.9098 24.4222L20.1162 24.4985L19.9098 24.5749L19.8335 24.7812L19.7571 24.5749L19.5508 24.4985L19.7571 24.4222L19.8335 24.2158Z" fill="#DEE5F3"/>
</g>
<g filter="url(#filter3_f_382_2959)">
<path d="M18.2314 29.4937L18.2823 29.6312L18.4199 29.6821L18.2823 29.733L18.2314 29.8706L18.1805 29.733L18.043 29.6821L18.1805 29.6312L18.2314 29.4937Z" fill="#DEE5F3"/>
</g>
<path d="M27.6545 29.1162L27.7054 29.2538L27.843 29.3047L27.7054 29.3556L27.6545 29.4931L27.6036 29.3556L27.4661 29.3047L27.6036 29.2538L27.6545 29.1162Z" fill="#DEE5F3"/>
<path d="M25.77 21.5776L25.8209 21.7152L25.9585 21.7661L25.8209 21.817L25.77 21.9546L25.7191 21.817L25.5815 21.7661L25.7191 21.7152L25.77 21.5776Z" fill="#DEE5F3"/>
<path d="M16.7237 25.3472L16.7746 25.4847L16.9122 25.5356L16.7746 25.5865L16.7237 25.7241L16.6728 25.5865L16.5353 25.5356L16.6728 25.4847L16.7237 25.3472Z" fill="#DEE5F3"/>
<rect opacity="0.8" x="-0.120239" y="16.896" width="52.5507" height="22.0145" fill="white"/>
</g>
<g filter="url(#filter4_dii_382_2959)">
<rect x="32.5464" y="19.5" width="15.5546" height="15.5546" rx="7.77728" fill="#DEE5F3"/>
</g>
<path opacity="0.9" d="M40.5227 20.4348C43.6776 19.6805 46.8531 21.6014 47.6495 24.746L47.6823 24.8755C48.4893 28.0618 46.5268 31.2908 43.3268 32.0418C40.1166 32.7953 36.887 30.7865 36.1336 27.5763C35.3876 24.3976 37.3471 21.1941 40.5227 20.4348Z" fill="#1F2533" fill-opacity="0.79"/>
<defs>
<filter id="filter0_i_382_2959" x="1.30005" y="18.3164" width="49" height="26.6462" filterUnits="userSpaceOnUse" color-interpolation-filters="sRGB">
<feFlood flood-opacity="0" result="BackgroundImageFix"/>
<feBlend mode="normal" in="SourceGraphic" in2="BackgroundImageFix" result="shape"/>
<feColorMatrix in="SourceAlpha" type="matrix" values="0 0 0 0 0 0 0 0 0 0 0 0 0 0 0 0 0 0 127 0" result="hardAlpha"/>
<feOffset dy="7.8"/>
<feGaussianBlur stdDeviation="5.85"/>
<feComposite in2="hardAlpha" operator="arithmetic" k2="-1" k3="1"/>
<feColorMatrix type="matrix" values="0 0 0 0 0.0903125 0 0 0 0 0.105719 0 0 0 0 0.141667 0 0 0 1 0"/>
<feBlend mode="normal" in2="shape" result="effect1_innerShadow_382_2959"/>
</filter>
<filter id="filter1_f_382_2959" x="7.60621" y="26.9719" width="1.08543" height="1.08543" filterUnits="userSpaceOnUse" color-interpolation-filters="sRGB">
<feFlood flood-opacity="0" result="BackgroundImageFix"/>
<feBlend mode="normal" in="SourceGraphic" in2="BackgroundImageFix" result="shape"/>
<feGaussianBlur stdDeviation="0.13" result="effect1_foregroundBlur_382_2959"/>
</filter>
<filter id="filter2_f_382_2959" x="19.2908" y="23.9558" width="1.08543" height="1.08543" filterUnits="userSpaceOnUse" color-interpolation-filters="sRGB">
<feFlood flood-opacity="0" result="BackgroundImageFix"/>
<feBlend mode="normal" in="SourceGraphic" in2="BackgroundImageFix" result="shape"/>
<feGaussianBlur stdDeviation="0.13" result="effect1_foregroundBlur_382_2959"/>
</filter>
<filter id="filter3_f_382_2959" x="17.783" y="29.2337" width="0.896953" height="0.896953" filterUnits="userSpaceOnUse" color-interpolation-filters="sRGB">
<feFlood flood-opacity="0" result="BackgroundImageFix"/>
<feBlend mode="normal" in="SourceGraphic" in2="BackgroundImageFix" result="shape"/>
<feGaussianBlur stdDeviation="0.13" result="effect1_foregroundBlur_382_2959"/>
</filter>
<filter id="filter4_dii_382_2959" x="9.14638" y="-1.90735e-06" width="54.5546" height="54.5547" filterUnits="userSpaceOnUse" color-interpolation-filters="sRGB">
<feFlood flood-opacity="0" result="BackgroundImageFix"/>
<feColorMatrix in="SourceAlpha" type="matrix" values="0 0 0 0 0 0 0 0 0 0 0 0 0 0 0 0 0 0 127 0" result="hardAlpha"/>
<feOffset dx="-3.9"/>
<feGaussianBlur stdDeviation="9.75"/>
<feColorMatrix type="matrix" values="0 0 0 0 0.717122 0 0 0 0 0.717122 0 0 0 0 0.717122 0 0 0 0.31 0"/>
<feBlend mode="normal" in2="BackgroundImageFix" result="effect1_dropShadow_382_2959"/>
<feBlend mode="normal" in="SourceGraphic" in2="effect1_dropShadow_382_2959" result="shape"/>
<feColorMatrix in="SourceAlpha" type="matrix" values="0 0 0 0 0 0 0 0 0 0 0 0 0 0 0 0 0 0 127 0" result="hardAlpha"/>
<feOffset dy="2.6"/>
<feGaussianBlur stdDeviation="2.6"/>
<feComposite in2="hardAlpha" operator="arithmetic" k2="-1" k3="1"/>
<feColorMatrix type="matrix" values="0 0 0 0 0.747882 0 0 0 0 0.749977 0 0 0 0 0.754167 0 0 0 1 0"/>
<feBlend mode="normal" in2="shape" result="effect2_innerShadow_382_2959"/>
<feColorMatrix in="SourceAlpha" type="matrix" values="0 0 0 0 0 0 0 0 0 0 0 0 0 0 0 0 0 0 127 0" result="hardAlpha"/>
<feOffset dy="-2.6"/>
<feGaussianBlur stdDeviation="2.6"/>
<feComposite in2="hardAlpha" operator="arithmetic" k2="-1" k3="1"/>
<feColorMatrix type="matrix" values="0 0 0 0 1 0 0 0 0 1 0 0 0 0 1 0 0 0 1 0"/>
<feBlend mode="normal" in2="effect2_innerShadow_382_2959" result="effect3_innerShadow_382_2959"/>
</filter>
<linearGradient id="paint0_linear_382_2959" x1="25.0654" y1="-4.52308" x2="25.2538" y2="24.6885" gradientUnits="userSpaceOnUse">
<stop offset="0.125"/>
<stop offset="1" stop-color="white" stop-opacity="0"/>
</linearGradient>
</defs>
</svg>
