<svg width="83" height="61" viewBox="0 0 83 61" fill="none" xmlns="http://www.w3.org/2000/svg">
<rect x="0.65" y="-0.65" width="70.3" height="27.8385" rx="13.9192" transform="matrix(-1 0 0 1 71.6 17.833)" fill="#4F4F4F" stroke="url(#paint0_linear_312_3585)" stroke-width="1.3"/>
<mask id="mask0_312_3585" style="mask-type:alpha" maskUnits="userSpaceOnUse" x="1" y="17" width="70" height="28">
<rect width="69" height="26.5385" rx="13.2692" transform="matrix(-1 0 0 1 70.3 17.833)" fill="black"/>
</mask>
<g mask="url(#mask0_312_3585)">
<g filter="url(#filter0_i_312_3585)">
<rect width="69" height="26.5385" rx="13.2692" transform="matrix(-1 0 0 1 70.3 17.833)" fill="#1F2533"/>
</g>
<path d="M11.3424 26.1406L11.5575 26.7217L12.1386 26.9368L11.5575 27.1518L11.3424 27.7329L11.1274 27.1518L10.5463 26.9368L11.1274 26.7217L11.3424 26.1406Z" fill="#DEE5F3"/>
<path d="M20.8963 30.3872L21.1113 30.9683L21.6924 31.1834L21.1113 31.3984L20.8963 31.9795L20.6812 31.3984L20.1001 31.1834L20.6812 30.9683L20.8963 30.3872Z" fill="#DEE5F3"/>
<path d="M13.4653 39.9404L13.6804 40.5215L14.2615 40.7366L13.6804 40.9516L13.4653 41.5327L13.2503 40.9516L12.6692 40.7366L13.2503 40.5215L13.4653 39.9404Z" fill="#DEE5F3"/>
<path d="M16.1193 31.979L16.1909 32.1727L16.3847 32.2444L16.1909 32.3161L16.1193 32.5098L16.0476 32.3161L15.8539 32.2444L16.0476 32.1727L16.1193 31.979Z" fill="#DEE5F3"/>
<path d="M11.8732 35.6948L11.9449 35.8885L12.1386 35.9602L11.9449 36.0319L11.8732 36.2256L11.8015 36.0319L11.6078 35.9602L11.8015 35.8885L11.8732 35.6948Z" fill="#DEE5F3"/>
<path d="M17.8442 41.0024L17.9518 41.293L18.2423 41.4005L17.9518 41.508L17.8442 41.7986L17.7367 41.508L17.4462 41.4005L17.7367 41.293L17.8442 41.0024Z" fill="#DEE5F3"/>
<g filter="url(#filter1_f_312_3585)">
<path d="M10.9443 30.3872L11.0519 30.6778L11.3424 30.7853L11.0519 30.8928L10.9443 31.1834L10.8368 30.8928L10.5463 30.7853L10.8368 30.6778L10.9443 30.3872Z" fill="#DEE5F3"/>
</g>
<path d="M8.68848 38.3486L8.76016 38.5423L8.95386 38.614L8.76016 38.6857L8.68848 38.8794L8.6168 38.6857L8.4231 38.614L8.6168 38.5423L8.68848 38.3486Z" fill="#DEE5F3"/>
<path d="M21.9578 37.2866L22.0294 37.4803L22.2232 37.552L22.0294 37.6237L21.9578 37.8174L21.8861 37.6237L21.6924 37.552L21.8861 37.4803L21.9578 37.2866Z" fill="#DEE5F3"/>
<path d="M17.1809 23.4868L17.2526 23.6805L17.4463 23.7522L17.2526 23.8239L17.1809 24.0176L17.1092 23.8239L16.9155 23.7522L17.1092 23.6805L17.1809 23.4868Z" fill="#DEE5F3"/>
<path d="M6.56543 31.979L6.63711 32.1727L6.83082 32.2444L6.63711 32.3161L6.56543 32.5098L6.49376 32.3161L6.30005 32.2444L6.49376 32.1727L6.56543 31.979Z" fill="#DEE5F3"/>
<path d="M25.1423 20.833L25.3574 21.4141L25.9385 21.6292L25.3574 21.8442L25.1423 22.4253L24.9273 21.8442L24.3462 21.6292L24.9273 21.4141L25.1423 20.833Z" fill="#DEE5F3"/>
<path d="M37.35 26.1406L37.565 26.7217L38.1461 26.9368L37.565 27.1518L37.35 27.7329L37.135 27.1518L36.5538 26.9368L37.135 26.7217L37.35 26.1406Z" fill="#DEE5F3"/>
<path d="M29.9192 38.3486L30.1342 38.9298L30.7154 39.1448L30.1342 39.3598L29.9192 39.9409L29.7042 39.3598L29.123 39.1448L29.7042 38.9298L29.9192 38.3486Z" fill="#DEE5F3"/>
<path d="M32.5731 27.7329L32.6448 27.9266L32.8385 27.9983L32.6448 28.07L32.5731 28.2637L32.5014 28.07L32.3077 27.9983L32.5014 27.9266L32.5731 27.7329Z" fill="#DEE5F3"/>
<path d="M30.45 33.5718L30.5216 33.7655L30.7153 33.8372L30.5216 33.9088L30.45 34.1025L30.3783 33.9088L30.1846 33.8372L30.3783 33.7655L30.45 33.5718Z" fill="#DEE5F3"/>
<path d="M33.2366 30.918L33.3441 31.2085L33.6347 31.316L33.3441 31.4236L33.2366 31.7141L33.1291 31.4236L32.8385 31.316L33.1291 31.2085L33.2366 30.918Z" fill="#DEE5F3"/>
<g filter="url(#filter2_f_312_3585)">
<path d="M27.3981 26.1406L27.5056 26.4312L27.7962 26.5387L27.5056 26.6462L27.3981 26.9368L27.2906 26.6462L27 26.5387L27.2906 26.4312L27.3981 26.1406Z" fill="#DEE5F3"/>
</g>
<g filter="url(#filter3_f_312_3585)">
<path d="M25.1423 33.5718L25.214 33.7655L25.4077 33.8372L25.214 33.9088L25.1423 34.1025L25.0707 33.9088L24.877 33.8372L25.0707 33.7655L25.1423 33.5718Z" fill="#DEE5F3"/>
</g>
<path d="M38.4115 33.041L38.4832 33.2347L38.6769 33.3064L38.4832 33.3781L38.4115 33.5718L38.3398 33.3781L38.1461 33.3064L38.3398 33.2347L38.4115 33.041Z" fill="#DEE5F3"/>
<path d="M35.7577 22.4253L35.8294 22.619L36.0231 22.6907L35.8294 22.7624L35.7577 22.9561L35.686 22.7624L35.4923 22.6907L35.686 22.619L35.7577 22.4253Z" fill="#DEE5F3"/>
<path d="M23.0193 27.7329L23.091 27.9266L23.2847 27.9983L23.091 28.07L23.0193 28.2637L22.9476 28.07L22.7539 27.9983L22.9476 27.9266L23.0193 27.7329Z" fill="#DEE5F3"/>
<rect opacity="0.8" x="-0.699951" y="15.833" width="74" height="31" fill="white"/>
</g>
<g filter="url(#filter4_dii_312_3585)">
<rect x="45.3" y="19.5" width="21.9034" height="21.9034" rx="10.9517" fill="#DEE5F3"/>
</g>
<path opacity="0.9" d="M56.5321 20.8164C60.9747 19.7541 65.4464 22.4591 66.5678 26.8872L66.614 27.0695C67.7503 31.5564 64.9868 36.1033 60.4807 37.1609C55.9603 38.2219 51.4125 35.3931 50.3516 30.8727C49.301 26.3966 52.0603 21.8856 56.5321 20.8164Z" fill="#1F2533" fill-opacity="0.79"/>
<defs>
<filter id="filter0_i_312_3585" x="1.30005" y="17.833" width="69" height="34.3386" filterUnits="userSpaceOnUse" color-interpolation-filters="sRGB">
<feFlood flood-opacity="0" result="BackgroundImageFix"/>
<feBlend mode="normal" in="SourceGraphic" in2="BackgroundImageFix" result="shape"/>
<feColorMatrix in="SourceAlpha" type="matrix" values="0 0 0 0 0 0 0 0 0 0 0 0 0 0 0 0 0 0 127 0" result="hardAlpha"/>
<feOffset dy="7.8"/>
<feGaussianBlur stdDeviation="5.85"/>
<feComposite in2="hardAlpha" operator="arithmetic" k2="-1" k3="1"/>
<feColorMatrix type="matrix" values="0 0 0 0 0.0903125 0 0 0 0 0.105719 0 0 0 0 0.141667 0 0 0 1 0"/>
<feBlend mode="normal" in2="shape" result="effect1_innerShadow_312_3585"/>
</filter>
<filter id="filter1_f_312_3585" x="10.2863" y="30.1272" width="1.31614" height="1.31639" filterUnits="userSpaceOnUse" color-interpolation-filters="sRGB">
<feFlood flood-opacity="0" result="BackgroundImageFix"/>
<feBlend mode="normal" in="SourceGraphic" in2="BackgroundImageFix" result="shape"/>
<feGaussianBlur stdDeviation="0.13" result="effect1_foregroundBlur_312_3585"/>
</filter>
<filter id="filter2_f_312_3585" x="26.74" y="25.8806" width="1.31614" height="1.31639" filterUnits="userSpaceOnUse" color-interpolation-filters="sRGB">
<feFlood flood-opacity="0" result="BackgroundImageFix"/>
<feBlend mode="normal" in="SourceGraphic" in2="BackgroundImageFix" result="shape"/>
<feGaussianBlur stdDeviation="0.13" result="effect1_foregroundBlur_312_3585"/>
</filter>
<filter id="filter3_f_312_3585" x="24.617" y="33.3118" width="1.05076" height="1.05076" filterUnits="userSpaceOnUse" color-interpolation-filters="sRGB">
<feFlood flood-opacity="0" result="BackgroundImageFix"/>
<feBlend mode="normal" in="SourceGraphic" in2="BackgroundImageFix" result="shape"/>
<feGaussianBlur stdDeviation="0.13" result="effect1_foregroundBlur_312_3585"/>
</filter>
<filter id="filter4_dii_312_3585" x="21.9" y="-1.90735e-06" width="60.9033" height="60.9033" filterUnits="userSpaceOnUse" color-interpolation-filters="sRGB">
<feFlood flood-opacity="0" result="BackgroundImageFix"/>
<feColorMatrix in="SourceAlpha" type="matrix" values="0 0 0 0 0 0 0 0 0 0 0 0 0 0 0 0 0 0 127 0" result="hardAlpha"/>
<feOffset dx="-3.9"/>
<feGaussianBlur stdDeviation="9.75"/>
<feColorMatrix type="matrix" values="0 0 0 0 0.717122 0 0 0 0 0.717122 0 0 0 0 0.717122 0 0 0 0.31 0"/>
<feBlend mode="normal" in2="BackgroundImageFix" result="effect1_dropShadow_312_3585"/>
<feBlend mode="normal" in="SourceGraphic" in2="effect1_dropShadow_312_3585" result="shape"/>
<feColorMatrix in="SourceAlpha" type="matrix" values="0 0 0 0 0 0 0 0 0 0 0 0 0 0 0 0 0 0 127 0" result="hardAlpha"/>
<feOffset dy="2.6"/>
<feGaussianBlur stdDeviation="2.6"/>
<feComposite in2="hardAlpha" operator="arithmetic" k2="-1" k3="1"/>
<feColorMatrix type="matrix" values="0 0 0 0 0.747882 0 0 0 0 0.749977 0 0 0 0 0.754167 0 0 0 1 0"/>
<feBlend mode="normal" in2="shape" result="effect2_innerShadow_312_3585"/>
<feColorMatrix in="SourceAlpha" type="matrix" values="0 0 0 0 0 0 0 0 0 0 0 0 0 0 0 0 0 0 127 0" result="hardAlpha"/>
<feOffset dy="-2.6"/>
<feGaussianBlur stdDeviation="2.6"/>
<feComposite in2="hardAlpha" operator="arithmetic" k2="-1" k3="1"/>
<feColorMatrix type="matrix" values="0 0 0 0 1 0 0 0 0 1 0 0 0 0 1 0 0 0 1 0"/>
<feBlend mode="normal" in2="effect2_innerShadow_312_3585" result="effect3_innerShadow_312_3585"/>
</filter>
<linearGradient id="paint0_linear_312_3585" x1="35.2962" y1="-6.36923" x2="35.5615" y2="34.7654" gradientUnits="userSpaceOnUse">
<stop offset="0.125"/>
<stop offset="1" stop-color="white" stop-opacity="0"/>
</linearGradient>
</defs>
</svg>
