<svg width="92" height="61" viewBox="0 0 92 61" fill="none" xmlns="http://www.w3.org/2000/svg">
<rect x="0.65" y="-0.65" width="70.3" height="27.8385" rx="13.9192" transform="matrix(-1 0 0 1 91.2912 17.1714)" fill="#4F4F4F" stroke="url(#paint0_linear_312_3517)" stroke-width="1.3"/>
<mask id="mask0_312_3517" style="mask-type:alpha" maskUnits="userSpaceOnUse" x="20" y="17" width="70" height="27">
<rect width="69" height="26.5385" rx="13.2692" transform="matrix(-1 0 0 1 89.9912 17.1714)" fill="black"/>
</mask>
<g mask="url(#mask0_312_3517)">
<g filter="url(#filter0_i_312_3517)">
<rect width="69" height="26.5385" rx="13.2692" transform="matrix(-1 0 0 1 89.9912 17.1714)" fill="#1F2533"/>
</g>
<path d="M83.8873 25.1328L83.6723 25.7139L83.0912 25.929L83.6723 26.144L83.8873 26.7251L84.1024 26.144L84.6835 25.929L84.1024 25.7139L83.8873 25.1328Z" fill="#DEE5F3"/>
<path d="M74.3335 29.3794L74.1185 29.9605L73.5373 30.1755L74.1185 30.3906L74.3335 30.9717L74.5485 30.3906L75.1296 30.1755L74.5485 29.9605L74.3335 29.3794Z" fill="#DEE5F3"/>
<path d="M81.7644 38.9326L81.5494 39.5137L80.9682 39.7288L81.5494 39.9438L81.7644 40.5249L81.9794 39.9438L82.5605 39.7288L81.9794 39.5137L81.7644 38.9326Z" fill="#DEE5F3"/>
<path d="M79.1105 30.9712L79.0388 31.1649L78.8451 31.2366L79.0388 31.3083L79.1105 31.502L79.1821 31.3083L79.3759 31.2366L79.1821 31.1649L79.1105 30.9712Z" fill="#DEE5F3"/>
<path d="M83.3566 34.687L83.2849 34.8807L83.0912 34.9524L83.2849 35.0241L83.3566 35.2178L83.4282 35.0241L83.6219 34.9524L83.4282 34.8807L83.3566 34.687Z" fill="#DEE5F3"/>
<path d="M77.3855 39.9946L77.278 40.2852L76.9874 40.3927L77.278 40.5002L77.3855 40.7908L77.493 40.5002L77.7836 40.3927L77.493 40.2852L77.3855 39.9946Z" fill="#DEE5F3"/>
<g filter="url(#filter1_f_312_3517)">
<path d="M84.2854 29.3794L84.1779 29.67L83.8873 29.7775L84.1779 29.885L84.2854 30.1755L84.3929 29.885L84.6835 29.7775L84.3929 29.67L84.2854 29.3794Z" fill="#DEE5F3"/>
</g>
<path d="M86.5413 37.3408L86.4696 37.5345L86.2759 37.6062L86.4696 37.6779L86.5413 37.8716L86.6129 37.6779L86.8066 37.6062L86.6129 37.5345L86.5413 37.3408Z" fill="#DEE5F3"/>
<path d="M73.272 36.2788L73.2003 36.4725L73.0066 36.5442L73.2003 36.6159L73.272 36.8096L73.3436 36.6159L73.5374 36.5442L73.3436 36.4725L73.272 36.2788Z" fill="#DEE5F3"/>
<path d="M78.0488 22.479L77.9771 22.6727L77.7834 22.7444L77.9771 22.8161L78.0488 23.0098L78.1205 22.8161L78.3142 22.7444L78.1205 22.6727L78.0488 22.479Z" fill="#DEE5F3"/>
<path d="M88.6643 30.9712L88.5926 31.1649L88.3989 31.2366L88.5926 31.3083L88.6643 31.502L88.736 31.3083L88.9297 31.2366L88.736 31.1649L88.6643 30.9712Z" fill="#DEE5F3"/>
<path d="M70.0874 19.8252L69.8724 20.4063L69.2912 20.6213L69.8724 20.8364L70.0874 21.4175L70.3024 20.8364L70.8835 20.6213L70.3024 20.4063L70.0874 19.8252Z" fill="#DEE5F3"/>
<path d="M57.8797 25.1328L57.6647 25.7139L57.0836 25.929L57.6647 26.144L57.8797 26.7251L58.0948 26.144L58.6759 25.929L58.0948 25.7139L57.8797 25.1328Z" fill="#DEE5F3"/>
<path d="M65.3105 37.3408L65.0955 37.9219L64.5144 38.137L65.0955 38.352L65.3105 38.9331L65.5256 38.352L66.1067 38.137L65.5256 37.9219L65.3105 37.3408Z" fill="#DEE5F3"/>
<path d="M62.6566 26.7251L62.5849 26.9188L62.3912 26.9905L62.5849 27.0622L62.6566 27.2559L62.7283 27.0622L62.922 26.9905L62.7283 26.9188L62.6566 26.7251Z" fill="#DEE5F3"/>
<path d="M64.7798 32.564L64.7081 32.7577L64.5144 32.8293L64.7081 32.901L64.7798 33.0947L64.8515 32.901L65.0452 32.8293L64.8515 32.7577L64.7798 32.564Z" fill="#DEE5F3"/>
<path d="M61.9932 29.9102L61.8856 30.2007L61.5951 30.3082L61.8856 30.4158L61.9932 30.7063L62.1007 30.4158L62.3912 30.3082L62.1007 30.2007L61.9932 29.9102Z" fill="#DEE5F3"/>
<g filter="url(#filter2_f_312_3517)">
<path d="M67.8317 25.1328L67.7241 25.4234L67.4336 25.5309L67.7241 25.6384L67.8317 25.929L67.9392 25.6384L68.2297 25.5309L67.9392 25.4234L67.8317 25.1328Z" fill="#DEE5F3"/>
</g>
<g filter="url(#filter3_f_312_3517)">
<path d="M70.0874 32.564L70.0157 32.7577L69.822 32.8293L70.0157 32.901L70.0874 33.0947L70.1591 32.901L70.3528 32.8293L70.1591 32.7577L70.0874 32.564Z" fill="#DEE5F3"/>
</g>
<path d="M56.8182 32.0332L56.7466 32.2269L56.5528 32.2986L56.7466 32.3703L56.8182 32.564L56.8899 32.3703L57.0836 32.2986L56.8899 32.2269L56.8182 32.0332Z" fill="#DEE5F3"/>
<path d="M59.472 21.4175L59.4004 21.6112L59.2067 21.6829L59.4004 21.7545L59.472 21.9482L59.5437 21.7545L59.7374 21.6829L59.5437 21.6112L59.472 21.4175Z" fill="#DEE5F3"/>
<path d="M72.2104 26.7251L72.1388 26.9188L71.9451 26.9905L72.1388 27.0622L72.2104 27.2559L72.2821 27.0622L72.4758 26.9905L72.2821 26.9188L72.2104 26.7251Z" fill="#DEE5F3"/>
</g>
<g filter="url(#filter4_dii_312_3517)">
<rect x="23.4" y="19.5" width="21.9034" height="21.9034" rx="10.9517" fill="#DEE5F3"/>
</g>
<path opacity="0.9" d="M34.632 20.8164C39.0747 19.7541 43.5463 22.4591 44.6678 26.8872L44.7139 27.0695C45.8503 31.5564 43.0868 36.1033 38.5807 37.1609C34.0602 38.2219 29.5125 35.3931 28.4515 30.8727C27.401 26.3966 30.1603 21.8856 34.632 20.8164Z" fill="#1F2533" fill-opacity="0.79"/>
<defs>
<filter id="filter0_i_312_3517" x="20.9912" y="17.1714" width="69" height="34.3386" filterUnits="userSpaceOnUse" color-interpolation-filters="sRGB">
<feFlood flood-opacity="0" result="BackgroundImageFix"/>
<feBlend mode="normal" in="SourceGraphic" in2="BackgroundImageFix" result="shape"/>
<feColorMatrix in="SourceAlpha" type="matrix" values="0 0 0 0 0 0 0 0 0 0 0 0 0 0 0 0 0 0 127 0" result="hardAlpha"/>
<feOffset dy="7.8"/>
<feGaussianBlur stdDeviation="5.85"/>
<feComposite in2="hardAlpha" operator="arithmetic" k2="-1" k3="1"/>
<feColorMatrix type="matrix" values="0 0 0 0 0.0903125 0 0 0 0 0.105719 0 0 0 0 0.141667 0 0 0 1 0"/>
<feBlend mode="normal" in2="shape" result="effect1_innerShadow_312_3517"/>
</filter>
<filter id="filter1_f_312_3517" x="83.6273" y="29.1194" width="1.31614" height="1.31639" filterUnits="userSpaceOnUse" color-interpolation-filters="sRGB">
<feFlood flood-opacity="0" result="BackgroundImageFix"/>
<feBlend mode="normal" in="SourceGraphic" in2="BackgroundImageFix" result="shape"/>
<feGaussianBlur stdDeviation="0.13" result="effect1_foregroundBlur_312_3517"/>
</filter>
<filter id="filter2_f_312_3517" x="67.1736" y="24.8728" width="1.31614" height="1.31639" filterUnits="userSpaceOnUse" color-interpolation-filters="sRGB">
<feFlood flood-opacity="0" result="BackgroundImageFix"/>
<feBlend mode="normal" in="SourceGraphic" in2="BackgroundImageFix" result="shape"/>
<feGaussianBlur stdDeviation="0.13" result="effect1_foregroundBlur_312_3517"/>
</filter>
<filter id="filter3_f_312_3517" x="69.562" y="32.304" width="1.05076" height="1.05076" filterUnits="userSpaceOnUse" color-interpolation-filters="sRGB">
<feFlood flood-opacity="0" result="BackgroundImageFix"/>
<feBlend mode="normal" in="SourceGraphic" in2="BackgroundImageFix" result="shape"/>
<feGaussianBlur stdDeviation="0.13" result="effect1_foregroundBlur_312_3517"/>
</filter>
<filter id="filter4_dii_312_3517" x="2.24113e-05" y="-1.90735e-06" width="60.9033" height="60.9033" filterUnits="userSpaceOnUse" color-interpolation-filters="sRGB">
<feFlood flood-opacity="0" result="BackgroundImageFix"/>
<feColorMatrix in="SourceAlpha" type="matrix" values="0 0 0 0 0 0 0 0 0 0 0 0 0 0 0 0 0 0 127 0" result="hardAlpha"/>
<feOffset dx="-3.9"/>
<feGaussianBlur stdDeviation="9.75"/>
<feColorMatrix type="matrix" values="0 0 0 0 0.717122 0 0 0 0 0.717122 0 0 0 0 0.717122 0 0 0 0.31 0"/>
<feBlend mode="normal" in2="BackgroundImageFix" result="effect1_dropShadow_312_3517"/>
<feBlend mode="normal" in="SourceGraphic" in2="effect1_dropShadow_312_3517" result="shape"/>
<feColorMatrix in="SourceAlpha" type="matrix" values="0 0 0 0 0 0 0 0 0 0 0 0 0 0 0 0 0 0 127 0" result="hardAlpha"/>
<feOffset dy="2.6"/>
<feGaussianBlur stdDeviation="2.6"/>
<feComposite in2="hardAlpha" operator="arithmetic" k2="-1" k3="1"/>
<feColorMatrix type="matrix" values="0 0 0 0 0.747882 0 0 0 0 0.749977 0 0 0 0 0.754167 0 0 0 1 0"/>
<feBlend mode="normal" in2="shape" result="effect2_innerShadow_312_3517"/>
<feColorMatrix in="SourceAlpha" type="matrix" values="0 0 0 0 0 0 0 0 0 0 0 0 0 0 0 0 0 0 127 0" result="hardAlpha"/>
<feOffset dy="-2.6"/>
<feGaussianBlur stdDeviation="2.6"/>
<feComposite in2="hardAlpha" operator="arithmetic" k2="-1" k3="1"/>
<feColorMatrix type="matrix" values="0 0 0 0 1 0 0 0 0 1 0 0 0 0 1 0 0 0 1 0"/>
<feBlend mode="normal" in2="effect2_innerShadow_312_3517" result="effect3_innerShadow_312_3517"/>
</filter>
<linearGradient id="paint0_linear_312_3517" x1="35.2962" y1="-6.36923" x2="35.5615" y2="34.7654" gradientUnits="userSpaceOnUse">
<stop offset="0.125"/>
<stop offset="1" stop-color="white" stop-opacity="0"/>
</linearGradient>
</defs>
</svg>
