<svg width="16" height="15" viewBox="0 0 16 15" fill="none" xmlns="http://www.w3.org/2000/svg">
<path d="M6.14186 2.95125C6.79736 1.31708 7.12511 0.5 7.68872 0.5C8.25232 0.5 8.58007 1.31708 9.23558 2.95125L9.2661 3.02735C9.63643 3.95057 9.82159 4.41218 10.199 4.69275C10.5763 4.97333 11.0717 5.01769 12.0625 5.10642L12.2416 5.12246C13.8631 5.26768 14.6739 5.34029 14.8474 5.85611C15.0208 6.37193 14.4187 6.91972 13.2145 8.01529L12.8126 8.38094C12.203 8.93554 11.8982 9.21283 11.7562 9.57628C11.7297 9.64407 11.7077 9.71353 11.6902 9.78421C11.5969 10.1631 11.6861 10.5654 11.8646 11.3699L11.9202 11.6204C12.2482 13.099 12.4123 13.8383 12.1259 14.1572C12.0189 14.2763 11.8798 14.3621 11.7252 14.4043C11.3117 14.5171 10.7247 14.0387 9.55055 13.082C8.77958 12.4538 8.39409 12.1396 7.9515 12.069C7.77742 12.0412 7.60002 12.0412 7.42593 12.069C6.98334 12.1396 6.59786 12.4538 5.82688 13.082C4.65275 14.0387 4.06569 14.5171 3.65219 14.4043C3.49767 14.3621 3.35858 14.2763 3.25156 14.1572C2.96516 13.8383 3.12919 13.099 3.45725 11.6204L3.51282 11.3699C3.69133 10.5654 3.78058 10.1631 3.6872 9.78421C3.66978 9.71353 3.64775 9.64407 3.62125 9.57628C3.47919 9.21283 3.1744 8.93554 2.56481 8.38094L2.16291 8.01529C0.958703 6.91972 0.356601 6.37193 0.530083 5.85611C0.703565 5.34029 1.51432 5.26768 3.13583 5.12246L3.31495 5.10642C4.30571 5.01769 4.80109 4.97333 5.17847 4.69275C5.55584 4.41218 5.74101 3.95057 6.11133 3.02734L6.14186 2.95125Z" fill="#FFB700" stroke="#222222"/>
</svg>
