<svg width="313" height="35" viewBox="0 0 313 35" fill="none" xmlns="http://www.w3.org/2000/svg">
<rect width="313" height="35" rx="10" fill="#72729D" fill-opacity="0.2"/>
<path d="M139.969 11.904H141.185V25.408H139.969V11.904ZM134.609 17.952C134.47 18.2827 134.278 18.624 134.033 18.976C133.798 19.328 133.526 19.6747 133.217 20.016C132.918 20.3573 132.598 20.6827 132.257 20.992C131.915 21.2907 131.579 21.5573 131.249 21.792L130.481 20.912C131.003 20.5173 131.478 20.1067 131.905 19.68C132.342 19.2427 132.71 18.8 133.009 18.352C133.318 17.904 133.553 17.4613 133.713 17.024C133.883 16.5867 133.969 16.1707 133.969 15.776V12.56H135.249V15.824C135.249 16.208 135.334 16.6187 135.505 17.056C135.686 17.4827 135.926 17.9147 136.225 18.352C136.534 18.7893 136.891 19.216 137.297 19.632C137.702 20.048 138.139 20.4267 138.609 20.768L137.905 21.664C137.211 21.1307 136.566 20.5493 135.969 19.92C135.371 19.28 134.918 18.624 134.609 17.952ZM147.352 16.352C147.224 16.6613 147.048 16.9653 146.824 17.264C146.6 17.552 146.344 17.824 146.056 18.08C145.768 18.336 145.459 18.5707 145.128 18.784C144.808 18.9867 144.488 19.168 144.168 19.328L143.528 18.416C144.563 17.872 145.352 17.2427 145.896 16.528C146.44 15.8133 146.712 15.0507 146.712 14.24V13.552H144.04V12.56H150.712V13.552H147.992V14.24C147.992 14.944 148.243 15.648 148.744 16.352C149.246 17.0453 150.056 17.68 151.176 18.256L150.536 19.168C150.238 19.0293 149.934 18.8587 149.624 18.656C149.315 18.4533 149.016 18.2347 148.728 18C148.44 17.7547 148.179 17.4933 147.944 17.216C147.71 16.9387 147.512 16.6507 147.352 16.352ZM153.736 25.568H152.52V21.504H145.544V20.496H153.736V25.568ZM153.736 15.104H155.8V16.16H153.736V19.536H152.504V11.904H153.736V15.104ZM156.752 14.512H164.176V15.504H156.752V14.512ZM158.448 13.28V12.208H162.64V13.28H158.448ZM165.52 11.904H166.736V17.856H168.816V18.912H166.736V25.408H165.52V11.904ZM160.512 22.688C159.52 22.688 158.757 22.4373 158.224 21.936C157.691 21.424 157.424 20.64 157.424 19.584C157.424 18.528 157.691 17.7493 158.224 17.248C158.757 16.736 159.52 16.48 160.512 16.48C161.504 16.48 162.267 16.736 162.8 17.248C163.333 17.7493 163.6 18.528 163.6 19.584C163.6 20.64 163.333 21.424 162.8 21.936C162.267 22.4373 161.504 22.688 160.512 22.688ZM160.512 21.696C161.12 21.696 161.6 21.5253 161.952 21.184C162.304 20.8427 162.48 20.3093 162.48 19.584C162.48 18.8587 162.304 18.3253 161.952 17.984C161.6 17.6427 161.12 17.472 160.512 17.472C159.904 17.472 159.424 17.6427 159.072 17.984C158.72 18.3253 158.544 18.8587 158.544 19.584C158.544 20.3093 158.72 20.8427 159.072 21.184C159.424 21.5253 159.904 21.696 160.512 21.696ZM179.016 11.904H180.232V25.408H179.016V11.904ZM176.568 12.816V15.936C176.568 16.6613 176.477 17.2907 176.296 17.824C176.125 18.3467 175.832 18.832 175.416 19.28C175 19.728 174.45 20.1653 173.768 20.592C173.085 21.0187 172.237 21.4933 171.224 22.016L170.696 21.072C171.602 20.5813 172.349 20.144 172.936 19.76C173.533 19.3653 174.008 18.992 174.36 18.64C174.712 18.2773 174.957 17.904 175.096 17.52C175.245 17.136 175.32 16.6987 175.32 16.208V13.824H170.712V12.816H176.568Z" fill="white"/>
</svg>
