<svg width="31" height="30" viewBox="0 0 31 30" fill="none" xmlns="http://www.w3.org/2000/svg">
<path d="M15.4995 4.93457C18.006 4.93457 20.1167 7.11132 20.1167 9.89551C20.1165 12.6795 18.0059 14.8555 15.4995 14.8555C12.9933 14.8552 10.8835 12.6793 10.8833 9.89551C10.8833 7.11149 12.9932 4.93483 15.4995 4.93457Z" stroke="white" stroke-width="1.5" stroke-linecap="round"/>
<path d="M6.32414 19.158C7.16518 16.788 9.60022 15.6055 12.115 15.6055H18.885C21.3998 15.6055 23.8348 16.788 24.6759 19.158C25.0784 20.2924 25.419 21.653 25.5269 23.1715C25.566 23.7224 25.1148 24.1713 24.5625 24.1713H6.4375C5.88521 24.1713 5.43397 23.7224 5.4731 23.1715C5.58097 21.653 5.92155 20.2924 6.32414 19.158Z" stroke="white" stroke-width="1.5" stroke-linecap="round"/>
</svg>
