<svg width="31" height="30" viewBox="0 0 31 30" fill="none" xmlns="http://www.w3.org/2000/svg">
<path d="M15.5 7.75C20.3712 7.75 24.25 11.4813 24.25 16C24.25 20.5187 20.3712 24.25 15.5 24.25C10.6288 24.25 6.75 20.5187 6.75 16C6.75 11.4813 10.6288 7.75 15.5 7.75Z" stroke="white" stroke-width="1.5" stroke-linecap="round"/>
<path d="M18.8633 3.20996C18.7188 3.93251 18.4554 4.63051 18.043 5.04297C17.6305 5.45543 16.9325 5.71877 16.21 5.86328C16.1799 5.8693 16.1497 5.8734 16.1201 5.87891C16.1256 5.84958 16.1308 5.81988 16.1367 5.79004C16.2812 5.06749 16.5446 4.36949 16.957 3.95703C17.3695 3.54457 18.0675 3.28123 18.79 3.13672C18.8199 3.13075 18.8496 3.12558 18.8789 3.12012C18.8734 3.14969 18.8693 3.17986 18.8633 3.20996Z" stroke="white" stroke-width="2" stroke-linecap="round"/>
<circle cx="12" cy="17" r="1" fill="white"/>
<circle cx="19" cy="17" r="1" fill="white"/>
<path d="M13 19C13 19 14.4611 20 15.5 20C16.5389 20 18 19 18 19" stroke="white" stroke-linecap="round"/>
</svg>
