<svg width="31" height="30" viewBox="0 0 31 30" fill="none" xmlns="http://www.w3.org/2000/svg">
<path d="M23.75 12.833C23.75 18.7637 17.1787 22.7389 15.4256 23.6939C15.1568 23.8403 14.8432 23.8403 14.5744 23.6939C12.8213 22.7389 6.25 18.7637 6.25 12.833C6.25 7.58301 10.4897 4.08301 15 4.08301C19.6667 4.08301 23.75 7.58301 23.75 12.833Z" stroke="white" stroke-width="1.5"/>
<path d="M10.667 13.7504L14.7428 17.8262C14.864 17.9474 14.9246 18.008 15 18.008C15.0753 18.008 15.1359 17.9474 15.2571 17.8262L19.3329 13.7504C20.2053 12.878 20.3407 11.5111 19.6563 10.4845C18.589 8.88361 16.2101 8.96554 15.2555 10.6361L15.0909 10.9242C15.0507 10.9945 14.9492 10.9945 14.909 10.9242L14.7444 10.6361C13.7898 8.96554 11.4109 8.8836 10.3436 10.4845C9.65925 11.5111 9.7946 12.878 10.667 13.7504Z" stroke="white" stroke-width="1.5"/>
</svg>
