<svg width="31" height="30" viewBox="0 0 31 30" fill="none" xmlns="http://www.w3.org/2000/svg">
<path d="M7.5 24.5V14.0067C7.5 13.6882 7.65176 13.3887 7.90864 13.2003L14.3878 8.44896C14.7497 8.18356 15.2441 8.19178 15.597 8.46905L21.6178 13.1997C21.8591 13.3893 22 13.6792 22 13.986V23.5C22 24.0523 21.5523 24.5 21 24.5H13.5C12.9477 24.5 12.5 24.0523 12.5 23.5V17.5C12.5 16.9477 12.9477 16.5 13.5 16.5H17C17.5523 16.5 18 16.9477 18 17.5V21" stroke="white" stroke-width="1.5" stroke-linecap="round"/>
<path d="M4.58949 6.33699L6.93122 9.16531C7.0751 9.33908 7.34157 9.33908 7.48544 9.16531L9.82717 6.33699C10.1802 5.91057 10.2251 5.30757 9.93909 4.83358C9.37318 3.89579 7.9421 4.19554 7.80009 5.2816L7.46415 7.8509C7.42501 8.15029 6.99166 8.1503 6.95251 7.8509L6.61657 5.2816C6.47457 4.19554 5.04349 3.89579 4.47758 4.83358C4.19156 5.30757 4.23644 5.91057 4.58949 6.33699Z" fill="white" stroke="white" stroke-width="2"/>
</svg>
