<svg width="51" height="51" viewBox="0 0 51 51" fill="none" xmlns="http://www.w3.org/2000/svg">
<path d="M32.1172 11.6768C32.6653 11.7357 33.0895 11.9867 33.3975 12.2217C33.7146 12.4637 34.0463 12.8002 34.3496 13.1035L37.8965 16.6504C38.1998 16.9537 38.5363 17.2854 38.7783 17.6025C39.0468 17.9544 39.3359 18.4581 39.3359 19.125C39.3359 19.7919 39.0468 20.2956 38.7783 20.6475C38.5363 20.9646 38.1998 21.2963 37.8965 21.5996L20.5771 38.9189C20.4388 39.0573 20.1819 39.332 19.8457 39.5225C19.5093 39.7129 19.141 39.7924 18.9512 39.8398L11.7969 41.6279C11.6652 41.6608 11.401 41.7314 11.1611 41.7549C10.9025 41.7802 10.2596 41.7967 9.73145 41.2686C9.20331 40.7404 9.21981 40.0975 9.24512 39.8389C9.26862 39.599 9.33915 39.3348 9.37207 39.2031L11.1602 32.0488C11.2076 31.859 11.2871 31.4907 11.4775 31.1543L11.5527 31.0322C11.7348 30.7559 11.96 30.5439 12.0811 30.4229L12.0967 30.4062L12.1133 30.3906L29.4004 13.1035C29.7037 12.8002 30.0354 12.4637 30.3525 12.2217C30.7044 11.9532 31.2081 11.6641 31.875 11.6641L32.1172 11.6768Z" stroke="white" stroke-width="3"/>
<path d="M26.5625 15.9375L32.9375 11.6875L39.3125 18.0625L35.0625 24.4375L26.5625 15.9375Z" fill="white"/>
</svg>
