<svg width="32" height="36" viewBox="0 0 32 36" fill="none" xmlns="http://www.w3.org/2000/svg">
<path d="M15.9996 6.75C18.4503 6.75 20.5836 9.01502 20.5836 12C20.5836 14.985 18.4503 17.25 15.9996 17.25C13.5491 17.2498 11.4166 14.9848 11.4166 12C11.4166 9.01515 13.5491 6.7502 15.9996 6.75Z" stroke="#222222" stroke-width="1.5" stroke-linecap="round"/>
<path d="M6.88849 21.7107C7.71571 19.2568 10.2047 18 12.7943 18H19.2057C21.7953 18 24.2843 19.2568 25.1115 21.7107C25.519 22.9197 25.864 24.3746 25.9679 26.0004C26.0032 26.5515 25.5523 27 25 27H7C6.44772 27 5.9968 26.5515 6.03205 26.0004C6.13603 24.3746 6.48095 22.9197 6.88849 21.7107Z" stroke="#222222" stroke-width="1.5" stroke-linecap="round"/>
</svg>
