<svg width="20" height="24" viewBox="0 0 20 24" fill="none" xmlns="http://www.w3.org/2000/svg">
<path d="M4.20972 22.5V12.0067C4.20972 11.6882 4.36148 11.3887 4.61835 11.2003L11.0975 6.44896C11.4594 6.18356 11.9538 6.19178 12.3067 6.46905L18.3275 11.1997C18.5688 11.3893 18.7097 11.6792 18.7097 11.986V21.5C18.7097 22.0523 18.262 22.5 17.7097 22.5H10.2097C9.65743 22.5 9.20972 22.0523 9.20972 21.5V15.5C9.20972 14.9477 9.65743 14.5 10.2097 14.5H13.7097C14.262 14.5 14.7097 14.9477 14.7097 15.5V19" stroke="black" stroke-width="1.5" stroke-linecap="round"/>
<path d="M1.29921 4.33699L3.64094 7.16531C3.78482 7.33908 4.05128 7.33908 4.19516 7.16531L6.53689 4.33699C6.88994 3.91057 6.93483 3.30757 6.6488 2.83358C6.0829 1.89579 4.65181 2.19554 4.50981 3.2816L4.17387 5.8509C4.13472 6.15029 3.70138 6.1503 3.66223 5.8509L3.32629 3.2816C3.18429 2.19554 1.7532 1.89579 1.1873 2.83358C0.901272 3.30757 0.94616 3.91057 1.29921 4.33699Z" fill="#222222" stroke="#222222" stroke-width="2"/>
</svg>
