<svg width="28" height="28" viewBox="0 0 28 28" fill="none" xmlns="http://www.w3.org/2000/svg">
<path d="M22.75 12.8333C22.75 18.764 16.1787 22.7391 14.4256 23.6941C14.1568 23.8405 13.8432 23.8405 13.5744 23.6941C11.8213 22.7391 5.25 18.764 5.25 12.8333C5.25 7.58325 9.48967 4.08325 14 4.08325C18.6667 4.08325 22.75 7.58325 22.75 12.8333Z" stroke="#222222" stroke-width="1.5"/>
<path d="M9.667 13.7504L13.7428 17.8262C13.864 17.9474 13.9246 18.008 14 18.008C14.0753 18.008 14.1359 17.9474 14.2571 17.8262L18.3329 13.7504C19.2053 12.878 19.3407 11.5111 18.6563 10.4845C17.589 8.88361 15.2101 8.96554 14.2555 10.6361L14.0909 10.9242C14.0507 10.9945 13.9492 10.9945 13.909 10.9242L13.7444 10.6361C12.7898 8.96554 10.4109 8.8836 9.34362 10.4845C8.65925 11.5111 8.7946 12.878 9.667 13.7504Z" stroke="#222222" stroke-width="1.5"/>
</svg>
