<svg width="204" height="102" viewBox="0 0 204 102" fill="none" xmlns="http://www.w3.org/2000/svg">
<rect opacity="0.5" x="8.5" y="85" width="64" height="12" fill="#F7FF5E"/>
<rect opacity="0.5" x="8.5" y="67" width="64" height="12" fill="#F7FF5E"/>
<path d="M1.5 6V99.5" stroke="#FF4646" stroke-width="3"/>
<path d="M13.975 70.635H16.285V66.885H17.035V78.84H16.285V71.325H13.975V70.635ZM19.225 79.26H18.475V66.72H19.225V79.26ZM12.1 72.06C11.91 72.71 11.6 73.355 11.17 73.995C10.75 74.635 10.18 75.255 9.46 75.855L9.025 75.315C9.855 74.615 10.51 73.825 10.99 72.945C11.47 72.065 11.71 71.085 11.71 70.005V67.395H12.49V70.005C12.49 70.565 12.555 71.08 12.685 71.55C12.825 72.02 13.015 72.46 13.255 72.87C13.495 73.28 13.775 73.66 14.095 74.01C14.415 74.36 14.76 74.69 15.13 75L14.665 75.555C14.385 75.335 14.11 75.09 13.84 74.82C13.58 74.54 13.335 74.25 13.105 73.95C12.885 73.64 12.685 73.325 12.505 73.005C12.335 72.685 12.2 72.37 12.1 72.06ZM30.1696 66.72H30.9496V73.65H30.1696V66.72ZM25.0246 70.035C24.9546 70.265 24.8196 70.53 24.6196 70.83C24.4196 71.13 24.1746 71.435 23.8846 71.745C23.5946 72.045 23.2746 72.335 22.9246 72.615C22.5746 72.895 22.2146 73.13 21.8446 73.32L21.4696 72.81C21.8996 72.54 22.3046 72.25 22.6846 71.94C23.0746 71.62 23.4146 71.28 23.7046 70.92C23.9946 70.55 24.2196 70.16 24.3796 69.75C24.5496 69.34 24.6346 68.91 24.6346 68.46V67.065H25.4146V68.46C25.4146 68.9 25.4896 69.31 25.6396 69.69C25.7996 70.07 26.0146 70.43 26.2846 70.77C26.5546 71.1 26.8746 71.41 27.2446 71.7C27.6146 71.99 28.0096 72.265 28.4296 72.525L28.0546 73.035C27.7046 72.855 27.3646 72.645 27.0346 72.405C26.7046 72.155 26.3996 71.895 26.1196 71.625C25.8496 71.345 25.6146 71.07 25.4146 70.8C25.2246 70.52 25.0946 70.265 25.0246 70.035ZM30.9496 79.26H24.2896C24.0596 79.26 23.8996 79.2 23.8096 79.08C23.7196 78.97 23.6746 78.8 23.6746 78.57V74.61H30.9496V79.26ZM30.1846 78.615V75.24H24.4396V78.405C24.4396 78.505 24.4496 78.565 24.4696 78.585C24.4996 78.605 24.5596 78.615 24.6496 78.615H30.1846ZM42.5992 70.71H44.6242V71.4H42.5992V75.945H41.8192V66.72H42.5992V70.71ZM38.4292 67.575H34.8292V66.87H38.4292V67.575ZM36.6142 74.22C35.8242 74.22 35.1992 74.005 34.7392 73.575C34.2792 73.145 34.0492 72.53 34.0492 71.73C34.0492 71.26 34.1292 70.84 34.2892 70.47C34.4592 70.1 34.6942 69.835 34.9942 69.675H33.0742V69.015H40.0792V69.675H38.2642C38.5642 69.835 38.7942 70.1 38.9542 70.47C39.1242 70.84 39.2092 71.26 39.2092 71.73C39.2092 72.53 38.9792 73.145 38.5192 73.575C38.0592 74.005 37.4242 74.22 36.6142 74.22ZM36.6292 69.78C36.2992 69.78 36.0192 69.835 35.7892 69.945C35.5592 70.045 35.3692 70.185 35.2192 70.365C35.0792 70.545 34.9792 70.755 34.9192 70.995C34.8592 71.225 34.8292 71.47 34.8292 71.73C34.8292 72.94 35.4292 73.545 36.6292 73.545C37.8292 73.545 38.4292 72.94 38.4292 71.73C38.4292 71.47 38.3992 71.225 38.3392 70.995C38.2792 70.755 38.1742 70.545 38.0242 70.365C37.8842 70.185 37.6992 70.045 37.4692 69.945C37.2392 69.835 36.9592 69.78 36.6292 69.78ZM36.0892 78.285C36.0892 78.385 36.0992 78.445 36.1192 78.465C36.1492 78.485 36.2092 78.495 36.2992 78.495H42.8992V79.185H35.9392C35.7092 79.185 35.5492 79.125 35.4592 79.005C35.3692 78.895 35.3242 78.725 35.3242 78.495V75.555H36.0892V78.285ZM55.0929 69.195C54.9529 69.465 54.7429 69.73 54.4629 69.99C54.1829 70.24 53.8529 70.48 53.4729 70.71C53.1029 70.93 52.6879 71.14 52.2279 71.34C51.7779 71.53 51.3079 71.69 50.8179 71.82L50.4879 71.235C51.0879 71.075 51.6429 70.88 52.1529 70.65C52.6729 70.41 53.1179 70.155 53.4879 69.885C53.8679 69.605 54.1629 69.32 54.3729 69.03C54.5929 68.73 54.7029 68.435 54.7029 68.145V67.71H51.3429V67.035H58.8429V67.71H55.4829V68.145C55.4829 68.455 55.5979 68.76 55.8279 69.06C56.0679 69.36 56.3829 69.645 56.7729 69.915C57.1629 70.175 57.6079 70.415 58.1079 70.635C58.6079 70.845 59.1229 71.01 59.6529 71.13L59.3679 71.73C58.9479 71.64 58.5129 71.51 58.0629 71.34C57.6129 71.16 57.1879 70.96 56.7879 70.74C56.3879 70.51 56.0329 70.265 55.7229 70.005C55.4229 69.735 55.2129 69.465 55.0929 69.195ZM54.9579 76.59V73.605H49.6029V72.93H60.5979V73.605H55.7229V76.59H54.9579ZM52.1679 78.285C52.1679 78.385 52.1779 78.445 52.1979 78.465C52.2279 78.485 52.2879 78.495 52.3779 78.495H59.0979V79.185H52.0179C51.7879 79.185 51.6279 79.125 51.5379 79.005C51.4479 78.895 51.4029 78.725 51.4029 78.495V75.285H52.1679V78.285ZM70.6725 66.72H71.4525V79.26H70.6725V66.72ZM62.4975 67.485H63.2625V70.98H67.2075V67.485H67.9725V75.735H63.1125C62.8825 75.735 62.7225 75.68 62.6325 75.57C62.5425 75.45 62.4975 75.275 62.4975 75.045V67.485ZM67.2075 75.075V71.64H63.2625V74.865C63.2625 74.965 63.2725 75.025 63.2925 75.045C63.3225 75.065 63.3825 75.075 63.4725 75.075H67.2075ZM74.5371 70.11C74.5371 69.68 74.5921 69.28 74.7021 68.91C74.8221 68.53 75.0021 68.205 75.2421 67.935C75.4921 67.655 75.8071 67.44 76.1871 67.29C76.5671 67.13 77.0271 67.05 77.5671 67.05C78.1071 67.05 78.5671 67.13 78.9471 67.29C79.3271 67.44 79.6371 67.655 79.8771 67.935C80.1271 68.205 80.3071 68.53 80.4171 68.91C80.5371 69.28 80.5971 69.68 80.5971 70.11C80.5971 70.52 80.5471 70.9 80.4471 71.25C80.3471 71.6 80.1921 71.91 79.9821 72.18C79.7721 72.45 79.5021 72.67 79.1721 72.84C78.8421 73.01 78.4471 73.115 77.9871 73.155V75.765H78.8271C79.4671 75.765 80.0771 75.725 80.6571 75.645C81.2471 75.565 81.8021 75.385 82.3221 75.105V66.72H83.1021V71.28H85.1271V71.985H83.1021V79.26H82.3221V75.705C81.8521 75.985 81.3071 76.18 80.6871 76.29C80.0671 76.39 79.4771 76.44 78.9171 76.44H73.8021V75.765H77.2221V73.17C76.7421 73.14 76.3321 73.04 75.9921 72.87C75.6621 72.7 75.3871 72.48 75.1671 72.21C74.9471 71.94 74.7871 71.625 74.6871 71.265C74.5871 70.905 74.5371 70.52 74.5371 70.11ZM77.5671 72.51C78.2871 72.51 78.8421 72.31 79.2321 71.91C79.6221 71.51 79.8171 70.91 79.8171 70.11C79.8171 69.31 79.6221 68.71 79.2321 68.31C78.8421 67.91 78.2871 67.71 77.5671 67.71C76.8471 67.71 76.2921 67.91 75.9021 68.31C75.5121 68.71 75.3171 69.31 75.3171 70.11C75.3171 70.91 75.5121 71.51 75.9021 71.91C76.2921 72.31 76.8471 72.51 77.5671 72.51ZM12.565 92.22C11.775 92.22 11.15 92.005 10.69 91.575C10.23 91.145 10 90.53 10 89.73C10 89.26 10.08 88.84 10.24 88.47C10.41 88.1 10.645 87.835 10.945 87.675H9.025V87.015H16.03V87.675H14.215C14.515 87.835 14.745 88.1 14.905 88.47C15.075 88.84 15.16 89.26 15.16 89.73C15.16 90.53 14.93 91.145 14.47 91.575C14.01 92.005 13.375 92.22 12.565 92.22ZM12.58 87.78C12.25 87.78 11.97 87.835 11.74 87.945C11.51 88.045 11.32 88.185 11.17 88.365C11.03 88.545 10.93 88.755 10.87 88.995C10.81 89.225 10.78 89.47 10.78 89.73C10.78 90.94 11.38 91.545 12.58 91.545C13.78 91.545 14.38 90.94 14.38 89.73C14.38 89.47 14.35 89.225 14.29 88.995C14.23 88.755 14.125 88.545 13.975 88.365C13.835 88.185 13.65 88.045 13.42 87.945C13.19 87.835 12.91 87.78 12.58 87.78ZM18.85 93.945H18.07V91.305H16.12V90.615H18.07V88.935H16.345V88.245H18.07V84.72H18.85V93.945ZM12.355 96.285C12.355 96.385 12.365 96.445 12.385 96.465C12.415 96.485 12.475 96.495 12.565 96.495H19.165V97.185H12.205C11.975 97.185 11.815 97.125 11.725 97.005C11.635 96.895 11.59 96.725 11.59 96.495V93.42H12.355V96.285ZM14.38 85.575H10.78V84.87H14.38V85.575ZM30.1696 84.72H30.9496V90.93H30.1696V84.72ZM25.0246 87.675C24.9346 87.965 24.7946 88.26 24.6046 88.56C24.4246 88.85 24.1996 89.14 23.9296 89.43C23.6596 89.71 23.3496 89.98 22.9996 90.24C22.6496 90.5 22.2646 90.74 21.8446 90.96L21.4696 90.45C21.9496 90.19 22.3796 89.91 22.7596 89.61C23.1496 89.3 23.4846 88.965 23.7646 88.605C24.0446 88.245 24.2596 87.86 24.4096 87.45C24.5596 87.03 24.6346 86.58 24.6346 86.1V84.915H25.4146V86.1C25.4146 86.99 25.6746 87.76 26.1946 88.41C26.7246 89.06 27.4646 89.645 28.4146 90.165L28.0546 90.66C27.2846 90.26 26.6396 89.805 26.1196 89.295C25.5996 88.785 25.2346 88.245 25.0246 87.675ZM24.2896 97.41C24.0596 97.41 23.8996 97.355 23.8096 97.245C23.7196 97.145 23.6746 96.98 23.6746 96.75V94.185H30.1846V92.535H23.7196V91.875H30.9496V94.83H24.4396V96.555C24.4396 96.675 24.4946 96.735 24.6046 96.735H31.3996V97.41H24.2896ZM36.8542 88.14C36.6942 88.73 36.3492 89.33 35.8192 89.94C35.2892 90.54 34.5992 91.06 33.7492 91.5L33.3292 90.9C34.2892 90.38 35.0442 89.75 35.5942 89.01C36.1542 88.26 36.4342 87.415 36.4342 86.475V85.995H33.7042V85.335H39.8242V85.995H37.2142V86.475C37.2142 86.945 37.2992 87.39 37.4692 87.81C37.6392 88.22 37.8642 88.61 38.1442 88.98C38.4242 89.34 38.7442 89.67 39.1042 89.97C39.4742 90.27 39.8592 90.535 40.2592 90.765L39.8692 91.35C39.1292 90.94 38.4942 90.46 37.9642 89.91C37.4442 89.35 37.0742 88.76 36.8542 88.14ZM43.0492 97.41H42.2692V93.45H35.6242V92.79H43.0492V97.41ZM43.0492 91.845H42.2692V88.395H39.5842V87.69H42.2692V84.72H43.0492V91.845ZM55.1079 87.945C54.9779 88.265 54.7829 88.58 54.5229 88.89C54.2729 89.2 53.9679 89.495 53.6079 89.775C53.2479 90.055 52.8379 90.315 52.3779 90.555C51.9279 90.785 51.4329 90.985 50.8929 91.155L50.5779 90.57C51.2479 90.33 51.8379 90.055 52.3479 89.745C52.8679 89.425 53.3029 89.085 53.6529 88.725C54.0029 88.365 54.2629 87.995 54.4329 87.615C54.6129 87.225 54.7029 86.835 54.7029 86.445V86.13H51.0729V85.47H59.1129V86.13H55.4829V86.445C55.4829 86.855 55.5829 87.255 55.7829 87.645C55.9929 88.025 56.2829 88.385 56.6529 88.725C57.0229 89.055 57.4579 89.36 57.9579 89.64C58.4579 89.92 59.0029 90.16 59.5929 90.36L59.2929 90.96C58.8729 90.84 58.4429 90.675 58.0029 90.465C57.5729 90.245 57.1629 90 56.7729 89.73C56.3929 89.46 56.0529 89.175 55.7529 88.875C55.4629 88.565 55.2479 88.255 55.1079 87.945ZM60.5979 94.83H49.6029V94.155H54.7029V91.275H55.4679V94.155H60.5979V94.83ZM70.9725 95.085H64.1925V96.555C64.1925 96.635 64.1975 96.685 64.2075 96.705C64.2275 96.725 64.2725 96.735 64.3425 96.735H71.2725V97.41H64.0425C63.8325 97.41 63.6775 97.365 63.5775 97.275C63.4775 97.185 63.4275 97.015 63.4275 96.765V94.425H70.2075V92.97H63.4725V92.31H64.9425V90.825H61.7025V90.165H72.6975V90.825H69.5475V92.31H70.9725V95.085ZM67.1925 89.25C65.8825 89.25 64.9175 89.04 64.2975 88.62C63.6775 88.2 63.3675 87.655 63.3675 86.985C63.3675 86.315 63.6775 85.77 64.2975 85.35C64.9175 84.93 65.8825 84.72 67.1925 84.72C68.5025 84.72 69.4675 84.93 70.0875 85.35C70.7075 85.77 71.0175 86.315 71.0175 86.985C71.0175 87.655 70.7075 88.2 70.0875 88.62C69.4675 89.04 68.5025 89.25 67.1925 89.25ZM67.1925 88.575C67.7425 88.575 68.2075 88.54 68.5875 88.47C68.9775 88.39 69.2925 88.28 69.5325 88.14C69.7825 88 69.9625 87.835 70.0725 87.645C70.1825 87.445 70.2375 87.225 70.2375 86.985C70.2375 86.745 70.1825 86.53 70.0725 86.34C69.9625 86.14 69.7825 85.97 69.5325 85.83C69.2925 85.69 68.9775 85.585 68.5875 85.515C68.2075 85.435 67.7425 85.395 67.1925 85.395C66.6425 85.395 66.1725 85.435 65.7825 85.515C65.4025 85.585 65.0875 85.69 64.8375 85.83C64.5975 85.97 64.4225 86.14 64.3125 86.34C64.2025 86.53 64.1475 86.745 64.1475 86.985C64.1475 87.225 64.2025 87.445 64.3125 87.645C64.4225 87.835 64.5975 88 64.8375 88.14C65.0875 88.28 65.4025 88.39 65.7825 88.47C66.1725 88.54 66.6425 88.575 67.1925 88.575ZM68.7825 90.825H65.7075V92.31H68.7825V90.825ZM82.7721 84.72H83.5521V97.245H82.7721V84.72ZM77.3121 86.01C76.5821 86.01 76.0321 86.3 75.6621 86.88C75.3021 87.45 75.1221 88.39 75.1221 89.7C75.1221 91.01 75.3021 91.955 75.6621 92.535C76.0321 93.105 76.5821 93.39 77.3121 93.39C78.0421 93.39 78.5871 93.105 78.9471 92.535C79.3171 91.955 79.5021 91.01 79.5021 89.7C79.5021 88.39 79.3171 87.45 78.9471 86.88C78.5871 86.3 78.0421 86.01 77.3121 86.01ZM77.3121 94.065C76.3521 94.065 75.6121 93.725 75.0921 93.045C74.5821 92.355 74.3271 91.24 74.3271 89.7C74.3271 88.16 74.5821 87.05 75.0921 86.37C75.6121 85.68 76.3521 85.335 77.3121 85.335C78.2721 85.335 79.0071 85.68 79.5171 86.37C80.0371 87.05 80.2971 88.16 80.2971 89.7C80.2971 91.24 80.0371 92.355 79.5171 93.045C79.0071 93.725 78.2721 94.065 77.3121 94.065ZM96.0309 86.925C96.0309 87.475 95.9159 87.965 95.6859 88.395C95.4559 88.825 95.1159 89.225 94.6659 89.595C94.2159 89.955 93.6509 90.305 92.9709 90.645C92.3009 90.985 91.5209 91.345 90.6309 91.725L90.3159 91.11C91.1559 90.77 91.8809 90.44 92.4909 90.12C93.1109 89.8 93.6259 89.485 94.0359 89.175C94.4459 88.855 94.7509 88.53 94.9509 88.2C95.1509 87.86 95.2509 87.5 95.2509 87.12V86.07H90.7959V85.41H96.0309V86.925ZM101.431 88.335H99.4059V91.92H98.6259V84.72H99.4059V87.645H101.431V88.335ZM91.9809 94.95C91.9809 94.62 92.0459 94.305 92.1759 94.005C92.3059 93.695 92.5159 93.425 92.8059 93.195C93.1059 92.955 93.4959 92.765 93.9759 92.625C94.4559 92.485 95.0509 92.415 95.7609 92.415C96.4609 92.415 97.0509 92.485 97.5309 92.625C98.0209 92.765 98.4109 92.955 98.7009 93.195C99.0009 93.425 99.2159 93.695 99.3459 94.005C99.4759 94.305 99.5409 94.62 99.5409 94.95C99.5409 95.28 99.4759 95.6 99.3459 95.91C99.2159 96.21 99.0009 96.475 98.7009 96.705C98.4109 96.945 98.0209 97.135 97.5309 97.275C97.0509 97.415 96.4609 97.485 95.7609 97.485C95.0509 97.485 94.4559 97.415 93.9759 97.275C93.4959 97.135 93.1059 96.945 92.8059 96.705C92.5159 96.475 92.3059 96.21 92.1759 95.91C92.0459 95.6 91.9809 95.28 91.9809 94.95ZM98.7759 94.95C98.7759 94.67 98.7159 94.42 98.5959 94.2C98.4859 93.97 98.3059 93.775 98.0559 93.615C97.8159 93.445 97.5059 93.315 97.1259 93.225C96.7459 93.135 96.2909 93.09 95.7609 93.09C94.6909 93.09 93.9209 93.265 93.4509 93.615C92.9809 93.955 92.7459 94.4 92.7459 94.95C92.7459 95.23 92.8009 95.485 92.9109 95.715C93.0309 95.935 93.2109 96.125 93.4509 96.285C93.7009 96.455 94.0159 96.585 94.3959 96.675C94.7759 96.765 95.2309 96.81 95.7609 96.81C96.8209 96.81 97.5859 96.64 98.0559 96.3C98.5359 95.96 98.7759 95.51 98.7759 94.95ZM111.505 88.71H113.53V89.4H111.505V93.945H110.725V84.72H111.505V88.71ZM107.335 85.575H103.735V84.87H107.335V85.575ZM105.52 92.22C104.73 92.22 104.105 92.005 103.645 91.575C103.185 91.145 102.955 90.53 102.955 89.73C102.955 89.26 103.035 88.84 103.195 88.47C103.365 88.1 103.6 87.835 103.9 87.675H101.98V87.015H108.985V87.675H107.17C107.47 87.835 107.7 88.1 107.86 88.47C108.03 88.84 108.115 89.26 108.115 89.73C108.115 90.53 107.885 91.145 107.425 91.575C106.965 92.005 106.33 92.22 105.52 92.22ZM105.535 87.78C105.205 87.78 104.925 87.835 104.695 87.945C104.465 88.045 104.275 88.185 104.125 88.365C103.985 88.545 103.885 88.755 103.825 88.995C103.765 89.225 103.735 89.47 103.735 89.73C103.735 90.94 104.335 91.545 105.535 91.545C106.735 91.545 107.335 90.94 107.335 89.73C107.335 89.47 107.305 89.225 107.245 88.995C107.185 88.755 107.08 88.545 106.93 88.365C106.79 88.185 106.605 88.045 106.375 87.945C106.145 87.835 105.865 87.78 105.535 87.78ZM104.995 96.285C104.995 96.385 105.005 96.445 105.025 96.465C105.055 96.485 105.115 96.495 105.205 96.495H111.805V97.185H104.845C104.615 97.185 104.455 97.125 104.365 97.005C104.275 96.895 104.23 96.725 104.23 96.495V93.555H104.995V96.285ZM121.839 90.96C121.279 90.96 120.804 90.885 120.414 90.735C120.034 90.585 119.719 90.38 119.469 90.12C119.219 89.85 119.039 89.535 118.929 89.175C118.819 88.805 118.764 88.41 118.764 87.99C118.764 87.57 118.819 87.18 118.929 86.82C119.039 86.45 119.219 86.135 119.469 85.875C119.719 85.605 120.034 85.395 120.414 85.245C120.804 85.095 121.279 85.02 121.839 85.02C122.319 85.02 122.739 85.08 123.099 85.2C123.459 85.31 123.759 85.47 123.999 85.68C124.249 85.89 124.444 86.14 124.584 86.43C124.724 86.72 124.819 87.035 124.869 87.375H127.479V84.72H128.259V91.65H127.479V88.08H124.914C124.904 88.49 124.839 88.875 124.719 89.235C124.609 89.585 124.429 89.89 124.179 90.15C123.929 90.4 123.609 90.6 123.219 90.75C122.839 90.89 122.379 90.96 121.839 90.96ZM128.259 97.26H121.449C121.219 97.26 121.059 97.2 120.969 97.08C120.879 96.97 120.834 96.8 120.834 96.57V92.61H128.259V97.26ZM127.494 96.615V93.24H121.599V96.405C121.599 96.505 121.609 96.565 121.629 96.585C121.659 96.605 121.719 96.615 121.809 96.615H127.494ZM121.839 90.285C122.539 90.285 123.094 90.1 123.504 89.73C123.924 89.35 124.134 88.77 124.134 87.99C124.134 87.21 123.924 86.635 123.504 86.265C123.094 85.885 122.539 85.695 121.839 85.695C121.139 85.695 120.579 85.885 120.159 86.265C119.749 86.635 119.544 87.21 119.544 87.99C119.544 88.77 119.749 89.35 120.159 89.73C120.579 90.1 121.139 90.285 121.839 90.285ZM141.934 89.73H139.909V97.26H139.129V84.72H139.909V89.025H141.934V89.73ZM136.549 93.735H131.689C131.459 93.735 131.299 93.68 131.209 93.57C131.119 93.45 131.074 93.275 131.074 93.045V85.56H136.549V93.735ZM135.769 93.06V86.235H131.839V92.85C131.839 92.95 131.849 93.01 131.869 93.03C131.899 93.05 131.959 93.06 132.049 93.06H135.769Z" fill="#282828"/>
<path d="M13.92 40.06C13.32 40.06 12.7933 39.9733 12.34 39.8C11.8867 39.6267 11.5067 39.3867 11.2 39.08C10.9067 38.76 10.6867 38.3867 10.54 37.96C10.3933 37.52 10.32 37.0467 10.32 36.54C10.32 36.3267 10.34 36.1067 10.38 35.88C10.42 35.64 10.4733 35.4133 10.54 35.2C10.62 34.9733 10.7133 34.7667 10.82 34.58C10.9267 34.3933 11.0467 34.2467 11.18 34.14H9.2V32.86H18.54V34.14H16.62C16.7533 34.2467 16.8733 34.3933 16.98 34.58C17.0867 34.7667 17.1733 34.9733 17.24 35.2C17.32 35.4133 17.38 35.64 17.42 35.88C17.46 36.1067 17.48 36.3267 17.48 36.54C17.48 37.0467 17.4067 37.52 17.26 37.96C17.1133 38.3867 16.8867 38.76 16.58 39.08C16.2867 39.3867 15.9133 39.6267 15.46 39.8C15.02 39.9733 14.5067 40.06 13.92 40.06ZM18.96 34.52H21V29.88H22.52V42.46H21V39.14H18.66V37.88H21V35.78H18.96V34.52ZM13.58 46.66C12.8467 46.66 12.48 46.3067 12.48 45.6V41.56H13.98V45.02C13.98 45.1933 14 45.2933 14.04 45.32C14.08 45.36 14.18 45.38 14.34 45.38H22.92V46.66H13.58ZM13.9 38.86C14.58 38.86 15.1067 38.6667 15.48 38.28C15.8533 37.88 16.04 37.3 16.04 36.54C16.04 35.7267 15.8533 35.12 15.48 34.72C15.1067 34.32 14.58 34.12 13.9 34.12C13.22 34.12 12.6933 34.32 12.32 34.72C11.9467 35.12 11.76 35.7267 11.76 36.54C11.76 37.3 11.9467 37.88 12.32 38.28C12.6933 38.6667 13.22 38.86 13.9 38.86ZM11.48 31.46V30.08H16.34V31.46H11.48ZM38.7895 39.44V43.68H30.2495V45.46C30.2495 45.5667 30.2629 45.6333 30.2895 45.66C30.3295 45.7 30.3962 45.72 30.4895 45.72H39.3695V46.96H29.7695C29.3829 46.96 29.1162 46.8733 28.9695 46.7C28.8229 46.5267 28.7495 46.26 28.7495 45.9V42.46H37.2695V40.66H28.8095V39.44H38.7895ZM37.2695 29.88H38.7895V38.24H37.2695V29.88ZM30.6295 34.52C30.4962 34.92 30.2895 35.3 30.0095 35.66C29.7429 36.02 29.4295 36.3667 29.0695 36.7C28.7095 37.0333 28.3095 37.3467 27.8695 37.64C27.4295 37.92 26.9829 38.1867 26.5295 38.44L25.7695 37.3C28.4762 35.86 29.8295 34.12 29.8295 32.08V30.14H31.4295V32.08C31.4295 32.56 31.5029 33.0133 31.6495 33.44C31.8095 33.8667 32.0495 34.28 32.3695 34.68C32.7029 35.0667 33.1162 35.4467 33.6095 35.82C34.1162 36.1933 34.7162 36.5733 35.4095 36.96L34.6095 38.08C34.2095 37.8667 33.8095 37.6267 33.4095 37.36C33.0095 37.0933 32.6295 36.8133 32.2695 36.52C31.9095 36.2133 31.5829 35.8933 31.2895 35.56C31.0095 35.2267 30.7895 34.88 30.6295 34.52ZM49.8391 32.68C49.8391 33.4667 49.7057 34.1533 49.4391 34.74C49.1724 35.3133 48.7524 35.8533 48.1791 36.36C47.6057 36.8533 46.8591 37.3333 45.9391 37.8C45.0324 38.2667 43.9391 38.7733 42.6591 39.32L42.0191 38.08C43.0724 37.64 43.9924 37.22 44.7791 36.82C45.5657 36.42 46.2191 36.02 46.7391 35.62C47.2724 35.2067 47.6657 34.7867 47.9191 34.36C48.1857 33.92 48.3191 33.4467 48.3191 32.94V32.06H42.6591V30.8H49.8391V32.68ZM45.4591 46.76C45.0991 46.76 44.8391 46.6733 44.6791 46.5C44.5191 46.34 44.4391 46.0667 44.4391 45.68V40.4H54.4791V46.76H45.4591ZM52.9391 41.62H45.9391V45.26C45.9391 45.3667 45.9591 45.44 45.9991 45.48C46.0391 45.52 46.1191 45.54 46.2391 45.54H52.9391V41.62ZM54.4791 33.68H57.0591V35H54.4791V39.2H52.9391V29.88H54.4791V33.68ZM70.7486 33.88H73.3286V35.2H70.7486V39.42H69.2086V29.88H70.7486V33.88ZM70.7486 46.96H69.2286V41.88H60.5086V40.62H70.7486V46.96ZM66.1086 32.68C66.1086 33.4667 65.9753 34.1533 65.7086 34.74C65.4419 35.3133 65.0219 35.8533 64.4486 36.36C63.8753 36.8533 63.1286 37.3333 62.2086 37.8C61.3019 38.2667 60.2086 38.7733 58.9286 39.32L58.2886 38.08C59.3419 37.64 60.2619 37.22 61.0486 36.82C61.8353 36.42 62.4886 36.02 63.0086 35.62C63.5419 35.2067 63.9353 34.7867 64.1886 34.36C64.4553 33.92 64.5886 33.4467 64.5886 32.94V32.06H58.9286V30.8H66.1086V32.68ZM81.9636 32.14V30.88H92.6836V32.14H88.1636V32.8C88.1636 33.2667 88.2969 33.7333 88.5636 34.2C88.8303 34.6533 89.2036 35.08 89.6836 35.48C90.1636 35.88 90.7369 36.2467 91.4036 36.58C92.0836 36.9133 92.8303 37.1867 93.6436 37.4L93.0036 38.56C92.4436 38.4267 91.8769 38.2333 91.3036 37.98C90.7303 37.7267 90.1836 37.44 89.6636 37.12C89.1569 36.7867 88.7036 36.4333 88.3036 36.06C87.9036 35.6867 87.5969 35.3067 87.3836 34.92C87.1569 35.32 86.8436 35.7133 86.4436 36.1C86.0569 36.4867 85.6103 36.8467 85.1036 37.18C84.5969 37.5 84.0503 37.7867 83.4636 38.04C82.8903 38.2933 82.3169 38.4867 81.7436 38.62L81.0436 37.48C81.8569 37.2667 82.6036 36.9867 83.2836 36.64C83.9636 36.2933 84.5436 35.9133 85.0236 35.5C85.5169 35.0867 85.8969 34.6533 86.1636 34.2C86.4303 33.7333 86.5636 33.2667 86.5636 32.8V32.14H81.9636ZM79.9036 42.32H86.5236V38.7H88.0636V42.32H94.7236V43.6H79.9036V42.32ZM108.753 43.9H99.9131V45.5C99.9131 45.6067 99.9265 45.6733 99.9531 45.7C99.9931 45.7267 100.06 45.74 100.153 45.74H109.153V46.96H99.3331C99.0265 46.96 98.7931 46.8933 98.6331 46.76C98.4865 46.6267 98.4131 46.3867 98.4131 46.04V42.7H107.253V41.14H98.4531V39.9H100.353V38.26H96.1731V37H110.993V38.26H106.933V39.9H108.753V43.9ZM103.573 36.06C102.613 36.06 101.8 35.9867 101.133 35.84C100.48 35.6933 99.9398 35.4867 99.5131 35.22C99.0998 34.9533 98.7998 34.6333 98.6131 34.26C98.4265 33.8733 98.3331 33.4467 98.3331 32.98C98.3331 32.5 98.4265 32.0667 98.6131 31.68C98.7998 31.2933 99.0998 30.9667 99.5131 30.7C99.9398 30.4333 100.48 30.2267 101.133 30.08C101.8 29.9333 102.613 29.86 103.573 29.86C104.533 29.86 105.34 29.9333 105.993 30.08C106.66 30.2267 107.2 30.4333 107.613 30.7C108.04 30.9667 108.346 31.2933 108.533 31.68C108.72 32.0667 108.813 32.5 108.813 32.98C108.813 33.4467 108.72 33.8733 108.533 34.26C108.346 34.6333 108.04 34.9533 107.613 35.22C107.2 35.4867 106.66 35.6933 105.993 35.84C105.34 35.9867 104.533 36.06 103.573 36.06ZM103.573 34.86C104.893 34.86 105.846 34.7 106.433 34.38C107.02 34.06 107.313 33.5867 107.313 32.96C107.313 32.3333 107.02 31.86 106.433 31.54C105.846 31.22 104.893 31.06 103.573 31.06C102.253 31.06 101.3 31.22 100.713 31.54C100.126 31.86 99.8331 32.3333 99.8331 32.96C99.8331 33.5867 100.126 34.06 100.713 34.38C101.3 34.7 102.253 34.86 103.573 34.86ZM101.853 39.9H105.433V38.26H101.853V39.9ZM116.143 46.76C115.783 46.76 115.523 46.6733 115.363 46.5C115.203 46.34 115.123 46.0667 115.123 45.68V40.4H125.163V46.76H116.143ZM123.623 41.62H116.623V45.26C116.623 45.3667 116.643 45.44 116.683 45.48C116.723 45.52 116.803 45.54 116.923 45.54H123.623V41.62ZM125.163 33.68H127.743V35H125.163V39.2H123.623V29.88H125.163V33.68ZM120.623 30.7V37.96H113.943C113.583 37.96 113.323 37.88 113.163 37.72C113.003 37.56 112.923 37.2667 112.923 36.84V30.7H120.623ZM114.423 36.46C114.423 36.5667 114.436 36.64 114.463 36.68C114.503 36.72 114.576 36.74 114.683 36.74H119.143V31.92H114.423V36.46Z" fill="#FF4646"/>
<path d="M13.468 14.168V20H10.3V3.872H16.324C18.26 3.872 19.724 4.296 20.716 5.144C21.724 5.992 22.228 7.288 22.228 9.032C22.228 10.76 21.724 12.048 20.716 12.896C19.724 13.744 18.26 14.168 16.324 14.168H13.468ZM13.468 6.44V11.6H16.276C17.14 11.6 17.82 11.392 18.316 10.976C18.812 10.544 19.06 9.896 19.06 9.032C19.06 8.168 18.812 7.52 18.316 7.088C17.82 6.656 17.14 6.44 16.276 6.44H13.468ZM28.0696 20H24.9016V3.872H35.1496V6.44H28.0696V10.304H34.6456V12.872H28.0696V20ZM45.2054 17.672C45.9894 17.672 46.7654 17.568 47.5334 17.36C48.3014 17.136 49.0454 16.832 49.7654 16.448L50.5574 18.944C49.7894 19.36 48.9414 19.68 48.0134 19.904C47.0854 20.128 46.1414 20.24 45.1814 20.24C42.4774 20.24 40.4774 19.52 39.1814 18.08C37.9014 16.64 37.2614 14.592 37.2614 11.936C37.2614 9.088 37.8934 6.992 39.1574 5.648C40.4214 4.304 42.3094 3.632 44.8214 3.632C46.0214 3.632 47.1094 3.84 48.0854 4.256C49.0774 4.672 49.8774 5.216 50.4854 5.888L48.7334 7.856C48.2534 7.328 47.6854 6.92 47.0294 6.632C46.3894 6.344 45.6534 6.2 44.8214 6.2C43.3654 6.2 42.2694 6.664 41.5334 7.592C40.7974 8.504 40.4294 9.952 40.4294 11.936C40.4294 13.824 40.8134 15.256 41.5814 16.232C42.3494 17.192 43.5574 17.672 45.2054 17.672ZM64.0386 17.432V20H53.1906V3.872H63.7986V6.44H56.3586V10.328H63.5346V12.848H56.3586V17.432H64.0386Z" fill="#FF4646"/>
</svg>
