<svg width="204" height="102" viewBox="0 0 204 102" fill="none" xmlns="http://www.w3.org/2000/svg">
<path d="M13.468 14.168V20H10.3V3.872H16.324C18.26 3.872 19.724 4.296 20.716 5.144C21.724 5.992 22.228 7.288 22.228 9.032C22.228 10.76 21.724 12.048 20.716 12.896C19.724 13.744 18.26 14.168 16.324 14.168H13.468ZM13.468 6.44V11.6H16.276C17.14 11.6 17.82 11.392 18.316 10.976C18.812 10.544 19.06 9.896 19.06 9.032C19.06 8.168 18.812 7.52 18.316 7.088C17.82 6.656 17.14 6.44 16.276 6.44H13.468ZM28.0696 20H24.9016V3.872H35.1496V6.44H28.0696V10.304H34.6456V12.872H28.0696V20ZM45.2054 17.672C45.9894 17.672 46.7654 17.568 47.5334 17.36C48.3014 17.136 49.0454 16.832 49.7654 16.448L50.5574 18.944C49.7894 19.36 48.9414 19.68 48.0134 19.904C47.0854 20.128 46.1414 20.24 45.1814 20.24C42.4774 20.24 40.4774 19.52 39.1814 18.08C37.9014 16.64 37.2614 14.592 37.2614 11.936C37.2614 9.088 37.8934 6.992 39.1574 5.648C40.4214 4.304 42.3094 3.632 44.8214 3.632C46.0214 3.632 47.1094 3.84 48.0854 4.256C49.0774 4.672 49.8774 5.216 50.4854 5.888L48.7334 7.856C48.2534 7.328 47.6854 6.92 47.0294 6.632C46.3894 6.344 45.6534 6.2 44.8214 6.2C43.3654 6.2 42.2694 6.664 41.5334 7.592C40.7974 8.504 40.4294 9.952 40.4294 11.936C40.4294 13.824 40.8134 15.256 41.5814 16.232C42.3494 17.192 43.5574 17.672 45.2054 17.672ZM60.3186 20L56.9586 11.936L56.3346 10.304H56.3106L56.3586 11.984V20H53.1906V3.872H56.6706L61.1346 14.864L61.7106 16.376H61.7586L62.3346 14.864L66.7986 3.872H70.2546V20H67.0866V11.984L67.1346 10.304H67.1106L66.5106 11.936L63.1506 20H60.3186Z" fill="#FF4646"/>
<rect opacity="0.5" x="8.5" y="85" width="25" height="12" fill="#F7FF5E"/>
<rect opacity="0.5" x="8.5" y="67" width="25" height="12" fill="#F7FF5E"/>
<path d="M1.5 6V99.5" stroke="#FF4646" stroke-width="3"/>
<path d="M18.96 32.26H16.12V40.3C16.12 40.4733 16.1467 40.5867 16.2 40.64C16.2667 40.6933 16.3667 40.72 16.5 40.72H18.28C18.7067 40.72 19.1267 40.66 19.54 40.54C19.9667 40.4067 20.32 40.24 20.6 40.04V29.88H22.12V35.48H24.52V36.76H22.12V46.76H20.6V41.22C20.3333 41.46 19.96 41.6533 19.48 41.8C19 41.9333 18.48 42 17.92 42H15.84C15.1733 42 14.7933 41.72 14.7 41.16C14.5 41.3867 14.2067 41.58 13.82 41.74C13.4333 41.9 12.9867 41.98 12.48 41.98H10.86C10.5133 41.98 10.24 41.9 10.04 41.74C9.84 41.5667 9.74 41.26 9.74 40.82V31H13.82V32.26H11.2V40.32C11.2 40.48 11.2267 40.5867 11.28 40.64C11.3333 40.6933 11.4333 40.72 11.58 40.72H12.74C13.1667 40.72 13.54 40.66 13.86 40.54C14.18 40.4067 14.4467 40.2333 14.66 40.02V31H18.96V32.26ZM40.3095 37.8V39.08H25.4895V37.8H40.3095ZM32.8695 43.38C32.6695 43.7667 32.3895 44.1467 32.0295 44.52C31.6829 44.8933 31.2829 45.24 30.8295 45.56C30.3762 45.88 29.8829 46.16 29.3495 46.4C28.8162 46.6533 28.2762 46.84 27.7295 46.96L27.0695 45.74C27.7495 45.5667 28.3895 45.32 28.9895 45C29.6029 44.6667 30.1362 44.3067 30.5895 43.92C31.0429 43.52 31.3962 43.1067 31.6495 42.68C31.9162 42.24 32.0495 41.82 32.0495 41.42V40.58H33.6495V41.42C33.6495 41.8067 33.7762 42.2133 34.0295 42.64C34.2962 43.0667 34.6495 43.48 35.0895 43.88C35.5429 44.28 36.0695 44.6467 36.6695 44.98C37.2829 45.3133 37.9362 45.5667 38.6295 45.74L38.0095 46.96C37.4629 46.84 36.9229 46.6533 36.3895 46.4C35.8562 46.1467 35.3629 45.8533 34.9095 45.52C34.4562 45.2 34.0495 44.8533 33.6895 44.48C33.3429 44.1067 33.0695 43.74 32.8695 43.38ZM38.3495 31.4H34.5295V34.44C34.5295 34.6 34.5495 34.7 34.5895 34.74C34.6429 34.7667 34.7429 34.78 34.8895 34.78H38.4495V36.04H34.2295C33.9495 36.04 33.7095 35.9667 33.5095 35.82C33.3095 35.66 33.1829 35.4467 33.1295 35.18C32.9295 35.3933 32.6429 35.5933 32.2695 35.78C31.8962 35.9533 31.4295 36.04 30.8695 36.04H28.5095C27.7495 36.04 27.3695 35.6467 27.3695 34.86V30.18H32.0495V31.4H28.8295V34.46C28.8295 34.6067 28.8495 34.7 28.8895 34.74C28.9295 34.78 29.0162 34.8 29.1495 34.8H31.1495C31.5229 34.8 31.8829 34.7467 32.2295 34.64C32.5895 34.5333 32.8762 34.3667 33.0895 34.14V30.18H38.3495V31.4ZM45.5391 46.66C44.8057 46.66 44.4391 46.3067 44.4391 45.6V41.66H45.9391V45.02C45.9391 45.1933 45.9591 45.2933 45.9991 45.32C46.0391 45.36 46.1391 45.38 46.2991 45.38H54.8791V46.66H45.5391ZM54.4791 35.08H57.0591V36.4H54.4791V42.66H52.9391V29.88H54.4791V35.08ZM43.8191 31.46V30.08H48.6791V31.46H43.8191ZM46.2591 40.06C45.6591 40.06 45.1324 39.9733 44.6791 39.8C44.2257 39.6267 43.8457 39.3867 43.5391 39.08C43.2457 38.76 43.0257 38.3867 42.8791 37.96C42.7324 37.52 42.6591 37.0467 42.6591 36.54C42.6591 36.3267 42.6791 36.1067 42.7191 35.88C42.7591 35.64 42.8124 35.4133 42.8791 35.2C42.9591 34.9733 43.0524 34.7667 43.1591 34.58C43.2657 34.3933 43.3857 34.2467 43.5191 34.14H41.5391V32.86H50.8791V34.14H48.9591C49.0924 34.2467 49.2124 34.3933 49.3191 34.58C49.4257 34.7667 49.5124 34.9733 49.5791 35.2C49.6591 35.4133 49.7191 35.64 49.7591 35.88C49.7991 36.1067 49.8191 36.3267 49.8191 36.54C49.8191 37.0467 49.7457 37.52 49.5991 37.96C49.4524 38.3867 49.2257 38.76 48.9191 39.08C48.6257 39.3867 48.2524 39.6267 47.7991 39.8C47.3591 39.9733 46.8457 40.06 46.2591 40.06ZM46.2391 38.86C46.9191 38.86 47.4457 38.6667 47.8191 38.28C48.1924 37.88 48.3791 37.3 48.3791 36.54C48.3791 35.7267 48.1924 35.12 47.8191 34.72C47.4457 34.32 46.9191 34.12 46.2391 34.12C45.5591 34.12 45.0324 34.32 44.6591 34.72C44.2857 35.12 44.0991 35.7267 44.0991 36.54C44.0991 37.3 44.2857 37.88 44.6591 38.28C45.0324 38.6667 45.5591 38.86 46.2391 38.86ZM75.4141 29.88H76.9341V46.76H75.4141V29.88ZM72.3541 31.02V34.92C72.3541 35.8267 72.2407 36.6133 72.0141 37.28C71.8007 37.9333 71.4341 38.54 70.9141 39.1C70.3941 39.66 69.7074 40.2067 68.8541 40.74C68.0007 41.2733 66.9407 41.8667 65.6741 42.52L65.0141 41.34C66.1474 40.7267 67.0807 40.18 67.8141 39.7C68.5607 39.2067 69.1541 38.74 69.5941 38.3C70.0341 37.8467 70.3407 37.38 70.5141 36.9C70.7007 36.42 70.7941 35.8733 70.7941 35.26V32.28H65.0341V31.02H72.3541ZM87.0236 39.18C87.4369 39.18 87.8703 39.1733 88.3236 39.16C88.7903 39.1333 89.2436 39.0867 89.6836 39.02C90.1236 38.9533 90.5503 38.8667 90.9636 38.76C91.3769 38.6533 91.7569 38.5067 92.1036 38.32V29.88H93.6236V40.76H92.1036V39.4C91.8103 39.5867 91.4569 39.74 91.0436 39.86C90.6303 39.98 90.1903 40.08 89.7236 40.16C89.2703 40.2267 88.8103 40.2733 88.3436 40.3C87.8903 40.3267 87.4769 40.34 87.1036 40.34H80.0436V39.18H85.0236V37.88C83.9969 37.7733 83.2436 37.4867 82.7636 37.02C82.2969 36.54 82.0636 35.9467 82.0636 35.24C82.0636 34.8533 82.1436 34.5067 82.3036 34.2C82.4636 33.88 82.6769 33.6333 82.9436 33.46H80.7436V32.26H90.6036V33.46H88.5036C88.7703 33.6333 88.9836 33.88 89.1436 34.2C89.3036 34.5067 89.3836 34.8533 89.3836 35.24C89.3836 35.9333 89.1503 36.52 88.6836 37C88.2303 37.4667 87.5103 37.7533 86.5236 37.86V39.18H87.0236ZM92.1036 46.96V42.98H82.9636V41.74H93.6236V46.96H92.1036ZM85.7236 36.76C86.4436 36.76 87.0036 36.64 87.4036 36.4C87.8036 36.1467 88.0036 35.76 88.0036 35.24C88.0036 34.72 87.8036 34.3333 87.4036 34.08C87.0036 33.8133 86.4436 33.68 85.7236 33.68C85.0036 33.68 84.4436 33.8133 84.0436 34.08C83.6436 34.3333 83.4436 34.72 83.4436 35.24C83.4436 35.76 83.6436 36.1467 84.0436 36.4C84.4436 36.64 85.0036 36.76 85.7236 36.76ZM82.8636 31.26V29.96H88.3236V31.26H82.8636ZM99.8731 46.76C99.5131 46.76 99.2531 46.6733 99.0931 46.5C98.9331 46.34 98.8531 46.0667 98.8531 45.68V40.4H108.893V46.76H99.8731ZM107.353 41.62H100.353V45.26C100.353 45.3667 100.373 45.44 100.413 45.48C100.453 45.52 100.533 45.54 100.653 45.54H107.353V41.62ZM108.893 33.68H111.473V35H108.893V39.2H107.353V29.88H108.893V33.68ZM104.353 30.7V37.96H97.6731C97.3131 37.96 97.0531 37.88 96.8931 37.72C96.7331 37.56 96.6531 37.2667 96.6531 36.84V30.7H104.353ZM98.1531 36.46C98.1531 36.5667 98.1665 36.64 98.1931 36.68C98.2331 36.72 98.3065 36.74 98.4131 36.74H102.873V31.92H98.1531V36.46Z" fill="#FF4646"/>
<path d="M11.44 76.95C11.44 76.62 11.505 76.305 11.635 76.005C11.765 75.695 11.975 75.425 12.265 75.195C12.565 74.955 12.955 74.765 13.435 74.625C13.915 74.485 14.51 74.415 15.22 74.415C15.92 74.415 16.51 74.485 16.99 74.625C17.48 74.765 17.87 74.955 18.16 75.195C18.46 75.425 18.675 75.695 18.805 76.005C18.935 76.305 19 76.62 19 76.95C19 77.28 18.935 77.6 18.805 77.91C18.675 78.21 18.46 78.475 18.16 78.705C17.87 78.945 17.48 79.135 16.99 79.275C16.51 79.415 15.92 79.485 15.22 79.485C14.51 79.485 13.915 79.415 13.435 79.275C12.955 79.135 12.565 78.945 12.265 78.705C11.975 78.475 11.765 78.21 11.635 77.91C11.505 77.6 11.44 77.28 11.44 76.95ZM18.235 76.95C18.235 76.67 18.175 76.42 18.055 76.2C17.945 75.97 17.765 75.775 17.515 75.615C17.275 75.445 16.965 75.315 16.585 75.225C16.205 75.135 15.75 75.09 15.22 75.09C14.15 75.09 13.38 75.265 12.91 75.615C12.44 75.955 12.205 76.4 12.205 76.95C12.205 77.23 12.26 77.485 12.37 77.715C12.49 77.935 12.67 78.125 12.91 78.285C13.16 78.455 13.475 78.585 13.855 78.675C14.235 78.765 14.69 78.81 15.22 78.81C16.28 78.81 17.045 78.64 17.515 78.3C17.995 77.96 18.235 77.51 18.235 76.95ZM12.655 70.14C12.495 70.73 12.15 71.33 11.62 71.94C11.09 72.54 10.4 73.06 9.55 73.5L9.13 72.9C10.09 72.38 10.845 71.75 11.395 71.01C11.955 70.26 12.235 69.415 12.235 68.475V67.995H9.505V67.335H15.625V67.995H13.015V68.475C13.015 68.945 13.1 69.39 13.27 69.81C13.44 70.22 13.665 70.61 13.945 70.98C14.225 71.34 14.545 71.67 14.905 71.97C15.275 72.27 15.66 72.535 16.06 72.765L15.67 73.35C14.93 72.94 14.295 72.46 13.765 71.91C13.245 71.35 12.875 70.76 12.655 70.14ZM18.85 73.92H18.07V70.305H15.385V69.6H18.07V66.72H18.85V73.92ZM24.8446 70.185C24.7746 70.415 24.6396 70.68 24.4396 70.98C24.2396 71.28 23.9946 71.585 23.7046 71.895C23.4146 72.195 23.0946 72.485 22.7446 72.765C22.3946 73.045 22.0346 73.28 21.6646 73.47L21.2896 72.9C21.7196 72.63 22.1246 72.34 22.5046 72.03C22.8946 71.72 23.2346 71.385 23.5246 71.025C23.8146 70.665 24.0396 70.285 24.1996 69.885C24.3696 69.475 24.4546 69.045 24.4546 68.595V67.065H25.2346V68.595C25.2346 69.035 25.3096 69.445 25.4596 69.825C25.6196 70.195 25.8346 70.545 26.1046 70.875C26.3746 71.205 26.6946 71.515 27.0646 71.805C27.4346 72.085 27.8296 72.355 28.2496 72.615L27.8746 73.185C27.5246 73.005 27.1846 72.795 26.8546 72.555C26.5246 72.305 26.2196 72.045 25.9396 71.775C25.6696 71.495 25.4346 71.22 25.2346 70.95C25.0446 70.67 24.9146 70.415 24.8446 70.185ZM30.9496 73.92H30.1696V69.96H27.3046V69.255H30.1696V66.72H30.9496V73.92ZM23.5396 76.95C23.5396 76.62 23.6046 76.305 23.7346 76.005C23.8646 75.695 24.0746 75.425 24.3646 75.195C24.6646 74.955 25.0546 74.765 25.5346 74.625C26.0146 74.485 26.6096 74.415 27.3196 74.415C28.0196 74.415 28.6096 74.485 29.0896 74.625C29.5796 74.765 29.9696 74.955 30.2596 75.195C30.5596 75.425 30.7746 75.695 30.9046 76.005C31.0346 76.305 31.0996 76.62 31.0996 76.95C31.0996 77.28 31.0346 77.6 30.9046 77.91C30.7746 78.21 30.5596 78.475 30.2596 78.705C29.9696 78.945 29.5796 79.135 29.0896 79.275C28.6096 79.415 28.0196 79.485 27.3196 79.485C26.6096 79.485 26.0146 79.415 25.5346 79.275C25.0546 79.135 24.6646 78.945 24.3646 78.705C24.0746 78.475 23.8646 78.21 23.7346 77.91C23.6046 77.6 23.5396 77.28 23.5396 76.95ZM30.3346 76.95C30.3346 76.67 30.2746 76.42 30.1546 76.2C30.0446 75.97 29.8646 75.775 29.6146 75.615C29.3746 75.445 29.0646 75.315 28.6846 75.225C28.3046 75.135 27.8496 75.09 27.3196 75.09C26.2496 75.09 25.4796 75.265 25.0096 75.615C24.5396 75.955 24.3046 76.4 24.3046 76.95C24.3046 77.23 24.3596 77.485 24.4696 77.715C24.5896 77.935 24.7696 78.125 25.0096 78.285C25.2596 78.455 25.5746 78.585 25.9546 78.675C26.3346 78.765 26.7896 78.81 27.3196 78.81C28.3796 78.81 29.1446 78.64 29.6146 78.3C30.0946 77.96 30.3346 77.51 30.3346 76.95ZM44.2942 76.83H33.2992V76.155H44.2942V76.83ZM38.7892 69.72C38.6692 70.02 38.4842 70.335 38.2342 70.665C37.9842 70.985 37.6792 71.3 37.3192 71.61C36.9592 71.91 36.5492 72.19 36.0892 72.45C35.6292 72.7 35.1292 72.91 34.5892 73.08L34.2742 72.465C34.9442 72.225 35.5342 71.94 36.0442 71.61C36.5642 71.28 36.9992 70.93 37.3492 70.56C37.6992 70.18 37.9592 69.795 38.1292 69.405C38.3092 69.015 38.3992 68.63 38.3992 68.25V67.185H39.1792V68.25C39.1792 68.62 39.2642 69.005 39.4342 69.405C39.6142 69.795 39.8792 70.18 40.2292 70.56C40.5792 70.93 41.0092 71.28 41.5192 71.61C42.0292 71.94 42.6242 72.225 43.3042 72.465L42.9892 73.08C42.4492 72.91 41.9492 72.7 41.4892 72.45C41.0292 72.19 40.6192 71.91 40.2592 71.61C39.8992 71.3 39.5942 70.985 39.3442 70.665C39.0942 70.335 38.9092 70.02 38.7892 69.72ZM47.8738 74.67H48.6388V76.215H54.3688V74.67H55.1488V79.26H48.4888C48.2588 79.26 48.0988 79.2 48.0088 79.08C47.9188 78.97 47.8738 78.8 47.8738 78.57V74.67ZM46.8088 70.5V72.375C46.8088 72.475 46.8188 72.535 46.8388 72.555C46.8688 72.575 46.9288 72.585 47.0188 72.585H49.1038C49.5838 72.585 50.0238 72.57 50.4238 72.54C50.8338 72.51 51.2488 72.42 51.6688 72.27L51.7588 72.855C51.3688 72.995 50.9588 73.095 50.5288 73.155C50.1088 73.215 49.5988 73.245 48.9988 73.245H46.6588C46.4288 73.245 46.2688 73.19 46.1788 73.08C46.0888 72.96 46.0438 72.785 46.0438 72.555V69.855H50.2138V67.935H46.0288V67.275H50.9788V70.5H46.8088ZM54.3688 78.615V76.86H48.6388V78.405C48.6388 78.505 48.6488 78.565 48.6688 78.585C48.6988 78.605 48.7588 78.615 48.8488 78.615H54.3688ZM55.1488 73.71H54.3688V70.395H52.0288V69.69H54.3688V66.72H55.1488V73.71ZM62.3284 70.53C62.3284 70.61 62.3234 70.69 62.3134 70.77C62.3134 70.85 62.3134 70.93 62.3134 71.01H64.6234V66.885H65.3884V78.84H64.6234V71.7H62.2384C62.1684 72.1 62.0484 72.48 61.8784 72.84C61.7184 73.2 61.4784 73.56 61.1584 73.92C60.8484 74.28 60.4534 74.65 59.9734 75.03C59.5034 75.41 58.9234 75.815 58.2334 76.245L57.8134 75.63C58.6034 75.13 59.2434 74.67 59.7334 74.25C60.2234 73.82 60.6034 73.41 60.8734 73.02C61.1434 72.63 61.3234 72.255 61.4134 71.895C61.5134 71.525 61.5634 71.145 61.5634 70.755V68.295H57.9184V67.62H62.3284V70.53ZM67.6234 79.26H66.8584V66.72H67.6234V79.26ZM79.2921 69.195C79.1521 69.465 78.9421 69.73 78.6621 69.99C78.3821 70.24 78.0521 70.48 77.6721 70.71C77.3021 70.93 76.8871 71.14 76.4271 71.34C75.9771 71.53 75.5071 71.69 75.0171 71.82L74.6871 71.235C75.2871 71.075 75.8421 70.88 76.3521 70.65C76.8721 70.41 77.3171 70.155 77.6871 69.885C78.0671 69.605 78.3621 69.32 78.5721 69.03C78.7921 68.73 78.9021 68.435 78.9021 68.145V67.71H75.5421V67.035H83.0421V67.71H79.6821V68.145C79.6821 68.455 79.7971 68.76 80.0271 69.06C80.2671 69.36 80.5821 69.645 80.9721 69.915C81.3621 70.175 81.8071 70.415 82.3071 70.635C82.8071 70.845 83.3221 71.01 83.8521 71.13L83.5671 71.73C83.1471 71.64 82.7121 71.51 82.2621 71.34C81.8121 71.16 81.3871 70.96 80.9871 70.74C80.5871 70.51 80.2321 70.265 79.9221 70.005C79.6221 69.735 79.4121 69.465 79.2921 69.195ZM79.1571 76.59V73.605H73.8021V72.93H84.7971V73.605H79.9221V76.59H79.1571ZM76.3671 78.285C76.3671 78.385 76.3771 78.445 76.3971 78.465C76.4271 78.485 76.4871 78.495 76.5771 78.495H83.2971V79.185H76.2171C75.9871 79.185 75.8271 79.125 75.7371 79.005C75.6471 78.895 75.6021 78.725 75.6021 78.495V75.285H76.3671V78.285ZM94.8718 66.72H95.6518V79.26H94.8718V66.72ZM86.6968 67.485H87.4618V70.98H91.4068V67.485H92.1718V75.735H87.3118C87.0818 75.735 86.9218 75.68 86.8318 75.57C86.7418 75.45 86.6968 75.275 86.6968 75.045V67.485ZM91.4068 75.075V71.64H87.4618V74.865C87.4618 74.965 87.4718 75.025 87.4918 75.045C87.5218 75.065 87.5818 75.075 87.6718 75.075H91.4068ZM105.036 69.195V69.87H98.0764V69.195H105.036ZM99.7264 67.005H103.536V67.695H99.7264V67.005ZM101.631 76.695C100.731 76.695 100.026 76.46 99.5164 75.99C99.0064 75.51 98.7514 74.79 98.7514 73.83C98.7514 72.87 99.0064 72.155 99.5164 71.685C100.026 71.205 100.731 70.965 101.631 70.965C102.531 70.965 103.236 71.205 103.746 71.685C104.256 72.155 104.511 72.87 104.511 73.83C104.511 74.79 104.256 75.51 103.746 75.99C103.236 76.46 102.531 76.695 101.631 76.695ZM101.631 76.035C102.281 76.035 102.791 75.86 103.161 75.51C103.541 75.16 103.731 74.6 103.731 73.83C103.731 73.06 103.541 72.5 103.161 72.15C102.791 71.8 102.281 71.625 101.631 71.625C100.981 71.625 100.466 71.8 100.086 72.15C99.7164 72.5 99.5314 73.06 99.5314 73.83C99.5314 74.6 99.7164 75.16 100.086 75.51C100.466 75.86 100.981 76.035 101.631 76.035ZM109.326 72.93H107.301V79.26H106.521V66.72H107.301V72.225H109.326V72.93ZM115.216 76.155H121.096V76.83H110.116V76.155H114.451V71.97H115.216V76.155ZM119.341 67.56V70.38C119.341 70.95 119.291 71.57 119.191 72.24C119.091 72.9 118.911 73.52 118.651 74.1L117.946 73.95C118.136 73.47 118.286 72.945 118.396 72.375C118.506 71.805 118.561 71.235 118.561 70.665V68.235H111.856V67.56H119.341ZM14.23 85.41H10.63V84.72H14.23V85.41ZM12.415 91.77C11.625 91.77 11 91.56 10.54 91.14C10.08 90.72 9.85 90.15 9.85 89.43C9.85 89.04 9.93 88.665 10.09 88.305C10.26 87.945 10.495 87.685 10.795 87.525H8.875V86.865H15.88V87.525H14.065C14.365 87.685 14.595 87.945 14.755 88.305C14.925 88.665 15.01 89.04 15.01 89.43C15.01 90.15 14.78 90.72 14.32 91.14C13.86 91.56 13.225 91.77 12.415 91.77ZM12.43 87.63C12.1 87.63 11.82 87.685 11.59 87.795C11.36 87.895 11.17 88.03 11.02 88.2C10.88 88.36 10.78 88.55 10.72 88.77C10.66 88.99 10.63 89.21 10.63 89.43C10.63 89.97 10.78 90.385 11.08 90.675C11.38 90.955 11.83 91.095 12.43 91.095C13.03 91.095 13.48 90.955 13.78 90.675C14.08 90.385 14.23 89.97 14.23 89.43C14.23 89.21 14.2 88.99 14.14 88.77C14.08 88.55 13.975 88.36 13.825 88.2C13.685 88.03 13.5 87.895 13.27 87.795C13.04 87.685 12.76 87.63 12.43 87.63ZM20.425 89.07H18.4V92.025H17.62V84.72H18.4V88.38H20.425V89.07ZM18.4 97.26H11.77C11.52 97.26 11.35 97.2 11.26 97.08C11.17 96.97 11.125 96.795 11.125 96.555V92.985H18.4V97.26ZM11.905 93.615V96.405C11.905 96.505 11.915 96.565 11.935 96.585C11.955 96.605 12.015 96.615 12.115 96.615H17.62V93.615H11.905ZM26.8996 85.635V88.77H28.6396V84.885H29.4046V96.84H28.6396V89.46H26.8696C26.8496 89.85 26.8046 90.225 26.7346 90.585C26.6746 90.945 26.5696 91.315 26.4196 91.695C26.2696 92.075 26.0596 92.475 25.7896 92.895C25.5196 93.315 25.1746 93.785 24.7546 94.305L24.1846 93.885C24.6246 93.335 24.9746 92.83 25.2346 92.37C25.4946 91.9 25.6896 91.45 25.8196 91.02C25.9596 90.59 26.0446 90.17 26.0746 89.76C26.1146 89.35 26.1346 88.925 26.1346 88.485V86.295H24.5746V85.635H26.8996ZM31.5196 97.26H30.7546V84.72H31.5196V97.26ZM24.0346 88.2C24.0346 88.69 24.0196 89.14 23.9896 89.55C23.9596 89.96 23.8746 90.375 23.7346 90.795C23.5946 91.215 23.3746 91.665 23.0746 92.145C22.7746 92.615 22.3546 93.155 21.8146 93.765L21.2596 93.33C21.6696 92.87 22.0046 92.445 22.2646 92.055C22.5246 91.665 22.7296 91.285 22.8796 90.915C23.0296 90.545 23.1296 90.18 23.1796 89.82C23.2396 89.45 23.2696 89.055 23.2696 88.635V86.295H21.5146V85.635H24.0346V88.2ZM43.5783 88.53C43.5783 89.14 43.4983 89.69 43.3383 90.18C43.1783 90.66 42.9033 91.115 42.5133 91.545C42.1333 91.975 41.6183 92.395 40.9683 92.805C40.3283 93.205 39.5283 93.63 38.5683 94.08L38.2233 93.465C38.9733 93.105 39.6183 92.765 40.1583 92.445C40.6983 92.125 41.1483 91.81 41.5083 91.5C41.8683 91.18 42.1433 90.86 42.3333 90.54C42.5333 90.22 42.6683 89.88 42.7383 89.52H38.1633V88.86H42.8133V86.235H38.2983V85.56H43.5783V88.53ZM47.2533 97.275H46.4733V84.72H47.2533V97.275ZM59.6529 97.26H58.8729V94.245H55.8879V93.555H58.8729V91.605C58.6229 91.725 58.3529 91.825 58.0629 91.905C57.7829 91.985 57.4979 92.055 57.2079 92.115C56.9279 92.165 56.6529 92.2 56.3829 92.22C56.1229 92.24 55.8829 92.25 55.6629 92.25H54.0879V96.9H53.3079V92.25H49.7529V91.575H55.4379C56.0079 91.575 56.5779 91.535 57.1479 91.455C57.7279 91.375 58.3029 91.22 58.8729 90.99V84.72H59.6529V97.26ZM53.8179 90.135C53.2779 90.135 52.8079 90.075 52.4079 89.955C52.0079 89.825 51.6729 89.645 51.4029 89.415C51.1429 89.185 50.9479 88.915 50.8179 88.605C50.6979 88.285 50.6379 87.935 50.6379 87.555C50.6379 87.175 50.6979 86.83 50.8179 86.52C50.9479 86.2 51.1429 85.925 51.4029 85.695C51.6729 85.465 52.0079 85.29 52.4079 85.17C52.8079 85.04 53.2779 84.975 53.8179 84.975C54.3579 84.975 54.8279 85.04 55.2279 85.17C55.6279 85.29 55.9579 85.465 56.2179 85.695C56.4879 85.925 56.6829 86.2 56.8029 86.52C56.9329 86.83 56.9979 87.175 56.9979 87.555C56.9979 87.935 56.9329 88.285 56.8029 88.605C56.6829 88.915 56.4879 89.185 56.2179 89.415C55.9579 89.645 55.6279 89.825 55.2279 89.955C54.8279 90.075 54.3579 90.135 53.8179 90.135ZM53.8179 89.46C54.5579 89.46 55.1429 89.32 55.5729 89.04C56.0029 88.76 56.2179 88.265 56.2179 87.555C56.2179 86.855 56.0029 86.365 55.5729 86.085C55.1429 85.795 54.5579 85.65 53.8179 85.65C53.0779 85.65 52.4929 85.795 52.0629 86.085C51.6329 86.365 51.4179 86.855 51.4179 87.555C51.4179 88.265 51.6329 88.76 52.0629 89.04C52.4929 89.32 53.0779 89.46 53.8179 89.46ZM73.0275 89.655H71.0025V97.26H70.2225V84.72H71.0025V88.95H73.0275V89.655ZM67.5675 88.53C67.5675 89.16 67.4825 89.715 67.3125 90.195C67.1425 90.675 66.8575 91.12 66.4575 91.53C66.0675 91.94 65.5525 92.345 64.9125 92.745C64.2725 93.145 63.4875 93.585 62.5575 94.065L62.1825 93.42C63.1125 92.95 63.8725 92.52 64.4625 92.13C65.0625 91.74 65.5325 91.365 65.8725 91.005C66.2225 90.635 66.4625 90.26 66.5925 89.88C66.7225 89.5 66.7875 89.085 66.7875 88.635V86.235H62.2875V85.56H67.5675V88.53ZM83.0421 89.46H76.3221C76.0921 89.46 75.9321 89.405 75.8421 89.295C75.7521 89.175 75.7071 89 75.7071 88.77V84.96H76.4871V88.59C76.4871 88.69 76.4971 88.75 76.5171 88.77C76.5471 88.79 76.6071 88.8 76.6971 88.8H83.0421V89.46ZM83.2971 96.495V97.185H76.2171C75.9871 97.185 75.8271 97.125 75.7371 97.005C75.6471 96.895 75.6021 96.725 75.6021 96.495V93.345H76.3671V96.285C76.3671 96.385 76.3771 96.445 76.3971 96.465C76.4271 96.485 76.4871 96.495 76.5771 96.495H83.2971ZM84.7971 91.275V91.95H73.8021V91.275H84.7971ZM93.4359 90.96C92.8759 90.96 92.4009 90.885 92.0109 90.735C91.6309 90.585 91.3159 90.38 91.0659 90.12C90.8159 89.85 90.6359 89.535 90.5259 89.175C90.4159 88.805 90.3609 88.41 90.3609 87.99C90.3609 87.57 90.4159 87.18 90.5259 86.82C90.6359 86.45 90.8159 86.135 91.0659 85.875C91.3159 85.605 91.6309 85.395 92.0109 85.245C92.4009 85.095 92.8759 85.02 93.4359 85.02C93.9159 85.02 94.3359 85.08 94.6959 85.2C95.0559 85.31 95.3559 85.47 95.5959 85.68C95.8459 85.89 96.0409 86.14 96.1809 86.43C96.3209 86.72 96.4159 87.035 96.4659 87.375H99.0759V84.72H99.8559V91.65H99.0759V88.08H96.5109C96.5009 88.49 96.4359 88.875 96.3159 89.235C96.2059 89.585 96.0259 89.89 95.7759 90.15C95.5259 90.4 95.2059 90.6 94.8159 90.75C94.4359 90.89 93.9759 90.96 93.4359 90.96ZM99.8559 97.26H93.0459C92.8159 97.26 92.6559 97.2 92.5659 97.08C92.4759 96.97 92.4309 96.8 92.4309 96.57V92.61H99.8559V97.26ZM99.0909 96.615V93.24H93.1959V96.405C93.1959 96.505 93.2059 96.565 93.2259 96.585C93.2559 96.605 93.3159 96.615 93.4059 96.615H99.0909ZM93.4359 90.285C94.1359 90.285 94.6909 90.1 95.1009 89.73C95.5209 89.35 95.7309 88.77 95.7309 87.99C95.7309 87.21 95.5209 86.635 95.1009 86.265C94.6909 85.885 94.1359 85.695 93.4359 85.695C92.7359 85.695 92.1759 85.885 91.7559 86.265C91.3459 86.635 91.1409 87.21 91.1409 87.99C91.1409 88.77 91.3459 89.35 91.7559 89.73C92.1759 90.1 92.7359 90.285 93.4359 90.285ZM113.53 89.73H111.505V97.26H110.725V84.72H111.505V89.025H113.53V89.73ZM108.145 93.735H103.285C103.055 93.735 102.895 93.68 102.805 93.57C102.715 93.45 102.67 93.275 102.67 93.045V85.56H108.145V93.735ZM107.365 93.06V86.235H103.435V92.85C103.435 92.95 103.445 93.01 103.465 93.03C103.495 93.05 103.555 93.06 103.645 93.06H107.365Z" fill="#282828"/>
</svg>
