<svg width="204" height="102" viewBox="0 0 204 102" fill="none" xmlns="http://www.w3.org/2000/svg">
<path d="M13.468 14.168V20H10.3V3.872H16.324C18.26 3.872 19.724 4.296 20.716 5.144C21.724 5.992 22.228 7.288 22.228 9.032C22.228 10.76 21.724 12.048 20.716 12.896C19.724 13.744 18.26 14.168 16.324 14.168H13.468ZM13.468 6.44V11.6H16.276C17.14 11.6 17.82 11.392 18.316 10.976C18.812 10.544 19.06 9.896 19.06 9.032C19.06 8.168 18.812 7.52 18.316 7.088C17.82 6.656 17.14 6.44 16.276 6.44H13.468ZM28.0696 20H24.9016V3.872H35.1496V6.44H28.0696V10.304H34.6456V12.872H28.0696V20ZM38.1734 3.872H41.3414V20H38.1734V3.872ZM56.0464 17.432V20H45.1984V3.872H55.8064V6.44H48.3664V10.328H55.5424V12.848H48.3664V17.432H56.0464Z" fill="#FF4646"/>
<rect opacity="0.5" x="8.5" y="84" width="52" height="12" fill="#F7FF5E"/>
<path d="M1.5 6V99.5" stroke="#FF4646" stroke-width="3"/>
<path d="M22.52 39.2H21V34.48H17.46V33.18H21V29.88H22.52V39.2ZM13.5 46.76C13.14 46.76 12.88 46.6733 12.72 46.5C12.56 46.34 12.48 46.0667 12.48 45.68V40.4H22.52V46.76H13.5ZM20.98 41.62H13.98V45.26C13.98 45.3667 14 45.44 14.04 45.48C14.08 45.52 14.16 45.54 14.28 45.54H20.98V41.62ZM14.16 34.92C14.0267 35.32 13.82 35.7067 13.54 36.08C13.2733 36.4533 12.96 36.8133 12.6 37.16C12.24 37.4933 11.84 37.8133 11.4 38.12C10.96 38.4133 10.5133 38.6867 10.06 38.94L9.3 37.8C10.6467 37.08 11.66 36.2533 12.34 35.32C13.02 34.3733 13.36 33.3933 13.36 32.38V30.34H14.96V32.38C14.96 32.9133 15.0333 33.4067 15.18 33.86C15.34 34.3 15.58 34.7267 15.9 35.14C16.2333 35.54 16.6467 35.9333 17.14 36.32C17.6467 36.6933 18.2467 37.0733 18.94 37.46L18.14 38.58C17.74 38.3667 17.34 38.12 16.94 37.84C16.54 37.56 16.16 37.2667 15.8 36.96C15.44 36.64 15.1133 36.3133 14.82 35.98C14.54 35.6333 14.32 35.28 14.16 34.92ZM32.0695 35.02H34.9295V30.1H36.3495V46.2H34.9295V36.32H32.0695V35.02ZM39.3095 29.88V46.76H37.8495V29.88H39.3095ZM29.4895 37.98C29.4229 38.2867 29.2762 38.6333 29.0495 39.02C28.8229 39.4067 28.5495 39.8 28.2295 40.2C27.9229 40.6 27.5829 40.9933 27.2095 41.38C26.8495 41.7533 26.4895 42.0733 26.1295 42.34L25.2695 41.28C25.7362 40.9067 26.1762 40.4867 26.5895 40.02C27.0029 39.5533 27.3629 39.06 27.6695 38.54C27.9895 38.0067 28.2362 37.46 28.4095 36.9C28.5962 36.3267 28.6895 35.7533 28.6895 35.18V30.78H30.2095V35.18C30.2095 35.7667 30.2895 36.32 30.4495 36.84C30.6229 37.3467 30.8629 37.84 31.1695 38.32C31.4762 38.7867 31.8429 39.24 32.2695 39.68C32.6962 40.12 33.1695 40.5533 33.6895 40.98L32.7695 42.08C32.4495 41.8267 32.1162 41.54 31.7695 41.22C31.4362 40.9 31.1162 40.56 30.8095 40.2C30.5162 39.84 30.2495 39.4733 30.0095 39.1C29.7829 38.7133 29.6095 38.34 29.4895 37.98ZM45.5391 46.66C44.8057 46.66 44.4391 46.3067 44.4391 45.6V41.66H45.9391V45.02C45.9391 45.1933 45.9591 45.2933 45.9991 45.32C46.0391 45.36 46.1391 45.38 46.2991 45.38H54.8791V46.66H45.5391ZM54.4791 35.08H57.0591V36.4H54.4791V42.66H52.9391V29.88H54.4791V35.08ZM43.8191 31.46V30.08H48.6791V31.46H43.8191ZM46.2591 40.06C45.6591 40.06 45.1324 39.9733 44.6791 39.8C44.2257 39.6267 43.8457 39.3867 43.5391 39.08C43.2457 38.76 43.0257 38.3867 42.8791 37.96C42.7324 37.52 42.6591 37.0467 42.6591 36.54C42.6591 36.3267 42.6791 36.1067 42.7191 35.88C42.7591 35.64 42.8124 35.4133 42.8791 35.2C42.9591 34.9733 43.0524 34.7667 43.1591 34.58C43.2657 34.3933 43.3857 34.2467 43.5191 34.14H41.5391V32.86H50.8791V34.14H48.9591C49.0924 34.2467 49.2124 34.3933 49.3191 34.58C49.4257 34.7667 49.5124 34.9733 49.5791 35.2C49.6591 35.4133 49.7191 35.64 49.7591 35.88C49.7991 36.1067 49.8191 36.3267 49.8191 36.54C49.8191 37.0467 49.7457 37.52 49.5991 37.96C49.4524 38.3867 49.2257 38.76 48.9191 39.08C48.6257 39.3867 48.2524 39.6267 47.7991 39.8C47.3591 39.9733 46.8457 40.06 46.2591 40.06ZM46.2391 38.86C46.9191 38.86 47.4457 38.6667 47.8191 38.28C48.1924 37.88 48.3791 37.3 48.3791 36.54C48.3791 35.7267 48.1924 35.12 47.8191 34.72C47.4457 34.32 46.9191 34.12 46.2391 34.12C45.5591 34.12 45.0324 34.32 44.6591 34.72C44.2857 35.12 44.0991 35.7267 44.0991 36.54C44.0991 37.3 44.2857 37.88 44.6591 38.28C45.0324 38.6667 45.5591 38.86 46.2391 38.86ZM76.9341 39.44V43.68H68.3941V45.46C68.3941 45.5667 68.4074 45.6333 68.4341 45.66C68.4741 45.7 68.5407 45.72 68.6341 45.72H77.5141V46.96H67.9141C67.5274 46.96 67.2607 46.8733 67.1141 46.7C66.9674 46.5267 66.8941 46.26 66.8941 45.9V42.46H75.4141V40.66H66.9541V39.44H76.9341ZM75.4141 29.88H76.9341V38.24H75.4141V29.88ZM68.7741 34.52C68.6407 34.92 68.4341 35.3 68.1541 35.66C67.8874 36.02 67.5741 36.3667 67.2141 36.7C66.8541 37.0333 66.4541 37.3467 66.0141 37.64C65.5741 37.92 65.1274 38.1867 64.6741 38.44L63.9141 37.3C66.6207 35.86 67.9741 34.12 67.9741 32.08V30.14H69.5741V32.08C69.5741 32.56 69.6474 33.0133 69.7941 33.44C69.9541 33.8667 70.1941 34.28 70.5141 34.68C70.8474 35.0667 71.2607 35.4467 71.7541 35.82C72.2607 36.1933 72.8607 36.5733 73.5541 36.96L72.7541 38.08C72.3541 37.8667 71.9541 37.6267 71.5541 37.36C71.1541 37.0933 70.7741 36.8133 70.4141 36.52C70.0541 36.2133 69.7274 35.8933 69.4341 35.56C69.1541 35.2267 68.9341 34.88 68.7741 34.52ZM81.9436 41.16H92.4836V46.96H90.9836V42.44H81.9436V41.16ZM88.0836 35.68V38.24H94.7236V39.54H79.9036V38.24H86.5836V35.68H88.0836ZM87.2836 33.02C87.0169 33.4467 86.6836 33.8467 86.2836 34.22C85.8836 34.58 85.4369 34.9067 84.9436 35.2C84.4636 35.48 83.9369 35.7333 83.3636 35.96C82.8036 36.1733 82.2303 36.34 81.6436 36.46L80.9636 35.34C81.7769 35.1267 82.5169 34.86 83.1836 34.54C83.8636 34.2067 84.4436 33.8533 84.9236 33.48C85.4169 33.0933 85.7969 32.6933 86.0636 32.28C86.3303 31.8533 86.4636 31.4333 86.4636 31.02V30H88.0636V31.02C88.0636 31.4467 88.1903 31.8667 88.4436 32.28C88.7103 32.68 89.0836 33.06 89.5636 33.42C90.0436 33.78 90.6169 34.1133 91.2836 34.42C91.9503 34.7267 92.6903 34.9867 93.5036 35.2L92.8836 36.36C92.3369 36.24 91.7769 36.0733 91.2036 35.86C90.6303 35.6467 90.0903 35.3933 89.5836 35.1C89.0769 34.8067 88.6169 34.4867 88.2036 34.14C87.8036 33.78 87.4969 33.4067 87.2836 33.02ZM99.8731 46.76C99.5131 46.76 99.2531 46.6733 99.0931 46.5C98.9331 46.34 98.8531 46.0667 98.8531 45.68V40.4H108.893V46.76H99.8731ZM107.353 41.62H100.353V45.26C100.353 45.3667 100.373 45.44 100.413 45.48C100.453 45.52 100.533 45.54 100.653 45.54H107.353V41.62ZM108.893 33.68H111.473V35H108.893V39.2H107.353V29.88H108.893V33.68ZM104.353 30.7V37.96H97.6731C97.3131 37.96 97.0531 37.88 96.8931 37.72C96.7331 37.56 96.6531 37.2667 96.6531 36.84V30.7H104.353ZM98.1531 36.46C98.1531 36.5667 98.1665 36.64 98.1931 36.68C98.2331 36.72 98.3065 36.74 98.4131 36.74H102.873V31.92H98.1531V36.46Z" fill="#FF4646"/>
<path d="M13.93 70.53C13.93 71.09 13.875 71.605 13.765 72.075C13.655 72.535 13.45 72.985 13.15 73.425C12.85 73.865 12.43 74.31 11.89 74.76C11.36 75.21 10.675 75.705 9.835 76.245L9.415 75.63C10.205 75.13 10.845 74.67 11.335 74.25C11.825 73.82 12.205 73.41 12.475 73.02C12.745 72.63 12.925 72.255 13.015 71.895C13.115 71.525 13.165 71.145 13.165 70.755V68.295H9.52V67.62H13.93V69.51H16.225V66.885H16.99V78.84H16.225V73.695H13.705V73.005H16.225V70.2H13.93V70.53ZM19.225 79.26H18.46V66.72H19.225V79.26ZM26.9896 73.74C27.6196 73.74 28.2246 73.7 28.8046 73.62C29.3946 73.54 29.9496 73.365 30.4696 73.095V66.72H31.2496V74.82H30.4696V73.665C30.2396 73.815 29.9846 73.94 29.7046 74.04C29.4346 74.13 29.1496 74.205 28.8496 74.265C28.5496 74.315 28.2496 74.35 27.9496 74.37C27.6496 74.39 27.3596 74.4 27.0796 74.4H21.3496V73.74H25.2046V72.705C24.4046 72.655 23.8146 72.455 23.4346 72.105C23.0646 71.755 22.8796 71.295 22.8796 70.725C22.8796 70.405 22.9496 70.115 23.0896 69.855C23.2396 69.595 23.4446 69.38 23.7046 69.21H21.9196V68.55H29.0896V69.21H27.3046C27.5646 69.38 27.7646 69.595 27.9046 69.855C28.0546 70.115 28.1296 70.405 28.1296 70.725C28.1296 71.275 27.9546 71.725 27.6046 72.075C27.2546 72.415 26.7096 72.62 25.9696 72.69V73.74H26.9896ZM25.5046 69.33C24.8946 69.33 24.4246 69.455 24.0946 69.705C23.7646 69.955 23.5996 70.295 23.5996 70.725C23.5996 71.215 23.7646 71.57 24.0946 71.79C24.4246 72 24.8946 72.105 25.5046 72.105C26.1146 72.105 26.5846 72 26.9146 71.79C27.2446 71.57 27.4096 71.215 27.4096 70.725C27.4096 70.295 27.2446 69.955 26.9146 69.705C26.5846 69.455 26.1146 69.33 25.5046 69.33ZM31.2496 79.41H30.4696V76.275H23.5246V75.615H31.2496V79.41ZM27.4696 67.56H23.5396V66.855H27.4696V67.56ZM33.2992 73.845V73.17H44.2942V73.845H33.2992ZM38.7892 71.895C38.1392 71.895 37.5742 71.83 37.0942 71.7C36.6142 71.56 36.2142 71.38 35.8942 71.16C35.5842 70.93 35.3492 70.665 35.1892 70.365C35.0392 70.055 34.9642 69.725 34.9642 69.375C34.9642 69.035 35.0392 68.71 35.1892 68.4C35.3492 68.09 35.5842 67.825 35.8942 67.605C36.2142 67.375 36.6142 67.195 37.0942 67.065C37.5742 66.925 38.1392 66.855 38.7892 66.855C39.4392 66.855 40.0042 66.925 40.4842 67.065C40.9642 67.195 41.3592 67.375 41.6692 67.605C41.9892 67.825 42.2242 68.09 42.3742 68.4C42.5342 68.71 42.6142 69.035 42.6142 69.375C42.6142 69.725 42.5342 70.055 42.3742 70.365C42.2242 70.665 41.9892 70.93 41.6692 71.16C41.3592 71.38 40.9642 71.56 40.4842 71.7C40.0042 71.83 39.4392 71.895 38.7892 71.895ZM38.7892 71.22C39.3392 71.22 39.8042 71.175 40.1842 71.085C40.5742 70.995 40.8892 70.87 41.1292 70.71C41.3792 70.54 41.5592 70.345 41.6692 70.125C41.7792 69.895 41.8342 69.645 41.8342 69.375C41.8342 69.105 41.7792 68.86 41.6692 68.64C41.5592 68.41 41.3792 68.215 41.1292 68.055C40.8892 67.885 40.5742 67.755 40.1842 67.665C39.8042 67.575 39.3392 67.53 38.7892 67.53C38.2392 67.53 37.7692 67.575 37.3792 67.665C36.9992 67.755 36.6842 67.885 36.4342 68.055C36.1942 68.215 36.0192 68.41 35.9092 68.64C35.7992 68.86 35.7442 69.105 35.7442 69.375C35.7442 69.645 35.7992 69.895 35.9092 70.125C36.0192 70.345 36.1942 70.54 36.4342 70.71C36.6842 70.87 36.9992 70.995 37.3792 71.085C37.7692 71.175 38.2392 71.22 38.7892 71.22ZM35.8642 78.285C35.8642 78.385 35.8742 78.445 35.8942 78.465C35.9242 78.485 35.9842 78.495 36.0742 78.495H42.7942V79.185H35.7142C35.4842 79.185 35.3242 79.125 35.2342 79.005C35.1442 78.895 35.0992 78.725 35.0992 78.495V75.375H35.8642V78.285ZM54.4779 70.635H56.7879V66.885H57.5379V78.84H56.7879V71.325H54.4779V70.635ZM59.7279 79.26H58.9779V66.72H59.7279V79.26ZM52.6029 72.06C52.4129 72.71 52.1029 73.355 51.6729 73.995C51.2529 74.635 50.6829 75.255 49.9629 75.855L49.5279 75.315C50.3579 74.615 51.0129 73.825 51.4929 72.945C51.9729 72.065 52.2129 71.085 52.2129 70.005V67.395H52.9929V70.005C52.9929 70.565 53.0579 71.08 53.1879 71.55C53.3279 72.02 53.5179 72.46 53.7579 72.87C53.9979 73.28 54.2779 73.66 54.5979 74.01C54.9179 74.36 55.2629 74.69 55.6329 75L55.1679 75.555C54.8879 75.335 54.6129 75.09 54.3429 74.82C54.0829 74.54 53.8379 74.25 53.6079 73.95C53.3879 73.64 53.1879 73.325 53.0079 73.005C52.8379 72.685 52.7029 72.37 52.6029 72.06ZM72.6975 74.715H67.5825V79.26H66.8175V74.715H61.7025V74.055H72.6975V74.715ZM67.1925 72.675C65.9425 72.675 64.9775 72.405 64.2975 71.865C63.6275 71.325 63.2925 70.61 63.2925 69.72C63.2925 69.29 63.3775 68.895 63.5475 68.535C63.7275 68.175 63.9825 67.865 64.3125 67.605C64.6425 67.345 65.0475 67.145 65.5275 67.005C66.0175 66.865 66.5725 66.795 67.1925 66.795C67.8125 66.795 68.3625 66.865 68.8425 67.005C69.3325 67.145 69.7425 67.345 70.0725 67.605C70.4025 67.865 70.6525 68.175 70.8225 68.535C71.0025 68.895 71.0925 69.29 71.0925 69.72C71.0925 70.61 70.7525 71.325 70.0725 71.865C69.4025 72.405 68.4425 72.675 67.1925 72.675ZM67.1925 72C68.1825 72 68.9525 71.805 69.5025 71.415C70.0525 71.015 70.3275 70.455 70.3275 69.735C70.3275 69.015 70.0525 68.46 69.5025 68.07C68.9525 67.67 68.1825 67.47 67.1925 67.47C66.2025 67.47 65.4325 67.67 64.8825 68.07C64.3325 68.46 64.0575 69.015 64.0575 69.735C64.0575 70.455 64.3325 71.015 64.8825 71.415C65.4325 71.805 66.2025 72 67.1925 72ZM81.0021 72.09V72.765H78.5121V75.765H79.5771C80.2171 75.765 80.8271 75.725 81.4071 75.645C81.9971 75.565 82.5521 75.385 83.0721 75.105V66.72H83.8521V79.26H83.0721V75.705C82.6021 75.985 82.0571 76.18 81.4371 76.29C80.8171 76.39 80.2271 76.44 79.6671 76.44H73.9521V75.765H77.7471V72.765H75.7371C75.5071 72.765 75.3471 72.71 75.2571 72.6C75.1671 72.48 75.1221 72.305 75.1221 72.075V67.41H80.7771V68.1H75.9021V71.88C75.9021 71.98 75.9121 72.04 75.9321 72.06C75.9621 72.08 76.0221 72.09 76.1121 72.09H81.0021ZM99.4059 71.88V79.26H98.6259V66.72H99.4059V71.25H101.431V71.88H99.4059ZM93.3009 68.01C92.5709 68.01 92.0109 68.3 91.6209 68.88C91.2309 69.45 91.0359 70.39 91.0359 71.7C91.0359 73.01 91.2309 73.955 91.6209 74.535C92.0109 75.105 92.5709 75.39 93.3009 75.39C94.0309 75.39 94.5909 75.105 94.9809 74.535C95.3709 73.955 95.5659 73.01 95.5659 71.7C95.5659 70.39 95.3709 69.45 94.9809 68.88C94.5909 68.3 94.0309 68.01 93.3009 68.01ZM93.3009 76.065C92.8209 76.065 92.3909 75.985 92.0109 75.825C91.6309 75.655 91.3109 75.395 91.0509 75.045C90.7909 74.685 90.5909 74.23 90.4509 73.68C90.3109 73.13 90.2409 72.47 90.2409 71.7C90.2409 70.93 90.3109 70.27 90.4509 69.72C90.5909 69.17 90.7909 68.72 91.0509 68.37C91.3109 68.01 91.6309 67.75 92.0109 67.59C92.3909 67.42 92.8209 67.335 93.3009 67.335C93.7809 67.335 94.2109 67.42 94.5909 67.59C94.9709 67.75 95.2909 68.01 95.5509 68.37C95.8109 68.72 96.0109 69.17 96.1509 69.72C96.2909 70.27 96.3609 70.93 96.3609 71.7C96.3609 72.47 96.2909 73.13 96.1509 73.68C96.0109 74.23 95.8109 74.685 95.5509 75.045C95.2909 75.395 94.9709 75.655 94.5909 75.825C94.2109 75.985 93.7809 76.065 93.3009 76.065ZM111.175 66.72H111.955V79.245H111.175V66.72ZM105.715 68.01C104.985 68.01 104.435 68.3 104.065 68.88C103.705 69.45 103.525 70.39 103.525 71.7C103.525 73.01 103.705 73.955 104.065 74.535C104.435 75.105 104.985 75.39 105.715 75.39C106.445 75.39 106.99 75.105 107.35 74.535C107.72 73.955 107.905 73.01 107.905 71.7C107.905 70.39 107.72 69.45 107.35 68.88C106.99 68.3 106.445 68.01 105.715 68.01ZM105.715 76.065C104.755 76.065 104.015 75.725 103.495 75.045C102.985 74.355 102.73 73.24 102.73 71.7C102.73 70.16 102.985 69.05 103.495 68.37C104.015 67.68 104.755 67.335 105.715 67.335C106.675 67.335 107.41 67.68 107.92 68.37C108.44 69.05 108.7 70.16 108.7 71.7C108.7 73.24 108.44 74.355 107.92 75.045C107.41 75.725 106.675 76.065 105.715 76.065ZM118.37 73.17C117.83 73.17 117.37 73.095 116.99 72.945C116.61 72.785 116.295 72.57 116.045 72.3C115.805 72.02 115.625 71.695 115.505 71.325C115.395 70.955 115.34 70.55 115.34 70.11C115.34 69.68 115.395 69.28 115.505 68.91C115.625 68.53 115.805 68.205 116.045 67.935C116.295 67.655 116.61 67.44 116.99 67.29C117.37 67.13 117.83 67.05 118.37 67.05C118.91 67.05 119.37 67.13 119.75 67.29C120.13 67.44 120.44 67.655 120.68 67.935C120.93 68.205 121.11 68.53 121.22 68.91C121.34 69.28 121.4 69.68 121.4 70.11C121.4 70.55 121.34 70.955 121.22 71.325C121.11 71.695 120.93 72.02 120.68 72.3C120.44 72.57 120.13 72.785 119.75 72.945C119.37 73.095 118.91 73.17 118.37 73.17ZM118.37 72.555C119.11 72.555 119.67 72.35 120.05 71.94C120.43 71.52 120.62 70.91 120.62 70.11C120.62 69.31 120.43 68.705 120.05 68.295C119.67 67.875 119.11 67.665 118.37 67.665C117.63 67.665 117.07 67.875 116.69 68.295C116.31 68.705 116.12 69.31 116.12 70.11C116.12 70.91 116.31 71.52 116.69 71.94C117.07 72.35 117.63 72.555 118.37 72.555ZM120.08 75.39C120.72 75.39 121.35 75.345 121.97 75.255C122.59 75.155 123.125 75.005 123.575 74.805V66.72H124.355V79.26H123.575V75.405C123.085 75.655 122.535 75.83 121.925 75.93C121.315 76.02 120.73 76.065 120.17 76.065H114.455V75.39H120.08ZM141.934 70.35H139.909V73.92H139.129V66.72H139.909V69.66H141.934V70.35ZM134.134 70.17C134.064 70.4 133.929 70.665 133.729 70.965C133.529 71.265 133.284 71.57 132.994 71.88C132.704 72.19 132.384 72.485 132.034 72.765C131.684 73.045 131.324 73.28 130.954 73.47L130.579 72.9C131.009 72.63 131.414 72.34 131.794 72.03C132.184 71.71 132.524 71.37 132.814 71.01C133.104 70.65 133.329 70.265 133.489 69.855C133.659 69.445 133.744 69.015 133.744 68.565V67.065H134.524V68.565C134.524 69.005 134.599 69.415 134.749 69.795C134.909 70.175 135.124 70.53 135.394 70.86C135.664 71.19 135.984 71.5 136.354 71.79C136.724 72.08 137.119 72.355 137.539 72.615L137.164 73.185C136.814 73.005 136.474 72.79 136.144 72.54C135.814 72.29 135.509 72.03 135.229 71.76C134.959 71.48 134.724 71.205 134.524 70.935C134.334 70.655 134.204 70.4 134.134 70.17ZM132.499 76.95C132.499 76.62 132.564 76.305 132.694 76.005C132.824 75.695 133.034 75.425 133.324 75.195C133.624 74.955 134.014 74.765 134.494 74.625C134.974 74.485 135.569 74.415 136.279 74.415C136.979 74.415 137.569 74.485 138.049 74.625C138.539 74.765 138.929 74.955 139.219 75.195C139.519 75.425 139.734 75.695 139.864 76.005C139.994 76.305 140.059 76.62 140.059 76.95C140.059 77.28 139.994 77.6 139.864 77.91C139.734 78.21 139.519 78.475 139.219 78.705C138.929 78.945 138.539 79.135 138.049 79.275C137.569 79.415 136.979 79.485 136.279 79.485C135.569 79.485 134.974 79.415 134.494 79.275C134.014 79.135 133.624 78.945 133.324 78.705C133.034 78.475 132.824 78.21 132.694 77.91C132.564 77.6 132.499 77.28 132.499 76.95ZM139.294 76.95C139.294 76.67 139.234 76.42 139.114 76.2C139.004 75.97 138.824 75.775 138.574 75.615C138.334 75.445 138.024 75.315 137.644 75.225C137.264 75.135 136.809 75.09 136.279 75.09C135.209 75.09 134.439 75.265 133.969 75.615C133.499 75.955 133.264 76.4 133.264 76.95C133.264 77.23 133.319 77.485 133.429 77.715C133.549 77.935 133.729 78.125 133.969 78.285C134.219 78.455 134.534 78.585 134.914 78.675C135.294 78.765 135.749 78.81 136.279 78.81C137.339 78.81 138.104 78.64 138.574 78.3C139.054 77.96 139.294 77.51 139.294 76.95ZM147.613 71.91H144.043V74.97C144.043 75.07 144.053 75.13 144.073 75.15C144.103 75.17 144.163 75.18 144.253 75.18H147.013C147.553 75.18 148.018 75.135 148.408 75.045C148.798 74.945 149.153 74.81 149.473 74.64V66.885H150.208V71.13H152.083V66.72H152.833V79.26H152.083V71.835H150.208V78.84H149.473V75.255C149.163 75.425 148.793 75.565 148.363 75.675C147.943 75.785 147.433 75.84 146.833 75.84H143.893C143.663 75.84 143.503 75.785 143.413 75.675C143.323 75.555 143.278 75.38 143.278 75.15V67.5H147.763V68.175H144.043V71.25H147.613V71.91ZM164.078 77.175H157.298V78.555C157.298 78.635 157.303 78.685 157.313 78.705C157.333 78.725 157.378 78.735 157.448 78.735H164.378V79.41H157.148C156.938 79.41 156.783 79.365 156.683 79.275C156.583 79.185 156.533 79.015 156.533 78.765V76.515H163.313V75.21H156.578V74.55H164.078V77.175ZM164.258 70.8V71.475H157.253C157.023 71.475 156.863 71.42 156.773 71.31C156.683 71.19 156.638 71.015 156.638 70.785V68.805H163.193V67.53H156.683V66.84H163.958V69.45H157.403V70.59C157.403 70.69 157.413 70.75 157.433 70.77C157.463 70.79 157.523 70.8 157.613 70.8H164.258ZM165.803 73.335H154.808V72.66H165.803V73.335ZM18.85 91.65H18.07V87.96H15.205V87.255H18.07V84.72H18.85V91.65ZM12.745 88.185C12.675 88.415 12.54 88.68 12.34 88.98C12.14 89.28 11.895 89.585 11.605 89.895C11.315 90.195 10.995 90.485 10.645 90.765C10.295 91.045 9.935 91.28 9.565 91.47L9.19 90.9C9.62 90.63 10.025 90.34 10.405 90.03C10.795 89.71 11.135 89.37 11.425 89.01C11.715 88.65 11.94 88.265 12.1 87.855C12.27 87.445 12.355 87.015 12.355 86.565V85.065H13.135V86.595C13.135 87.035 13.21 87.445 13.36 87.825C13.52 88.195 13.735 88.545 14.005 88.875C14.275 89.205 14.595 89.515 14.965 89.805C15.335 90.085 15.73 90.355 16.15 90.615L15.775 91.185C15.425 91.005 15.085 90.795 14.755 90.555C14.425 90.305 14.12 90.045 13.84 89.775C13.57 89.495 13.335 89.22 13.135 88.95C12.945 88.67 12.815 88.415 12.745 88.185ZM18.85 97.26H12.19C11.96 97.26 11.8 97.2 11.71 97.08C11.62 96.97 11.575 96.8 11.575 96.57V92.61H18.85V97.26ZM18.085 96.615V93.24H12.34V96.405C12.34 96.505 12.35 96.565 12.37 96.585C12.4 96.605 12.46 96.615 12.55 96.615H18.085ZM26.0746 88.635H28.3846V84.885H29.1346V96.84H28.3846V89.325H26.0746V88.635ZM31.3246 97.26H30.5746V84.72H31.3246V97.26ZM24.1996 90.06C24.0096 90.71 23.6996 91.355 23.2696 91.995C22.8496 92.635 22.2796 93.255 21.5596 93.855L21.1246 93.315C21.9546 92.615 22.6096 91.825 23.0896 90.945C23.5696 90.065 23.8096 89.085 23.8096 88.005V85.395H24.5896V88.005C24.5896 88.565 24.6546 89.08 24.7846 89.55C24.9246 90.02 25.1146 90.46 25.3546 90.87C25.5946 91.28 25.8746 91.66 26.1946 92.01C26.5146 92.36 26.8596 92.69 27.2296 93L26.7646 93.555C26.4846 93.335 26.2096 93.09 25.9396 92.82C25.6796 92.54 25.4346 92.25 25.2046 91.95C24.9846 91.64 24.7846 91.325 24.6046 91.005C24.4346 90.685 24.2996 90.37 24.1996 90.06ZM40.3342 87.195V87.87H33.3742V87.195H40.3342ZM35.0242 85.005H38.8342V85.695H35.0242V85.005ZM36.9292 94.695C36.0292 94.695 35.3242 94.46 34.8142 93.99C34.3042 93.51 34.0492 92.79 34.0492 91.83C34.0492 90.87 34.3042 90.155 34.8142 89.685C35.3242 89.205 36.0292 88.965 36.9292 88.965C37.8292 88.965 38.5342 89.205 39.0442 89.685C39.5542 90.155 39.8092 90.87 39.8092 91.83C39.8092 92.79 39.5542 93.51 39.0442 93.99C38.5342 94.46 37.8292 94.695 36.9292 94.695ZM36.9292 94.035C37.5792 94.035 38.0892 93.86 38.4592 93.51C38.8392 93.16 39.0292 92.6 39.0292 91.83C39.0292 91.06 38.8392 90.5 38.4592 90.15C38.0892 89.8 37.5792 89.625 36.9292 89.625C36.2792 89.625 35.7642 89.8 35.3842 90.15C35.0142 90.5 34.8292 91.06 34.8292 91.83C34.8292 92.6 35.0142 93.16 35.3842 93.51C35.7642 93.86 36.2792 94.035 36.9292 94.035ZM44.6242 90.93H42.5992V97.26H41.8192V84.72H42.5992V90.225H44.6242V90.93ZM50.2288 88.53C50.2288 88.61 50.2238 88.69 50.2138 88.77C50.2138 88.85 50.2138 88.93 50.2138 89.01H52.5238V84.885H53.2888V96.84H52.5238V89.7H50.1388C50.0688 90.1 49.9488 90.48 49.7788 90.84C49.6188 91.2 49.3788 91.56 49.0588 91.92C48.7488 92.28 48.3538 92.65 47.8738 93.03C47.4038 93.41 46.8238 93.815 46.1338 94.245L45.7138 93.63C46.5038 93.13 47.1438 92.67 47.6338 92.25C48.1238 91.82 48.5038 91.41 48.7738 91.02C49.0438 90.63 49.2238 90.255 49.3138 89.895C49.4138 89.525 49.4638 89.145 49.4638 88.755V86.295H45.8188V85.62H50.2288V88.53ZM55.5238 97.26H54.7588V84.72H55.5238V97.26ZM70.6725 84.72H71.4525V90.93H70.6725V84.72ZM71.4525 97.41H70.6875V92.595H68.0475V91.95H71.4525V97.41ZM65.1825 90.66C64.6425 90.66 64.1775 90.59 63.7875 90.45C63.4075 90.3 63.0925 90.1 62.8425 89.85C62.5925 89.59 62.4075 89.285 62.2875 88.935C62.1675 88.575 62.1075 88.185 62.1075 87.765C62.1075 87.345 62.1675 86.96 62.2875 86.61C62.4075 86.25 62.5925 85.945 62.8425 85.695C63.0925 85.435 63.4075 85.235 63.7875 85.095C64.1775 84.945 64.6425 84.87 65.1825 84.87C65.7225 84.87 66.1825 84.945 66.5625 85.095C66.9525 85.235 67.2725 85.435 67.5225 85.695C67.7725 85.945 67.9575 86.25 68.0775 86.61C68.1975 86.96 68.2575 87.345 68.2575 87.765C68.2575 88.185 68.1975 88.575 68.0775 88.935C67.9575 89.285 67.7725 89.59 67.5225 89.85C67.2725 90.1 66.9525 90.3 66.5625 90.45C66.1825 90.59 65.7225 90.66 65.1825 90.66ZM65.1825 89.985C65.8825 89.985 66.4375 89.81 66.8475 89.46C67.2575 89.11 67.4625 88.545 67.4625 87.765C67.4625 86.985 67.2575 86.42 66.8475 86.07C66.4375 85.72 65.8825 85.545 65.1825 85.545C64.4825 85.545 63.9275 85.72 63.5175 86.07C63.1075 86.42 62.9025 86.985 62.9025 87.765C62.9025 88.545 63.1075 89.11 63.5175 89.46C63.9275 89.81 64.4825 89.985 65.1825 89.985ZM64.4625 97.41C64.2325 97.41 64.0725 97.35 63.9825 97.23C63.8925 97.12 63.8475 96.95 63.8475 96.72V94.215H66.6375V92.595H63.8925V91.95H67.3725V94.83H64.5975V96.57C64.5975 96.67 64.6075 96.73 64.6275 96.75C64.6575 96.77 64.7175 96.78 64.8075 96.78H68.0475V97.41H64.4625ZM83.0421 89.46H76.3221C76.0921 89.46 75.9321 89.405 75.8421 89.295C75.7521 89.175 75.7071 89 75.7071 88.77V84.96H76.4871V88.59C76.4871 88.69 76.4971 88.75 76.5171 88.77C76.5471 88.79 76.6071 88.8 76.6971 88.8H83.0421V89.46ZM83.2971 96.495V97.185H76.2171C75.9871 97.185 75.8271 97.125 75.7371 97.005C75.6471 96.895 75.6021 96.725 75.6021 96.495V93.345H76.3671V96.285C76.3671 96.385 76.3771 96.445 76.3971 96.465C76.4271 96.485 76.4871 96.495 76.5771 96.495H83.2971ZM84.7971 91.275V91.95H73.8021V91.275H84.7971ZM93.4359 90.96C92.8759 90.96 92.4009 90.885 92.0109 90.735C91.6309 90.585 91.3159 90.38 91.0659 90.12C90.8159 89.85 90.6359 89.535 90.5259 89.175C90.4159 88.805 90.3609 88.41 90.3609 87.99C90.3609 87.57 90.4159 87.18 90.5259 86.82C90.6359 86.45 90.8159 86.135 91.0659 85.875C91.3159 85.605 91.6309 85.395 92.0109 85.245C92.4009 85.095 92.8759 85.02 93.4359 85.02C93.9159 85.02 94.3359 85.08 94.6959 85.2C95.0559 85.31 95.3559 85.47 95.5959 85.68C95.8459 85.89 96.0409 86.14 96.1809 86.43C96.3209 86.72 96.4159 87.035 96.4659 87.375H99.0759V84.72H99.8559V91.65H99.0759V88.08H96.5109C96.5009 88.49 96.4359 88.875 96.3159 89.235C96.2059 89.585 96.0259 89.89 95.7759 90.15C95.5259 90.4 95.2059 90.6 94.8159 90.75C94.4359 90.89 93.9759 90.96 93.4359 90.96ZM99.8559 97.26H93.0459C92.8159 97.26 92.6559 97.2 92.5659 97.08C92.4759 96.97 92.4309 96.8 92.4309 96.57V92.61H99.8559V97.26ZM99.0909 96.615V93.24H93.1959V96.405C93.1959 96.505 93.2059 96.565 93.2259 96.585C93.2559 96.605 93.3159 96.615 93.4059 96.615H99.0909ZM93.4359 90.285C94.1359 90.285 94.6909 90.1 95.1009 89.73C95.5209 89.35 95.7309 88.77 95.7309 87.99C95.7309 87.21 95.5209 86.635 95.1009 86.265C94.6909 85.885 94.1359 85.695 93.4359 85.695C92.7359 85.695 92.1759 85.885 91.7559 86.265C91.3459 86.635 91.1409 87.21 91.1409 87.99C91.1409 88.77 91.3459 89.35 91.7559 89.73C92.1759 90.1 92.7359 90.285 93.4359 90.285ZM113.53 89.73H111.505V97.26H110.725V84.72H111.505V89.025H113.53V89.73ZM108.145 93.735H103.285C103.055 93.735 102.895 93.68 102.805 93.57C102.715 93.45 102.67 93.275 102.67 93.045V85.56H108.145V93.735ZM107.365 93.06V86.235H103.435V92.85C103.435 92.95 103.445 93.01 103.465 93.03C103.495 93.05 103.555 93.06 103.645 93.06H107.365Z" fill="#282828"/>
</svg>
