<svg width="204" height="102" viewBox="0 0 204 102" fill="none" xmlns="http://www.w3.org/2000/svg">
<path d="M13.468 14.168V20H10.3V3.872H16.324C18.26 3.872 19.724 4.296 20.716 5.144C21.724 5.992 22.228 7.288 22.228 9.032C22.228 10.76 21.724 12.048 20.716 12.896C19.724 13.744 18.26 14.168 16.324 14.168H13.468ZM13.468 6.44V11.6H16.276C17.14 11.6 17.82 11.392 18.316 10.976C18.812 10.544 19.06 9.896 19.06 9.032C19.06 8.168 18.812 7.52 18.316 7.088C17.82 6.656 17.14 6.44 16.276 6.44H13.468ZM28.0696 20H24.9016V3.872H35.1496V6.44H28.0696V10.304H34.6456V12.872H28.0696V20ZM38.1734 3.872H41.3414V20H38.1734V3.872ZM52.3264 20L48.9664 11.936L48.3424 10.304H48.3184L48.3664 11.984V20H45.1984V3.872H48.6784L53.1424 14.864L53.7184 16.376H53.7664L54.3424 14.864L58.8064 3.872H62.2624V20H59.0944V11.984L59.1424 10.304H59.1184L58.5184 11.936L55.1584 20H52.3264Z" fill="#FF4646"/>
<rect opacity="0.5" x="8.5" y="85" width="52" height="12" fill="#F7FF5E"/>
<rect opacity="0.5" x="8.5" y="67" width="49" height="12" fill="#F7FF5E"/>
<path d="M1.5 6V99.5" stroke="#FF4646" stroke-width="3"/>
<path d="M18.85 73.65H18.07V69.96H15.205V69.255H18.07V66.72H18.85V73.65ZM12.745 70.185C12.675 70.415 12.54 70.68 12.34 70.98C12.14 71.28 11.895 71.585 11.605 71.895C11.315 72.195 10.995 72.485 10.645 72.765C10.295 73.045 9.935 73.28 9.565 73.47L9.19 72.9C9.62 72.63 10.025 72.34 10.405 72.03C10.795 71.71 11.135 71.37 11.425 71.01C11.715 70.65 11.94 70.265 12.1 69.855C12.27 69.445 12.355 69.015 12.355 68.565V67.065H13.135V68.595C13.135 69.035 13.21 69.445 13.36 69.825C13.52 70.195 13.735 70.545 14.005 70.875C14.275 71.205 14.595 71.515 14.965 71.805C15.335 72.085 15.73 72.355 16.15 72.615L15.775 73.185C15.425 73.005 15.085 72.795 14.755 72.555C14.425 72.305 14.12 72.045 13.84 71.775C13.57 71.495 13.335 71.22 13.135 70.95C12.945 70.67 12.815 70.415 12.745 70.185ZM18.85 79.26H12.19C11.96 79.26 11.8 79.2 11.71 79.08C11.62 78.97 11.575 78.8 11.575 78.57V74.61H18.85V79.26ZM18.085 78.615V75.24H12.34V78.405C12.34 78.505 12.35 78.565 12.37 78.585C12.4 78.605 12.46 78.615 12.55 78.615H18.085ZM26.0746 70.635H28.3846V66.885H29.1346V78.84H28.3846V71.325H26.0746V70.635ZM31.3246 79.26H30.5746V66.72H31.3246V79.26ZM24.1996 72.06C24.0096 72.71 23.6996 73.355 23.2696 73.995C22.8496 74.635 22.2796 75.255 21.5596 75.855L21.1246 75.315C21.9546 74.615 22.6096 73.825 23.0896 72.945C23.5696 72.065 23.8096 71.085 23.8096 70.005V67.395H24.5896V70.005C24.5896 70.565 24.6546 71.08 24.7846 71.55C24.9246 72.02 25.1146 72.46 25.3546 72.87C25.5946 73.28 25.8746 73.66 26.1946 74.01C26.5146 74.36 26.8596 74.69 27.2296 75L26.7646 75.555C26.4846 75.335 26.2096 75.09 25.9396 74.82C25.6796 74.54 25.4346 74.25 25.2046 73.95C24.9846 73.64 24.7846 73.325 24.6046 73.005C24.4346 72.685 24.2996 72.37 24.1996 72.06ZM40.3342 69.195V69.87H33.3742V69.195H40.3342ZM35.0242 67.005H38.8342V67.695H35.0242V67.005ZM36.9292 76.695C36.0292 76.695 35.3242 76.46 34.8142 75.99C34.3042 75.51 34.0492 74.79 34.0492 73.83C34.0492 72.87 34.3042 72.155 34.8142 71.685C35.3242 71.205 36.0292 70.965 36.9292 70.965C37.8292 70.965 38.5342 71.205 39.0442 71.685C39.5542 72.155 39.8092 72.87 39.8092 73.83C39.8092 74.79 39.5542 75.51 39.0442 75.99C38.5342 76.46 37.8292 76.695 36.9292 76.695ZM36.9292 76.035C37.5792 76.035 38.0892 75.86 38.4592 75.51C38.8392 75.16 39.0292 74.6 39.0292 73.83C39.0292 73.06 38.8392 72.5 38.4592 72.15C38.0892 71.8 37.5792 71.625 36.9292 71.625C36.2792 71.625 35.7642 71.8 35.3842 72.15C35.0142 72.5 34.8292 73.06 34.8292 73.83C34.8292 74.6 35.0142 75.16 35.3842 75.51C35.7642 75.86 36.2792 76.035 36.9292 76.035ZM44.6242 72.93H42.5992V79.26H41.8192V66.72H42.5992V72.225H44.6242V72.93ZM50.2288 70.53C50.2288 70.61 50.2238 70.69 50.2138 70.77C50.2138 70.85 50.2138 70.93 50.2138 71.01H52.5238V66.885H53.2888V78.84H52.5238V71.7H50.1388C50.0688 72.1 49.9488 72.48 49.7788 72.84C49.6188 73.2 49.3788 73.56 49.0588 73.92C48.7488 74.28 48.3538 74.65 47.8738 75.03C47.4038 75.41 46.8238 75.815 46.1338 76.245L45.7138 75.63C46.5038 75.13 47.1438 74.67 47.6338 74.25C48.1238 73.82 48.5038 73.41 48.7738 73.02C49.0438 72.63 49.2238 72.255 49.3138 71.895C49.4138 71.525 49.4638 71.145 49.4638 70.755V68.295H45.8188V67.62H50.2288V70.53ZM55.5238 79.26H54.7588V66.72H55.5238V79.26ZM67.1925 69.195C67.0525 69.465 66.8425 69.73 66.5625 69.99C66.2825 70.24 65.9525 70.48 65.5725 70.71C65.2025 70.93 64.7875 71.14 64.3275 71.34C63.8775 71.53 63.4075 71.69 62.9175 71.82L62.5875 71.235C63.1875 71.075 63.7425 70.88 64.2525 70.65C64.7725 70.41 65.2175 70.155 65.5875 69.885C65.9675 69.605 66.2625 69.32 66.4725 69.03C66.6925 68.73 66.8025 68.435 66.8025 68.145V67.71H63.4425V67.035H70.9425V67.71H67.5825V68.145C67.5825 68.455 67.6975 68.76 67.9275 69.06C68.1675 69.36 68.4825 69.645 68.8725 69.915C69.2625 70.175 69.7075 70.415 70.2075 70.635C70.7075 70.845 71.2225 71.01 71.7525 71.13L71.4675 71.73C71.0475 71.64 70.6125 71.51 70.1625 71.34C69.7125 71.16 69.2875 70.96 68.8875 70.74C68.4875 70.51 68.1325 70.265 67.8225 70.005C67.5225 69.735 67.3125 69.465 67.1925 69.195ZM67.0575 76.59V73.605H61.7025V72.93H72.6975V73.605H67.8225V76.59H67.0575ZM64.2675 78.285C64.2675 78.385 64.2775 78.445 64.2975 78.465C64.3275 78.485 64.3875 78.495 64.4775 78.495H71.1975V79.185H64.1175C63.8875 79.185 63.7275 79.125 63.6375 79.005C63.5475 78.895 63.5025 78.725 63.5025 78.495V75.285H64.2675V78.285ZM82.7721 66.72H83.5521V79.26H82.7721V66.72ZM74.5971 67.485H75.3621V70.98H79.3071V67.485H80.0721V75.735H75.2121C74.9821 75.735 74.8221 75.68 74.7321 75.57C74.6421 75.45 74.5971 75.275 74.5971 75.045V67.485ZM79.3071 75.075V71.64H75.3621V74.865C75.3621 74.965 75.3721 75.025 75.3921 75.045C75.4221 75.065 75.4821 75.075 75.5721 75.075H79.3071ZM92.9368 69.195V69.87H85.9768V69.195H92.9368ZM87.6268 67.005H91.4368V67.695H87.6268V67.005ZM89.5318 76.695C88.6318 76.695 87.9268 76.46 87.4168 75.99C86.9068 75.51 86.6518 74.79 86.6518 73.83C86.6518 72.87 86.9068 72.155 87.4168 71.685C87.9268 71.205 88.6318 70.965 89.5318 70.965C90.4318 70.965 91.1368 71.205 91.6468 71.685C92.1568 72.155 92.4118 72.87 92.4118 73.83C92.4118 74.79 92.1568 75.51 91.6468 75.99C91.1368 76.46 90.4318 76.695 89.5318 76.695ZM89.5318 76.035C90.1818 76.035 90.6918 75.86 91.0618 75.51C91.4418 75.16 91.6318 74.6 91.6318 73.83C91.6318 73.06 91.4418 72.5 91.0618 72.15C90.6918 71.8 90.1818 71.625 89.5318 71.625C88.8818 71.625 88.3668 71.8 87.9868 72.15C87.6168 72.5 87.4318 73.06 87.4318 73.83C87.4318 74.6 87.6168 75.16 87.9868 75.51C88.3668 75.86 88.8818 76.035 89.5318 76.035ZM97.2268 72.93H95.2018V79.26H94.4218V66.72H95.2018V72.225H97.2268V72.93ZM103.116 76.155H108.996V76.83H98.0164V76.155H102.351V71.97H103.116V76.155ZM107.241 67.56V70.38C107.241 70.95 107.191 71.57 107.091 72.24C106.991 72.9 106.811 73.52 106.551 74.1L105.846 73.95C106.036 73.47 106.186 72.945 106.296 72.375C106.406 71.805 106.461 71.235 106.461 70.665V68.235H99.7564V67.56H107.241ZM18.85 91.5H18.07V84.72H18.85V91.5ZM15.295 86.985C15.295 87.535 15.18 88.025 14.95 88.455C14.72 88.875 14.38 89.27 13.93 89.64C13.48 90 12.915 90.35 12.235 90.69C11.565 91.02 10.785 91.37 9.895 91.74L9.58 91.125C10.42 90.795 11.145 90.475 11.755 90.165C12.375 89.855 12.89 89.545 13.3 89.235C13.71 88.915 14.015 88.59 14.215 88.26C14.415 87.92 14.515 87.56 14.515 87.18V86.07H10.06V85.41H15.295V86.985ZM19.015 93.105H17.5V96.63H19.165V97.26H11.14V96.63H12.895V93.105H11.29V92.46H19.015V93.105ZM13.66 96.63H16.72V93.105H13.66V96.63ZM30.1696 84.72H30.9496V97.245H30.1696V84.72ZM24.7096 86.01C23.9796 86.01 23.4296 86.3 23.0596 86.88C22.6996 87.45 22.5196 88.39 22.5196 89.7C22.5196 91.01 22.6996 91.955 23.0596 92.535C23.4296 93.105 23.9796 93.39 24.7096 93.39C25.4396 93.39 25.9846 93.105 26.3446 92.535C26.7146 91.955 26.8996 91.01 26.8996 89.7C26.8996 88.39 26.7146 87.45 26.3446 86.88C25.9846 86.3 25.4396 86.01 24.7096 86.01ZM24.7096 94.065C23.7496 94.065 23.0096 93.725 22.4896 93.045C21.9796 92.355 21.7246 91.24 21.7246 89.7C21.7246 88.16 21.9796 87.05 22.4896 86.37C23.0096 85.68 23.7496 85.335 24.7096 85.335C25.6696 85.335 26.4046 85.68 26.9146 86.37C27.4346 87.05 27.6946 88.16 27.6946 89.7C27.6946 91.24 27.4346 92.355 26.9146 93.045C26.4046 93.725 25.6696 94.065 24.7096 94.065ZM47.2533 91.635H46.4733V84.72H47.2533V91.635ZM40.9833 90.96C40.4233 90.96 39.9483 90.885 39.5583 90.735C39.1783 90.585 38.8633 90.38 38.6133 90.12C38.3633 89.85 38.1833 89.535 38.0733 89.175C37.9633 88.805 37.9083 88.41 37.9083 87.99C37.9083 87.57 37.9633 87.18 38.0733 86.82C38.1833 86.45 38.3633 86.135 38.6133 85.875C38.8633 85.605 39.1783 85.395 39.5583 85.245C39.9483 85.095 40.4233 85.02 40.9833 85.02C41.5333 85.02 42.0033 85.095 42.3933 85.245C42.7833 85.395 43.1033 85.605 43.3533 85.875C43.6033 86.135 43.7833 86.45 43.8933 86.82C44.0033 87.18 44.0583 87.57 44.0583 87.99C44.0583 88.41 44.0033 88.805 43.8933 89.175C43.7833 89.535 43.6033 89.85 43.3533 90.12C43.1033 90.38 42.7833 90.585 42.3933 90.735C42.0033 90.885 41.5333 90.96 40.9833 90.96ZM40.9833 90.285C41.6833 90.285 42.2383 90.1 42.6483 89.73C43.0683 89.35 43.2783 88.77 43.2783 87.99C43.2783 87.21 43.0683 86.635 42.6483 86.265C42.2383 85.885 41.6833 85.695 40.9833 85.695C40.2833 85.695 39.7233 85.885 39.3033 86.265C38.8933 86.635 38.6883 87.21 38.6883 87.99C38.6883 88.77 38.8933 89.35 39.3033 89.73C39.7233 90.1 40.2833 90.285 40.9833 90.285ZM43.5033 97.41C43.2933 97.33 43.0633 97.195 42.8133 97.005C42.5733 96.815 42.3433 96.605 42.1233 96.375C41.9033 96.145 41.7083 95.91 41.5383 95.67C41.3783 95.43 41.2733 95.22 41.2233 95.04C41.1433 95.23 41.0233 95.435 40.8633 95.655C40.7133 95.865 40.5333 96.075 40.3233 96.285C40.1133 96.505 39.8783 96.71 39.6183 96.9C39.3683 97.1 39.1133 97.27 38.8533 97.41L38.4483 96.84C39.2583 96.34 39.8633 95.82 40.2633 95.28C40.6633 94.74 40.8633 94.105 40.8633 93.375V92.625H41.5833V93.54C41.5833 93.87 41.6383 94.19 41.7483 94.5C41.8583 94.8 42.0033 95.08 42.1833 95.34C42.3633 95.6 42.5683 95.835 42.7983 96.045C43.0283 96.265 43.2633 96.45 43.5033 96.6C43.7433 96.45 43.9783 96.27 44.2083 96.06C44.4383 95.85 44.6433 95.615 44.8233 95.355C45.0033 95.095 45.1483 94.815 45.2583 94.515C45.3683 94.215 45.4233 93.89 45.4233 93.54V92.625H46.1433V93.375C46.1433 94.095 46.3433 94.74 46.7433 95.31C47.1433 95.88 47.7383 96.39 48.5283 96.84L48.1533 97.41C47.8733 97.27 47.6033 97.1 47.3433 96.9C47.0933 96.71 46.8633 96.505 46.6533 96.285C46.4433 96.075 46.2633 95.865 46.1133 95.655C45.9633 95.435 45.8533 95.23 45.7833 95.04C45.7333 95.22 45.6283 95.43 45.4683 95.67C45.3083 95.91 45.1183 96.145 44.8983 96.375C44.6783 96.605 44.4433 96.81 44.1933 96.99C43.9533 97.18 43.7233 97.32 43.5033 97.41ZM54.4329 88.53C54.4329 88.61 54.4279 88.69 54.4179 88.77C54.4179 88.85 54.4179 88.93 54.4179 89.01H56.7279V84.885H57.4929V96.84H56.7279V89.7H54.3429C54.2729 90.1 54.1529 90.48 53.9829 90.84C53.8229 91.2 53.5829 91.56 53.2629 91.92C52.9529 92.28 52.5579 92.65 52.0779 93.03C51.6079 93.41 51.0279 93.815 50.3379 94.245L49.9179 93.63C50.7079 93.13 51.3479 92.67 51.8379 92.25C52.3279 91.82 52.7079 91.41 52.9779 91.02C53.2479 90.63 53.4279 90.255 53.5179 89.895C53.6179 89.525 53.6679 89.145 53.6679 88.755V86.295H50.0229V85.62H54.4329V88.53ZM59.7279 97.26H58.9629V84.72H59.7279V97.26ZM67.8116 85.005H74.9216V85.665H68.5916V87.9C68.5916 88 68.6016 88.06 68.6216 88.08C68.6516 88.1 68.7116 88.11 68.8016 88.11H74.9966V88.785H71.7866V90.465H76.9016V91.11H65.9066V90.465H71.0216V88.785H68.4266C68.1966 88.785 68.0366 88.73 67.9466 88.62C67.8566 88.5 67.8116 88.325 67.8116 88.095V85.005ZM75.1766 95.16H68.3966V96.555C68.3966 96.635 68.4016 96.685 68.4116 96.705C68.4316 96.725 68.4766 96.735 68.5466 96.735H75.4766V97.41H68.2466C68.0366 97.41 67.8816 97.365 67.7816 97.275C67.6816 97.185 67.6316 97.015 67.6316 96.765V94.5H74.4116V93.12H67.6766V92.46H75.1766V95.16ZM86.3913 90.69V88.38H80.6163V90.48C80.6163 90.58 80.6263 90.64 80.6463 90.66C80.6763 90.68 80.7363 90.69 80.8263 90.69H86.3913ZM83.1063 94.155V91.35H80.4513C80.2213 91.35 80.0613 91.295 79.9713 91.185C79.8813 91.065 79.8363 90.89 79.8363 90.66V85.41H80.6163V87.72H86.3913V85.41H87.1563V91.35H83.8713V94.155H89.0013V94.83H78.0063V94.155H83.1063ZM99.3459 89.46H92.6259C92.3959 89.46 92.2359 89.405 92.1459 89.295C92.0559 89.175 92.0109 89 92.0109 88.77V84.96H92.7909V88.59C92.7909 88.69 92.8009 88.75 92.8209 88.77C92.8509 88.79 92.9109 88.8 93.0009 88.8H99.3459V89.46ZM99.6009 96.495V97.185H92.5209C92.2909 97.185 92.1309 97.125 92.0409 97.005C91.9509 96.895 91.9059 96.725 91.9059 96.495V93.345H92.6709V96.285C92.6709 96.385 92.6809 96.445 92.7009 96.465C92.7309 96.485 92.7909 96.495 92.8809 96.495H99.6009ZM101.101 91.275V91.95H90.1059V91.275H101.101ZM109.74 90.96C109.18 90.96 108.705 90.885 108.315 90.735C107.935 90.585 107.62 90.38 107.37 90.12C107.12 89.85 106.94 89.535 106.83 89.175C106.72 88.805 106.665 88.41 106.665 87.99C106.665 87.57 106.72 87.18 106.83 86.82C106.94 86.45 107.12 86.135 107.37 85.875C107.62 85.605 107.935 85.395 108.315 85.245C108.705 85.095 109.18 85.02 109.74 85.02C110.22 85.02 110.64 85.08 111 85.2C111.36 85.31 111.66 85.47 111.9 85.68C112.15 85.89 112.345 86.14 112.485 86.43C112.625 86.72 112.72 87.035 112.77 87.375H115.38V84.72H116.16V91.65H115.38V88.08H112.815C112.805 88.49 112.74 88.875 112.62 89.235C112.51 89.585 112.33 89.89 112.08 90.15C111.83 90.4 111.51 90.6 111.12 90.75C110.74 90.89 110.28 90.96 109.74 90.96ZM116.16 97.26H109.35C109.12 97.26 108.96 97.2 108.87 97.08C108.78 96.97 108.735 96.8 108.735 96.57V92.61H116.16V97.26ZM115.395 96.615V93.24H109.5V96.405C109.5 96.505 109.51 96.565 109.53 96.585C109.56 96.605 109.62 96.615 109.71 96.615H115.395ZM109.74 90.285C110.44 90.285 110.995 90.1 111.405 89.73C111.825 89.35 112.035 88.77 112.035 87.99C112.035 87.21 111.825 86.635 111.405 86.265C110.995 85.885 110.44 85.695 109.74 85.695C109.04 85.695 108.48 85.885 108.06 86.265C107.65 86.635 107.445 87.21 107.445 87.99C107.445 88.77 107.65 89.35 108.06 89.73C108.48 90.1 109.04 90.285 109.74 90.285ZM129.834 89.73H127.809V97.26H127.029V84.72H127.809V89.025H129.834V89.73ZM124.449 93.735H119.589C119.359 93.735 119.199 93.68 119.109 93.57C119.019 93.45 118.974 93.275 118.974 93.045V85.56H124.449V93.735ZM123.669 93.06V86.235H119.739V92.85C119.739 92.95 119.749 93.01 119.769 93.03C119.799 93.05 119.859 93.06 119.949 93.06H123.669Z" fill="#282828"/>
<path d="M17.5 47.04C15.6733 47.04 14.3467 46.7267 13.52 46.1C12.6933 45.4867 12.28 44.6467 12.28 43.58C12.28 42.5133 12.6933 41.6733 13.52 41.06C14.3467 40.4333 15.6733 40.12 17.5 40.12C19.3133 40.12 20.6333 40.4333 21.46 41.06C22.3 41.6733 22.72 42.5133 22.72 43.58C22.72 44.6467 22.3 45.4867 21.46 46.1C20.6333 46.7267 19.3133 47.04 17.5 47.04ZM13.96 35.14C13.8 35.5267 13.58 35.9133 13.3 36.3C13.02 36.6867 12.7 37.0533 12.34 37.4C11.98 37.7333 11.5933 38.0467 11.18 38.34C10.78 38.62 10.38 38.86 9.98 39.06L9.18 37.92C10.4733 37.24 11.46 36.42 12.14 35.46C12.82 34.5 13.16 33.5133 13.16 32.5V31.94H9.82V30.7H18.16V31.94H14.76V32.5C14.76 33.38 15.0733 34.26 15.7 35.14C16.3267 36.0067 17.34 36.8 18.74 37.52L17.94 38.66C17.5667 38.4867 17.1867 38.2733 16.8 38.02C16.4133 37.7667 16.04 37.4933 15.68 37.2C15.32 36.8933 14.9933 36.5667 14.7 36.22C14.4067 35.8733 14.16 35.5133 13.96 35.14ZM17.5 45.82C18.1667 45.82 18.7267 45.7667 19.18 45.66C19.6467 45.5533 20.0267 45.4 20.32 45.2C20.6133 45.0133 20.82 44.7867 20.94 44.52C21.0733 44.24 21.14 43.9267 21.14 43.58C21.14 43.2467 21.0733 42.94 20.94 42.66C20.82 42.38 20.6133 42.1467 20.32 41.96C20.0267 41.76 19.6467 41.6067 19.18 41.5C18.7267 41.3933 18.1667 41.34 17.5 41.34C16.8333 41.34 16.2667 41.3933 15.8 41.5C15.3467 41.6067 14.9733 41.76 14.68 41.96C14.3867 42.1467 14.1733 42.38 14.04 42.66C13.92 42.94 13.86 43.2467 13.86 43.58C13.86 43.9267 13.92 44.24 14.04 44.52C14.1733 44.7867 14.3867 45.0133 14.68 45.2C14.9733 45.4 15.3467 45.5533 15.8 45.66C16.2667 45.7667 16.8333 45.82 17.5 45.82ZM17.66 33.48H21V29.88H22.52V39.56H21V34.78H17.66V33.48ZM38.7895 39.56H37.2695V34.46H33.7295V33.16H37.2695V29.88H38.7895V39.56ZM33.7695 47.04C31.9429 47.04 30.6162 46.7267 29.7895 46.1C28.9629 45.4867 28.5495 44.6467 28.5495 43.58C28.5495 42.5133 28.9629 41.6733 29.7895 41.06C30.6162 40.4333 31.9429 40.12 33.7695 40.12C35.5829 40.12 36.9029 40.4333 37.7295 41.06C38.5695 41.6733 38.9895 42.5133 38.9895 43.58C38.9895 44.6467 38.5695 45.4867 37.7295 46.1C36.9029 46.7267 35.5829 47.04 33.7695 47.04ZM33.7695 45.82C34.4362 45.82 34.9962 45.7667 35.4495 45.66C35.9162 45.5533 36.2962 45.4 36.5895 45.2C36.8829 45.0133 37.0895 44.7867 37.2095 44.52C37.3429 44.24 37.4095 43.9267 37.4095 43.58C37.4095 43.2467 37.3429 42.94 37.2095 42.66C37.0895 42.38 36.8829 42.1467 36.5895 41.96C36.2962 41.76 35.9162 41.6067 35.4495 41.5C34.9962 41.3933 34.4362 41.34 33.7695 41.34C33.1029 41.34 32.5362 41.3933 32.0695 41.5C31.6162 41.6067 31.2429 41.76 30.9495 41.96C30.6562 42.1467 30.4429 42.38 30.3095 42.66C30.1895 42.94 30.1295 43.2467 30.1295 43.58C30.1295 43.9267 30.1895 44.24 30.3095 44.52C30.4429 44.7867 30.6562 45.0133 30.9495 45.2C31.2429 45.4 31.6162 45.5533 32.0695 45.66C32.5362 45.7667 33.1029 45.82 33.7695 45.82ZM30.4295 34.92C30.3095 35.2933 30.1095 35.68 29.8295 36.08C29.5495 36.48 29.2229 36.8733 28.8495 37.26C28.4895 37.6333 28.0895 37.9867 27.6495 38.32C27.2229 38.6533 26.7962 38.9333 26.3695 39.16L25.5695 38.04C26.1829 37.68 26.7429 37.2733 27.2495 36.82C27.7562 36.3667 28.1829 35.8867 28.5295 35.38C28.8762 34.8733 29.1429 34.36 29.3295 33.84C29.5295 33.3067 29.6295 32.7867 29.6295 32.28V30.34H31.2295V32.28C31.2295 33.3467 31.5429 34.2867 32.1695 35.1C32.8095 35.9 33.8229 36.6867 35.2095 37.46L34.4095 38.58C34.0095 38.3667 33.6095 38.12 33.2095 37.84C32.8095 37.56 32.4295 37.2667 32.0695 36.96C31.7095 36.64 31.3829 36.3133 31.0895 35.98C30.8095 35.6333 30.5895 35.28 30.4295 34.92ZM54.4591 29.88V35.48H57.0591V36.76H54.4591V46.76H52.9391V29.88H54.4591ZM49.8391 31V35C49.8391 35.9067 49.7191 36.6933 49.4791 37.36C49.2524 38.0133 48.8724 38.62 48.3391 39.18C47.8191 39.74 47.1257 40.2867 46.2591 40.82C45.3924 41.3533 44.3257 41.9467 43.0591 42.6L42.3991 41.42C43.5324 40.8067 44.4724 40.26 45.2191 39.78C45.9791 39.2867 46.5857 38.82 47.0391 38.38C47.4924 37.9267 47.8124 37.46 47.9991 36.98C48.1857 36.5 48.2791 35.9533 48.2791 35.34V32.26H42.4191V31H49.8391ZM72.8486 37.86V39.12H58.0286V37.86H72.8486ZM61.4886 36.14C61.1153 36.14 60.8486 36.04 60.6886 35.84C60.5419 35.6267 60.4686 35.3333 60.4686 34.96V30.24H70.3086V31.5H61.9886V34.56C61.9886 34.7067 62.0019 34.8 62.0286 34.84C62.0686 34.8667 62.1553 34.88 62.2886 34.88H70.4086V36.14H61.4886ZM60.0686 41.12H70.6086V46.96H69.1086V42.4H60.0686V41.12ZM92.1836 31.42H83.8436V34.06C83.8436 34.1933 83.8569 34.28 83.8836 34.32C83.9236 34.3467 84.0103 34.36 84.1436 34.36H92.2836V35.62H88.0836V37.44H94.7236V38.68H79.9036V37.44H86.5836V35.62H83.4636C82.7169 35.62 82.3436 35.26 82.3436 34.54V30.16H92.1836V31.42ZM92.4836 43.94H83.6236V45.48C83.6236 45.5867 83.6369 45.6533 83.6636 45.68C83.7036 45.7067 83.7703 45.72 83.8636 45.72H92.8836V46.96H83.0436C82.7369 46.96 82.5036 46.8933 82.3436 46.76C82.1969 46.6267 82.1236 46.3867 82.1236 46.04V42.72H90.9836V41.36H82.1836V40.12H92.4836V43.94ZM98.4131 40.98H108.753V46.76H99.4131C99.0665 46.76 98.8131 46.68 98.6531 46.52C98.4931 46.36 98.4131 46.0933 98.4131 45.72V40.98ZM107.233 45.54V42.22H99.9331V45.26C99.9331 45.38 99.9465 45.4533 99.9731 45.48C100.013 45.52 100.1 45.54 100.233 45.54H107.233ZM96.1731 39.44V38.16H102.793V36.38H99.6531C99.3065 36.38 99.0465 36.2933 98.8731 36.12C98.6998 35.9467 98.6131 35.6667 98.6131 35.28V30.14H100.133V32.16H107.033V30.14H108.553V36.38H104.333V38.16H110.993V39.44H96.1731ZM107.033 35.16V33.38H100.133V34.8C100.133 34.96 100.153 35.06 100.193 35.1C100.233 35.14 100.32 35.16 100.453 35.16H107.033ZM116.143 46.76C115.783 46.76 115.523 46.6733 115.363 46.5C115.203 46.34 115.123 46.0667 115.123 45.68V40.4H125.163V46.76H116.143ZM123.623 41.62H116.623V45.26C116.623 45.3667 116.643 45.44 116.683 45.48C116.723 45.52 116.803 45.54 116.923 45.54H123.623V41.62ZM125.163 33.68H127.743V35H125.163V39.2H123.623V29.88H125.163V33.68ZM120.623 30.7V37.96H113.943C113.583 37.96 113.323 37.88 113.163 37.72C113.003 37.56 112.923 37.2667 112.923 36.84V30.7H120.623ZM114.423 36.46C114.423 36.5667 114.436 36.64 114.463 36.68C114.503 36.72 114.576 36.74 114.683 36.74H119.143V31.92H114.423V36.46Z" fill="#FF4646"/>
</svg>
