<svg width="204" height="102" viewBox="0 0 204 102" fill="none" xmlns="http://www.w3.org/2000/svg">
<path d="M13.468 14.168V20H10.3V3.872H16.324C18.26 3.872 19.724 4.296 20.716 5.144C21.724 5.992 22.228 7.288 22.228 9.032C22.228 10.76 21.724 12.048 20.716 12.896C19.724 13.744 18.26 14.168 16.324 14.168H13.468ZM13.468 6.44V11.6H16.276C17.14 11.6 17.82 11.392 18.316 10.976C18.812 10.544 19.06 9.896 19.06 9.032C19.06 8.168 18.812 7.52 18.316 7.088C17.82 6.656 17.14 6.44 16.276 6.44H13.468ZM35.7563 3.872V6.44H31.1483V20H27.9803V6.44H23.3483V3.872H35.7563ZM44.7601 17.672C45.5441 17.672 46.3201 17.568 47.0881 17.36C47.8561 17.136 48.6001 16.832 49.3201 16.448L50.1121 18.944C49.3441 19.36 48.4961 19.68 47.5681 19.904C46.6401 20.128 45.6961 20.24 44.7361 20.24C42.0321 20.24 40.0321 19.52 38.7361 18.08C37.4561 16.64 36.8161 14.592 36.8161 11.936C36.8161 9.088 37.4481 6.992 38.7121 5.648C39.9761 4.304 41.8641 3.632 44.3761 3.632C45.5761 3.632 46.6641 3.84 47.6401 4.256C48.6321 4.672 49.4321 5.216 50.0401 5.888L48.2881 7.856C47.8081 7.328 47.2401 6.92 46.5841 6.632C45.9441 6.344 45.2081 6.2 44.3761 6.2C42.9201 6.2 41.8241 6.664 41.0881 7.592C40.3521 8.504 39.9841 9.952 39.9841 11.936C39.9841 13.824 40.3681 15.256 41.1361 16.232C41.9041 17.192 43.1121 17.672 44.7601 17.672ZM63.5933 17.432V20H52.7453V3.872H63.3533V6.44H55.9133V10.328H63.0893V12.848H55.9133V17.432H63.5933Z" fill="#FF4646"/>
<path d="M22.08 31.48H18.26V34.4C18.26 34.56 18.28 34.66 18.32 34.7C18.3733 34.74 18.4733 34.76 18.62 34.76H22.18V36H17.96C17.68 36 17.44 35.92 17.24 35.76C17.04 35.6 16.9133 35.3867 16.86 35.12C16.66 35.3467 16.3733 35.5533 16 35.74C15.6267 35.9133 15.16 36 14.6 36H12.24C11.8533 36 11.5667 35.9067 11.38 35.72C11.1933 35.5333 11.1 35.2267 11.1 34.8V30.24H15.78V31.48H12.56V34.4C12.56 34.56 12.58 34.66 12.62 34.7C12.66 34.74 12.7467 34.76 12.88 34.76H14.88C15.2533 34.76 15.6133 34.7 15.96 34.58C16.32 34.46 16.6067 34.2933 16.82 34.08V30.24H22.08V31.48ZM17.4 38.2H24.04V39.5H9.22V38.2H15.9V36.32H17.4V38.2ZM11.26 41.2H21.8V46.96H20.3V42.48H11.26V41.2ZM40.3095 43.66H25.4895V42.4H32.1095V38.4H33.6695V42.4H40.3095V43.66ZM32.9695 34.56C32.7429 34.9867 32.4295 35.4133 32.0295 35.84C31.6429 36.2533 31.1962 36.6467 30.6895 37.02C30.1829 37.3933 29.6362 37.7267 29.0495 38.02C28.4762 38.3 27.9029 38.5067 27.3295 38.64L26.6695 37.5C27.4695 37.26 28.2029 36.9467 28.8695 36.56C29.5495 36.16 30.1295 35.7267 30.6095 35.26C31.0895 34.78 31.4629 34.2733 31.7295 33.74C31.9962 33.2067 32.1295 32.68 32.1295 32.16V30.5H33.7295V32.16C33.7295 32.64 33.8629 33.1467 34.1295 33.68C34.3962 34.2133 34.7695 34.7267 35.2495 35.22C35.7429 35.7 36.3229 36.14 36.9895 36.54C37.6695 36.94 38.4162 37.2467 39.2295 37.46L38.5695 38.58C38.0095 38.4467 37.4429 38.2467 36.8695 37.98C36.3095 37.7 35.7762 37.38 35.2695 37.02C34.7762 36.66 34.3295 36.2667 33.9295 35.84C33.5295 35.4133 33.2095 34.9867 32.9695 34.56ZM55.0591 29.88V46.76H53.5391V41.7C53.1257 41.9133 52.6057 42.0933 51.9791 42.24C51.3657 42.3733 50.6791 42.44 49.9191 42.44H44.2791C43.9324 42.44 43.6657 42.36 43.4791 42.2C43.2924 42.0267 43.1991 41.74 43.1991 41.34V36.04H48.7391V32.06H43.1991V30.86H50.2591V37.22H44.7191V40.9C44.7191 41.0333 44.7391 41.12 44.7791 41.16C44.8191 41.2 44.9057 41.22 45.0391 41.22H50.1391C50.8191 41.22 51.4457 41.1667 52.0191 41.06C52.5924 40.94 53.0991 40.78 53.5391 40.58V29.88H55.0591ZM71.0341 36.82C70.0741 36.82 69.2607 36.7333 68.5941 36.56C67.9407 36.3867 67.4007 36.1467 66.9741 35.84C66.5607 35.5333 66.2607 35.1733 66.0741 34.76C65.8874 34.3467 65.7941 33.9067 65.7941 33.44C65.7941 32.96 65.8874 32.5133 66.0741 32.1C66.2607 31.6867 66.5607 31.3267 66.9741 31.02C67.4007 30.7 67.9407 30.4533 68.5941 30.28C69.2607 30.1067 70.0741 30.02 71.0341 30.02C71.9941 30.02 72.8007 30.1067 73.4541 30.28C74.1207 30.4533 74.6607 30.7 75.0741 31.02C75.5007 31.3267 75.8074 31.6867 75.9941 32.1C76.1807 32.5133 76.2741 32.96 76.2741 33.44C76.2741 33.9067 76.1807 34.3467 75.9941 34.76C75.8074 35.1733 75.5007 35.5333 75.0741 35.84C74.6607 36.1467 74.1207 36.3867 73.4541 36.56C72.8007 36.7333 71.9941 36.82 71.0341 36.82ZM71.0341 35.62C72.3541 35.62 73.3074 35.4133 73.8941 35C74.4807 34.5733 74.7741 34.0467 74.7741 33.42C74.7741 32.7933 74.4807 32.2733 73.8941 31.86C73.3074 31.4333 72.3541 31.22 71.0341 31.22C69.7141 31.22 68.7607 31.4333 68.1741 31.86C67.5874 32.2733 67.2941 32.7933 67.2941 33.42C67.2941 34.0467 67.5874 34.5733 68.1741 35C68.7607 35.4133 69.7141 35.62 71.0341 35.62ZM78.4541 39.34H72.0141V43.12H70.5141V39.34H63.6341V38.06H78.4541V39.34ZM76.5341 46.66H67.1141C66.7541 46.66 66.4741 46.5667 66.2741 46.38C66.0741 46.2067 65.9741 45.92 65.9741 45.52V41.28H67.4941V45.02C67.4941 45.1667 67.5141 45.26 67.5541 45.3C67.5941 45.3533 67.6874 45.38 67.8341 45.38H76.5341V46.66ZM91.6836 31.88V29.88H93.2036V39.56H91.6836V37.08H87.6636C87.3169 37.44 86.8769 37.7267 86.3436 37.94C85.8236 38.1533 85.1836 38.26 84.4236 38.26C83.6636 38.26 83.0169 38.1533 82.4836 37.94C81.9503 37.7267 81.5169 37.44 81.1836 37.08C80.8636 36.7067 80.6236 36.28 80.4636 35.8C80.3169 35.32 80.2436 34.8133 80.2436 34.28C80.2436 33.7467 80.3169 33.24 80.4636 32.76C80.6236 32.28 80.8636 31.86 81.1836 31.5C81.5169 31.1267 81.9503 30.8333 82.4836 30.62C83.0169 30.3933 83.6636 30.28 84.4236 30.28C85.3169 30.28 86.0503 30.4267 86.6236 30.72C87.2103 31.0133 87.6636 31.4 87.9836 31.88H91.6836ZM88.1836 47.04C86.3569 47.04 85.0303 46.7267 84.2036 46.1C83.3769 45.4867 82.9636 44.6467 82.9636 43.58C82.9636 42.5133 83.3769 41.6733 84.2036 41.06C85.0303 40.4333 86.3569 40.12 88.1836 40.12C89.9969 40.12 91.3169 40.4333 92.1436 41.06C92.9836 41.6733 93.4036 42.5133 93.4036 43.58C93.4036 44.6467 92.9836 45.4867 92.1436 46.1C91.3169 46.7267 89.9969 47.04 88.1836 47.04ZM88.1836 45.82C88.8503 45.82 89.4103 45.7667 89.8636 45.66C90.3303 45.5533 90.7103 45.4 91.0036 45.2C91.2969 45.0133 91.5036 44.7867 91.6236 44.52C91.7569 44.24 91.8236 43.9267 91.8236 43.58C91.8236 43.2467 91.7569 42.94 91.6236 42.66C91.5036 42.38 91.2969 42.1467 91.0036 41.96C90.7103 41.76 90.3303 41.6067 89.8636 41.5C89.4103 41.3933 88.8503 41.34 88.1836 41.34C87.5169 41.34 86.9503 41.3933 86.4836 41.5C86.0303 41.6067 85.6569 41.76 85.3636 41.96C85.0703 42.1467 84.8569 42.38 84.7236 42.66C84.6036 42.94 84.5436 43.2467 84.5436 43.58C84.5436 43.9267 84.6036 44.24 84.7236 44.52C84.8569 44.7867 85.0703 45.0133 85.3636 45.2C85.6569 45.4 86.0303 45.5533 86.4836 45.66C86.9503 45.7667 87.5169 45.82 88.1836 45.82ZM87.1436 34.28C87.1436 33.3467 86.8969 32.6467 86.4036 32.18C85.9236 31.7133 85.2636 31.48 84.4236 31.48C83.5836 31.48 82.9236 31.7133 82.4436 32.18C81.9769 32.6467 81.7436 33.3467 81.7436 34.28C81.7436 35.2533 81.9769 35.96 82.4436 36.4C82.9236 36.84 83.5836 37.06 84.4236 37.06C85.2503 37.06 85.9103 36.8467 86.4036 36.42C86.8969 35.98 87.1436 35.2667 87.1436 34.28ZM88.6636 34.28C88.6636 34.8533 88.5903 35.3533 88.4436 35.78H91.6836V33.18H88.5436C88.6236 33.54 88.6636 33.9067 88.6636 34.28ZM99.8731 46.76C99.5131 46.76 99.2531 46.6733 99.0931 46.5C98.9331 46.34 98.8531 46.0667 98.8531 45.68V40.4H108.893V46.76H99.8731ZM107.353 41.62H100.353V45.26C100.353 45.3667 100.373 45.44 100.413 45.48C100.453 45.52 100.533 45.54 100.653 45.54H107.353V41.62ZM108.893 33.68H111.473V35H108.893V39.2H107.353V29.88H108.893V33.68ZM104.353 30.7V37.96H97.6731C97.3131 37.96 97.0531 37.88 96.8931 37.72C96.7331 37.56 96.6531 37.2667 96.6531 36.84V30.7H104.353ZM98.1531 36.46C98.1531 36.5667 98.1665 36.64 98.1931 36.68C98.2331 36.72 98.3065 36.74 98.4131 36.74H102.873V31.92H98.1531V36.46Z" fill="#FF4646"/>
<rect opacity="0.5" x="8.5" y="68" width="66" height="12" fill="#F7FF5E"/>
<rect opacity="0.5" x="8.5" y="86" width="77" height="12" fill="#F7FF5E"/>
<path d="M1.5 6V99.5" stroke="#FF4646" stroke-width="3"/>
<path d="M18.07 66.72H18.85V79.26H18.07V66.72ZM15.43 70.53C15.43 71.16 15.345 71.715 15.175 72.195C15.005 72.675 14.72 73.12 14.32 73.53C13.93 73.94 13.415 74.345 12.775 74.745C12.135 75.145 11.35 75.585 10.42 76.065L10.045 75.42C10.975 74.95 11.735 74.52 12.325 74.13C12.925 73.74 13.395 73.365 13.735 73.005C14.085 72.635 14.325 72.26 14.455 71.88C14.585 71.5 14.65 71.085 14.65 70.635V68.25H10.15V67.575H15.43V70.53ZM26.6896 69.195C26.5496 69.465 26.3396 69.73 26.0596 69.99C25.7796 70.24 25.4496 70.48 25.0696 70.71C24.6996 70.93 24.2846 71.14 23.8246 71.34C23.3746 71.53 22.9046 71.69 22.4146 71.82L22.0846 71.235C22.6846 71.075 23.2396 70.88 23.7496 70.65C24.2696 70.41 24.7146 70.155 25.0846 69.885C25.4646 69.605 25.7596 69.32 25.9696 69.03C26.1896 68.73 26.2996 68.435 26.2996 68.145V67.71H22.9396V67.035H30.4396V67.71H27.0796V68.145C27.0796 68.455 27.1946 68.76 27.4246 69.06C27.6646 69.36 27.9796 69.645 28.3696 69.915C28.7596 70.175 29.2046 70.415 29.7046 70.635C30.2046 70.845 30.7196 71.01 31.2496 71.13L30.9646 71.73C30.5446 71.64 30.1096 71.51 29.6596 71.34C29.2096 71.16 28.7846 70.96 28.3846 70.74C27.9846 70.51 27.6296 70.265 27.3196 70.005C27.0196 69.735 26.8096 69.465 26.6896 69.195ZM26.5546 76.59V73.605H21.1996V72.93H32.1946V73.605H27.3196V76.59H26.5546ZM23.7646 78.285C23.7646 78.385 23.7746 78.445 23.7946 78.465C23.8246 78.485 23.8846 78.495 23.9746 78.495H30.6946V79.185H23.6146C23.3846 79.185 23.2246 79.125 23.1346 79.005C23.0446 78.895 22.9996 78.725 22.9996 78.495V75.285H23.7646V78.285ZM33.2992 73.845V73.17H44.2942V73.845H33.2992ZM38.7892 71.895C38.1392 71.895 37.5742 71.83 37.0942 71.7C36.6142 71.56 36.2142 71.38 35.8942 71.16C35.5842 70.93 35.3492 70.665 35.1892 70.365C35.0392 70.055 34.9642 69.725 34.9642 69.375C34.9642 69.035 35.0392 68.71 35.1892 68.4C35.3492 68.09 35.5842 67.825 35.8942 67.605C36.2142 67.375 36.6142 67.195 37.0942 67.065C37.5742 66.925 38.1392 66.855 38.7892 66.855C39.4392 66.855 40.0042 66.925 40.4842 67.065C40.9642 67.195 41.3592 67.375 41.6692 67.605C41.9892 67.825 42.2242 68.09 42.3742 68.4C42.5342 68.71 42.6142 69.035 42.6142 69.375C42.6142 69.725 42.5342 70.055 42.3742 70.365C42.2242 70.665 41.9892 70.93 41.6692 71.16C41.3592 71.38 40.9642 71.56 40.4842 71.7C40.0042 71.83 39.4392 71.895 38.7892 71.895ZM38.7892 71.22C39.3392 71.22 39.8042 71.175 40.1842 71.085C40.5742 70.995 40.8892 70.87 41.1292 70.71C41.3792 70.54 41.5592 70.345 41.6692 70.125C41.7792 69.895 41.8342 69.645 41.8342 69.375C41.8342 69.105 41.7792 68.86 41.6692 68.64C41.5592 68.41 41.3792 68.215 41.1292 68.055C40.8892 67.885 40.5742 67.755 40.1842 67.665C39.8042 67.575 39.3392 67.53 38.7892 67.53C38.2392 67.53 37.7692 67.575 37.3792 67.665C36.9992 67.755 36.6842 67.885 36.4342 68.055C36.1942 68.215 36.0192 68.41 35.9092 68.64C35.7992 68.86 35.7442 69.105 35.7442 69.375C35.7442 69.645 35.7992 69.895 35.9092 70.125C36.0192 70.345 36.1942 70.54 36.4342 70.71C36.6842 70.87 36.9992 70.995 37.3792 71.085C37.7692 71.175 38.2392 71.22 38.7892 71.22ZM35.8642 78.285C35.8642 78.385 35.8742 78.445 35.8942 78.465C35.9242 78.485 35.9842 78.495 36.0742 78.495H42.7942V79.185H35.7142C35.4842 79.185 35.3242 79.125 35.2342 79.005C35.1442 78.895 35.0992 78.725 35.0992 78.495V75.375H35.8642V78.285ZM54.8679 76.74V73.845H49.6029V73.17H60.5979V73.845H55.6329V76.74H54.8679ZM52.1679 78.285C52.1679 78.385 52.1779 78.445 52.1979 78.465C52.2279 78.485 52.2879 78.495 52.3779 78.495H59.0979V79.185H52.0179C51.7879 79.185 51.6279 79.125 51.5379 79.005C51.4479 78.895 51.4029 78.725 51.4029 78.495V75.66H52.1679V78.285ZM51.5079 66.96H52.2729V68.715H57.9129V66.96H58.6929V71.76H52.1229C51.8929 71.76 51.7329 71.705 51.6429 71.595C51.5529 71.475 51.5079 71.3 51.5079 71.07V66.96ZM57.9129 71.115V69.345H52.2729V70.905C52.2729 71.005 52.2829 71.065 52.3029 71.085C52.3329 71.105 52.3929 71.115 52.4829 71.115H57.9129ZM67.9575 72.63H62.9625C62.7325 72.63 62.5725 72.575 62.4825 72.465C62.3925 72.345 62.3475 72.17 62.3475 71.94V67.335H67.9575V68.37H70.6725V66.72H71.4525V73.92H70.6725V71.55H67.9575V72.63ZM64.0425 76.95C64.0425 76.62 64.1075 76.305 64.2375 76.005C64.3675 75.695 64.5775 75.425 64.8675 75.195C65.1675 74.955 65.5575 74.765 66.0375 74.625C66.5175 74.485 67.1125 74.415 67.8225 74.415C68.5225 74.415 69.1125 74.485 69.5925 74.625C70.0825 74.765 70.4725 74.955 70.7625 75.195C71.0625 75.425 71.2775 75.695 71.4075 76.005C71.5375 76.305 71.6025 76.62 71.6025 76.95C71.6025 77.28 71.5375 77.6 71.4075 77.91C71.2775 78.21 71.0625 78.475 70.7625 78.705C70.4725 78.945 70.0825 79.135 69.5925 79.275C69.1125 79.415 68.5225 79.485 67.8225 79.485C67.1125 79.485 66.5175 79.415 66.0375 79.275C65.5575 79.135 65.1675 78.945 64.8675 78.705C64.5775 78.475 64.3675 78.21 64.2375 77.91C64.1075 77.6 64.0425 77.28 64.0425 76.95ZM70.8375 76.95C70.8375 76.67 70.7775 76.42 70.6575 76.2C70.5475 75.97 70.3675 75.775 70.1175 75.615C69.8775 75.445 69.5675 75.315 69.1875 75.225C68.8075 75.135 68.3525 75.09 67.8225 75.09C66.7525 75.09 65.9825 75.265 65.5125 75.615C65.0425 75.955 64.8075 76.4 64.8075 76.95C64.8075 77.23 64.8625 77.485 64.9725 77.715C65.0925 77.935 65.2725 78.125 65.5125 78.285C65.7625 78.455 66.0775 78.585 66.4575 78.675C66.8375 78.765 67.2925 78.81 67.8225 78.81C68.8825 78.81 69.6475 78.64 70.1175 78.3C70.5975 77.96 70.8375 77.51 70.8375 76.95ZM63.1125 67.965V71.79C63.1125 71.89 63.1225 71.95 63.1425 71.97C63.1725 71.99 63.2325 72 63.3225 72H67.1775V67.965H63.1125ZM70.6725 69.06H67.9575V70.86H70.6725V69.06ZM80.8371 69.195V69.87H73.8771V69.195H80.8371ZM75.5271 67.005H79.3371V67.695H75.5271V67.005ZM77.4321 76.695C76.5321 76.695 75.8271 76.46 75.3171 75.99C74.8071 75.51 74.5521 74.79 74.5521 73.83C74.5521 72.87 74.8071 72.155 75.3171 71.685C75.8271 71.205 76.5321 70.965 77.4321 70.965C78.3321 70.965 79.0371 71.205 79.5471 71.685C80.0571 72.155 80.3121 72.87 80.3121 73.83C80.3121 74.79 80.0571 75.51 79.5471 75.99C79.0371 76.46 78.3321 76.695 77.4321 76.695ZM77.4321 76.035C78.0821 76.035 78.5921 75.86 78.9621 75.51C79.3421 75.16 79.5321 74.6 79.5321 73.83C79.5321 73.06 79.3421 72.5 78.9621 72.15C78.5921 71.8 78.0821 71.625 77.4321 71.625C76.7821 71.625 76.2671 71.8 75.8871 72.15C75.5171 72.5 75.3321 73.06 75.3321 73.83C75.3321 74.6 75.5171 75.16 75.8871 75.51C76.2671 75.86 76.7821 76.035 77.4321 76.035ZM85.1271 72.93H83.1021V79.26H82.3221V66.72H83.1021V72.225H85.1271V72.93ZM91.0168 76.155H96.8968V76.83H85.9168V76.155H90.2518V71.97H91.0168V76.155ZM95.1418 67.56V70.38C95.1418 70.95 95.0918 71.57 94.9918 72.24C94.8918 72.9 94.7118 73.52 94.4518 74.1L93.7468 73.95C93.9368 73.47 94.0868 72.945 94.1968 72.375C94.3068 71.805 94.3618 71.235 94.3618 70.665V68.235H87.6568V67.56H95.1418ZM18.07 84.72H18.85V90.93H18.07V84.72ZM12.925 87.675C12.835 87.965 12.695 88.26 12.505 88.56C12.325 88.85 12.1 89.14 11.83 89.43C11.56 89.71 11.25 89.98 10.9 90.24C10.55 90.5 10.165 90.74 9.745 90.96L9.37 90.45C9.85 90.19 10.28 89.91 10.66 89.61C11.05 89.3 11.385 88.965 11.665 88.605C11.945 88.245 12.16 87.86 12.31 87.45C12.46 87.03 12.535 86.58 12.535 86.1V84.915H13.315V86.1C13.315 86.99 13.575 87.76 14.095 88.41C14.625 89.06 15.365 89.645 16.315 90.165L15.955 90.66C15.185 90.26 14.54 89.805 14.02 89.295C13.5 88.785 13.135 88.245 12.925 87.675ZM12.19 97.41C11.96 97.41 11.8 97.355 11.71 97.245C11.62 97.145 11.575 96.98 11.575 96.75V94.185H18.085V92.535H11.62V91.875H18.85V94.83H12.34V96.555C12.34 96.675 12.395 96.735 12.505 96.735H19.3V97.41H12.19ZM31.3246 92.415H30.5746V88.59H28.6396V91.965H27.8896V84.885H28.6396V87.885H30.5746V84.72H31.3246V92.415ZM25.9546 85.695H22.3546V85.005H25.9546V85.695ZM24.1846 91.83C23.8446 91.83 23.5296 91.775 23.2396 91.665C22.9596 91.555 22.7146 91.4 22.5046 91.2C22.3046 91 22.1446 90.765 22.0246 90.495C21.9146 90.215 21.8596 89.91 21.8596 89.58C21.8596 89.39 21.8796 89.195 21.9196 88.995C21.9596 88.785 22.0196 88.59 22.0996 88.41C22.1896 88.23 22.2896 88.07 22.3996 87.93C22.5196 87.78 22.6546 87.665 22.8046 87.585H21.2296V86.925H27.0346V87.585H25.5796C25.7296 87.665 25.8596 87.78 25.9696 87.93C26.0896 88.07 26.1896 88.23 26.2696 88.41C26.3496 88.59 26.4096 88.785 26.4496 88.995C26.4896 89.195 26.5096 89.39 26.5096 89.58C26.5096 89.91 26.4496 90.215 26.3296 90.495C26.2196 90.765 26.0596 91 25.8496 91.2C25.6496 91.4 25.4046 91.555 25.1146 91.665C24.8346 91.775 24.5246 91.83 24.1846 91.83ZM24.1846 91.155C24.6246 91.155 24.9896 91.015 25.2796 90.735C25.5796 90.445 25.7296 90.03 25.7296 89.49C25.7296 89.27 25.7046 89.05 25.6546 88.83C25.6046 88.61 25.5196 88.42 25.3996 88.26C25.2796 88.09 25.1196 87.955 24.9196 87.855C24.7296 87.745 24.4846 87.69 24.1846 87.69C23.8846 87.69 23.6346 87.745 23.4346 87.855C23.2446 87.955 23.0896 88.09 22.9696 88.26C22.8496 88.42 22.7646 88.61 22.7146 88.83C22.6646 89.05 22.6396 89.27 22.6396 89.49C22.6396 90.03 22.7846 90.445 23.0746 90.735C23.3746 91.015 23.7446 91.155 24.1846 91.155ZM27.6646 97.47C26.9546 97.47 26.3546 97.41 25.8646 97.29C25.3846 97.18 24.9896 97.02 24.6796 96.81C24.3696 96.6 24.1446 96.355 24.0046 96.075C23.8746 95.795 23.8096 95.49 23.8096 95.16C23.8096 94.83 23.8746 94.525 24.0046 94.245C24.1446 93.955 24.3696 93.71 24.6796 93.51C24.9896 93.3 25.3846 93.135 25.8646 93.015C26.3546 92.895 26.9546 92.835 27.6646 92.835C28.3646 92.835 28.9596 92.895 29.4496 93.015C29.9396 93.135 30.3396 93.3 30.6496 93.51C30.9596 93.71 31.1796 93.955 31.3096 94.245C31.4496 94.525 31.5196 94.83 31.5196 95.16C31.5196 95.49 31.4496 95.795 31.3096 96.075C31.1796 96.355 30.9596 96.6 30.6496 96.81C30.3396 97.02 29.9396 97.18 29.4496 97.29C28.9596 97.41 28.3646 97.47 27.6646 97.47ZM27.6646 96.795C28.6646 96.795 29.4296 96.67 29.9596 96.42C30.4896 96.18 30.7546 95.76 30.7546 95.16C30.7546 94.56 30.4896 94.135 29.9596 93.885C29.4296 93.635 28.6646 93.51 27.6646 93.51C26.6646 93.51 25.8996 93.635 25.3696 93.885C24.8396 94.135 24.5746 94.56 24.5746 95.16C24.5746 95.76 24.8396 96.18 25.3696 96.42C25.8996 96.67 26.6646 96.795 27.6646 96.795ZM33.2992 91.845V91.17H44.2942V91.845H33.2992ZM38.7892 89.895C38.1392 89.895 37.5742 89.83 37.0942 89.7C36.6142 89.56 36.2142 89.38 35.8942 89.16C35.5842 88.93 35.3492 88.665 35.1892 88.365C35.0392 88.055 34.9642 87.725 34.9642 87.375C34.9642 87.035 35.0392 86.71 35.1892 86.4C35.3492 86.09 35.5842 85.825 35.8942 85.605C36.2142 85.375 36.6142 85.195 37.0942 85.065C37.5742 84.925 38.1392 84.855 38.7892 84.855C39.4392 84.855 40.0042 84.925 40.4842 85.065C40.9642 85.195 41.3592 85.375 41.6692 85.605C41.9892 85.825 42.2242 86.09 42.3742 86.4C42.5342 86.71 42.6142 87.035 42.6142 87.375C42.6142 87.725 42.5342 88.055 42.3742 88.365C42.2242 88.665 41.9892 88.93 41.6692 89.16C41.3592 89.38 40.9642 89.56 40.4842 89.7C40.0042 89.83 39.4392 89.895 38.7892 89.895ZM38.7892 89.22C39.3392 89.22 39.8042 89.175 40.1842 89.085C40.5742 88.995 40.8892 88.87 41.1292 88.71C41.3792 88.54 41.5592 88.345 41.6692 88.125C41.7792 87.895 41.8342 87.645 41.8342 87.375C41.8342 87.105 41.7792 86.86 41.6692 86.64C41.5592 86.41 41.3792 86.215 41.1292 86.055C40.8892 85.885 40.5742 85.755 40.1842 85.665C39.8042 85.575 39.3392 85.53 38.7892 85.53C38.2392 85.53 37.7692 85.575 37.3792 85.665C36.9992 85.755 36.6842 85.885 36.4342 86.055C36.1942 86.215 36.0192 86.41 35.9092 86.64C35.7992 86.86 35.7442 87.105 35.7442 87.375C35.7442 87.645 35.7992 87.895 35.9092 88.125C36.0192 88.345 36.1942 88.54 36.4342 88.71C36.6842 88.87 36.9992 88.995 37.3792 89.085C37.7692 89.175 38.2392 89.22 38.7892 89.22ZM35.8642 96.285C35.8642 96.385 35.8742 96.445 35.8942 96.465C35.9242 96.485 35.9842 96.495 36.0742 96.495H42.7942V97.185H35.7142C35.4842 97.185 35.3242 97.125 35.2342 97.005C35.1442 96.895 35.0992 96.725 35.0992 96.495V93.375H35.8642V96.285ZM52.0779 92.745H52.8429V94.365H58.5729V92.745H59.3529V97.26H52.6929C52.4629 97.26 52.3029 97.2 52.2129 97.08C52.1229 96.97 52.0779 96.8 52.0779 96.57V92.745ZM53.0679 91.77C52.2779 91.77 51.6529 91.56 51.1929 91.14C50.7329 90.72 50.5029 90.15 50.5029 89.43C50.5029 89.04 50.5829 88.665 50.7429 88.305C50.9129 87.945 51.1479 87.685 51.4479 87.525H49.5279V86.865H56.5329V87.525H54.7179C55.0179 87.685 55.2479 87.945 55.4079 88.305C55.5779 88.665 55.6629 89.04 55.6629 89.43C55.6629 90.15 55.4329 90.72 54.9729 91.14C54.5129 91.56 53.8779 91.77 53.0679 91.77ZM53.0829 87.63C52.7529 87.63 52.4729 87.685 52.2429 87.795C52.0129 87.895 51.8229 88.03 51.6729 88.2C51.5329 88.36 51.4329 88.55 51.3729 88.77C51.3129 88.99 51.2829 89.21 51.2829 89.43C51.2829 89.97 51.4329 90.385 51.7329 90.675C52.0329 90.955 52.4829 91.095 53.0829 91.095C53.6829 91.095 54.1329 90.955 54.4329 90.675C54.7329 90.385 54.8829 89.97 54.8829 89.43C54.8829 89.21 54.8529 88.99 54.7929 88.77C54.7329 88.55 54.6279 88.36 54.4779 88.2C54.3379 88.03 54.1529 87.895 53.9229 87.795C53.6929 87.685 53.4129 87.63 53.0829 87.63ZM58.5729 96.615V95.01H52.8429V96.405C52.8429 96.505 52.8529 96.565 52.8729 96.585C52.9029 96.605 52.9629 96.615 53.0529 96.615H58.5729ZM59.3529 91.785H58.5729V90.735H56.6229V90.03H58.5729V88.41H56.8479V87.705H58.5729V84.72H59.3529V91.785ZM54.8829 85.425H51.2829V84.72H54.8829V85.425ZM62.2575 87.84H66.5175V85.935H62.3175V85.275H67.2825V88.5H63.0225V90.3C63.0225 90.4 63.0325 90.46 63.0525 90.48C63.0825 90.5 63.1425 90.51 63.2325 90.51H65.3775C65.8575 90.51 66.3075 90.5 66.7275 90.48C67.1575 90.45 67.5675 90.36 67.9575 90.21L68.0475 90.795C67.6575 90.945 67.2425 91.045 66.8025 91.095C66.3725 91.145 65.8675 91.17 65.2875 91.17H62.8725C62.6425 91.17 62.4825 91.115 62.3925 91.005C62.3025 90.885 62.2575 90.71 62.2575 90.48V87.84ZM71.4525 91.98H70.6725V89.475H68.3175V88.785H70.6725V87.015H68.3175V86.325H70.6725V84.72H71.4525V91.98ZM71.4525 97.41H70.6725V93.6H64.0275V92.94H71.4525V97.41ZM77.3571 88.14C77.1971 88.73 76.8521 89.33 76.3221 89.94C75.7921 90.54 75.1021 91.06 74.2521 91.5L73.8321 90.9C74.7921 90.38 75.5471 89.75 76.0971 89.01C76.6571 88.26 76.9371 87.415 76.9371 86.475V85.995H74.2071V85.335H80.3271V85.995H77.7171V86.475C77.7171 86.945 77.8021 87.39 77.9721 87.81C78.1421 88.22 78.3671 88.61 78.6471 88.98C78.9271 89.34 79.2471 89.67 79.6071 89.97C79.9771 90.27 80.3621 90.535 80.7621 90.765L80.3721 91.35C79.6321 90.94 78.9971 90.46 78.4671 89.91C77.9471 89.35 77.5771 88.76 77.3571 88.14ZM83.5521 97.41H82.7721V93.45H76.1271V92.79H83.5521V97.41ZM83.5521 91.845H82.7721V88.395H80.0871V87.69H82.7721V84.72H83.5521V91.845ZM91.3918 91.68C90.7318 91.68 90.1568 91.6 89.6668 91.44C89.1868 91.27 88.7818 91.04 88.4518 90.75C88.1318 90.45 87.8918 90.1 87.7318 89.7C87.5718 89.29 87.4918 88.85 87.4918 88.38C87.4918 87.9 87.5718 87.46 87.7318 87.06C87.8918 86.65 88.1318 86.295 88.4518 85.995C88.7818 85.695 89.1868 85.465 89.6668 85.305C90.1568 85.135 90.7318 85.05 91.3918 85.05C92.0518 85.05 92.6218 85.135 93.1018 85.305C93.5918 85.465 93.9968 85.695 94.3168 85.995C94.6468 86.295 94.8918 86.65 95.0518 87.06C95.2118 87.46 95.2918 87.9 95.2918 88.38C95.2918 88.85 95.2118 89.29 95.0518 89.7C94.8918 90.1 94.6468 90.45 94.3168 90.75C93.9968 91.04 93.5918 91.27 93.1018 91.44C92.6218 91.6 92.0518 91.68 91.3918 91.68ZM91.3918 91.005C92.4218 91.005 93.2018 90.765 93.7318 90.285C94.2618 89.805 94.5268 89.165 94.5268 88.365C94.5268 87.565 94.2618 86.925 93.7318 86.445C93.2018 85.965 92.4218 85.725 91.3918 85.725C90.3618 85.725 89.5818 85.965 89.0518 86.445C88.5218 86.925 88.2568 87.565 88.2568 88.365C88.2568 89.165 88.5218 89.805 89.0518 90.285C89.5818 90.765 90.3618 91.005 91.3918 91.005ZM96.8968 94.155V94.83H85.9018V94.155H96.8968ZM99.8314 88.2H106.386V86.1H99.8764V85.41H107.151V88.845H100.596V90.855C100.596 90.955 100.606 91.015 100.626 91.035C100.656 91.055 100.716 91.065 100.806 91.065H107.451V91.74H103.881V94.23H108.996V94.905H98.0014V94.23H103.116V91.74H100.446C100.216 91.74 100.056 91.685 99.9664 91.575C99.8764 91.455 99.8314 91.28 99.8314 91.05V88.2ZM121.34 87.195V87.87H114.38V87.195H121.34ZM116.03 85.005H119.84V85.695H116.03V85.005ZM117.935 94.695C117.035 94.695 116.33 94.46 115.82 93.99C115.31 93.51 115.055 92.79 115.055 91.83C115.055 90.87 115.31 90.155 115.82 89.685C116.33 89.205 117.035 88.965 117.935 88.965C118.835 88.965 119.54 89.205 120.05 89.685C120.56 90.155 120.815 90.87 120.815 91.83C120.815 92.79 120.56 93.51 120.05 93.99C119.54 94.46 118.835 94.695 117.935 94.695ZM117.935 94.035C118.585 94.035 119.095 93.86 119.465 93.51C119.845 93.16 120.035 92.6 120.035 91.83C120.035 91.06 119.845 90.5 119.465 90.15C119.095 89.8 118.585 89.625 117.935 89.625C117.285 89.625 116.77 89.8 116.39 90.15C116.02 90.5 115.835 91.06 115.835 91.83C115.835 92.6 116.02 93.16 116.39 93.51C116.77 93.86 117.285 94.035 117.935 94.035ZM125.63 90.93H123.605V97.26H122.825V84.72H123.605V90.225H125.63V90.93ZM135.645 89.46H128.925C128.695 89.46 128.535 89.405 128.445 89.295C128.355 89.175 128.31 89 128.31 88.77V84.96H129.09V88.59C129.09 88.69 129.1 88.75 129.12 88.77C129.15 88.79 129.21 88.8 129.3 88.8H135.645V89.46ZM135.9 96.495V97.185H128.82C128.59 97.185 128.43 97.125 128.34 97.005C128.25 96.895 128.205 96.725 128.205 96.495V93.345H128.97V96.285C128.97 96.385 128.98 96.445 129 96.465C129.03 96.485 129.09 96.495 129.18 96.495H135.9ZM137.4 91.275V91.95H126.405V91.275H137.4ZM146.038 90.96C145.478 90.96 145.003 90.885 144.613 90.735C144.233 90.585 143.918 90.38 143.668 90.12C143.418 89.85 143.238 89.535 143.128 89.175C143.018 88.805 142.963 88.41 142.963 87.99C142.963 87.57 143.018 87.18 143.128 86.82C143.238 86.45 143.418 86.135 143.668 85.875C143.918 85.605 144.233 85.395 144.613 85.245C145.003 85.095 145.478 85.02 146.038 85.02C146.518 85.02 146.938 85.08 147.298 85.2C147.658 85.31 147.958 85.47 148.198 85.68C148.448 85.89 148.643 86.14 148.783 86.43C148.923 86.72 149.018 87.035 149.068 87.375H151.678V84.72H152.458V91.65H151.678V88.08H149.113C149.103 88.49 149.038 88.875 148.918 89.235C148.808 89.585 148.628 89.89 148.378 90.15C148.128 90.4 147.808 90.6 147.418 90.75C147.038 90.89 146.578 90.96 146.038 90.96ZM152.458 97.26H145.648C145.418 97.26 145.258 97.2 145.168 97.08C145.078 96.97 145.033 96.8 145.033 96.57V92.61H152.458V97.26ZM151.693 96.615V93.24H145.798V96.405C145.798 96.505 145.808 96.565 145.828 96.585C145.858 96.605 145.918 96.615 146.008 96.615H151.693ZM146.038 90.285C146.738 90.285 147.293 90.1 147.703 89.73C148.123 89.35 148.333 88.77 148.333 87.99C148.333 87.21 148.123 86.635 147.703 86.265C147.293 85.885 146.738 85.695 146.038 85.695C145.338 85.695 144.778 85.885 144.358 86.265C143.948 86.635 143.743 87.21 143.743 87.99C143.743 88.77 143.948 89.35 144.358 89.73C144.778 90.1 145.338 90.285 146.038 90.285ZM166.133 89.73H164.108V97.26H163.328V84.72H164.108V89.025H166.133V89.73ZM160.748 93.735H155.888C155.658 93.735 155.498 93.68 155.408 93.57C155.318 93.45 155.273 93.275 155.273 93.045V85.56H160.748V93.735ZM159.968 93.06V86.235H156.038V92.85C156.038 92.95 156.048 93.01 156.068 93.03C156.098 93.05 156.158 93.06 156.248 93.06H159.968Z" fill="#282828"/>
</svg>
