<svg width="204" height="102" viewBox="0 0 204 102" fill="none" xmlns="http://www.w3.org/2000/svg">
<path d="M13.468 14.168V20H10.3V3.872H16.324C18.26 3.872 19.724 4.296 20.716 5.144C21.724 5.992 22.228 7.288 22.228 9.032C22.228 10.76 21.724 12.048 20.716 12.896C19.724 13.744 18.26 14.168 16.324 14.168H13.468ZM13.468 6.44V11.6H16.276C17.14 11.6 17.82 11.392 18.316 10.976C18.812 10.544 19.06 9.896 19.06 9.032C19.06 8.168 18.812 7.52 18.316 7.088C17.82 6.656 17.14 6.44 16.276 6.44H13.468ZM35.7563 3.872V6.44H31.1483V20H27.9803V6.44H23.3483V3.872H35.7563ZM38.3374 3.872H41.5054V20H38.3374V3.872ZM56.2105 17.432V20H45.3625V3.872H55.9705V6.44H48.5305V10.328H55.7065V12.848H48.5305V17.432H56.2105Z" fill="#FF4646"/>
<path d="M17.96 38.82H11.14C10.4867 38.82 10.16 38.46 10.16 37.74V30.64H11.62V33.4H16.46V30.64H17.96V38.82ZM16.46 37.56V34.68H11.62V37.24C11.62 37.3733 11.64 37.46 11.68 37.5C11.7333 37.54 11.8267 37.56 11.96 37.56H16.46ZM13.58 46.66C12.8467 46.66 12.48 46.3067 12.48 45.6V41.16H13.98V45.02C13.98 45.1933 14 45.2933 14.04 45.32C14.08 45.36 14.18 45.38 14.34 45.38H22.92V46.66H13.58ZM21 29.88H22.52V42.06H21V29.88ZM27.9295 30.14H37.8695V31.36H29.4295V32.9H37.6695V34.08H29.4295V35.58C29.4295 35.7 29.4429 35.7733 29.4695 35.8C29.5095 35.8267 29.5829 35.84 29.6895 35.84H38.0695V37.02H29.0095C28.6229 37.02 28.3429 36.94 28.1695 36.78C28.0095 36.6067 27.9295 36.3133 27.9295 35.9V30.14ZM27.7295 41.38H38.0695V46.76H28.7295C28.3829 46.76 28.1295 46.68 27.9695 46.52C27.8095 46.36 27.7295 46.0933 27.7295 45.72V41.38ZM36.5495 45.54V42.62H29.2495V45.26C29.2495 45.38 29.2629 45.4533 29.2895 45.48C29.3295 45.52 29.4162 45.54 29.5495 45.54H36.5495ZM40.2895 38.58V39.84H25.4695V38.58H40.2895ZM53.5391 33.12V29.88H55.0591V38.94H53.5391V34.42H50.5191C50.4924 34.9267 50.3924 35.4067 50.2191 35.86C50.0591 36.3133 49.8057 36.7133 49.4591 37.06C49.1257 37.3933 48.6991 37.66 48.1791 37.86C47.6591 38.0467 47.0324 38.14 46.2991 38.14C45.5391 38.14 44.8924 38.0333 44.3591 37.82C43.8257 37.6067 43.3924 37.32 43.0591 36.96C42.7391 36.6 42.4991 36.18 42.3391 35.7C42.1924 35.22 42.1191 34.7133 42.1191 34.18C42.1191 33.6467 42.1924 33.14 42.3391 32.66C42.4991 32.18 42.7391 31.76 43.0591 31.4C43.3924 31.0267 43.8257 30.7333 44.3591 30.52C44.8924 30.3067 45.5391 30.2 46.2991 30.2C46.9257 30.2 47.4724 30.28 47.9391 30.44C48.4191 30.5867 48.8257 30.7933 49.1591 31.06C49.5057 31.3133 49.7791 31.62 49.9791 31.98C50.1791 32.3267 50.3257 32.7067 50.4191 33.12H53.5391ZM49.1991 46.76H45.1391C44.8057 46.76 44.5391 46.6667 44.3391 46.48C44.1391 46.2933 44.0391 46 44.0391 45.6V40.14H45.4191V42.46H47.8191V40.14H49.1991V46.76ZM49.0191 34.18C49.0191 33.2467 48.7724 32.5533 48.2791 32.1C47.7991 31.6333 47.1391 31.4 46.2991 31.4C45.4591 31.4 44.7991 31.6333 44.3191 32.1C43.8524 32.5533 43.6191 33.2467 43.6191 34.18C43.6191 35.1533 43.8524 35.86 44.3191 36.3C44.7991 36.7267 45.4591 36.94 46.2991 36.94C47.1257 36.94 47.7857 36.7267 48.2791 36.3C48.7724 35.8733 49.0191 35.1667 49.0191 34.18ZM52.9591 44.06C52.8791 44.26 52.7591 44.4867 52.5991 44.74C52.4524 44.9933 52.2657 45.2467 52.0391 45.5C51.8257 45.7667 51.5791 46.0267 51.2991 46.28C51.0324 46.5333 50.7457 46.76 50.4391 46.96L49.5391 45.98C49.9524 45.7133 50.3191 45.4133 50.6391 45.08C50.9724 44.7467 51.2524 44.4 51.4791 44.04C51.7191 43.6667 51.8991 43.3 52.0191 42.94C52.1524 42.5667 52.2191 42.22 52.2191 41.9V40.14H53.6991V41.9C53.6991 42.22 53.7591 42.5667 53.8791 42.94C53.9991 43.3 54.1724 43.6667 54.3991 44.04C54.6391 44.4 54.9191 44.7467 55.2391 45.08C55.5724 45.4133 55.9457 45.7133 56.3591 45.98L55.4591 46.96C55.1524 46.76 54.8657 46.5333 54.5991 46.28C54.3324 46.0267 54.0924 45.7667 53.8791 45.5C53.6657 45.2467 53.4791 44.9933 53.3191 44.74C53.1724 44.4867 53.0524 44.26 52.9591 44.06ZM47.8191 45.56V43.6H45.4191V45.2C45.4191 45.3333 45.4324 45.4267 45.4591 45.48C45.4991 45.5333 45.5991 45.56 45.7591 45.56H47.8191ZM72.8486 38.3V39.56H58.0286V38.3H72.8486ZM61.4886 36.3C61.1153 36.3 60.8486 36.2 60.6886 36C60.5419 35.8 60.4686 35.5133 60.4686 35.14V30.2H61.9886V34.74C61.9886 34.8733 62.0019 34.96 62.0286 35C62.0686 35.0267 62.1553 35.04 62.2886 35.04H70.6086V36.3H61.4886ZM70.9286 46.66H61.5086C61.1486 46.66 60.8686 46.5667 60.6686 46.38C60.4686 46.2067 60.3686 45.92 60.3686 45.52V41.38H61.8886V45.02C61.8886 45.1667 61.9086 45.26 61.9486 45.3C61.9886 45.3533 62.0819 45.38 62.2286 45.38H70.9286V46.66ZM84.6436 35.64C84.4836 36.0267 84.2636 36.4067 83.9836 36.78C83.7036 37.14 83.3836 37.48 83.0236 37.8C82.6636 38.12 82.2769 38.4133 81.8636 38.68C81.4636 38.9333 81.0636 39.16 80.6636 39.36L79.8636 38.22C81.1569 37.54 82.1436 36.7533 82.8236 35.86C83.5036 34.9667 83.8436 34.0133 83.8436 33V32.1H80.5036V30.84H88.8436V32.1H85.4436V33C85.4436 33.88 85.7569 34.76 86.3836 35.64C87.0103 36.5067 88.0236 37.3 89.4236 38.02L88.6236 39.16C88.2503 38.9867 87.8703 38.7733 87.4836 38.52C87.0969 38.2667 86.7236 37.9933 86.3636 37.7C86.0036 37.3933 85.6769 37.0667 85.3836 36.72C85.0903 36.3733 84.8436 36.0133 84.6436 35.64ZM88.3436 33.88H91.6836V29.88H93.2036V41.96H91.6836V35.18H88.3436V33.88ZM84.2636 46.66C83.5303 46.66 83.1636 46.3067 83.1636 45.6V40.86H84.6636V45.02C84.6636 45.1933 84.6836 45.2933 84.7236 45.32C84.7636 45.36 84.8636 45.38 85.0236 45.38H93.6036V46.66H84.2636ZM111.473 36.94H108.893V39.64H107.373V37.96C106.986 38.2 106.466 38.4 105.813 38.56C105.173 38.72 104.453 38.8 103.653 38.8H97.9931C97.6065 38.8 97.3131 38.7067 97.1131 38.52C96.9265 38.3333 96.8331 38.02 96.8331 37.58V34.08H102.473V31.86H96.8931V30.62H103.993V35.26H98.3331V37.22C98.3331 37.3667 98.3531 37.4667 98.3931 37.52C98.4465 37.56 98.5398 37.58 98.6731 37.58H103.813C104.533 37.58 105.193 37.5133 105.793 37.38C106.393 37.2467 106.92 37.0667 107.373 36.84V29.88H108.893V32.22H111.473V33.48H108.893V35.68H111.473V36.94ZM108.893 46.96H107.373V42.1H98.6531V40.84H108.893V46.96ZM116.143 46.76C115.783 46.76 115.523 46.6733 115.363 46.5C115.203 46.34 115.123 46.0667 115.123 45.68V40.4H125.163V46.76H116.143ZM123.623 41.62H116.623V45.26C116.623 45.3667 116.643 45.44 116.683 45.48C116.723 45.52 116.803 45.54 116.923 45.54H123.623V41.62ZM125.163 33.68H127.743V35H125.163V39.2H123.623V29.88H125.163V33.68ZM120.623 30.7V37.96H113.943C113.583 37.96 113.323 37.88 113.163 37.72C113.003 37.56 112.923 37.2667 112.923 36.84V30.7H120.623ZM114.423 36.46C114.423 36.5667 114.436 36.64 114.463 36.68C114.503 36.72 114.576 36.74 114.683 36.74H119.143V31.92H114.423V36.46Z" fill="#FF4646"/>
<rect opacity="0.5" x="35.5" y="86" width="67" height="12" fill="#F7FF5E"/>
<path d="M12.055 72.69C11.865 73.29 11.55 73.895 11.11 74.505C10.67 75.115 10.11 75.7 9.43 76.26L8.965 75.75C9.285 75.47 9.605 75.165 9.925 74.835C10.255 74.495 10.545 74.115 10.795 73.695C11.055 73.275 11.265 72.815 11.425 72.315C11.585 71.805 11.665 71.24 11.665 70.62V69.975H9.505V69.315H14.44V69.975H12.445V70.62C12.445 71.22 12.525 71.77 12.685 72.27C12.845 72.77 13.055 73.23 13.315 73.65C13.575 74.07 13.86 74.45 14.17 74.79C14.49 75.12 14.81 75.41 15.13 75.66L14.68 76.185C14.41 75.985 14.14 75.745 13.87 75.465C13.6 75.185 13.345 74.89 13.105 74.58C12.865 74.27 12.65 73.955 12.46 73.635C12.28 73.305 12.145 72.99 12.055 72.69ZM13.975 71.7H16.285V66.885H17.035V78.84H16.285V72.39H13.975V71.7ZM19.225 79.26H18.475V66.72H19.225V79.26ZM10.345 67.155H13.615V67.86H10.345V67.155ZM26.0296 70.53C26.0296 71.09 25.9746 71.605 25.8646 72.075C25.7546 72.535 25.5496 72.985 25.2496 73.425C24.9496 73.865 24.5296 74.31 23.9896 74.76C23.4596 75.21 22.7746 75.705 21.9346 76.245L21.5146 75.63C22.3046 75.13 22.9446 74.67 23.4346 74.25C23.9246 73.82 24.3046 73.41 24.5746 73.02C24.8446 72.63 25.0246 72.255 25.1146 71.895C25.2146 71.525 25.2646 71.145 25.2646 70.755V68.295H21.6196V67.62H26.0296V69.51H28.3246V66.885H29.0896V78.84H28.3246V73.695H25.8046V73.005H28.3246V70.2H26.0296V70.53ZM31.3246 79.26H30.5596V66.72H31.3246V79.26ZM36.8542 70.14C36.6942 70.73 36.3492 71.33 35.8192 71.94C35.2892 72.54 34.5992 73.06 33.7492 73.5L33.3292 72.9C34.2892 72.38 35.0442 71.75 35.5942 71.01C36.1542 70.26 36.4342 69.415 36.4342 68.475V67.995H33.7042V67.335H39.8242V67.995H37.2142V68.475C37.2142 68.945 37.2992 69.39 37.4692 69.81C37.6392 70.22 37.8642 70.61 38.1442 70.98C38.4242 71.34 38.7442 71.67 39.1042 71.97C39.4742 72.27 39.8592 72.535 40.2592 72.765L39.8692 73.35C39.1292 72.94 38.4942 72.46 37.9642 71.91C37.4442 71.35 37.0742 70.76 36.8542 70.14ZM43.0492 79.41H42.2692V75.45H35.6242V74.79H43.0492V79.41ZM43.0492 73.845H42.2692V70.395H39.5842V69.69H42.2692V66.72H43.0492V73.845ZM50.8888 73.68C50.2288 73.68 49.6538 73.6 49.1638 73.44C48.6838 73.27 48.2788 73.04 47.9488 72.75C47.6288 72.45 47.3888 72.1 47.2288 71.7C47.0688 71.29 46.9888 70.85 46.9888 70.38C46.9888 69.9 47.0688 69.46 47.2288 69.06C47.3888 68.65 47.6288 68.295 47.9488 67.995C48.2788 67.695 48.6838 67.465 49.1638 67.305C49.6538 67.135 50.2288 67.05 50.8888 67.05C51.5488 67.05 52.1188 67.135 52.5988 67.305C53.0888 67.465 53.4938 67.695 53.8138 67.995C54.1438 68.295 54.3888 68.65 54.5488 69.06C54.7088 69.46 54.7888 69.9 54.7888 70.38C54.7888 70.85 54.7088 71.29 54.5488 71.7C54.3888 72.1 54.1438 72.45 53.8138 72.75C53.4938 73.04 53.0888 73.27 52.5988 73.44C52.1188 73.6 51.5488 73.68 50.8888 73.68ZM50.8888 73.005C51.9188 73.005 52.6988 72.765 53.2288 72.285C53.7588 71.805 54.0238 71.165 54.0238 70.365C54.0238 69.565 53.7588 68.925 53.2288 68.445C52.6988 67.965 51.9188 67.725 50.8888 67.725C49.8588 67.725 49.0788 67.965 48.5488 68.445C48.0188 68.925 47.7538 69.565 47.7538 70.365C47.7538 71.165 48.0188 71.805 48.5488 72.285C49.0788 72.765 49.8588 73.005 50.8888 73.005ZM56.3938 76.155V76.83H45.3988V76.155H56.3938ZM59.3284 70.2H65.8834V68.1H59.3734V67.41H66.6484V70.845H60.0934V72.855C60.0934 72.955 60.1034 73.015 60.1234 73.035C60.1534 73.055 60.2134 73.065 60.3034 73.065H66.9484V73.74H63.3784V76.23H68.4934V76.905H57.4984V76.23H62.6134V73.74H59.9434C59.7134 73.74 59.5534 73.685 59.4634 73.575C59.3734 73.455 59.3284 73.28 59.3284 73.05V70.2ZM79.9371 68.895H82.7721V66.72H83.5521V72.93H82.7721V69.6H79.9371V68.895ZM77.4471 69.675C77.3571 69.965 77.2171 70.26 77.0271 70.56C76.8471 70.85 76.6221 71.14 76.3521 71.43C76.0821 71.71 75.7721 71.98 75.4221 72.24C75.0721 72.5 74.6871 72.74 74.2671 72.96L73.8921 72.375C74.3721 72.115 74.8021 71.825 75.1821 71.505C75.5721 71.185 75.9071 70.84 76.1871 70.47C76.4671 70.1 76.6821 69.715 76.8321 69.315C76.9821 68.905 77.0571 68.48 77.0571 68.04V66.915H77.8371V68.04C77.8371 68.89 78.1021 69.645 78.6321 70.305C79.1621 70.965 79.9071 71.555 80.8671 72.075L80.4771 72.66C79.7071 72.26 79.0621 71.805 78.5421 71.295C78.0221 70.785 77.6571 70.245 77.4471 69.675ZM76.8921 79.41C76.6621 79.41 76.5021 79.355 76.4121 79.245C76.3221 79.145 76.2771 78.98 76.2771 78.75V76.185H82.7871V74.535H76.3221V73.875H83.5521V76.83H77.0421V78.555C77.0421 78.675 77.0971 78.735 77.2071 78.735H84.0021V79.41H76.8921ZM90.7318 70.53C90.7318 71.09 90.6768 71.605 90.5668 72.075C90.4568 72.535 90.2518 72.985 89.9518 73.425C89.6518 73.865 89.2318 74.31 88.6918 74.76C88.1618 75.21 87.4768 75.705 86.6368 76.245L86.2168 75.63C87.0068 75.13 87.6468 74.67 88.1368 74.25C88.6268 73.82 89.0068 73.41 89.2768 73.02C89.5468 72.63 89.7268 72.255 89.8168 71.895C89.9168 71.525 89.9668 71.145 89.9668 70.755V68.295H86.3218V67.62H90.7318V69.51H93.0268V66.885H93.7918V78.84H93.0268V73.695H90.5068V73.005H93.0268V70.2H90.7318V70.53ZM96.0268 79.26H95.2618V66.72H96.0268V79.26ZM105.036 69.195V69.87H98.0764V69.195H105.036ZM99.7264 67.005H103.536V67.695H99.7264V67.005ZM101.631 76.695C100.731 76.695 100.026 76.46 99.5164 75.99C99.0064 75.51 98.7514 74.79 98.7514 73.83C98.7514 72.87 99.0064 72.155 99.5164 71.685C100.026 71.205 100.731 70.965 101.631 70.965C102.531 70.965 103.236 71.205 103.746 71.685C104.256 72.155 104.511 72.87 104.511 73.83C104.511 74.79 104.256 75.51 103.746 75.99C103.236 76.46 102.531 76.695 101.631 76.695ZM101.631 76.035C102.281 76.035 102.791 75.86 103.161 75.51C103.541 75.16 103.731 74.6 103.731 73.83C103.731 73.06 103.541 72.5 103.161 72.15C102.791 71.8 102.281 71.625 101.631 71.625C100.981 71.625 100.466 71.8 100.086 72.15C99.7164 72.5 99.5314 73.06 99.5314 73.83C99.5314 74.6 99.7164 75.16 100.086 75.51C100.466 75.86 100.981 76.035 101.631 76.035ZM109.326 72.93H107.301V79.26H106.521V66.72H107.301V72.225H109.326V72.93ZM115.216 76.155H121.096V76.83H110.116V76.155H114.451V71.97H115.216V76.155ZM119.341 67.56V70.38C119.341 70.95 119.291 71.57 119.191 72.24C119.091 72.9 118.911 73.52 118.651 74.1L117.946 73.95C118.136 73.47 118.286 72.945 118.396 72.375C118.506 71.805 118.561 71.235 118.561 70.665V68.235H111.856V67.56H119.341ZM20.425 89.655H18.4V97.26H17.62V84.72H18.4V88.95H20.425V89.655ZM14.965 88.53C14.965 89.16 14.88 89.715 14.71 90.195C14.54 90.675 14.255 91.12 13.855 91.53C13.465 91.94 12.95 92.345 12.31 92.745C11.67 93.145 10.885 93.585 9.955 94.065L9.58 93.42C10.51 92.95 11.27 92.52 11.86 92.13C12.46 91.74 12.93 91.365 13.27 91.005C13.62 90.635 13.86 90.26 13.99 89.88C14.12 89.5 14.185 89.085 14.185 88.635V86.235H9.685V85.56H14.965V88.53ZM23.0896 94.95C23.0896 94.62 23.1546 94.305 23.2846 94.005C23.4146 93.695 23.6246 93.425 23.9146 93.195C24.2146 92.955 24.6046 92.765 25.0846 92.625C25.5646 92.485 26.1596 92.415 26.8696 92.415C27.5696 92.415 28.1596 92.485 28.6396 92.625C29.1296 92.765 29.5196 92.955 29.8096 93.195C30.1096 93.425 30.3246 93.695 30.4546 94.005C30.5846 94.305 30.6496 94.62 30.6496 94.95C30.6496 95.28 30.5846 95.6 30.4546 95.91C30.3246 96.21 30.1096 96.475 29.8096 96.705C29.5196 96.945 29.1296 97.135 28.6396 97.275C28.1596 97.415 27.5696 97.485 26.8696 97.485C26.1596 97.485 25.5646 97.415 25.0846 97.275C24.6046 97.135 24.2146 96.945 23.9146 96.705C23.6246 96.475 23.4146 96.21 23.2846 95.91C23.1546 95.6 23.0896 95.28 23.0896 94.95ZM29.8846 94.95C29.8846 94.67 29.8246 94.42 29.7046 94.2C29.5946 93.97 29.4146 93.775 29.1646 93.615C28.9246 93.445 28.6146 93.315 28.2346 93.225C27.8546 93.135 27.3996 93.09 26.8696 93.09C25.7996 93.09 25.0296 93.265 24.5596 93.615C24.0896 93.955 23.8546 94.4 23.8546 94.95C23.8546 95.23 23.9096 95.485 24.0196 95.715C24.1396 95.935 24.3196 96.125 24.5596 96.285C24.8096 96.455 25.1246 96.585 25.5046 96.675C25.8846 96.765 26.3396 96.81 26.8696 96.81C27.9296 96.81 28.6946 96.64 29.1646 96.3C29.6446 95.96 29.8846 95.51 29.8846 94.95ZM24.7546 87.99C24.5946 88.58 24.2496 89.18 23.7196 89.79C23.1896 90.39 22.4996 90.91 21.6496 91.35L21.2296 90.75C22.1896 90.23 22.9446 89.6 23.4946 88.86C24.0546 88.11 24.3346 87.265 24.3346 86.325V85.995H21.6046V85.335H27.7246V85.995H25.1146V86.325C25.1146 86.795 25.1996 87.24 25.3696 87.66C25.5396 88.07 25.7646 88.46 26.0446 88.83C26.3246 89.19 26.6446 89.52 27.0046 89.82C27.3746 90.12 27.7596 90.385 28.1596 90.615L27.7696 91.2C27.0296 90.79 26.3946 90.31 25.8646 89.76C25.3446 89.2 24.9746 88.61 24.7546 87.99ZM32.5246 88.335H30.4996V91.92H29.7196V84.72H30.4996V87.645H32.5246V88.335ZM48.4983 94.155V94.83H37.5033V94.155H40.6533V91.845C39.9633 91.415 39.6183 90.765 39.6183 89.895C39.6183 89.355 39.7433 88.91 39.9933 88.56C40.2533 88.21 40.5683 87.96 40.9383 87.81H38.4633V87.12H47.5233V87.81H45.0483C45.4183 87.96 45.7283 88.21 45.9783 88.56C46.2383 88.91 46.3683 89.355 46.3683 89.895C46.3683 90.735 46.0433 91.375 45.3933 91.815V94.155H48.4983ZM42.9933 87.9C42.2033 87.9 41.5733 88.07 41.1033 88.41C40.6333 88.74 40.3983 89.235 40.3983 89.895C40.3983 90.475 40.6083 90.925 41.0283 91.245C41.4583 91.555 42.1133 91.71 42.9933 91.71C43.8733 91.71 44.5233 91.555 44.9433 91.245C45.3733 90.925 45.5883 90.475 45.5883 89.895C45.5883 89.235 45.3533 88.74 44.8833 88.41C44.4133 88.07 43.7833 87.9 42.9933 87.9ZM42.9933 92.385C42.3733 92.385 41.8533 92.32 41.4333 92.19V94.155H44.6133V92.175C44.3833 92.255 44.1333 92.31 43.8633 92.34C43.6033 92.37 43.3133 92.385 42.9933 92.385ZM40.8183 84.945H45.1533V85.68H40.8183V84.945ZM58.8729 95.085H52.0929V96.555C52.0929 96.635 52.0979 96.685 52.1079 96.705C52.1279 96.725 52.1729 96.735 52.2429 96.735H59.1729V97.41H51.9429C51.7329 97.41 51.5779 97.365 51.4779 97.275C51.3779 97.185 51.3279 97.015 51.3279 96.765V94.425H58.1079V92.97H51.3729V92.31H52.8429V90.825H49.6029V90.165H60.5979V90.825H57.4479V92.31H58.8729V95.085ZM55.0929 89.25C53.7829 89.25 52.8179 89.04 52.1979 88.62C51.5779 88.2 51.2679 87.655 51.2679 86.985C51.2679 86.315 51.5779 85.77 52.1979 85.35C52.8179 84.93 53.7829 84.72 55.0929 84.72C56.4029 84.72 57.3679 84.93 57.9879 85.35C58.6079 85.77 58.9179 86.315 58.9179 86.985C58.9179 87.655 58.6079 88.2 57.9879 88.62C57.3679 89.04 56.4029 89.25 55.0929 89.25ZM55.0929 88.575C55.6429 88.575 56.1079 88.54 56.4879 88.47C56.8779 88.39 57.1929 88.28 57.4329 88.14C57.6829 88 57.8629 87.835 57.9729 87.645C58.0829 87.445 58.1379 87.225 58.1379 86.985C58.1379 86.745 58.0829 86.53 57.9729 86.34C57.8629 86.14 57.6829 85.97 57.4329 85.83C57.1929 85.69 56.8779 85.585 56.4879 85.515C56.1079 85.435 55.6429 85.395 55.0929 85.395C54.5429 85.395 54.0729 85.435 53.6829 85.515C53.3029 85.585 52.9879 85.69 52.7379 85.83C52.4979 85.97 52.3229 86.14 52.2129 86.34C52.1029 86.53 52.0479 86.745 52.0479 86.985C52.0479 87.225 52.1029 87.445 52.2129 87.645C52.3229 87.835 52.4979 88 52.7379 88.14C52.9879 88.28 53.3029 88.39 53.6829 88.47C54.0729 88.54 54.5429 88.575 55.0929 88.575ZM56.6829 90.825H53.6079V92.31H56.6829V90.825ZM65.2575 88.14C65.0975 88.73 64.7525 89.33 64.2225 89.94C63.6925 90.54 63.0025 91.06 62.1525 91.5L61.7325 90.9C62.6925 90.38 63.4475 89.75 63.9975 89.01C64.5575 88.26 64.8375 87.415 64.8375 86.475V85.995H62.1075V85.335H68.2275V85.995H65.6175V86.475C65.6175 86.945 65.7025 87.39 65.8725 87.81C66.0425 88.22 66.2675 88.61 66.5475 88.98C66.8275 89.34 67.1475 89.67 67.5075 89.97C67.8775 90.27 68.2625 90.535 68.6625 90.765L68.2725 91.35C67.5325 90.94 66.8975 90.46 66.3675 89.91C65.8475 89.35 65.4775 88.76 65.2575 88.14ZM71.4525 97.41H70.6725V93.45H64.0275V92.79H71.4525V97.41ZM71.4525 91.845H70.6725V88.395H67.9875V87.69H70.6725V84.72H71.4525V91.845ZM83.5521 93.495H82.7721V84.72H83.5521V93.495ZM77.2671 91.23C76.7071 91.23 76.2321 91.15 75.8421 90.99C75.4521 90.82 75.1321 90.595 74.8821 90.315C74.6321 90.035 74.4521 89.71 74.3421 89.34C74.2321 88.96 74.1771 88.555 74.1771 88.125C74.1771 87.695 74.2321 87.295 74.3421 86.925C74.4521 86.545 74.6321 86.215 74.8821 85.935C75.1321 85.655 75.4521 85.435 75.8421 85.275C76.2321 85.105 76.7071 85.02 77.2671 85.02C77.8271 85.02 78.3021 85.105 78.6921 85.275C79.0821 85.435 79.4021 85.655 79.6521 85.935C79.9021 86.215 80.0821 86.545 80.1921 86.925C80.3021 87.295 80.3571 87.695 80.3571 88.125C80.3571 88.555 80.3021 88.96 80.1921 89.34C80.0821 89.71 79.9021 90.035 79.6521 90.315C79.4021 90.595 79.0821 90.82 78.6921 90.99C78.3021 91.15 77.8271 91.23 77.2671 91.23ZM77.2671 90.555C77.9771 90.555 78.5371 90.345 78.9471 89.925C79.3671 89.505 79.5771 88.905 79.5771 88.125C79.5771 87.345 79.3671 86.745 78.9471 86.325C78.5371 85.905 77.9771 85.695 77.2671 85.695C76.5571 85.695 75.9921 85.905 75.5721 86.325C75.1621 86.745 74.9571 87.345 74.9571 88.125C74.9571 88.905 75.1621 89.505 75.5721 89.925C75.9921 90.345 76.5571 90.555 77.2671 90.555ZM77.0421 96.285C77.0421 96.385 77.0521 96.445 77.0721 96.465C77.1021 96.485 77.1621 96.495 77.2521 96.495H83.8521V97.185H76.8921C76.6621 97.185 76.5021 97.125 76.4121 97.005C76.3221 96.895 76.2771 96.725 76.2771 96.495V92.805H77.0421V96.285ZM92.1309 92.22H92.8959V94.065H98.6259V92.22H99.4059V97.26H92.7459C92.5159 97.26 92.3559 97.2 92.2659 97.08C92.1759 96.97 92.1309 96.8 92.1309 96.57V92.22ZM95.9409 89.85C96.4809 89.85 96.9709 89.8 97.4109 89.7C97.8609 89.6 98.2659 89.47 98.6259 89.31V84.72H99.4059V87.42H101.431V88.125H99.4059V91.26H98.6259V89.895C98.2859 90.055 97.8659 90.2 97.3659 90.33C96.8659 90.45 96.3259 90.51 95.7459 90.51H91.2609C91.0309 90.51 90.8709 90.455 90.7809 90.345C90.6909 90.225 90.6459 90.05 90.6459 89.82V85.335H95.9559V86.01H91.4259V89.64C91.4259 89.74 91.4359 89.8 91.4559 89.82C91.4859 89.84 91.5459 89.85 91.6359 89.85H95.9409ZM98.6259 96.615V94.71H92.8959V96.405C92.8959 96.505 92.9059 96.565 92.9259 96.585C92.9559 96.605 93.0159 96.615 93.1059 96.615H98.6259ZM102.205 90.93V90.255H113.2V90.93H102.205ZM111.475 95.085H104.695V96.555C104.695 96.635 104.7 96.685 104.71 96.705C104.73 96.725 104.775 96.735 104.845 96.735H111.775V97.41H104.545C104.335 97.41 104.18 97.365 104.08 97.275C103.98 97.185 103.93 97.015 103.93 96.765V94.425H110.71V93H103.975V92.34H111.475V95.085ZM107.695 89.25C106.385 89.25 105.42 89.04 104.8 88.62C104.18 88.2 103.87 87.655 103.87 86.985C103.87 86.315 104.18 85.77 104.8 85.35C105.42 84.93 106.385 84.72 107.695 84.72C109.005 84.72 109.97 84.93 110.59 85.35C111.21 85.77 111.52 86.315 111.52 86.985C111.52 87.655 111.21 88.2 110.59 88.62C109.97 89.04 109.005 89.25 107.695 89.25ZM107.695 88.575C108.245 88.575 108.71 88.54 109.09 88.47C109.48 88.39 109.795 88.28 110.035 88.14C110.285 88 110.465 87.835 110.575 87.645C110.685 87.445 110.74 87.225 110.74 86.985C110.74 86.745 110.685 86.53 110.575 86.34C110.465 86.14 110.285 85.97 110.035 85.83C109.795 85.69 109.48 85.585 109.09 85.515C108.71 85.435 108.245 85.395 107.695 85.395C107.145 85.395 106.675 85.435 106.285 85.515C105.905 85.585 105.59 85.69 105.34 85.83C105.1 85.97 104.925 86.14 104.815 86.34C104.705 86.53 104.65 86.745 104.65 86.985C104.65 87.225 104.705 87.445 104.815 87.645C104.925 87.835 105.1 88 105.34 88.14C105.59 88.28 105.905 88.39 106.285 88.47C106.675 88.54 107.145 88.575 107.695 88.575ZM124.179 94.965C124.059 95.205 123.879 95.445 123.639 95.685C123.399 95.925 123.109 96.15 122.769 96.36C122.429 96.58 122.044 96.78 121.614 96.96C121.194 97.14 120.739 97.29 120.249 97.41L119.994 96.795C120.614 96.625 121.159 96.42 121.629 96.18C122.099 95.95 122.489 95.705 122.799 95.445C123.119 95.175 123.359 94.905 123.519 94.635C123.679 94.365 123.759 94.105 123.759 93.855V93.555H120.369V92.91H127.989V93.555H124.599V93.855C124.599 94.095 124.679 94.35 124.839 94.62C124.999 94.89 125.234 95.16 125.544 95.43C125.864 95.69 126.259 95.94 126.729 96.18C127.199 96.42 127.744 96.625 128.364 96.795L128.109 97.41C127.649 97.3 127.204 97.15 126.774 96.96C126.354 96.78 125.969 96.575 125.619 96.345C125.279 96.125 124.984 95.895 124.734 95.655C124.484 95.415 124.299 95.185 124.179 94.965ZM121.914 89.34C121.764 89.6 121.579 89.85 121.359 90.09C121.139 90.32 120.894 90.54 120.624 90.75C120.364 90.95 120.089 91.14 119.799 91.32C119.509 91.5 119.219 91.655 118.929 91.785L118.554 91.26C119.464 90.81 120.184 90.32 120.714 89.79C121.254 89.25 121.524 88.68 121.524 88.08V87.45H118.854V86.79H124.974V87.45H122.304V88.08C122.304 88.38 122.379 88.67 122.529 88.95C122.689 89.22 122.899 89.475 123.159 89.715C123.429 89.955 123.744 90.18 124.104 90.39C124.474 90.6 124.869 90.795 125.289 90.975L124.974 91.515C124.684 91.415 124.389 91.29 124.089 91.14C123.799 90.98 123.514 90.81 123.234 90.63C122.964 90.44 122.714 90.235 122.484 90.015C122.254 89.795 122.064 89.57 121.914 89.34ZM129.834 88.95H127.809V91.95H127.029V84.72H127.809V88.26H129.834V88.95ZM120.039 84.72H123.789V85.425H120.039V84.72ZM139.849 89.46H133.129C132.899 89.46 132.739 89.405 132.649 89.295C132.559 89.175 132.514 89 132.514 88.77V84.96H133.294V88.59C133.294 88.69 133.304 88.75 133.324 88.77C133.354 88.79 133.414 88.8 133.504 88.8H139.849V89.46ZM140.104 96.495V97.185H133.024C132.794 97.185 132.634 97.125 132.544 97.005C132.454 96.895 132.409 96.725 132.409 96.495V93.345H133.174V96.285C133.174 96.385 133.184 96.445 133.204 96.465C133.234 96.485 133.294 96.495 133.384 96.495H140.104ZM141.604 91.275V91.95H130.609V91.275H141.604ZM150.243 90.96C149.683 90.96 149.208 90.885 148.818 90.735C148.438 90.585 148.123 90.38 147.873 90.12C147.623 89.85 147.443 89.535 147.333 89.175C147.223 88.805 147.168 88.41 147.168 87.99C147.168 87.57 147.223 87.18 147.333 86.82C147.443 86.45 147.623 86.135 147.873 85.875C148.123 85.605 148.438 85.395 148.818 85.245C149.208 85.095 149.683 85.02 150.243 85.02C150.723 85.02 151.143 85.08 151.503 85.2C151.863 85.31 152.163 85.47 152.403 85.68C152.653 85.89 152.848 86.14 152.988 86.43C153.128 86.72 153.223 87.035 153.273 87.375H155.883V84.72H156.663V91.65H155.883V88.08H153.318C153.308 88.49 153.243 88.875 153.123 89.235C153.013 89.585 152.833 89.89 152.583 90.15C152.333 90.4 152.013 90.6 151.623 90.75C151.243 90.89 150.783 90.96 150.243 90.96ZM156.663 97.26H149.853C149.623 97.26 149.463 97.2 149.373 97.08C149.283 96.97 149.238 96.8 149.238 96.57V92.61H156.663V97.26ZM155.898 96.615V93.24H150.003V96.405C150.003 96.505 150.013 96.565 150.033 96.585C150.063 96.605 150.123 96.615 150.213 96.615H155.898ZM150.243 90.285C150.943 90.285 151.498 90.1 151.908 89.73C152.328 89.35 152.538 88.77 152.538 87.99C152.538 87.21 152.328 86.635 151.908 86.265C151.498 85.885 150.943 85.695 150.243 85.695C149.543 85.695 148.983 85.885 148.563 86.265C148.153 86.635 147.948 87.21 147.948 87.99C147.948 88.77 148.153 89.35 148.563 89.73C148.983 90.1 149.543 90.285 150.243 90.285ZM170.337 89.73H168.312V97.26H167.532V84.72H168.312V89.025H170.337V89.73ZM164.952 93.735H160.092C159.862 93.735 159.702 93.68 159.612 93.57C159.522 93.45 159.477 93.275 159.477 93.045V85.56H164.952V93.735ZM164.172 93.06V86.235H160.242V92.85C160.242 92.95 160.252 93.01 160.272 93.03C160.302 93.05 160.362 93.06 160.452 93.06H164.172Z" fill="#282828"/>
<path d="M1.5 6V99.5" stroke="#FF4646" stroke-width="3"/>
</svg>
