<svg width="204" height="102" viewBox="0 0 204 102" fill="none" xmlns="http://www.w3.org/2000/svg">
<path d="M13.468 14.168V20H10.3V3.872H16.324C18.26 3.872 19.724 4.296 20.716 5.144C21.724 5.992 22.228 7.288 22.228 9.032C22.228 10.76 21.724 12.048 20.716 12.896C19.724 13.744 18.26 14.168 16.324 14.168H13.468ZM13.468 6.44V11.6H16.276C17.14 11.6 17.82 11.392 18.316 10.976C18.812 10.544 19.06 9.896 19.06 9.032C19.06 8.168 18.812 7.52 18.316 7.088C17.82 6.656 17.14 6.44 16.276 6.44H13.468ZM35.7563 3.872V6.44H31.1483V20H27.9803V6.44H23.3483V3.872H35.7563ZM38.3374 3.872H41.5054V20H38.3374V3.872ZM52.4905 20L49.1305 11.936L48.5065 10.304H48.4825L48.5305 11.984V20H45.3625V3.872H48.8425L53.3065 14.864L53.8825 16.376H53.9305L54.5065 14.864L58.9705 3.872H62.4265V20H59.2585V11.984L59.3065 10.304H59.2825L58.6825 11.936L55.3225 20H52.4905Z" fill="#FF4646"/>
<path d="M13.58 46.66C12.8467 46.66 12.48 46.3067 12.48 45.6V41.06H13.98V45.02C13.98 45.1933 14 45.2933 14.04 45.32C14.08 45.36 14.18 45.38 14.34 45.38H22.92V46.66H13.58ZM21 29.88H22.52V42.06H21V29.88ZM14.38 35.36C14.0333 36.2 13.4933 36.9733 12.76 37.68C12.0267 38.3733 11.2 38.9733 10.28 39.48L9.5 38.38C10.1267 38.02 10.6867 37.62 11.18 37.18C11.6867 36.74 12.1133 36.2733 12.46 35.78C12.82 35.2867 13.0933 34.78 13.28 34.26C13.4667 33.74 13.56 33.2267 13.56 32.72V30.42H15.16V33C15.16 34.7333 16.4867 36.3867 19.14 37.96L18.34 39.08C17.94 38.8667 17.54 38.62 17.14 38.34C16.74 38.0467 16.36 37.74 16 37.42C15.6533 37.1 15.3333 36.7667 15.04 36.42C14.76 36.0733 14.54 35.72 14.38 35.36ZM28.7495 40.4H38.7895V46.76H29.7895C29.4295 46.76 29.1629 46.6733 28.9895 46.5C28.8295 46.34 28.7495 46.0667 28.7495 45.68V40.4ZM37.2895 45.54V41.62H30.2495V45.24C30.2495 45.36 30.2695 45.44 30.3095 45.48C30.3629 45.52 30.4495 45.54 30.5695 45.54H37.2895ZM32.4695 31.5H37.2695V29.88H38.7895V39.2H37.2695V35.68H32.4695V34.44H37.2695V32.74H32.4695V31.5ZM35.1295 37.74C34.6495 37.98 34.0629 38.16 33.3695 38.28C32.6762 38.4 31.9295 38.46 31.1295 38.46H27.8895C27.4095 38.46 27.0762 38.3667 26.8895 38.18C26.7162 37.9933 26.6295 37.6467 26.6295 37.14V30.62H28.1295V36.82C28.1295 36.9933 28.1562 37.1 28.2095 37.14C28.2629 37.18 28.3695 37.2 28.5295 37.2H31.3495C32.1095 37.2 32.7762 37.16 33.3495 37.08C33.9362 36.9867 34.4762 36.8467 34.9695 36.66L35.1295 37.74ZM53.5391 29.88H55.0591V39.18H53.5391V29.88ZM50.6391 34.28C50.6391 34.8133 50.5591 35.32 50.3991 35.8C50.2524 36.28 50.0057 36.7067 49.6591 37.08C49.3257 37.44 48.8924 37.7267 48.3591 37.94C47.8257 38.1533 47.1791 38.26 46.4191 38.26C45.6591 38.26 45.0124 38.1533 44.4791 37.94C43.9457 37.7267 43.5124 37.44 43.1791 37.08C42.8591 36.7067 42.6191 36.28 42.4591 35.8C42.3124 35.32 42.2391 34.8133 42.2391 34.28C42.2391 33.7467 42.3124 33.24 42.4591 32.76C42.6191 32.28 42.8591 31.86 43.1791 31.5C43.5124 31.1267 43.9457 30.8333 44.4791 30.62C45.0124 30.3933 45.6591 30.28 46.4191 30.28C47.1791 30.28 47.8257 30.3933 48.3591 30.62C48.8924 30.8333 49.3257 31.1267 49.6591 31.5C50.0057 31.86 50.2524 32.28 50.3991 32.76C50.5591 33.24 50.6391 33.7467 50.6391 34.28ZM49.1191 34.28C49.1191 33.3467 48.8791 32.6467 48.3991 32.18C47.9191 31.7133 47.2591 31.48 46.4191 31.48C45.5791 31.48 44.9191 31.7133 44.4391 32.18C43.9724 32.6467 43.7391 33.3467 43.7391 34.28C43.7391 35.2533 43.9724 35.96 44.4391 36.4C44.9191 36.84 45.5791 37.06 46.4191 37.06C47.2457 37.06 47.8991 36.8467 48.3791 36.42C48.8724 35.98 49.1191 35.2667 49.1191 34.28ZM50.0391 46.96C49.3591 46.6533 48.7524 46.2467 48.2191 45.74C47.6991 45.2467 47.2924 44.66 46.9991 43.98C46.9191 44.2733 46.7724 44.5667 46.5591 44.86C46.3457 45.1533 46.0991 45.4333 45.8191 45.7C45.5391 45.9667 45.2391 46.2067 44.9191 46.42C44.6124 46.6467 44.3124 46.8267 44.0191 46.96L43.3191 45.9C44.3591 45.3133 45.1124 44.6667 45.5791 43.96C46.0591 43.2533 46.2991 42.4 46.2991 41.4V40.42H47.6991V41.4C47.7124 42.36 47.9257 43.18 48.3391 43.86C48.7657 44.5267 49.3324 45.0667 50.0391 45.48C50.7324 45.0667 51.2857 44.5267 51.6991 43.86C52.1257 43.18 52.3457 42.36 52.3591 41.4V40.42H53.7591V41.4C53.7591 42.4 53.9924 43.2533 54.4591 43.96C54.9391 44.6533 55.6991 45.2933 56.7391 45.88L56.0391 46.94C55.7457 46.8067 55.4391 46.6267 55.1191 46.4C54.8124 46.1867 54.5191 45.9467 54.2391 45.68C53.9591 45.4267 53.7124 45.1533 53.4991 44.86C53.2857 44.5667 53.1391 44.2733 53.0591 43.98C52.7657 44.66 52.3524 45.2467 51.8191 45.74C51.2991 46.2467 50.7057 46.6533 50.0391 46.96ZM72.8486 38.3V39.56H58.0286V38.3H72.8486ZM61.4886 36.3C61.1153 36.3 60.8486 36.2 60.6886 36C60.5419 35.8 60.4686 35.5133 60.4686 35.14V30.2H61.9886V34.74C61.9886 34.8733 62.0019 34.96 62.0286 35C62.0686 35.0267 62.1553 35.04 62.2886 35.04H70.6086V36.3H61.4886ZM70.9286 46.66H61.5086C61.1486 46.66 60.8686 46.5667 60.6686 46.38C60.4686 46.2067 60.3686 45.92 60.3686 45.52V41.38H61.8886V45.02C61.8886 45.1667 61.9086 45.26 61.9486 45.3C61.9886 45.3533 62.0819 45.38 62.2286 45.38H70.9286V46.66ZM92.1836 31.42H83.8436V34.06C83.8436 34.1933 83.8569 34.28 83.8836 34.32C83.9236 34.3467 84.0103 34.36 84.1436 34.36H92.2836V35.62H88.0836V37.44H94.7236V38.68H79.9036V37.44H86.5836V35.62H83.4636C82.7169 35.62 82.3436 35.26 82.3436 34.54V30.16H92.1836V31.42ZM92.4836 43.94H83.6236V45.48C83.6236 45.5867 83.6369 45.6533 83.6636 45.68C83.7036 45.7067 83.7703 45.72 83.8636 45.72H92.8836V46.96H83.0436C82.7369 46.96 82.5036 46.8933 82.3436 46.76C82.1969 46.6267 82.1236 46.3867 82.1236 46.04V42.72H90.9836V41.36H82.1836V40.12H92.4836V43.94ZM98.4131 40.98H108.753V46.76H99.4131C99.0665 46.76 98.8131 46.68 98.6531 46.52C98.4931 46.36 98.4131 46.0933 98.4131 45.72V40.98ZM107.233 45.54V42.22H99.9331V45.26C99.9331 45.38 99.9465 45.4533 99.9731 45.48C100.013 45.52 100.1 45.54 100.233 45.54H107.233ZM96.1731 39.44V38.16H102.793V36.38H99.6531C99.3065 36.38 99.0465 36.2933 98.8731 36.12C98.6998 35.9467 98.6131 35.6667 98.6131 35.28V30.14H100.133V32.16H107.033V30.14H108.553V36.38H104.333V38.16H110.993V39.44H96.1731ZM107.033 35.16V33.38H100.133V34.8C100.133 34.96 100.153 35.06 100.193 35.1C100.233 35.14 100.32 35.16 100.453 35.16H107.033ZM116.143 46.76C115.783 46.76 115.523 46.6733 115.363 46.5C115.203 46.34 115.123 46.0667 115.123 45.68V40.4H125.163V46.76H116.143ZM123.623 41.62H116.623V45.26C116.623 45.3667 116.643 45.44 116.683 45.48C116.723 45.52 116.803 45.54 116.923 45.54H123.623V41.62ZM125.163 33.68H127.743V35H125.163V39.2H123.623V29.88H125.163V33.68ZM120.623 30.7V37.96H113.943C113.583 37.96 113.323 37.88 113.163 37.72C113.003 37.56 112.923 37.2667 112.923 36.84V30.7H120.623ZM114.423 36.46C114.423 36.5667 114.436 36.64 114.463 36.68C114.503 36.72 114.576 36.74 114.683 36.74H119.143V31.92H114.423V36.46Z" fill="#FF4646"/>
<rect opacity="0.5" x="8.5" y="84" width="82" height="12" fill="#F7FF5E"/>
<path d="M1.5 6V99.5" stroke="#FF4646" stroke-width="3"/>
<path d="M12.055 72.69C11.865 73.29 11.55 73.895 11.11 74.505C10.67 75.115 10.11 75.7 9.43 76.26L8.965 75.75C9.285 75.47 9.605 75.165 9.925 74.835C10.255 74.495 10.545 74.115 10.795 73.695C11.055 73.275 11.265 72.815 11.425 72.315C11.585 71.805 11.665 71.24 11.665 70.62V69.975H9.505V69.315H14.44V69.975H12.445V70.62C12.445 71.22 12.525 71.77 12.685 72.27C12.845 72.77 13.055 73.23 13.315 73.65C13.575 74.07 13.86 74.45 14.17 74.79C14.49 75.12 14.81 75.41 15.13 75.66L14.68 76.185C14.41 75.985 14.14 75.745 13.87 75.465C13.6 75.185 13.345 74.89 13.105 74.58C12.865 74.27 12.65 73.955 12.46 73.635C12.28 73.305 12.145 72.99 12.055 72.69ZM13.975 71.7H16.285V66.885H17.035V78.84H16.285V72.39H13.975V71.7ZM19.225 79.26H18.475V66.72H19.225V79.26ZM10.345 67.155H13.615V67.86H10.345V67.155ZM26.0296 70.53C26.0296 71.09 25.9746 71.605 25.8646 72.075C25.7546 72.535 25.5496 72.985 25.2496 73.425C24.9496 73.865 24.5296 74.31 23.9896 74.76C23.4596 75.21 22.7746 75.705 21.9346 76.245L21.5146 75.63C22.3046 75.13 22.9446 74.67 23.4346 74.25C23.9246 73.82 24.3046 73.41 24.5746 73.02C24.8446 72.63 25.0246 72.255 25.1146 71.895C25.2146 71.525 25.2646 71.145 25.2646 70.755V68.295H21.6196V67.62H26.0296V69.51H28.3246V66.885H29.0896V78.84H28.3246V73.695H25.8046V73.005H28.3246V70.2H26.0296V70.53ZM31.3246 79.26H30.5596V66.72H31.3246V79.26ZM34.0342 70.11C34.0342 69.68 34.0892 69.28 34.1992 68.91C34.3192 68.53 34.4992 68.205 34.7392 67.935C34.9892 67.655 35.3042 67.44 35.6842 67.29C36.0642 67.13 36.5242 67.05 37.0642 67.05C37.6042 67.05 38.0642 67.13 38.4442 67.29C38.8242 67.44 39.1342 67.655 39.3742 67.935C39.6242 68.205 39.8042 68.53 39.9142 68.91C40.0342 69.28 40.0942 69.68 40.0942 70.11C40.0942 70.52 40.0442 70.9 39.9442 71.25C39.8442 71.6 39.6892 71.91 39.4792 72.18C39.2692 72.45 38.9992 72.67 38.6692 72.84C38.3392 73.01 37.9442 73.115 37.4842 73.155V75.765H38.3242C38.9642 75.765 39.5742 75.725 40.1542 75.645C40.7442 75.565 41.2992 75.385 41.8192 75.105V66.72H42.5992V71.28H44.6242V71.985H42.5992V79.26H41.8192V75.705C41.3492 75.985 40.8042 76.18 40.1842 76.29C39.5642 76.39 38.9742 76.44 38.4142 76.44H33.2992V75.765H36.7192V73.17C36.2392 73.14 35.8292 73.04 35.4892 72.87C35.1592 72.7 34.8842 72.48 34.6642 72.21C34.4442 71.94 34.2842 71.625 34.1842 71.265C34.0842 70.905 34.0342 70.52 34.0342 70.11ZM37.0642 72.51C37.7842 72.51 38.3392 72.31 38.7292 71.91C39.1192 71.51 39.3142 70.91 39.3142 70.11C39.3142 69.31 39.1192 68.71 38.7292 68.31C38.3392 67.91 37.7842 67.71 37.0642 67.71C36.3442 67.71 35.7892 67.91 35.3992 68.31C35.0092 68.71 34.8142 69.31 34.8142 70.11C34.8142 70.91 35.0092 71.51 35.3992 71.91C35.7892 72.31 36.3442 72.51 37.0642 72.51ZM59.6529 76.605H58.8879V74.925H55.9629V74.235H58.8879V72.63C58.6379 72.73 58.3679 72.82 58.0779 72.9C57.7979 72.98 57.5129 73.05 57.2229 73.11C56.9429 73.16 56.6679 73.2 56.3979 73.23C56.1279 73.26 55.8829 73.275 55.6629 73.275H53.9529V75.555H53.1729V73.275H49.7529V72.6H55.4379C56.0179 72.6 56.5929 72.56 57.1629 72.48C57.7429 72.4 58.3179 72.24 58.8879 72V66.72H59.6529V76.605ZM50.6079 69.105C50.6079 68.375 50.8829 67.81 51.4329 67.41C51.9829 67 52.7329 66.795 53.6829 66.795C54.6329 66.795 55.3829 67 55.9329 67.41C56.4829 67.81 56.7579 68.375 56.7579 69.105C56.7579 69.835 56.4829 70.405 55.9329 70.815C55.3829 71.215 54.6329 71.415 53.6829 71.415C52.7329 71.415 51.9829 71.215 51.4329 70.815C50.8829 70.405 50.6079 69.835 50.6079 69.105ZM55.9779 69.105C55.9779 68.645 55.7929 68.26 55.4229 67.95C55.0529 67.63 54.4729 67.47 53.6829 67.47C52.8929 67.47 52.3129 67.63 51.9429 67.95C51.5729 68.26 51.3879 68.645 51.3879 69.105C51.3879 69.565 51.5729 69.955 51.9429 70.275C52.3129 70.585 52.8929 70.74 53.6829 70.74C54.4729 70.74 55.0529 70.585 55.4229 70.275C55.7929 69.955 55.9779 69.565 55.9779 69.105ZM52.8579 78.285C52.8579 78.385 52.8679 78.445 52.8879 78.465C52.9179 78.485 52.9779 78.495 53.0679 78.495H59.9529V79.185H52.7079C52.4779 79.185 52.3179 79.125 52.2279 79.005C52.1379 78.895 52.0929 78.725 52.0929 78.495V76.245H52.8579V78.285ZM65.3775 71.415C65.2275 71.675 65.0425 71.925 64.8225 72.165C64.6025 72.395 64.3575 72.615 64.0875 72.825C63.8275 73.025 63.5525 73.215 63.2625 73.395C62.9725 73.575 62.6825 73.73 62.3925 73.86L62.0175 73.335C62.9275 72.885 63.6475 72.395 64.1775 71.865C64.7175 71.325 64.9875 70.755 64.9875 70.155V69.525H62.3175V68.865H68.4375V69.525H65.7675V70.155C65.7675 70.455 65.8425 70.745 65.9925 71.025C66.1525 71.295 66.3625 71.55 66.6225 71.79C66.8925 72.03 67.2075 72.255 67.5675 72.465C67.9375 72.675 68.3325 72.87 68.7525 73.05L68.4375 73.59C68.1475 73.49 67.8525 73.365 67.5525 73.215C67.2625 73.055 66.9775 72.885 66.6975 72.705C66.4275 72.515 66.1775 72.31 65.9475 72.09C65.7175 71.87 65.5275 71.645 65.3775 71.415ZM71.4525 79.41H70.6725V75.75H64.0275V75.09H71.4525V79.41ZM71.4525 74.115H70.6725V66.72H71.4525V74.115ZM63.5025 66.795H67.2525V67.5H63.5025V66.795ZM83.4963 68.805C83.3863 69.045 83.2113 69.295 82.9713 69.555C82.7313 69.815 82.4313 70.07 82.0713 70.32C81.7113 70.57 81.2913 70.805 80.8113 71.025C80.3313 71.235 79.8013 71.415 79.2213 71.565L78.8913 70.98C79.5313 70.8 80.1063 70.585 80.6163 70.335C81.1363 70.085 81.5813 69.81 81.9513 69.51C82.3213 69.21 82.6063 68.89 82.8063 68.55C83.0063 68.21 83.1063 67.86 83.1063 67.5V66.81H83.8863V67.5C83.8863 67.87 83.9863 68.225 84.1863 68.565C84.3863 68.895 84.6663 69.2 85.0263 69.48C85.3863 69.76 85.8213 70.015 86.3313 70.245C86.8413 70.475 87.4063 70.67 88.0263 70.83L87.7563 71.415C86.5863 71.125 85.6363 70.745 84.9062 70.275C84.1763 69.795 83.7063 69.305 83.4963 68.805ZM83.1213 71.07H83.8863V73.065H89.0013V73.74H78.0063V73.065H83.1213V71.07ZM87.2763 79.41H86.5113V75.855H79.5813V75.18H87.2763V79.41ZM90.3159 71.655C90.3159 70.885 90.3709 70.225 90.4809 69.675C90.6009 69.125 90.7759 68.68 91.0059 68.34C91.2359 67.99 91.5159 67.735 91.8459 67.575C92.1859 67.415 92.5759 67.335 93.0159 67.335C93.8059 67.335 94.4259 67.615 94.8759 68.175C95.3259 68.735 95.5859 69.655 95.6559 70.935H97.4409V66.885H98.1909V78.84H97.4409V71.625H95.6859C95.6859 72.405 95.6259 73.07 95.5059 73.62C95.3959 74.17 95.2259 74.62 94.9959 74.97C94.7759 75.32 94.4959 75.575 94.1559 75.735C93.8259 75.895 93.4459 75.975 93.0159 75.975C92.5759 75.975 92.1859 75.895 91.8459 75.735C91.5159 75.575 91.2359 75.325 91.0059 74.985C90.7759 74.635 90.6009 74.185 90.4809 73.635C90.3709 73.085 90.3159 72.425 90.3159 71.655ZM91.0659 71.655C91.0659 72.345 91.1109 72.925 91.2009 73.395C91.2909 73.865 91.4159 74.245 91.5759 74.535C91.7459 74.815 91.9509 75.015 92.1909 75.135C92.4309 75.255 92.7009 75.315 93.0009 75.315C93.3009 75.315 93.5709 75.255 93.8109 75.135C94.0609 75.015 94.2659 74.815 94.4259 74.535C94.5959 74.245 94.7259 73.865 94.8159 73.395C94.9059 72.925 94.9509 72.345 94.9509 71.655C94.9509 70.965 94.9059 70.385 94.8159 69.915C94.7259 69.445 94.5959 69.07 94.4259 68.79C94.2659 68.5 94.0609 68.295 93.8109 68.175C93.5709 68.055 93.3009 67.995 93.0009 67.995C92.7009 67.995 92.4309 68.055 92.1909 68.175C91.9509 68.295 91.7459 68.5 91.5759 68.79C91.4159 69.07 91.2909 69.445 91.2009 69.915C91.1109 70.385 91.0659 70.965 91.0659 71.655ZM100.231 79.26H99.4809V66.72H100.231V79.26ZM108.235 70.785H111.175V66.72H111.955V79.26H111.175V71.49H108.235V70.785ZM105.85 71.865C105.77 72.115 105.63 72.405 105.43 72.735C105.24 73.055 105 73.39 104.71 73.74C104.43 74.08 104.105 74.425 103.735 74.775C103.365 75.115 102.97 75.43 102.55 75.72L102.1 75.18C102.58 74.85 103.025 74.495 103.435 74.115C103.845 73.735 104.2 73.325 104.5 72.885C104.8 72.445 105.035 71.975 105.205 71.475C105.375 70.965 105.46 70.42 105.46 69.84V67.335H106.24V69.84C106.24 70.41 106.32 70.94 106.48 71.43C106.64 71.92 106.86 72.38 107.14 72.81C107.43 73.23 107.77 73.63 108.16 74.01C108.55 74.38 108.98 74.73 109.45 75.06L109 75.615C108.59 75.345 108.21 75.045 107.86 74.715C107.51 74.385 107.2 74.055 106.93 73.725C106.66 73.385 106.43 73.055 106.24 72.735C106.06 72.405 105.93 72.115 105.85 71.865ZM13.165 91.17C12.625 91.17 12.165 91.095 11.785 90.945C11.405 90.785 11.09 90.57 10.84 90.3C10.6 90.02 10.42 89.695 10.3 89.325C10.19 88.955 10.135 88.55 10.135 88.11C10.135 87.68 10.19 87.28 10.3 86.91C10.42 86.53 10.6 86.205 10.84 85.935C11.09 85.655 11.405 85.44 11.785 85.29C12.165 85.13 12.625 85.05 13.165 85.05C13.705 85.05 14.165 85.13 14.545 85.29C14.925 85.44 15.235 85.655 15.475 85.935C15.725 86.205 15.905 86.53 16.015 86.91C16.135 87.28 16.195 87.68 16.195 88.11C16.195 88.55 16.135 88.955 16.015 89.325C15.905 89.695 15.725 90.02 15.475 90.3C15.235 90.57 14.925 90.785 14.545 90.945C14.165 91.095 13.705 91.17 13.165 91.17ZM13.165 90.555C13.905 90.555 14.465 90.35 14.845 89.94C15.225 89.52 15.415 88.91 15.415 88.11C15.415 87.31 15.225 86.705 14.845 86.295C14.465 85.875 13.905 85.665 13.165 85.665C12.425 85.665 11.865 85.875 11.485 86.295C11.105 86.705 10.915 87.31 10.915 88.11C10.915 88.91 11.105 89.52 11.485 89.94C11.865 90.35 12.425 90.555 13.165 90.555ZM14.875 93.39C15.515 93.39 16.145 93.345 16.765 93.255C17.385 93.155 17.92 93.005 18.37 92.805V84.72H19.15V97.26H18.37V93.405C17.88 93.655 17.33 93.83 16.72 93.93C16.11 94.02 15.525 94.065 14.965 94.065H9.25V93.39H14.875ZM30.1696 84.72H30.9496V97.26H30.1696V84.72ZM27.4546 93.735H22.5946C22.3646 93.735 22.2046 93.68 22.1146 93.57C22.0246 93.45 21.9796 93.275 21.9796 93.045V85.56H27.4546V93.735ZM26.6746 93.06V86.235H22.7446V92.85C22.7446 92.95 22.7546 93.01 22.7746 93.03C22.8046 93.05 22.8646 93.06 22.9546 93.06H26.6746ZM47.2533 91.635H46.4733V84.72H47.2533V91.635ZM40.9833 90.96C40.4233 90.96 39.9483 90.885 39.5583 90.735C39.1783 90.585 38.8633 90.38 38.6133 90.12C38.3633 89.85 38.1833 89.535 38.0733 89.175C37.9633 88.805 37.9083 88.41 37.9083 87.99C37.9083 87.57 37.9633 87.18 38.0733 86.82C38.1833 86.45 38.3633 86.135 38.6133 85.875C38.8633 85.605 39.1783 85.395 39.5583 85.245C39.9483 85.095 40.4233 85.02 40.9833 85.02C41.5333 85.02 42.0033 85.095 42.3933 85.245C42.7833 85.395 43.1033 85.605 43.3533 85.875C43.6033 86.135 43.7833 86.45 43.8933 86.82C44.0033 87.18 44.0583 87.57 44.0583 87.99C44.0583 88.41 44.0033 88.805 43.8933 89.175C43.7833 89.535 43.6033 89.85 43.3533 90.12C43.1033 90.38 42.7833 90.585 42.3933 90.735C42.0033 90.885 41.5333 90.96 40.9833 90.96ZM40.9833 90.285C41.6833 90.285 42.2383 90.1 42.6483 89.73C43.0683 89.35 43.2783 88.77 43.2783 87.99C43.2783 87.21 43.0683 86.635 42.6483 86.265C42.2383 85.885 41.6833 85.695 40.9833 85.695C40.2833 85.695 39.7233 85.885 39.3033 86.265C38.8933 86.635 38.6883 87.21 38.6883 87.99C38.6883 88.77 38.8933 89.35 39.3033 89.73C39.7233 90.1 40.2833 90.285 40.9833 90.285ZM43.5033 97.41C43.2933 97.33 43.0633 97.195 42.8133 97.005C42.5733 96.815 42.3433 96.605 42.1233 96.375C41.9033 96.145 41.7083 95.91 41.5383 95.67C41.3783 95.43 41.2733 95.22 41.2233 95.04C41.1433 95.23 41.0233 95.435 40.8633 95.655C40.7133 95.865 40.5333 96.075 40.3233 96.285C40.1133 96.505 39.8783 96.71 39.6183 96.9C39.3683 97.1 39.1133 97.27 38.8533 97.41L38.4483 96.84C39.2583 96.34 39.8633 95.82 40.2633 95.28C40.6633 94.74 40.8633 94.105 40.8633 93.375V92.625H41.5833V93.54C41.5833 93.87 41.6383 94.19 41.7483 94.5C41.8583 94.8 42.0033 95.08 42.1833 95.34C42.3633 95.6 42.5683 95.835 42.7983 96.045C43.0283 96.265 43.2633 96.45 43.5033 96.6C43.7433 96.45 43.9783 96.27 44.2083 96.06C44.4383 95.85 44.6433 95.615 44.8233 95.355C45.0033 95.095 45.1483 94.815 45.2583 94.515C45.3683 94.215 45.4233 93.89 45.4233 93.54V92.625H46.1433V93.375C46.1433 94.095 46.3433 94.74 46.7433 95.31C47.1433 95.88 47.7383 96.39 48.5283 96.84L48.1533 97.41C47.8733 97.27 47.6033 97.1 47.3433 96.9C47.0933 96.71 46.8633 96.505 46.6533 96.285C46.4433 96.075 46.2633 95.865 46.1133 95.655C45.9633 95.435 45.8533 95.23 45.7833 95.04C45.7333 95.22 45.6283 95.43 45.4683 95.67C45.3083 95.91 45.1183 96.145 44.8983 96.375C44.6783 96.605 44.4433 96.81 44.1933 96.99C43.9533 97.18 43.7233 97.32 43.5033 97.41ZM58.8429 89.46H52.1229C51.8929 89.46 51.7329 89.405 51.6429 89.295C51.5529 89.175 51.5079 89 51.5079 88.77V84.96H52.2879V88.59C52.2879 88.69 52.2979 88.75 52.3179 88.77C52.3479 88.79 52.4079 88.8 52.4979 88.8H58.8429V89.46ZM59.0979 96.495V97.185H52.0179C51.7879 97.185 51.6279 97.125 51.5379 97.005C51.4479 96.895 51.4029 96.725 51.4029 96.495V93.345H52.1679V96.285C52.1679 96.385 52.1779 96.445 52.1979 96.465C52.2279 96.485 52.2879 96.495 52.3779 96.495H59.0979ZM60.5979 91.275V91.95H49.6029V91.275H60.5979ZM67.8116 85.005H74.9216V85.665H68.5916V87.9C68.5916 88 68.6016 88.06 68.6216 88.08C68.6516 88.1 68.7116 88.11 68.8016 88.11H74.9966V88.785H71.7866V90.465H76.9016V91.11H65.9066V90.465H71.0216V88.785H68.4266C68.1966 88.785 68.0366 88.73 67.9466 88.62C67.8566 88.5 67.8116 88.325 67.8116 88.095V85.005ZM75.1766 95.16H68.3966V96.555C68.3966 96.635 68.4016 96.685 68.4116 96.705C68.4316 96.725 68.4766 96.735 68.5466 96.735H75.4766V97.41H68.2466C68.0366 97.41 67.8816 97.365 67.7816 97.275C67.6816 97.185 67.6316 97.015 67.6316 96.765V94.5H74.4116V93.12H67.6766V92.46H75.1766V95.16ZM89.0013 91.065V91.74H78.0063V91.065H83.1213V89.415H80.5263C80.2963 89.415 80.1363 89.36 80.0463 89.25C79.9563 89.13 79.9113 88.955 79.9113 88.725V84.915H80.6763V86.52H86.3163V84.915H87.0963V89.415H83.8863V91.065H89.0013ZM87.2763 97.26H80.3463C80.1163 97.26 79.9563 97.2 79.8663 97.08C79.7763 96.97 79.7313 96.8 79.7313 96.57V93.045H87.2763V97.26ZM86.4963 96.615V93.69H80.4963V96.405C80.4963 96.505 80.5063 96.565 80.5263 96.585C80.5563 96.605 80.6163 96.615 80.7063 96.615H86.4963ZM86.3163 88.77V87.15H80.6763V88.56C80.6763 88.66 80.6863 88.72 80.7063 88.74C80.7363 88.76 80.7963 88.77 80.8863 88.77H86.3163ZM90.1059 90.93V90.255H101.101V90.93H90.1059ZM99.3759 95.085H92.5959V96.555C92.5959 96.635 92.6009 96.685 92.6109 96.705C92.6309 96.725 92.6759 96.735 92.7459 96.735H99.6759V97.41H92.4459C92.2359 97.41 92.0809 97.365 91.9809 97.275C91.8809 97.185 91.8309 97.015 91.8309 96.765V94.425H98.6109V93H91.8759V92.34H99.3759V95.085ZM95.5959 89.25C94.2859 89.25 93.3209 89.04 92.7009 88.62C92.0809 88.2 91.7709 87.655 91.7709 86.985C91.7709 86.315 92.0809 85.77 92.7009 85.35C93.3209 84.93 94.2859 84.72 95.5959 84.72C96.9059 84.72 97.8709 84.93 98.4909 85.35C99.1109 85.77 99.4209 86.315 99.4209 86.985C99.4209 87.655 99.1109 88.2 98.4909 88.62C97.8709 89.04 96.9059 89.25 95.5959 89.25ZM95.5959 88.575C96.1459 88.575 96.6109 88.54 96.9909 88.47C97.3809 88.39 97.6959 88.28 97.9359 88.14C98.1859 88 98.3659 87.835 98.4759 87.645C98.5859 87.445 98.6409 87.225 98.6409 86.985C98.6409 86.745 98.5859 86.53 98.4759 86.34C98.3659 86.14 98.1859 85.97 97.9359 85.83C97.6959 85.69 97.3809 85.585 96.9909 85.515C96.6109 85.435 96.1459 85.395 95.5959 85.395C95.0459 85.395 94.5759 85.435 94.1859 85.515C93.8059 85.585 93.4909 85.69 93.2409 85.83C93.0009 85.97 92.8259 86.14 92.7159 86.34C92.6059 86.53 92.5509 86.745 92.5509 86.985C92.5509 87.225 92.6059 87.445 92.7159 87.645C92.8259 87.835 93.0009 88 93.2409 88.14C93.4909 88.28 93.8059 88.39 94.1859 88.47C94.5759 88.54 95.0459 88.575 95.5959 88.575ZM111.885 89.205C111.725 89.445 111.505 89.68 111.225 89.91C110.955 90.14 110.63 90.355 110.25 90.555C109.88 90.745 109.465 90.92 109.005 91.08C108.545 91.23 108.06 91.345 107.55 91.425L107.325 90.795C108.035 90.665 108.65 90.495 109.17 90.285C109.7 90.065 110.135 89.825 110.475 89.565C110.825 89.305 111.085 89.035 111.255 88.755C111.425 88.475 111.51 88.205 111.51 87.945V87.6H107.88V86.895H115.92V87.6H112.29V87.945C112.29 88.205 112.375 88.475 112.545 88.755C112.715 89.035 112.97 89.305 113.31 89.565C113.66 89.825 114.095 90.065 114.615 90.285C115.145 90.495 115.765 90.665 116.475 90.795L116.235 91.41C115.205 91.25 114.31 90.97 113.55 90.57C112.79 90.17 112.235 89.715 111.885 89.205ZM117.45 93.315H112.29V97.26H111.525V93.315H106.35V92.61H117.45V93.315ZM114.045 84.795V85.5H109.755V84.795H114.045ZM129.504 91.71H124.344V97.26H123.579V91.71H118.509V91.05H126.234C126.464 90.56 126.629 90.04 126.729 89.49C126.829 88.93 126.879 88.425 126.879 87.975V85.995H120.264V85.335H127.659V87.72C127.659 88.29 127.614 88.845 127.524 89.385C127.434 89.915 127.274 90.47 127.044 91.05H129.504V91.71ZM137.644 87.195V87.87H130.684V87.195H137.644ZM132.334 85.005H136.144V85.695H132.334V85.005ZM134.239 94.695C133.339 94.695 132.634 94.46 132.124 93.99C131.614 93.51 131.359 92.79 131.359 91.83C131.359 90.87 131.614 90.155 132.124 89.685C132.634 89.205 133.339 88.965 134.239 88.965C135.139 88.965 135.844 89.205 136.354 89.685C136.864 90.155 137.119 90.87 137.119 91.83C137.119 92.79 136.864 93.51 136.354 93.99C135.844 94.46 135.139 94.695 134.239 94.695ZM134.239 94.035C134.889 94.035 135.399 93.86 135.769 93.51C136.149 93.16 136.339 92.6 136.339 91.83C136.339 91.06 136.149 90.5 135.769 90.15C135.399 89.8 134.889 89.625 134.239 89.625C133.589 89.625 133.074 89.8 132.694 90.15C132.324 90.5 132.139 91.06 132.139 91.83C132.139 92.6 132.324 93.16 132.694 93.51C133.074 93.86 133.589 94.035 134.239 94.035ZM141.934 90.93H139.909V97.26H139.129V84.72H139.909V90.225H141.934V90.93ZM151.948 89.46H145.228C144.998 89.46 144.838 89.405 144.748 89.295C144.658 89.175 144.613 89 144.613 88.77V84.96H145.393V88.59C145.393 88.69 145.403 88.75 145.423 88.77C145.453 88.79 145.513 88.8 145.603 88.8H151.948V89.46ZM152.203 96.495V97.185H145.123C144.893 97.185 144.733 97.125 144.643 97.005C144.553 96.895 144.508 96.725 144.508 96.495V93.345H145.273V96.285C145.273 96.385 145.283 96.445 145.303 96.465C145.333 96.485 145.393 96.495 145.483 96.495H152.203ZM153.703 91.275V91.95H142.708V91.275H153.703ZM162.342 90.96C161.782 90.96 161.307 90.885 160.917 90.735C160.537 90.585 160.222 90.38 159.972 90.12C159.722 89.85 159.542 89.535 159.432 89.175C159.322 88.805 159.267 88.41 159.267 87.99C159.267 87.57 159.322 87.18 159.432 86.82C159.542 86.45 159.722 86.135 159.972 85.875C160.222 85.605 160.537 85.395 160.917 85.245C161.307 85.095 161.782 85.02 162.342 85.02C162.822 85.02 163.242 85.08 163.602 85.2C163.962 85.31 164.262 85.47 164.502 85.68C164.752 85.89 164.947 86.14 165.087 86.43C165.227 86.72 165.322 87.035 165.372 87.375H167.982V84.72H168.762V91.65H167.982V88.08H165.417C165.407 88.49 165.342 88.875 165.222 89.235C165.112 89.585 164.932 89.89 164.682 90.15C164.432 90.4 164.112 90.6 163.722 90.75C163.342 90.89 162.882 90.96 162.342 90.96ZM168.762 97.26H161.952C161.722 97.26 161.562 97.2 161.472 97.08C161.382 96.97 161.337 96.8 161.337 96.57V92.61H168.762V97.26ZM167.997 96.615V93.24H162.102V96.405C162.102 96.505 162.112 96.565 162.132 96.585C162.162 96.605 162.222 96.615 162.312 96.615H167.997ZM162.342 90.285C163.042 90.285 163.597 90.1 164.007 89.73C164.427 89.35 164.637 88.77 164.637 87.99C164.637 87.21 164.427 86.635 164.007 86.265C163.597 85.885 163.042 85.695 162.342 85.695C161.642 85.695 161.082 85.885 160.662 86.265C160.252 86.635 160.047 87.21 160.047 87.99C160.047 88.77 160.252 89.35 160.662 89.73C161.082 90.1 161.642 90.285 162.342 90.285ZM182.437 89.73H180.412V97.26H179.632V84.72H180.412V89.025H182.437V89.73ZM177.052 93.735H172.192C171.962 93.735 171.802 93.68 171.712 93.57C171.622 93.45 171.577 93.275 171.577 93.045V85.56H177.052V93.735ZM176.272 93.06V86.235H172.342V92.85C172.342 92.95 172.352 93.01 172.372 93.03C172.402 93.05 172.462 93.06 172.552 93.06H176.272Z" fill="#282828"/>
</svg>
