<svg width="209" height="102" viewBox="0 0 209 102" fill="none" xmlns="http://www.w3.org/2000/svg">
<path d="M18.468 6.44V11.096H21.516C22.348 11.096 22.988 10.904 23.436 10.52C23.9 10.136 24.132 9.552 24.132 8.768C24.132 7.984 23.9 7.4 23.436 7.016C22.988 6.632 22.348 6.44 21.516 6.44H18.468ZM15.3 20V3.872H21.54C23.476 3.872 24.94 4.28 25.932 5.096C26.924 5.896 27.42 7.12 27.42 8.768C27.42 9.776 27.156 10.672 26.628 11.456C26.116 12.224 25.404 12.792 24.492 13.16L28.044 20H24.684L21.396 13.664H18.468V20H15.3ZM33.9836 20H30.8156V3.872H41.0636V6.44H33.9836V10.304H40.5596V12.872H33.9836V20ZM51.1194 17.672C51.9034 17.672 52.6794 17.568 53.4474 17.36C54.2154 17.136 54.9594 16.832 55.6794 16.448L56.4714 18.944C55.7034 19.36 54.8554 19.68 53.9274 19.904C52.9994 20.128 52.0554 20.24 51.0954 20.24C48.3914 20.24 46.3914 19.52 45.0954 18.08C43.8154 16.64 43.1754 14.592 43.1754 11.936C43.1754 9.088 43.8074 6.992 45.0714 5.648C46.3354 4.304 48.2234 3.632 50.7354 3.632C51.9354 3.632 53.0234 3.84 53.9994 4.256C54.9914 4.672 55.7914 5.216 56.3994 5.888L54.6474 7.856C54.1674 7.328 53.5994 6.92 52.9434 6.632C52.3034 6.344 51.5674 6.2 50.7354 6.2C49.2794 6.2 48.1834 6.664 47.4474 7.592C46.7114 8.504 46.3434 9.952 46.3434 11.936C46.3434 13.824 46.7274 15.256 47.4954 16.232C48.2634 17.192 49.4714 17.672 51.1194 17.672ZM66.2327 20L62.8727 11.936L62.2487 10.304H62.2247L62.2727 11.984V20H59.1047V3.872H62.5847L67.0487 14.864L67.6247 16.376H67.6727L68.2487 14.864L72.7127 3.872H76.1687V20H73.0007V11.984L73.0487 10.304H73.0247L72.4247 11.936L69.0647 20H66.2327Z" fill="#FF4646"/>
<rect opacity="0.5" x="13.5" y="86" width="61" height="12" fill="#F7FF5E"/>
<path d="M1.5 6V99.5" stroke="#FF4646" stroke-width="3"/>
<path d="M25.425 71.655H23.4V79.26H22.62V66.72H23.4V70.95H25.425V71.655ZM19.965 70.53C19.965 71.16 19.88 71.715 19.71 72.195C19.54 72.675 19.255 73.12 18.855 73.53C18.465 73.94 17.95 74.345 17.31 74.745C16.67 75.145 15.885 75.585 14.955 76.065L14.58 75.42C15.51 74.95 16.27 74.52 16.86 74.13C17.46 73.74 17.93 73.365 18.27 73.005C18.62 72.635 18.86 72.26 18.99 71.88C19.12 71.5 19.185 71.085 19.185 70.635V68.235H14.685V67.56H19.965V70.53ZM28.0896 76.95C28.0896 76.62 28.1546 76.305 28.2846 76.005C28.4146 75.695 28.6246 75.425 28.9146 75.195C29.2146 74.955 29.6046 74.765 30.0846 74.625C30.5646 74.485 31.1596 74.415 31.8696 74.415C32.5696 74.415 33.1596 74.485 33.6396 74.625C34.1296 74.765 34.5196 74.955 34.8096 75.195C35.1096 75.425 35.3246 75.695 35.4546 76.005C35.5846 76.305 35.6496 76.62 35.6496 76.95C35.6496 77.28 35.5846 77.6 35.4546 77.91C35.3246 78.21 35.1096 78.475 34.8096 78.705C34.5196 78.945 34.1296 79.135 33.6396 79.275C33.1596 79.415 32.5696 79.485 31.8696 79.485C31.1596 79.485 30.5646 79.415 30.0846 79.275C29.6046 79.135 29.2146 78.945 28.9146 78.705C28.6246 78.475 28.4146 78.21 28.2846 77.91C28.1546 77.6 28.0896 77.28 28.0896 76.95ZM34.8846 76.95C34.8846 76.67 34.8246 76.42 34.7046 76.2C34.5946 75.97 34.4146 75.775 34.1646 75.615C33.9246 75.445 33.6146 75.315 33.2346 75.225C32.8546 75.135 32.3996 75.09 31.8696 75.09C30.7996 75.09 30.0296 75.265 29.5596 75.615C29.0896 75.955 28.8546 76.4 28.8546 76.95C28.8546 77.23 28.9096 77.485 29.0196 77.715C29.1396 77.935 29.3196 78.125 29.5596 78.285C29.8096 78.455 30.1246 78.585 30.5046 78.675C30.8846 78.765 31.3396 78.81 31.8696 78.81C32.9296 78.81 33.6946 78.64 34.1646 78.3C34.6446 77.96 34.8846 77.51 34.8846 76.95ZM29.7546 69.99C29.5946 70.58 29.2496 71.18 28.7196 71.79C28.1896 72.39 27.4996 72.91 26.6496 73.35L26.2296 72.75C27.1896 72.23 27.9446 71.6 28.4946 70.86C29.0546 70.11 29.3346 69.265 29.3346 68.325V67.995H26.6046V67.335H32.7246V67.995H30.1146V68.325C30.1146 68.795 30.1996 69.24 30.3696 69.66C30.5396 70.07 30.7646 70.46 31.0446 70.83C31.3246 71.19 31.6446 71.52 32.0046 71.82C32.3746 72.12 32.7596 72.385 33.1596 72.615L32.7696 73.2C32.0296 72.79 31.3946 72.31 30.8646 71.76C30.3446 71.2 29.9746 70.61 29.7546 69.99ZM37.5246 70.335H35.4996V73.92H34.7196V66.72H35.4996V69.645H37.5246V70.335ZM49.4783 74.91C49.8283 74.91 50.1583 74.85 50.4683 74.73C50.7783 74.61 51.0183 74.47 51.1883 74.31V66.72H51.9533V71.04H53.8283V71.745H51.9533V79.26H51.1883V74.94C50.9983 75.12 50.7333 75.27 50.3933 75.39C50.0533 75.51 49.6533 75.57 49.1933 75.57H47.2133C46.9833 75.57 46.8233 75.515 46.7333 75.405C46.6433 75.295 46.5983 75.125 46.5983 74.895C46.4583 75.045 46.2333 75.195 45.9233 75.345C45.6233 75.495 45.2633 75.57 44.8433 75.57H43.5233C43.2933 75.57 43.1333 75.515 43.0433 75.405C42.9533 75.285 42.9083 75.11 42.9083 74.88V67.56H45.8183V68.235H43.6433V74.7C43.6433 74.8 43.6533 74.86 43.6733 74.88C43.7033 74.9 43.7633 74.91 43.8533 74.91H45.0083C45.3683 74.91 45.6833 74.85 45.9533 74.73C46.2233 74.6 46.4383 74.44 46.5983 74.25V67.56H49.7483V68.235H47.3333V74.7C47.3333 74.8 47.3433 74.86 47.3633 74.88C47.3933 74.9 47.4533 74.91 47.5433 74.91H49.4783ZM60.1079 76.56C59.9679 76.85 59.7629 77.14 59.4929 77.43C59.2329 77.71 58.9229 77.975 58.5629 78.225C58.2029 78.475 57.8029 78.7 57.3629 78.9C56.9229 79.11 56.4629 79.28 55.9829 79.41L55.6979 78.81C56.3379 78.61 56.9079 78.375 57.4079 78.105C57.9079 77.845 58.3279 77.56 58.6679 77.25C59.0179 76.94 59.2829 76.62 59.4629 76.29C59.6429 75.96 59.7329 75.63 59.7329 75.3V74.685H60.4679V75.3C60.4679 75.63 60.5579 75.96 60.7379 76.29C60.9179 76.62 61.1779 76.94 61.5179 77.25C61.8679 77.56 62.2929 77.845 62.7929 78.105C63.2929 78.375 63.8629 78.61 64.5029 78.81L64.2179 79.41C63.7379 79.28 63.2779 79.11 62.8379 78.9C62.3979 78.7 61.9979 78.475 61.6379 78.225C61.2779 77.975 60.9629 77.71 60.6929 77.43C60.4329 77.14 60.2379 76.85 60.1079 76.56ZM65.5979 73.275H54.6029V72.6H65.5979V73.275ZM60.2579 66.99H64.1579V67.62H60.9929V70.29C60.9929 70.39 61.0029 70.45 61.0229 70.47C61.0529 70.49 61.1129 70.5 61.2029 70.5H64.2479V71.16H60.8879C60.6579 71.16 60.4979 71.105 60.4079 70.995C60.3179 70.875 60.2729 70.7 60.2729 70.47C60.1229 70.64 59.9029 70.8 59.6129 70.95C59.3329 71.09 58.9929 71.16 58.5929 71.16H56.6429C56.4129 71.16 56.2529 71.105 56.1629 70.995C56.0729 70.875 56.0279 70.7 56.0279 70.47V66.99H59.4029V67.62H56.7629V70.275C56.7629 70.375 56.7729 70.435 56.7929 70.455C56.8229 70.475 56.8829 70.485 56.9729 70.485H58.6829C59.0529 70.485 59.3729 70.43 59.6429 70.32C59.9129 70.21 60.1179 70.065 60.2579 69.885V66.99ZM73.7375 69.195V69.87H66.7775V69.195H73.7375ZM68.4275 67.005H72.2375V67.695H68.4275V67.005ZM70.3325 76.695C69.4325 76.695 68.7275 76.46 68.2175 75.99C67.7075 75.51 67.4525 74.79 67.4525 73.83C67.4525 72.87 67.7075 72.155 68.2175 71.685C68.7275 71.205 69.4325 70.965 70.3325 70.965C71.2325 70.965 71.9375 71.205 72.4475 71.685C72.9575 72.155 73.2125 72.87 73.2125 73.83C73.2125 74.79 72.9575 75.51 72.4475 75.99C71.9375 76.46 71.2325 76.695 70.3325 76.695ZM70.3325 76.035C70.9825 76.035 71.4925 75.86 71.8625 75.51C72.2425 75.16 72.4325 74.6 72.4325 73.83C72.4325 73.06 72.2425 72.5 71.8625 72.15C71.4925 71.8 70.9825 71.625 70.3325 71.625C69.6825 71.625 69.1675 71.8 68.7875 72.15C68.4175 72.5 68.2325 73.06 68.2325 73.83C68.2325 74.6 68.4175 75.16 68.7875 75.51C69.1675 75.86 69.6825 76.035 70.3325 76.035ZM78.0275 72.93H76.0025V79.26H75.2225V66.72H76.0025V72.225H78.0275V72.93ZM83.9171 76.155H89.7971V76.83H78.8171V76.155H83.1521V71.97H83.9171V76.155ZM88.0421 67.56V70.38C88.0421 70.95 87.9921 71.57 87.8921 72.24C87.7921 72.9 87.6121 73.52 87.3521 74.1L86.6471 73.95C86.8371 73.47 86.9871 72.945 87.0971 72.375C87.2071 71.805 87.2621 71.235 87.2621 70.665V68.235H80.5571V67.56H88.0421ZM20.745 87.12C20.745 87.57 20.715 88.02 20.655 88.47C20.605 88.92 20.485 89.37 20.295 89.82L19.665 89.715C19.795 89.335 19.88 88.955 19.92 88.575C19.96 88.195 19.98 87.845 19.98 87.525V85.965H15.15V85.32H20.745V87.12ZM17.01 88.41H17.775V91.275H19.14C19.86 91.275 20.49 91.22 21.03 91.11C21.57 90.99 22.1 90.795 22.62 90.525V84.72H23.4V88.41H25.425V89.115H23.4V93.69H22.62V91.17C22.18 91.43 21.675 91.625 21.105 91.755C20.545 91.875 19.92 91.935 19.23 91.935H14.1V91.275H17.01V88.41ZM16.68 97.185C16.45 97.185 16.29 97.125 16.2 97.005C16.11 96.895 16.065 96.725 16.065 96.495V93.345H16.83V96.285C16.83 96.365 16.84 96.42 16.86 96.45C16.89 96.48 16.95 96.495 17.04 96.495H23.7V97.185H16.68ZM31.0296 88.53C31.0296 89.09 30.9746 89.605 30.8646 90.075C30.7546 90.535 30.5496 90.985 30.2496 91.425C29.9496 91.865 29.5296 92.31 28.9896 92.76C28.4596 93.21 27.7746 93.705 26.9346 94.245L26.5146 93.63C27.3046 93.13 27.9446 92.67 28.4346 92.25C28.9246 91.82 29.3046 91.41 29.5746 91.02C29.8446 90.63 30.0246 90.255 30.1146 89.895C30.2146 89.525 30.2646 89.145 30.2646 88.755V86.295H26.6196V85.62H31.0296V87.51H33.3246V84.885H34.0896V96.84H33.3246V91.695H30.8046V91.005H33.3246V88.2H31.0296V88.53ZM36.3246 97.26H35.5596V84.72H36.3246V97.26ZM42.0192 90.015C41.9392 90.305 41.8042 90.62 41.6142 90.96C41.4242 91.3 41.1942 91.645 40.9242 91.995C40.6542 92.335 40.3442 92.67 39.9942 93C39.6442 93.32 39.2692 93.61 38.8692 93.87L38.4192 93.285C38.8992 92.955 39.3342 92.595 39.7242 92.205C40.1142 91.805 40.4492 91.38 40.7292 90.93C41.0192 90.48 41.2392 90.01 41.3892 89.52C41.5492 89.03 41.6292 88.525 41.6292 88.005V86.22H38.8992V85.56H44.9892V86.22H42.4092V88.005C42.4092 89.025 42.6892 89.97 43.2492 90.84C43.8192 91.71 44.5842 92.475 45.5442 93.135L45.0942 93.72C44.7142 93.48 44.3542 93.205 44.0142 92.895C43.6842 92.585 43.3842 92.265 43.1142 91.935C42.8442 91.605 42.6142 91.275 42.4242 90.945C42.2342 90.615 42.0992 90.305 42.0192 90.015ZM47.2692 84.72H48.0492V97.26H47.2692V84.72ZM55.5288 85.425H51.9288V84.72H55.5288V85.425ZM53.7138 91.77C52.9238 91.77 52.2988 91.56 51.8388 91.14C51.3788 90.72 51.1488 90.15 51.1488 89.43C51.1488 89.04 51.2288 88.665 51.3888 88.305C51.5588 87.945 51.7938 87.685 52.0938 87.525H50.1738V86.865H57.1788V87.525H55.3638C55.6638 87.685 55.8938 87.945 56.0538 88.305C56.2238 88.665 56.3088 89.04 56.3088 89.43C56.3088 90.15 56.0788 90.72 55.6188 91.14C55.1588 91.56 54.5238 91.77 53.7138 91.77ZM53.7288 87.63C53.3988 87.63 53.1188 87.685 52.8888 87.795C52.6588 87.895 52.4688 88.03 52.3188 88.2C52.1788 88.36 52.0788 88.55 52.0188 88.77C51.9588 88.99 51.9288 89.21 51.9288 89.43C51.9288 89.97 52.0788 90.385 52.3788 90.675C52.6788 90.955 53.1288 91.095 53.7288 91.095C54.3288 91.095 54.7788 90.955 55.0788 90.675C55.3788 90.385 55.5288 89.97 55.5288 89.43C55.5288 89.21 55.4988 88.99 55.4388 88.77C55.3788 88.55 55.2738 88.36 55.1238 88.2C54.9838 88.03 54.7988 87.895 54.5688 87.795C54.3388 87.685 54.0588 87.63 53.7288 87.63ZM56.0538 97.47C55.3438 97.47 54.7488 97.405 54.2688 97.275C53.7888 97.145 53.3988 96.97 53.0988 96.75C52.8088 96.54 52.5988 96.29 52.4688 96C52.3388 95.7 52.2738 95.385 52.2738 95.055C52.2738 94.725 52.3388 94.415 52.4688 94.125C52.5988 93.825 52.8088 93.565 53.0988 93.345C53.3988 93.125 53.7888 92.95 54.2688 92.82C54.7488 92.69 55.3438 92.625 56.0538 92.625C56.7538 92.625 57.3438 92.69 57.8238 92.82C58.3138 92.95 58.7038 93.125 58.9938 93.345C59.2938 93.565 59.5088 93.825 59.6388 94.125C59.7688 94.415 59.8338 94.725 59.8338 95.055C59.8338 95.385 59.7688 95.7 59.6388 96C59.5088 96.29 59.2938 96.54 58.9938 96.75C58.7038 96.97 58.3138 97.145 57.8238 97.275C57.3438 97.405 56.7538 97.47 56.0538 97.47ZM56.0538 96.795C57.0538 96.795 57.8038 96.655 58.3038 96.375C58.8138 96.095 59.0688 95.655 59.0688 95.055C59.0688 94.455 58.8138 94.015 58.3038 93.735C57.8038 93.445 57.0538 93.3 56.0538 93.3C55.0538 93.3 54.2988 93.445 53.7888 93.735C53.2888 94.015 53.0388 94.455 53.0388 95.055C53.0388 95.655 53.2888 96.095 53.7888 96.375C54.2988 96.655 55.0538 96.795 56.0538 96.795ZM61.7238 86.775V87.465H59.6988V89.505H61.7238V90.195H59.6988V92.25H58.9188V84.72H59.6988V86.775H61.7238ZM66.0534 88.14C65.8934 88.73 65.5484 89.33 65.0184 89.94C64.4884 90.54 63.7984 91.06 62.9484 91.5L62.5284 90.9C63.4884 90.38 64.2434 89.75 64.7934 89.01C65.3534 88.26 65.6334 87.415 65.6334 86.475V85.995H62.9034V85.335H69.0234V85.995H66.4134V86.475C66.4134 86.945 66.4984 87.39 66.6684 87.81C66.8384 88.22 67.0634 88.61 67.3434 88.98C67.6234 89.34 67.9434 89.67 68.3034 89.97C68.6734 90.27 69.0584 90.535 69.4584 90.765L69.0684 91.35C68.3284 90.94 67.6934 90.46 67.1634 89.91C66.6434 89.35 66.2734 88.76 66.0534 88.14ZM72.2484 97.41H71.4684V93.45H64.8234V92.79H72.2484V97.41ZM72.2484 91.845H71.4684V88.395H68.7834V87.69H71.4684V84.72H72.2484V91.845ZM84.348 93.495H83.568V84.72H84.348V93.495ZM78.063 91.23C77.503 91.23 77.028 91.15 76.638 90.99C76.248 90.82 75.928 90.595 75.678 90.315C75.428 90.035 75.248 89.71 75.138 89.34C75.028 88.96 74.973 88.555 74.973 88.125C74.973 87.695 75.028 87.295 75.138 86.925C75.248 86.545 75.428 86.215 75.678 85.935C75.928 85.655 76.248 85.435 76.638 85.275C77.028 85.105 77.503 85.02 78.063 85.02C78.623 85.02 79.098 85.105 79.488 85.275C79.878 85.435 80.198 85.655 80.448 85.935C80.698 86.215 80.878 86.545 80.988 86.925C81.098 87.295 81.153 87.695 81.153 88.125C81.153 88.555 81.098 88.96 80.988 89.34C80.878 89.71 80.698 90.035 80.448 90.315C80.198 90.595 79.878 90.82 79.488 90.99C79.098 91.15 78.623 91.23 78.063 91.23ZM78.063 90.555C78.773 90.555 79.333 90.345 79.743 89.925C80.163 89.505 80.373 88.905 80.373 88.125C80.373 87.345 80.163 86.745 79.743 86.325C79.333 85.905 78.773 85.695 78.063 85.695C77.353 85.695 76.788 85.905 76.368 86.325C75.958 86.745 75.753 87.345 75.753 88.125C75.753 88.905 75.958 89.505 76.368 89.925C76.788 90.345 77.353 90.555 78.063 90.555ZM77.838 96.285C77.838 96.385 77.848 96.445 77.868 96.465C77.898 96.485 77.958 96.495 78.048 96.495H84.648V97.185H77.688C77.458 97.185 77.298 97.125 77.208 97.005C77.118 96.895 77.073 96.725 77.073 96.495V92.805H77.838V96.285ZM96.3618 90.6H101.897V91.26H90.9018V90.6H95.5968V87.885H96.3618V90.6ZM96.3918 97.47C95.7318 97.47 95.1668 97.405 94.6968 97.275C94.2268 97.155 93.8368 96.98 93.5268 96.75C93.2268 96.53 93.0068 96.27 92.8668 95.97C92.7268 95.66 92.6568 95.33 92.6568 94.98C92.6568 94.63 92.7268 94.305 92.8668 94.005C93.0068 93.705 93.2268 93.445 93.5268 93.225C93.8368 92.995 94.2268 92.82 94.6968 92.7C95.1668 92.57 95.7318 92.505 96.3918 92.505C97.0518 92.505 97.6168 92.57 98.0868 92.7C98.5568 92.82 98.9418 92.995 99.2418 93.225C99.5518 93.445 99.7768 93.71 99.9168 94.02C100.057 94.32 100.127 94.645 100.127 94.995C100.127 95.345 100.057 95.67 99.9168 95.97C99.7768 96.27 99.5518 96.53 99.2418 96.75C98.9418 96.98 98.5568 97.155 98.0868 97.275C97.6168 97.405 97.0518 97.47 96.3918 97.47ZM96.3918 96.795C97.4218 96.795 98.1718 96.63 98.6418 96.3C99.1218 95.97 99.3618 95.53 99.3618 94.98C99.3618 94.43 99.1218 93.995 98.6418 93.675C98.1718 93.345 97.4218 93.18 96.3918 93.18C95.3618 93.18 94.6068 93.345 94.1268 93.675C93.6568 94.005 93.4218 94.445 93.4218 94.995C93.4218 95.545 93.6568 95.98 94.1268 96.3C94.6068 96.63 95.3618 96.795 96.3918 96.795ZM99.9918 85.065V86.775C99.9918 87.745 99.8368 88.6 99.5268 89.34L98.8518 89.25C98.9518 88.93 99.0368 88.585 99.1068 88.215C99.1868 87.845 99.2268 87.51 99.2268 87.21V85.725H92.7318V85.065H99.9918ZM105.026 92.61H112.301V97.26H105.641C105.411 97.26 105.251 97.2 105.161 97.08C105.071 96.97 105.026 96.8 105.026 96.57V92.61ZM111.536 96.615V93.24H105.791V96.405C105.791 96.505 105.801 96.565 105.821 96.585C105.851 96.605 105.911 96.615 106.001 96.615H111.536ZM108.926 86.805C108.926 87.355 108.811 87.845 108.581 88.275C108.351 88.695 108.011 89.09 107.561 89.46C107.111 89.82 106.546 90.17 105.866 90.51C105.196 90.84 104.416 91.19 103.526 91.56L103.211 90.945C104.051 90.615 104.776 90.295 105.386 89.985C106.006 89.675 106.521 89.365 106.931 89.055C107.341 88.735 107.646 88.41 107.846 88.08C108.046 87.74 108.146 87.38 108.146 87V86.07H103.691V85.41H108.926V86.805ZM114.326 88.32H112.301V91.65H111.521V84.72H112.301V87.63H114.326V88.32ZM121.236 97.47C120.526 97.47 119.931 97.405 119.451 97.275C118.971 97.145 118.581 96.97 118.281 96.75C117.991 96.54 117.781 96.29 117.651 96C117.521 95.7 117.456 95.385 117.456 95.055C117.456 94.725 117.521 94.415 117.651 94.125C117.781 93.825 117.991 93.565 118.281 93.345C118.581 93.125 118.971 92.95 119.451 92.82C119.931 92.69 120.526 92.625 121.236 92.625C121.936 92.625 122.526 92.69 123.006 92.82C123.496 92.95 123.886 93.125 124.176 93.345C124.476 93.565 124.691 93.825 124.821 94.125C124.951 94.415 125.016 94.725 125.016 95.055C125.016 95.385 124.951 95.7 124.821 96C124.691 96.29 124.476 96.54 124.176 96.75C123.886 96.97 123.496 97.145 123.006 97.275C122.526 97.405 121.936 97.47 121.236 97.47ZM118.566 91.77C117.776 91.77 117.151 91.56 116.691 91.14C116.231 90.72 116.001 90.15 116.001 89.43C116.001 89.04 116.081 88.665 116.241 88.305C116.411 87.945 116.646 87.685 116.946 87.525H115.026V86.865H122.031V87.525H120.216C120.516 87.685 120.746 87.945 120.906 88.305C121.076 88.665 121.161 89.04 121.161 89.43C121.161 90.15 120.931 90.72 120.471 91.14C120.011 91.56 119.376 91.77 118.566 91.77ZM121.236 96.795C122.236 96.795 122.986 96.655 123.486 96.375C123.996 96.095 124.251 95.655 124.251 95.055C124.251 94.455 123.996 94.015 123.486 93.735C122.986 93.445 122.236 93.3 121.236 93.3C120.236 93.3 119.481 93.445 118.971 93.735C118.471 94.015 118.221 94.455 118.221 95.055C118.221 95.655 118.471 96.095 118.971 96.375C119.481 96.655 120.236 96.795 121.236 96.795ZM118.581 87.63C118.251 87.63 117.971 87.685 117.741 87.795C117.511 87.895 117.321 88.03 117.171 88.2C117.031 88.36 116.931 88.55 116.871 88.77C116.811 88.99 116.781 89.21 116.781 89.43C116.781 89.97 116.931 90.385 117.231 90.675C117.531 90.955 117.981 91.095 118.581 91.095C119.181 91.095 119.631 90.955 119.931 90.675C120.231 90.385 120.381 89.97 120.381 89.43C120.381 89.21 120.351 88.99 120.291 88.77C120.231 88.55 120.126 88.36 119.976 88.2C119.836 88.03 119.651 87.895 119.421 87.795C119.191 87.685 118.911 87.63 118.581 87.63ZM124.851 92.175H124.071V90.735H122.121V90.03H124.071V88.41H122.346V87.705H124.071V84.72H124.851V92.175ZM120.381 85.425H116.781V84.72H120.381V85.425ZM134.735 90.96C134.175 90.96 133.7 90.885 133.31 90.735C132.93 90.585 132.615 90.38 132.365 90.12C132.115 89.85 131.935 89.535 131.825 89.175C131.715 88.805 131.66 88.41 131.66 87.99C131.66 87.57 131.715 87.18 131.825 86.82C131.935 86.45 132.115 86.135 132.365 85.875C132.615 85.605 132.93 85.395 133.31 85.245C133.7 85.095 134.175 85.02 134.735 85.02C135.215 85.02 135.635 85.08 135.995 85.2C136.355 85.31 136.655 85.47 136.895 85.68C137.145 85.89 137.34 86.14 137.48 86.43C137.62 86.72 137.715 87.035 137.765 87.375H140.375V84.72H141.155V91.65H140.375V88.08H137.81C137.8 88.49 137.735 88.875 137.615 89.235C137.505 89.585 137.325 89.89 137.075 90.15C136.825 90.4 136.505 90.6 136.115 90.75C135.735 90.89 135.275 90.96 134.735 90.96ZM141.155 97.26H134.345C134.115 97.26 133.955 97.2 133.865 97.08C133.775 96.97 133.73 96.8 133.73 96.57V92.61H141.155V97.26ZM140.39 96.615V93.24H134.495V96.405C134.495 96.505 134.505 96.565 134.525 96.585C134.555 96.605 134.615 96.615 134.705 96.615H140.39ZM134.735 90.285C135.435 90.285 135.99 90.1 136.4 89.73C136.82 89.35 137.03 88.77 137.03 87.99C137.03 87.21 136.82 86.635 136.4 86.265C135.99 85.885 135.435 85.695 134.735 85.695C134.035 85.695 133.475 85.885 133.055 86.265C132.645 86.635 132.44 87.21 132.44 87.99C132.44 88.77 132.645 89.35 133.055 89.73C133.475 90.1 134.035 90.285 134.735 90.285ZM154.829 89.73H152.804V97.26H152.024V84.72H152.804V89.025H154.829V89.73ZM149.444 93.735H144.584C144.354 93.735 144.194 93.68 144.104 93.57C144.014 93.45 143.969 93.275 143.969 93.045V85.56H149.444V93.735ZM148.664 93.06V86.235H144.734V92.85C144.734 92.95 144.744 93.01 144.764 93.03C144.794 93.05 144.854 93.06 144.944 93.06H148.664Z" fill="#282828"/>
<path d="M22.5 31V42.14H15.86C15.4733 42.14 15.18 42.0533 14.98 41.88C14.7933 41.6933 14.7 41.3867 14.7 40.96V31H22.5ZM16.22 40.6C16.22 40.72 16.2333 40.8 16.26 40.84C16.3 40.8667 16.3867 40.88 16.52 40.88H20.98V32.24H16.22V40.6ZM26.92 29.88V35.58H29.52V36.88H26.92V46.76H25.4V29.88H26.92ZM45.3095 37.74V39.04H30.4895V37.74H45.3095ZM32.7295 40.56H43.0695V46.76H33.7295C33.3829 46.76 33.1295 46.68 32.9695 46.52C32.8095 46.36 32.7295 46.0933 32.7295 45.72V40.56ZM41.5495 45.54V41.8H34.2495V45.26C34.2495 45.38 34.2629 45.4533 34.2895 45.48C34.3295 45.52 34.4162 45.54 34.5495 45.54H41.5495ZM37.8895 36.42C36.9162 36.42 36.0962 36.3467 35.4295 36.2C34.7629 36.0533 34.2229 35.8467 33.8095 35.58C33.3962 35.3 33.0962 34.9667 32.9095 34.58C32.7362 34.18 32.6495 33.7333 32.6495 33.24C32.6495 32.7467 32.7362 32.3 32.9095 31.9C33.0962 31.5 33.3962 31.16 33.8095 30.88C34.2229 30.6 34.7629 30.3867 35.4295 30.24C36.0962 30.0933 36.9162 30.02 37.8895 30.02C38.8629 30.02 39.6829 30.0933 40.3495 30.24C41.0162 30.3867 41.5562 30.6 41.9695 30.88C42.3829 31.16 42.6762 31.5 42.8495 31.9C43.0362 32.3 43.1295 32.7467 43.1295 33.24C43.1295 33.7333 43.0362 34.18 42.8495 34.58C42.6762 34.9667 42.3829 35.3 41.9695 35.58C41.5562 35.8467 41.0162 36.0533 40.3495 36.2C39.6829 36.3467 38.8629 36.42 37.8895 36.42ZM37.8895 35.18C39.2095 35.18 40.1562 35.02 40.7295 34.7C41.3162 34.38 41.6095 33.8867 41.6095 33.22C41.6095 32.5533 41.3162 32.06 40.7295 31.74C40.1562 31.42 39.2095 31.26 37.8895 31.26C36.5695 31.26 35.6162 31.42 35.0295 31.74C34.4562 32.06 34.1695 32.5533 34.1695 33.22C34.1695 33.8867 34.4562 34.38 35.0295 34.7C35.6162 35.02 36.5695 35.18 37.8895 35.18ZM60.0591 29.88V46.74H58.5591V29.88H60.0591ZM51.5591 42.52C48.8391 42.52 47.4791 40.5533 47.4791 36.62C47.4791 32.6733 48.8391 30.7 51.5591 30.7C54.2791 30.7 55.6391 32.6733 55.6391 36.62C55.6391 40.5533 54.2791 42.52 51.5591 42.52ZM51.5591 41.2C52.4124 41.2 53.0524 40.8467 53.4791 40.14C53.9057 39.42 54.1191 38.2467 54.1191 36.62C54.1191 34.9933 53.9057 33.82 53.4791 33.1C53.0524 32.38 52.4124 32.02 51.5591 32.02C50.6924 32.02 50.0457 32.38 49.6191 33.1C49.2057 33.82 48.9991 34.9933 48.9991 36.62C48.9991 38.2467 49.2057 39.42 49.6191 40.14C50.0457 40.8467 50.6924 41.2 51.5591 41.2ZM78.3741 32.26H75.5341V40.3C75.5341 40.4733 75.5607 40.5867 75.6141 40.64C75.6807 40.6933 75.7807 40.72 75.9141 40.72H77.6941C78.1207 40.72 78.5407 40.66 78.9541 40.54C79.3807 40.4067 79.7341 40.24 80.0141 40.04V29.88H81.5341V35.48H83.9341V36.76H81.5341V46.76H80.0141V41.22C79.7474 41.46 79.3741 41.6533 78.8941 41.8C78.4141 41.9333 77.8941 42 77.3341 42H75.2541C74.5874 42 74.2074 41.72 74.1141 41.16C73.9141 41.3867 73.6207 41.58 73.2341 41.74C72.8474 41.9 72.4007 41.98 71.8941 41.98H70.2741C69.9274 41.98 69.6541 41.9 69.4541 41.74C69.2541 41.5667 69.1541 41.26 69.1541 40.82V31H73.2341V32.26H70.6141V40.32C70.6141 40.48 70.6407 40.5867 70.6941 40.64C70.7474 40.6933 70.8474 40.72 70.9941 40.72H72.1541C72.5807 40.72 72.9541 40.66 73.2741 40.54C73.5941 40.4067 73.8607 40.2333 74.0741 40.02V31H78.3741V32.26ZM99.7236 37.8V39.08H84.9036V37.8H99.7236ZM92.2836 43.38C92.0836 43.7667 91.8036 44.1467 91.4436 44.52C91.0969 44.8933 90.6969 45.24 90.2436 45.56C89.7903 45.88 89.2969 46.16 88.7636 46.4C88.2303 46.6533 87.6903 46.84 87.1436 46.96L86.4836 45.74C87.1636 45.5667 87.8036 45.32 88.4036 45C89.0169 44.6667 89.5503 44.3067 90.0036 43.92C90.4569 43.52 90.8103 43.1067 91.0636 42.68C91.3303 42.24 91.4636 41.82 91.4636 41.42V40.58H93.0636V41.42C93.0636 41.8067 93.1903 42.2133 93.4436 42.64C93.7103 43.0667 94.0636 43.48 94.5036 43.88C94.9569 44.28 95.4836 44.6467 96.0836 44.98C96.6969 45.3133 97.3503 45.5667 98.0436 45.74L97.4236 46.96C96.8769 46.84 96.3369 46.6533 95.8036 46.4C95.2703 46.1467 94.7769 45.8533 94.3236 45.52C93.8703 45.2 93.4636 44.8533 93.1036 44.48C92.7569 44.1067 92.4836 43.74 92.2836 43.38ZM97.7636 31.4H93.9436V34.44C93.9436 34.6 93.9636 34.7 94.0036 34.74C94.0569 34.7667 94.1569 34.78 94.3036 34.78H97.8636V36.04H93.6436C93.3636 36.04 93.1236 35.9667 92.9236 35.82C92.7236 35.66 92.5969 35.4467 92.5436 35.18C92.3436 35.3933 92.0569 35.5933 91.6836 35.78C91.3103 35.9533 90.8436 36.04 90.2836 36.04H87.9236C87.1636 36.04 86.7836 35.6467 86.7836 34.86V30.18H91.4636V31.4H88.2436V34.46C88.2436 34.6067 88.2636 34.7 88.3036 34.74C88.3436 34.78 88.4303 34.8 88.5636 34.8H90.5636C90.9369 34.8 91.2969 34.7467 91.6436 34.64C92.0036 34.5333 92.2903 34.3667 92.5036 34.14V30.18H97.7636V31.4ZM104.953 46.66C104.22 46.66 103.853 46.3067 103.853 45.6V41.66H105.353V45.02C105.353 45.1933 105.373 45.2933 105.413 45.32C105.453 45.36 105.553 45.38 105.713 45.38H114.293V46.66H104.953ZM113.893 35.08H116.473V36.4H113.893V42.66H112.353V29.88H113.893V35.08ZM103.233 31.46V30.08H108.093V31.46H103.233ZM105.673 40.06C105.073 40.06 104.546 39.9733 104.093 39.8C103.64 39.6267 103.26 39.3867 102.953 39.08C102.66 38.76 102.44 38.3867 102.293 37.96C102.146 37.52 102.073 37.0467 102.073 36.54C102.073 36.3267 102.093 36.1067 102.133 35.88C102.173 35.64 102.226 35.4133 102.293 35.2C102.373 34.9733 102.466 34.7667 102.573 34.58C102.68 34.3933 102.8 34.2467 102.933 34.14H100.953V32.86H110.293V34.14H108.373C108.506 34.2467 108.626 34.3933 108.733 34.58C108.84 34.7667 108.926 34.9733 108.993 35.2C109.073 35.4133 109.133 35.64 109.173 35.88C109.213 36.1067 109.233 36.3267 109.233 36.54C109.233 37.0467 109.16 37.52 109.013 37.96C108.866 38.3867 108.64 38.76 108.333 39.08C108.04 39.3867 107.666 39.6267 107.213 39.8C106.773 39.9733 106.26 40.06 105.673 40.06ZM105.653 38.86C106.333 38.86 106.86 38.6667 107.233 38.28C107.606 37.88 107.793 37.3 107.793 36.54C107.793 35.7267 107.606 35.12 107.233 34.72C106.86 34.32 106.333 34.12 105.653 34.12C104.973 34.12 104.446 34.32 104.073 34.72C103.7 35.12 103.513 35.7267 103.513 36.54C103.513 37.3 103.7 37.88 104.073 38.28C104.446 38.6667 104.973 38.86 105.653 38.86ZM130.728 37.06H132.208V42.38H137.868V43.66H123.048V42.38H126.948V37.06H128.428V42.38H130.728V37.06ZM125.268 32.28V31H135.728V35.04C135.728 35.84 135.661 36.6867 135.528 37.58C135.395 38.46 135.155 39.3 134.808 40.1L133.488 39.84C133.741 39.16 133.921 38.44 134.028 37.68C134.148 36.9067 134.208 36.14 134.208 35.38V32.28H125.268ZM147.398 32.68C147.398 33.4667 147.264 34.1533 146.998 34.74C146.731 35.3133 146.311 35.8533 145.738 36.36C145.164 36.8533 144.418 37.3333 143.498 37.8C142.591 38.2667 141.498 38.7733 140.218 39.32L139.578 38.08C140.631 37.64 141.551 37.22 142.338 36.82C143.124 36.42 143.778 36.02 144.298 35.62C144.831 35.2067 145.224 34.7867 145.478 34.36C145.744 33.92 145.878 33.4467 145.878 32.94V32.06H140.218V30.8H147.398V32.68ZM143.018 46.76C142.658 46.76 142.398 46.6733 142.238 46.5C142.078 46.34 141.998 46.0667 141.998 45.68V40.4H152.038V46.76H143.018ZM150.498 41.62H143.498V45.26C143.498 45.3667 143.518 45.44 143.558 45.48C143.598 45.52 143.678 45.54 143.798 45.54H150.498V41.62ZM152.038 33.68H154.618V35H152.038V39.2H150.498V29.88H152.038V33.68ZM159.287 46.76C158.927 46.76 158.667 46.6733 158.507 46.5C158.347 46.34 158.267 46.0667 158.267 45.68V40.4H168.307V46.76H159.287ZM166.767 41.62H159.767V45.26C159.767 45.3667 159.787 45.44 159.827 45.48C159.867 45.52 159.947 45.54 160.067 45.54H166.767V41.62ZM168.307 33.68H170.887V35H168.307V39.2H166.767V29.88H168.307V33.68ZM163.767 30.7V37.96H157.087C156.727 37.96 156.467 37.88 156.307 37.72C156.147 37.56 156.067 37.2667 156.067 36.84V30.7H163.767ZM157.567 36.46C157.567 36.5667 157.581 36.64 157.607 36.68C157.647 36.72 157.721 36.74 157.827 36.74H162.287V31.92H157.567V36.46Z" fill="#FF4646"/>
</svg>
