<svg width="204" height="102" viewBox="0 0 204 102" fill="none" xmlns="http://www.w3.org/2000/svg">
<path d="M13.468 6.44V11.096H16.516C17.348 11.096 17.988 10.904 18.436 10.52C18.9 10.136 19.132 9.552 19.132 8.768C19.132 7.984 18.9 7.4 18.436 7.016C17.988 6.632 17.348 6.44 16.516 6.44H13.468ZM10.3 20V3.872H16.54C18.476 3.872 19.94 4.28 20.932 5.096C21.924 5.896 22.42 7.12 22.42 8.768C22.42 9.776 22.156 10.672 21.628 11.456C21.116 12.224 20.404 12.792 19.492 13.16L23.044 20H19.684L16.396 13.664H13.468V20H10.3ZM36.9516 3.872V6.44H32.3436V20H29.1756V6.44H24.5436V3.872H36.9516ZM45.9554 17.672C46.7394 17.672 47.5154 17.568 48.2834 17.36C49.0514 17.136 49.7954 16.832 50.5154 16.448L51.3074 18.944C50.5394 19.36 49.6914 19.68 48.7634 19.904C47.8354 20.128 46.8914 20.24 45.9314 20.24C43.2274 20.24 41.2274 19.52 39.9314 18.08C38.6514 16.64 38.0114 14.592 38.0114 11.936C38.0114 9.088 38.6434 6.992 39.9074 5.648C41.1714 4.304 43.0594 3.632 45.5714 3.632C46.7714 3.632 47.8594 3.84 48.8354 4.256C49.8274 4.672 50.6274 5.216 51.2354 5.888L49.4834 7.856C49.0034 7.328 48.4354 6.92 47.7794 6.632C47.1394 6.344 46.4034 6.2 45.5714 6.2C44.1154 6.2 43.0194 6.664 42.2834 7.592C41.5474 8.504 41.1794 9.952 41.1794 11.936C41.1794 13.824 41.5634 15.256 42.3314 16.232C43.0994 17.192 44.3074 17.672 45.9554 17.672ZM61.0686 20L57.7086 11.936L57.0846 10.304H57.0606L57.1086 11.984V20H53.9406V3.872H57.4206L61.8846 14.864L62.4606 16.376H62.5086L63.0846 14.864L67.5486 3.872H71.0046V20H67.8366V11.984L67.8846 10.304H67.8606L67.2606 11.936L63.9006 20H61.0686Z" fill="#FF4646"/>
<rect opacity="0.5" x="8.5" y="85" width="66" height="12" fill="#F7FF5E"/>
<path d="M1.5 6V99.5" stroke="#FF4646" stroke-width="3"/>
<path d="M17.5 31V32.28H11.46V40.36C11.46 40.52 11.48 40.62 11.52 40.66C11.5733 40.7 11.6867 40.72 11.86 40.72H16.82C17.54 40.72 18.2 40.66 18.8 40.54C19.4133 40.42 19.9467 40.24 20.4 40V29.88H21.92V35.58H24.52V36.88H21.92V46.76H20.4V41.16C19.9733 41.3867 19.4267 41.58 18.76 41.74C18.0933 41.9 17.34 41.98 16.5 41.98H11.32C10.8133 41.98 10.4533 41.8933 10.24 41.72C10.04 41.5333 9.94 41.16 9.94 40.6V31H17.5ZM33.7695 47.04C31.9429 47.04 30.6162 46.7267 29.7895 46.1C28.9629 45.4867 28.5495 44.6467 28.5495 43.58C28.5495 42.5133 28.9629 41.6733 29.7895 41.06C30.6162 40.4333 31.9429 40.12 33.7695 40.12C35.5829 40.12 36.9029 40.4333 37.7295 41.06C38.5695 41.6733 38.9895 42.5133 38.9895 43.58C38.9895 44.6467 38.5695 45.4867 37.7295 46.1C36.9029 46.7267 35.5829 47.04 33.7695 47.04ZM30.2295 35.14C30.0695 35.5267 29.8495 35.9133 29.5695 36.3C29.2895 36.6867 28.9695 37.0533 28.6095 37.4C28.2495 37.7333 27.8629 38.0467 27.4495 38.34C27.0495 38.62 26.6495 38.86 26.2495 39.06L25.4495 37.92C26.7429 37.24 27.7295 36.42 28.4095 35.46C29.0895 34.5 29.4295 33.5133 29.4295 32.5V31.94H26.0895V30.7H34.4295V31.94H31.0295V32.5C31.0295 33.38 31.3429 34.26 31.9695 35.14C32.5962 36.0067 33.6095 36.8 35.0095 37.52L34.2095 38.66C33.8362 38.4867 33.4562 38.2733 33.0695 38.02C32.6829 37.7667 32.3095 37.4933 31.9495 37.2C31.5895 36.8933 31.2629 36.5667 30.9695 36.22C30.6762 35.8733 30.4295 35.5133 30.2295 35.14ZM33.7695 45.82C34.4362 45.82 34.9962 45.7667 35.4495 45.66C35.9162 45.5533 36.2962 45.4 36.5895 45.2C36.8829 45.0133 37.0895 44.7867 37.2095 44.52C37.3429 44.24 37.4095 43.9267 37.4095 43.58C37.4095 43.2467 37.3429 42.94 37.2095 42.66C37.0895 42.38 36.8829 42.1467 36.5895 41.96C36.2962 41.76 35.9162 41.6067 35.4495 41.5C34.9962 41.3933 34.4362 41.34 33.7695 41.34C33.1029 41.34 32.5362 41.3933 32.0695 41.5C31.6162 41.6067 31.2429 41.76 30.9495 41.96C30.6562 42.1467 30.4429 42.38 30.3095 42.66C30.1895 42.94 30.1295 43.2467 30.1295 43.58C30.1295 43.9267 30.1895 44.24 30.3095 44.52C30.4429 44.7867 30.6562 45.0133 30.9495 45.2C31.2429 45.4 31.6162 45.5533 32.0695 45.66C32.5362 45.7667 33.1029 45.82 33.7695 45.82ZM33.9295 33.48H37.2695V29.88H38.7895V39.56H37.2695V34.78H33.9295V33.48ZM45.5391 46.66C44.8057 46.66 44.4391 46.3067 44.4391 45.6V41.66H45.9391V45.02C45.9391 45.1933 45.9591 45.2933 45.9991 45.32C46.0391 45.36 46.1391 45.38 46.2991 45.38H54.8791V46.66H45.5391ZM54.4791 35.08H57.0591V36.4H54.4791V42.66H52.9391V29.88H54.4791V35.08ZM43.8191 31.46V30.08H48.6791V31.46H43.8191ZM46.2591 40.06C45.6591 40.06 45.1324 39.9733 44.6791 39.8C44.2257 39.6267 43.8457 39.3867 43.5391 39.08C43.2457 38.76 43.0257 38.3867 42.8791 37.96C42.7324 37.52 42.6591 37.0467 42.6591 36.54C42.6591 36.3267 42.6791 36.1067 42.7191 35.88C42.7591 35.64 42.8124 35.4133 42.8791 35.2C42.9591 34.9733 43.0524 34.7667 43.1591 34.58C43.2657 34.3933 43.3857 34.2467 43.5191 34.14H41.5391V32.86H50.8791V34.14H48.9591C49.0924 34.2467 49.2124 34.3933 49.3191 34.58C49.4257 34.7667 49.5124 34.9733 49.5791 35.2C49.6591 35.4133 49.7191 35.64 49.7591 35.88C49.7991 36.1067 49.8191 36.3267 49.8191 36.54C49.8191 37.0467 49.7457 37.52 49.5991 37.96C49.4524 38.3867 49.2257 38.76 48.9191 39.08C48.6257 39.3867 48.2524 39.6267 47.7991 39.8C47.3591 39.9733 46.8457 40.06 46.2591 40.06ZM46.2391 38.86C46.9191 38.86 47.4457 38.6667 47.8191 38.28C48.1924 37.88 48.3791 37.3 48.3791 36.54C48.3791 35.7267 48.1924 35.12 47.8191 34.72C47.4457 34.32 46.9191 34.12 46.2391 34.12C45.5591 34.12 45.0324 34.32 44.6591 34.72C44.2857 35.12 44.0991 35.7267 44.0991 36.54C44.0991 37.3 44.2857 37.88 44.6591 38.28C45.0324 38.6667 45.5591 38.86 46.2391 38.86ZM65.6941 32.14V30.88H76.4141V32.14H71.8941V32.8C71.8941 33.2667 72.0274 33.7333 72.2941 34.2C72.5607 34.6533 72.9341 35.08 73.4141 35.48C73.8941 35.88 74.4674 36.2467 75.1341 36.58C75.8141 36.9133 76.5607 37.1867 77.3741 37.4L76.7341 38.56C76.1741 38.4267 75.6074 38.2333 75.0341 37.98C74.4607 37.7267 73.9141 37.44 73.3941 37.12C72.8874 36.7867 72.4341 36.4333 72.0341 36.06C71.6341 35.6867 71.3274 35.3067 71.1141 34.92C70.8874 35.32 70.5741 35.7133 70.1741 36.1C69.7874 36.4867 69.3407 36.8467 68.8341 37.18C68.3274 37.5 67.7807 37.7867 67.1941 38.04C66.6207 38.2933 66.0474 38.4867 65.4741 38.62L64.7741 37.48C65.5874 37.2667 66.3341 36.9867 67.0141 36.64C67.6941 36.2933 68.2741 35.9133 68.7541 35.5C69.2474 35.0867 69.6274 34.6533 69.8941 34.2C70.1607 33.7333 70.2941 33.2667 70.2941 32.8V32.14H65.6941ZM63.6341 42.32H70.2541V38.7H71.7941V42.32H78.4541V43.6H63.6341V42.32ZM88.1836 47.04C86.3569 47.04 85.0303 46.7267 84.2036 46.1C83.3769 45.4867 82.9636 44.6467 82.9636 43.58C82.9636 42.5133 83.3769 41.6733 84.2036 41.06C85.0303 40.4333 86.3569 40.12 88.1836 40.12C89.9969 40.12 91.3169 40.4333 92.1436 41.06C92.9836 41.6733 93.4036 42.5133 93.4036 43.58C93.4036 44.6467 92.9836 45.4867 92.1436 46.1C91.3169 46.7267 89.9969 47.04 88.1836 47.04ZM84.6436 35.14C84.4836 35.5267 84.2636 35.9133 83.9836 36.3C83.7036 36.6867 83.3836 37.0533 83.0236 37.4C82.6636 37.7333 82.2769 38.0467 81.8636 38.34C81.4636 38.62 81.0636 38.86 80.6636 39.06L79.8636 37.92C81.1569 37.24 82.1436 36.42 82.8236 35.46C83.5036 34.5 83.8436 33.5133 83.8436 32.5V31.94H80.5036V30.7H88.8436V31.94H85.4436V32.5C85.4436 33.38 85.7569 34.26 86.3836 35.14C87.0103 36.0067 88.0236 36.8 89.4236 37.52L88.6236 38.66C88.2503 38.4867 87.8703 38.2733 87.4836 38.02C87.0969 37.7667 86.7236 37.4933 86.3636 37.2C86.0036 36.8933 85.6769 36.5667 85.3836 36.22C85.0903 35.8733 84.8436 35.5133 84.6436 35.14ZM88.1836 45.82C88.8503 45.82 89.4103 45.7667 89.8636 45.66C90.3303 45.5533 90.7103 45.4 91.0036 45.2C91.2969 45.0133 91.5036 44.7867 91.6236 44.52C91.7569 44.24 91.8236 43.9267 91.8236 43.58C91.8236 43.2467 91.7569 42.94 91.6236 42.66C91.5036 42.38 91.2969 42.1467 91.0036 41.96C90.7103 41.76 90.3303 41.6067 89.8636 41.5C89.4103 41.3933 88.8503 41.34 88.1836 41.34C87.5169 41.34 86.9503 41.3933 86.4836 41.5C86.0303 41.6067 85.6569 41.76 85.3636 41.96C85.0703 42.1467 84.8569 42.38 84.7236 42.66C84.6036 42.94 84.5436 43.2467 84.5436 43.58C84.5436 43.9267 84.6036 44.24 84.7236 44.52C84.8569 44.7867 85.0703 45.0133 85.3636 45.2C85.6569 45.4 86.0303 45.5533 86.4836 45.66C86.9503 45.7667 87.5169 45.82 88.1836 45.82ZM88.3436 33.48H91.6836V29.88H93.2036V39.56H91.6836V34.78H88.3436V33.48ZM99.8731 46.76C99.5131 46.76 99.2531 46.6733 99.0931 46.5C98.9331 46.34 98.8531 46.0667 98.8531 45.68V40.4H108.893V46.76H99.8731ZM107.353 41.62H100.353V45.26C100.353 45.3667 100.373 45.44 100.413 45.48C100.453 45.52 100.533 45.54 100.653 45.54H107.353V41.62ZM108.893 33.68H111.473V35H108.893V39.2H107.353V29.88H108.893V33.68ZM104.353 30.7V37.96H97.6731C97.3131 37.96 97.0531 37.88 96.8931 37.72C96.7331 37.56 96.6531 37.2667 96.6531 36.84V30.7H104.353ZM98.1531 36.46C98.1531 36.5667 98.1665 36.64 98.1931 36.68C98.2331 36.72 98.3065 36.74 98.4131 36.74H102.873V31.92H98.1531V36.46Z" fill="#FF4646"/>
<path d="M14.59 72.675C13.34 72.675 12.375 72.405 11.695 71.865C11.025 71.325 10.69 70.61 10.69 69.72C10.69 69.29 10.775 68.895 10.945 68.535C11.125 68.175 11.38 67.865 11.71 67.605C12.04 67.345 12.445 67.145 12.925 67.005C13.415 66.865 13.97 66.795 14.59 66.795C15.21 66.795 15.76 66.865 16.24 67.005C16.73 67.145 17.14 67.345 17.47 67.605C17.8 67.865 18.05 68.175 18.22 68.535C18.4 68.895 18.49 69.29 18.49 69.72C18.49 70.61 18.15 71.325 17.47 71.865C16.8 72.405 15.84 72.675 14.59 72.675ZM14.59 72C15.58 72 16.35 71.805 16.9 71.415C17.45 71.015 17.725 70.455 17.725 69.735C17.725 69.015 17.45 68.46 16.9 68.07C16.35 67.67 15.58 67.47 14.59 67.47C13.6 67.47 12.83 67.67 12.28 68.07C11.73 68.46 11.455 69.015 11.455 69.735C11.455 70.455 11.73 71.015 12.28 71.415C12.83 71.805 13.6 72 14.59 72ZM20.095 74.715H17.155V79.26H16.39V74.715H12.79V79.26H12.025V74.715H9.1V74.055H20.095V74.715ZM24.5146 73.23C23.9546 73.23 23.4796 73.15 23.0896 72.99C22.6996 72.82 22.3796 72.595 22.1296 72.315C21.8796 72.035 21.6996 71.71 21.5896 71.34C21.4796 70.96 21.4246 70.555 21.4246 70.125C21.4246 69.695 21.4796 69.295 21.5896 68.925C21.6996 68.545 21.8796 68.215 22.1296 67.935C22.3796 67.655 22.6996 67.435 23.0896 67.275C23.4796 67.105 23.9546 67.02 24.5146 67.02C25.2046 67.02 25.7646 67.145 26.1946 67.395C26.6246 67.635 26.9546 67.955 27.1846 68.355H30.1696V66.72H30.9496V75.495H30.1696V72.06H27.0946C26.8546 72.42 26.5246 72.705 26.1046 72.915C25.6846 73.125 25.1546 73.23 24.5146 73.23ZM24.5146 72.555C25.2246 72.555 25.7846 72.345 26.1946 71.925C26.6146 71.505 26.8246 70.905 26.8246 70.125C26.8246 69.345 26.6146 68.745 26.1946 68.325C25.7846 67.905 25.2246 67.695 24.5146 67.695C23.8046 67.695 23.2396 67.905 22.8196 68.325C22.4096 68.745 22.2046 69.345 22.2046 70.125C22.2046 70.905 22.4096 71.505 22.8196 71.925C23.2396 72.345 23.8046 72.555 24.5146 72.555ZM24.4396 78.285C24.4396 78.385 24.4496 78.445 24.4696 78.465C24.4996 78.485 24.5596 78.495 24.6496 78.495H31.2496V79.185H24.2896C24.0596 79.185 23.8996 79.125 23.8096 79.005C23.7196 78.895 23.6746 78.725 23.6746 78.495V74.955H24.4396V78.285ZM30.1696 69.045H27.4696C27.5596 69.395 27.6046 69.755 27.6046 70.125C27.6046 70.585 27.5446 71 27.4246 71.37H30.1696V69.045ZM40.3342 69.195V69.87H33.3742V69.195H40.3342ZM35.0242 67.005H38.8342V67.695H35.0242V67.005ZM36.9292 76.695C36.0292 76.695 35.3242 76.46 34.8142 75.99C34.3042 75.51 34.0492 74.79 34.0492 73.83C34.0492 72.87 34.3042 72.155 34.8142 71.685C35.3242 71.205 36.0292 70.965 36.9292 70.965C37.8292 70.965 38.5342 71.205 39.0442 71.685C39.5542 72.155 39.8092 72.87 39.8092 73.83C39.8092 74.79 39.5542 75.51 39.0442 75.99C38.5342 76.46 37.8292 76.695 36.9292 76.695ZM36.9292 76.035C37.5792 76.035 38.0892 75.86 38.4592 75.51C38.8392 75.16 39.0292 74.6 39.0292 73.83C39.0292 73.06 38.8392 72.5 38.4592 72.15C38.0892 71.8 37.5792 71.625 36.9292 71.625C36.2792 71.625 35.7642 71.8 35.3842 72.15C35.0142 72.5 34.8292 73.06 34.8292 73.83C34.8292 74.6 35.0142 75.16 35.3842 75.51C35.7642 75.86 36.2792 76.035 36.9292 76.035ZM44.6242 72.93H42.5992V79.26H41.8192V66.72H42.5992V72.225H44.6242V72.93ZM50.2288 70.53C50.2288 70.61 50.2238 70.69 50.2138 70.77C50.2138 70.85 50.2138 70.93 50.2138 71.01H52.5238V66.885H53.2888V78.84H52.5238V71.7H50.1388C50.0688 72.1 49.9488 72.48 49.7788 72.84C49.6188 73.2 49.3788 73.56 49.0588 73.92C48.7488 74.28 48.3538 74.65 47.8738 75.03C47.4038 75.41 46.8238 75.815 46.1338 76.245L45.7138 75.63C46.5038 75.13 47.1438 74.67 47.6338 74.25C48.1238 73.82 48.5038 73.41 48.7738 73.02C49.0438 72.63 49.2238 72.255 49.3138 71.895C49.4138 71.525 49.4638 71.145 49.4638 70.755V68.295H45.8188V67.62H50.2288V70.53ZM55.5238 79.26H54.7588V66.72H55.5238V79.26ZM70.9725 79.26H64.0425C63.8125 79.26 63.6525 79.2 63.5625 79.08C63.4725 78.97 63.4275 78.8 63.4275 78.57V74.895H66.8175V73.17H61.7025V72.495H72.6975V73.17H67.5825V74.895H70.9725V79.26ZM67.1925 71.475C66.5425 71.475 65.9775 71.42 65.4975 71.31C65.0275 71.19 64.6375 71.025 64.3275 70.815C64.0175 70.605 63.7875 70.36 63.6375 70.08C63.4875 69.79 63.4125 69.48 63.4125 69.15C63.4125 68.82 63.4875 68.515 63.6375 68.235C63.7875 67.945 64.0175 67.695 64.3275 67.485C64.6375 67.275 65.0275 67.115 65.4975 67.005C65.9775 66.885 66.5425 66.825 67.1925 66.825C67.8425 66.825 68.4025 66.885 68.8725 67.005C69.3525 67.115 69.7475 67.275 70.0575 67.485C70.3675 67.695 70.5975 67.945 70.7475 68.235C70.8975 68.515 70.9725 68.82 70.9725 69.15C70.9725 69.48 70.8975 69.79 70.7475 70.08C70.5975 70.36 70.3675 70.605 70.0575 70.815C69.7475 71.025 69.3525 71.19 68.8725 71.31C68.4025 71.42 67.8425 71.475 67.1925 71.475ZM70.1925 78.615V75.54H64.1925V78.405C64.1925 78.505 64.2025 78.565 64.2225 78.585C64.2525 78.605 64.3125 78.615 64.4025 78.615H70.1925ZM67.1925 70.8C67.7425 70.8 68.2075 70.765 68.5875 70.695C68.9675 70.615 69.2775 70.505 69.5175 70.365C69.7575 70.215 69.9275 70.04 70.0275 69.84C70.1375 69.64 70.1925 69.41 70.1925 69.15C70.1925 68.9 70.1375 68.675 70.0275 68.475C69.9275 68.265 69.7575 68.09 69.5175 67.95C69.2775 67.8 68.9675 67.69 68.5875 67.62C68.2075 67.54 67.7425 67.5 67.1925 67.5C66.6425 67.5 66.1775 67.54 65.7975 67.62C65.4175 67.69 65.1075 67.8 64.8675 67.95C64.6275 68.09 64.4525 68.265 64.3425 68.475C64.2425 68.675 64.1925 68.9 64.1925 69.15C64.1925 69.41 64.2425 69.64 64.3425 69.84C64.4525 70.04 64.6275 70.215 64.8675 70.365C65.1075 70.505 65.4175 70.615 65.7975 70.695C66.1775 70.765 66.6425 70.8 67.1925 70.8ZM77.5071 70.14C77.3471 70.73 77.0021 71.33 76.4721 71.94C75.9421 72.54 75.2521 73.06 74.4021 73.5L73.9821 72.9C74.9421 72.38 75.6971 71.75 76.2471 71.01C76.8071 70.26 77.0871 69.415 77.0871 68.475V67.995H74.3571V67.335H80.4771V67.995H77.8671V68.475C77.8671 68.945 77.9521 69.39 78.1221 69.81C78.2921 70.22 78.5171 70.61 78.7971 70.98C79.0771 71.34 79.3971 71.67 79.7571 71.97C80.1271 72.27 80.5121 72.535 80.9121 72.765L80.5221 73.35C79.7821 72.94 79.1471 72.46 78.6171 71.91C78.0971 71.35 77.7271 70.76 77.5071 70.14ZM83.5521 79.41H82.7721V75.45H76.1271V74.79H83.5521V79.41ZM83.5521 73.815H82.7721V66.72H83.5521V73.815ZM94.8718 66.72H95.6518V79.245H94.8718V66.72ZM89.4118 68.01C88.6818 68.01 88.1318 68.3 87.7618 68.88C87.4018 69.45 87.2218 70.39 87.2218 71.7C87.2218 73.01 87.4018 73.955 87.7618 74.535C88.1318 75.105 88.6818 75.39 89.4118 75.39C90.1418 75.39 90.6868 75.105 91.0468 74.535C91.4168 73.955 91.6018 73.01 91.6018 71.7C91.6018 70.39 91.4168 69.45 91.0468 68.88C90.6868 68.3 90.1418 68.01 89.4118 68.01ZM89.4118 76.065C88.4518 76.065 87.7118 75.725 87.1918 75.045C86.6818 74.355 86.4268 73.24 86.4268 71.7C86.4268 70.16 86.6818 69.05 87.1918 68.37C87.7118 67.68 88.4518 67.335 89.4118 67.335C90.3718 67.335 91.1068 67.68 91.6168 68.37C92.1368 69.05 92.3968 70.16 92.3968 71.7C92.3968 73.24 92.1368 74.355 91.6168 75.045C91.1068 75.725 90.3718 76.065 89.4118 76.065ZM104.121 75.735H99.2614C99.0314 75.735 98.8714 75.68 98.7814 75.57C98.6914 75.45 98.6464 75.275 98.6464 75.045V67.56H104.121V69.51H106.971V66.72H107.751V79.26H106.971V73.725H104.121V75.735ZM103.341 75.06V68.235H99.4114V74.85C99.4114 74.95 99.4214 75.01 99.4414 75.03C99.4714 75.05 99.5314 75.06 99.6214 75.06H103.341ZM106.971 70.2H104.121V73.035H106.971V70.2ZM10.93 85.485H18.25V91.125H14.965V94.155H20.095V94.83H9.1V94.155H14.2V91.125H11.545C11.315 91.125 11.155 91.07 11.065 90.96C10.975 90.84 10.93 90.665 10.93 90.435V85.485ZM17.485 90.45V86.16H11.71V90.24C11.71 90.34 11.72 90.4 11.74 90.42C11.77 90.44 11.83 90.45 11.92 90.45H17.485ZM30.3496 89.25V89.925H23.6446C23.4146 89.925 23.2546 89.87 23.1646 89.76C23.0746 89.64 23.0296 89.465 23.0296 89.235V85.2H30.2746V85.875H23.8096V89.04C23.8096 89.14 23.8196 89.2 23.8396 89.22C23.8696 89.24 23.9296 89.25 24.0196 89.25H30.3496ZM32.1946 92.565H27.1546V97.26H26.3896V92.565H21.1996V91.905H32.1946V92.565ZM37.3642 91.17C36.8242 91.17 36.3642 91.095 35.9842 90.945C35.6042 90.785 35.2892 90.57 35.0392 90.3C34.7992 90.02 34.6192 89.695 34.4992 89.325C34.3892 88.955 34.3342 88.55 34.3342 88.11C34.3342 87.68 34.3892 87.28 34.4992 86.91C34.6192 86.53 34.7992 86.205 35.0392 85.935C35.2892 85.655 35.6042 85.44 35.9842 85.29C36.3642 85.13 36.8242 85.05 37.3642 85.05C37.9042 85.05 38.3642 85.13 38.7442 85.29C39.1242 85.44 39.4342 85.655 39.6742 85.935C39.9242 86.205 40.1042 86.53 40.2142 86.91C40.3342 87.28 40.3942 87.68 40.3942 88.11C40.3942 88.55 40.3342 88.955 40.2142 89.325C40.1042 89.695 39.9242 90.02 39.6742 90.3C39.4342 90.57 39.1242 90.785 38.7442 90.945C38.3642 91.095 37.9042 91.17 37.3642 91.17ZM37.3642 90.555C38.1042 90.555 38.6642 90.35 39.0442 89.94C39.4242 89.52 39.6142 88.91 39.6142 88.11C39.6142 87.31 39.4242 86.705 39.0442 86.295C38.6642 85.875 38.1042 85.665 37.3642 85.665C36.6242 85.665 36.0642 85.875 35.6842 86.295C35.3042 86.705 35.1142 87.31 35.1142 88.11C35.1142 88.91 35.3042 89.52 35.6842 89.94C36.0642 90.35 36.6242 90.555 37.3642 90.555ZM39.0742 93.39C39.7142 93.39 40.3442 93.345 40.9642 93.255C41.5842 93.155 42.1192 93.005 42.5692 92.805V84.72H43.3492V97.26H42.5692V93.405C42.0792 93.655 41.5292 93.83 40.9192 93.93C40.3092 94.02 39.7242 94.065 39.1642 94.065H33.4492V93.39H39.0742ZM60.9279 89.73H58.9029V97.26H58.1229V84.72H58.9029V89.025H60.9279V89.73ZM55.5429 93.735H50.6829C50.4529 93.735 50.2929 93.68 50.2029 93.57C50.1129 93.45 50.0679 93.275 50.0679 93.045V85.56H55.5429V93.735ZM54.7629 93.06V86.235H50.8329V92.85C50.8329 92.95 50.8429 93.01 50.8629 93.03C50.8929 93.05 50.9529 93.06 51.0429 93.06H54.7629ZM67.1925 89.475C66.5425 89.475 65.9775 89.42 65.4975 89.31C65.0275 89.19 64.6375 89.025 64.3275 88.815C64.0175 88.605 63.7875 88.36 63.6375 88.08C63.4875 87.79 63.4125 87.48 63.4125 87.15C63.4125 86.82 63.4875 86.515 63.6375 86.235C63.7875 85.945 64.0175 85.695 64.3275 85.485C64.6375 85.275 65.0275 85.115 65.4975 85.005C65.9775 84.885 66.5425 84.825 67.1925 84.825C67.8425 84.825 68.4025 84.885 68.8725 85.005C69.3525 85.115 69.7475 85.275 70.0575 85.485C70.3675 85.695 70.5975 85.945 70.7475 86.235C70.8975 86.515 70.9725 86.82 70.9725 87.15C70.9725 87.48 70.8975 87.79 70.7475 88.08C70.5975 88.36 70.3675 88.605 70.0575 88.815C69.7475 89.025 69.3525 89.19 68.8725 89.31C68.4025 89.42 67.8425 89.475 67.1925 89.475ZM67.1925 88.8C67.7425 88.8 68.2075 88.765 68.5875 88.695C68.9675 88.615 69.2775 88.505 69.5175 88.365C69.7575 88.215 69.9275 88.04 70.0275 87.84C70.1375 87.64 70.1925 87.41 70.1925 87.15C70.1925 86.9 70.1375 86.675 70.0275 86.475C69.9275 86.265 69.7575 86.09 69.5175 85.95C69.2775 85.8 68.9675 85.69 68.5875 85.62C68.2075 85.54 67.7425 85.5 67.1925 85.5C66.6425 85.5 66.1775 85.54 65.7975 85.62C65.4175 85.69 65.1075 85.8 64.8675 85.95C64.6275 86.09 64.4525 86.265 64.3425 86.475C64.2425 86.675 64.1925 86.9 64.1925 87.15C64.1925 87.41 64.2425 87.64 64.3425 87.84C64.4525 88.04 64.6275 88.215 64.8675 88.365C65.1075 88.505 65.4175 88.615 65.7975 88.695C66.1775 88.765 66.6425 88.8 67.1925 88.8ZM61.7025 91.395V90.72H72.6975V91.395H61.7025ZM70.9725 97.26H64.0425C63.8125 97.26 63.6525 97.2 63.5625 97.08C63.4725 96.97 63.4275 96.8 63.4275 96.57V92.745H70.9725V97.26ZM70.1925 96.615V93.39H64.1925V96.405C64.1925 96.505 64.2025 96.565 64.2225 96.585C64.2525 96.605 64.3125 96.615 64.4025 96.615H70.1925ZM73.8021 90.93V90.255H84.7971V90.93H73.8021ZM83.0721 95.085H76.2921V96.555C76.2921 96.635 76.2971 96.685 76.3071 96.705C76.3271 96.725 76.3721 96.735 76.4421 96.735H83.3721V97.41H76.1421C75.9321 97.41 75.7771 97.365 75.6771 97.275C75.5771 97.185 75.5271 97.015 75.5271 96.765V94.425H82.3071V93H75.5721V92.34H83.0721V95.085ZM79.2921 89.25C77.9821 89.25 77.0171 89.04 76.3971 88.62C75.7771 88.2 75.4671 87.655 75.4671 86.985C75.4671 86.315 75.7771 85.77 76.3971 85.35C77.0171 84.93 77.9821 84.72 79.2921 84.72C80.6021 84.72 81.5671 84.93 82.1871 85.35C82.8071 85.77 83.1171 86.315 83.1171 86.985C83.1171 87.655 82.8071 88.2 82.1871 88.62C81.5671 89.04 80.6021 89.25 79.2921 89.25ZM79.2921 88.575C79.8421 88.575 80.3071 88.54 80.6871 88.47C81.0771 88.39 81.3921 88.28 81.6321 88.14C81.8821 88 82.0621 87.835 82.1721 87.645C82.2821 87.445 82.3371 87.225 82.3371 86.985C82.3371 86.745 82.2821 86.53 82.1721 86.34C82.0621 86.14 81.8821 85.97 81.6321 85.83C81.3921 85.69 81.0771 85.585 80.6871 85.515C80.3071 85.435 79.8421 85.395 79.2921 85.395C78.7421 85.395 78.2721 85.435 77.8821 85.515C77.5021 85.585 77.1871 85.69 76.9371 85.83C76.6971 85.97 76.5221 86.14 76.4121 86.34C76.3021 86.53 76.2471 86.745 76.2471 86.985C76.2471 87.225 76.3021 87.445 76.4121 87.645C76.5221 87.835 76.6971 88 76.9371 88.14C77.1871 88.28 77.5021 88.39 77.8821 88.47C78.2721 88.54 78.7421 88.575 79.2921 88.575ZM93.6309 87.645C93.5409 87.935 93.4009 88.23 93.2109 88.53C93.0309 88.82 92.8059 89.11 92.5359 89.4C92.2659 89.69 91.9559 89.97 91.6059 90.24C91.2559 90.5 90.8709 90.74 90.4509 90.96L90.0759 90.375C90.5559 90.115 90.9859 89.825 91.3659 89.505C91.7559 89.185 92.0909 88.845 92.3709 88.485C92.6509 88.115 92.8659 87.73 93.0159 87.33C93.1659 86.92 93.2409 86.495 93.2409 86.055V84.915H94.0209V86.055C94.0209 86.905 94.2859 87.66 94.8159 88.32C95.3459 88.97 96.0909 89.555 97.0509 90.075L96.6609 90.66C95.8909 90.26 95.2459 89.8 94.7259 89.28C94.2059 88.76 93.8409 88.215 93.6309 87.645ZM101.431 88.035H99.4059V90.93H98.6259V84.72H99.4059V87.33H101.431V88.035ZM92.7459 97.41C92.5159 97.41 92.3559 97.355 92.2659 97.245C92.1759 97.145 92.1309 96.98 92.1309 96.75V94.185H98.6409V92.55H92.1759V91.89H99.4059V94.83H92.8959V96.555C92.8959 96.675 92.9509 96.735 93.0609 96.735H99.8559V97.41H92.7459ZM111.955 97.26H111.175V93.105C110.855 93.285 110.435 93.435 109.915 93.555C109.405 93.675 108.835 93.735 108.205 93.735H102.655V93.075H104.245V86.205H102.745V85.545H109.6V86.205H108.1V93.075C108.38 93.075 108.665 93.06 108.955 93.03C109.245 93 109.525 92.96 109.795 92.91C110.075 92.86 110.33 92.8 110.56 92.73C110.8 92.66 111.005 92.58 111.175 92.49V84.72H111.955V97.26ZM105.01 93.075H107.335V86.205H105.01V93.075ZM123.545 89.46H116.825C116.595 89.46 116.435 89.405 116.345 89.295C116.255 89.175 116.21 89 116.21 88.77V84.96H116.99V88.59C116.99 88.69 117 88.75 117.02 88.77C117.05 88.79 117.11 88.8 117.2 88.8H123.545V89.46ZM123.8 96.495V97.185H116.72C116.49 97.185 116.33 97.125 116.24 97.005C116.15 96.895 116.105 96.725 116.105 96.495V93.345H116.87V96.285C116.87 96.385 116.88 96.445 116.9 96.465C116.93 96.485 116.99 96.495 117.08 96.495H123.8ZM125.3 91.275V91.95H114.305V91.275H125.3ZM133.939 90.96C133.379 90.96 132.904 90.885 132.514 90.735C132.134 90.585 131.819 90.38 131.569 90.12C131.319 89.85 131.139 89.535 131.029 89.175C130.919 88.805 130.864 88.41 130.864 87.99C130.864 87.57 130.919 87.18 131.029 86.82C131.139 86.45 131.319 86.135 131.569 85.875C131.819 85.605 132.134 85.395 132.514 85.245C132.904 85.095 133.379 85.02 133.939 85.02C134.419 85.02 134.839 85.08 135.199 85.2C135.559 85.31 135.859 85.47 136.099 85.68C136.349 85.89 136.544 86.14 136.684 86.43C136.824 86.72 136.919 87.035 136.969 87.375H139.579V84.72H140.359V91.65H139.579V88.08H137.014C137.004 88.49 136.939 88.875 136.819 89.235C136.709 89.585 136.529 89.89 136.279 90.15C136.029 90.4 135.709 90.6 135.319 90.75C134.939 90.89 134.479 90.96 133.939 90.96ZM140.359 97.26H133.549C133.319 97.26 133.159 97.2 133.069 97.08C132.979 96.97 132.934 96.8 132.934 96.57V92.61H140.359V97.26ZM139.594 96.615V93.24H133.699V96.405C133.699 96.505 133.709 96.565 133.729 96.585C133.759 96.605 133.819 96.615 133.909 96.615H139.594ZM133.939 90.285C134.639 90.285 135.194 90.1 135.604 89.73C136.024 89.35 136.234 88.77 136.234 87.99C136.234 87.21 136.024 86.635 135.604 86.265C135.194 85.885 134.639 85.695 133.939 85.695C133.239 85.695 132.679 85.885 132.259 86.265C131.849 86.635 131.644 87.21 131.644 87.99C131.644 88.77 131.849 89.35 132.259 89.73C132.679 90.1 133.239 90.285 133.939 90.285ZM154.033 89.73H152.008V97.26H151.228V84.72H152.008V89.025H154.033V89.73ZM148.648 93.735H143.788C143.558 93.735 143.398 93.68 143.308 93.57C143.218 93.45 143.173 93.275 143.173 93.045V85.56H148.648V93.735ZM147.868 93.06V86.235H143.938V92.85C143.938 92.95 143.948 93.01 143.968 93.03C143.998 93.05 144.058 93.06 144.148 93.06H147.868Z" fill="#282828"/>
</svg>
