<svg width="240" height="180" viewBox="0 0 240 180" fill="none" xmlns="http://www.w3.org/2000/svg">
  <rect width="240" height="180" rx="20" fill="#F3E3DB"/>
  <circle cx="192" cy="42" r="20" fill="#FFE3B5"/>
  <path d="M0 126C28 110 52 108 82 118C114 129 130 145 168 142C194 140 214 127 240 108V180H0V126Z" fill="#D8B4A1"/>
  <rect x="40" y="48" width="72" height="72" rx="36" fill="#F3C3AF"/>
  <rect x="128" y="60" width="70" height="14" rx="7" fill="#FFF7F1"/>
  <rect x="128" y="84" width="52" height="12" rx="6" fill="#FFF7F1" fill-opacity="0.9"/>
  <rect x="128" y="104" width="60" height="12" rx="6" fill="#FFF7F1" fill-opacity="0.8"/>
  <circle cx="66" cy="74" r="3" fill="#5F514C"/>
  <circle cx="86" cy="74" r="3" fill="#5F514C"/>
  <path d="M69 85C73 89 79 89 83 85" stroke="#5F514C" stroke-width="2.5" stroke-linecap="round"/>
</svg>
