<svg width="44" height="36" viewBox="0 0 44 36" fill="none" xmlns="http://www.w3.org/2000/svg">
<path d="M1.86788 24.822H6.89888V25.901H3.18088V30.945C3.18088 31.0577 3.19388 31.127 3.21988 31.153C3.24588 31.1703 3.31088 31.179 3.41488 31.179H6.35288C6.82088 31.179 7.24554 31.14 7.62688 31.062C8.01688 30.9753 8.35488 30.8583 8.64088 30.711V24.146H9.94088V35.17H8.64088V31.712C8.37221 31.868 8.02554 31.998 7.60088 32.102C7.17621 32.206 6.67788 32.258 6.10588 32.258H2.84288C2.49621 32.258 2.24488 32.1973 2.08888 32.076C1.94154 31.946 1.86788 31.686 1.86788 31.296V24.822ZM12.0769 24.757H13.3509V27.578H15.9639V24.757H17.2379V32.258H12.8439C12.5926 32.258 12.4019 32.1973 12.2719 32.076C12.1419 31.9547 12.0769 31.7553 12.0769 31.478V24.757ZM15.9639 31.192V28.644H13.3509V30.997C13.3509 31.127 13.4116 31.192 13.5329 31.192H15.9639ZM18.9279 24.146H20.2279V27.786H21.8009V28.878H20.2279V35.17H18.9279V24.146ZM29.969 24.146H31.269V35.17H29.969V24.146ZM25.601 32.492C23.7897 32.492 22.884 31.1833 22.884 28.566C22.884 25.9487 23.7897 24.64 25.601 24.64C27.4123 24.64 28.318 25.9487 28.318 28.566C28.318 31.1833 27.4123 32.492 25.601 32.492ZM25.601 25.771C25.0983 25.771 24.73 25.9963 24.496 26.447C24.262 26.889 24.145 27.5953 24.145 28.566C24.145 29.5367 24.262 30.2473 24.496 30.698C24.73 31.14 25.0983 31.361 25.601 31.361C26.1037 31.361 26.472 31.14 26.706 30.698C26.94 30.2473 27.057 29.5367 27.057 28.566C27.057 27.5953 26.94 26.889 26.706 26.447C26.472 25.9963 26.1037 25.771 25.601 25.771ZM42.8301 32.18V33.259H33.0671V32.18H42.8301ZM37.9421 27.643C37.7774 27.9117 37.5651 28.176 37.3051 28.436C37.0451 28.696 36.7504 28.9387 36.4211 29.164C36.1004 29.3807 35.7581 29.5757 35.3941 29.749C35.0387 29.9137 34.6791 30.0393 34.3151 30.126L33.8081 29.216C34.3194 29.06 34.7874 28.8607 35.2121 28.618C35.6454 28.3753 36.0137 28.1067 36.3171 27.812C36.6291 27.5087 36.8674 27.1967 37.0321 26.876C37.2054 26.5467 37.2921 26.2217 37.2921 25.901V24.51H38.5921V25.901C38.5921 26.2217 38.6744 26.5467 38.8391 26.876C39.0124 27.2053 39.2507 27.5173 39.5541 27.812C39.8661 28.1067 40.2344 28.3753 40.6591 28.618C41.0924 28.8607 41.5647 29.06 42.0761 29.216L41.5691 30.126C41.2051 30.0393 40.8411 29.9137 40.4771 29.749C40.1217 29.5757 39.7794 29.3807 39.4501 29.164C39.1294 28.9387 38.8391 28.696 38.5791 28.436C38.3191 28.176 38.1067 27.9117 37.9421 27.643Z" fill="black"/>
<mask id="path-2-inside-1_15_5" fill="white">
<rect x="14" width="8" height="8" rx="1"/>
</mask>
<rect x="14" width="8" height="8" rx="1" stroke="black" stroke-width="3" mask="url(#path-2-inside-1_15_5)"/>
<mask id="path-3-inside-2_15_5" fill="white">
<rect x="14" y="9" width="8" height="8" rx="1"/>
</mask>
<rect x="14" y="9" width="8" height="8" rx="1" stroke="black" stroke-width="3" mask="url(#path-3-inside-2_15_5)"/>
<mask id="path-4-inside-3_15_5" fill="white">
<rect x="23" width="8" height="8" rx="1"/>
</mask>
<rect x="23" width="8" height="8" rx="1" stroke="black" stroke-width="3" mask="url(#path-4-inside-3_15_5)"/>
<path d="M23.3637 12.3936L24.9058 14.1858C25.2843 14.6257 25.9567 14.6521 26.3685 14.243L30 10.6362" stroke="black" stroke-width="1.5" stroke-linecap="round"/>
</svg>
