<svg width="19" height="21" viewBox="0 0 19 21" fill="none" xmlns="http://www.w3.org/2000/svg">
<path d="M12.75 11.4501V16.9501" stroke="black" stroke-width="1.5" stroke-linecap="round"/>
<path d="M8.75 13.4501V16.9501" stroke="black" stroke-width="1.5" stroke-linecap="round"/>
<path d="M5.25 14.9501V16.9501" stroke="black" stroke-width="1.5" stroke-linecap="round"/>
<path d="M4.25 12.4501L6.45997 10.2401C6.88142 9.81866 7.57562 9.8571 7.94795 10.3225L8.50938 11.0243C8.89648 11.5082 9.62597 11.5271 10.0377 11.064L13.25 7.45007" stroke="black" stroke-width="1.5" stroke-linecap="round"/>
<path d="M0.75 18.4501V7.98623C0.75 7.68336 0.887259 7.39682 1.12326 7.207L8.87684 0.970745C9.25211 0.668915 9.7892 0.677433 10.1547 0.991012L17.4011 7.20792C17.6226 7.39789 17.75 7.67511 17.75 7.96688V18.4501C17.75 19.0024 17.3023 19.4501 16.75 19.4501H1.75C1.19772 19.4501 0.75 19.0024 0.75 18.4501Z" stroke="black" stroke-width="1.5"/>
<path d="M13.5141 6.84007C13.8219 6.83208 14.0637 7.10151 14.0226 7.40665L13.6765 9.9757C13.6196 10.3983 13.0937 10.5603 12.8089 10.2429L10.5636 7.74111C10.2788 7.42375 10.4965 6.91838 10.9227 6.90732L13.5141 6.84007Z" fill="black"/>
</svg>
