<svg width="20" height="37" viewBox="0 0 20 37" fill="none" xmlns="http://www.w3.org/2000/svg">
<path d="M7.49497 28.3196C7.49497 27.9296 7.6423 27.6133 7.93697 27.3706H6.45497V26.3696H14.437V27.3706H12.955C13.1023 27.492 13.2106 27.635 13.28 27.7996C13.358 27.9643 13.397 28.1376 13.397 28.3196C13.397 28.7616 13.215 29.13 12.851 29.4246C12.4956 29.7193 11.9063 29.897 11.083 29.9576V30.6206H15.334V31.5956H5.57097V30.6206H9.80897V29.9576C8.98564 29.897 8.39197 29.7193 8.02797 29.4246C7.67264 29.13 7.49497 28.7616 7.49497 28.3196ZM7.78097 35.6646C7.52964 35.6646 7.3433 35.6083 7.22197 35.4956C7.10064 35.383 7.03997 35.1966 7.03997 34.9366V32.2716H13.865V35.6646H7.78097ZM12.565 34.6506V33.2726H8.33997V34.4686C8.33997 34.59 8.4093 34.6506 8.54797 34.6506H12.565ZM10.446 27.3706C10.0993 27.3706 9.8133 27.3923 9.58797 27.4356C9.36264 27.4703 9.18497 27.5223 9.05497 27.5916C8.92497 27.661 8.83397 27.752 8.78197 27.8646C8.72997 27.9686 8.70397 28.09 8.70397 28.2286C8.70397 28.506 8.8383 28.714 9.10697 28.8526C9.3843 28.9826 9.83064 29.0476 10.446 29.0476C11.0613 29.0476 11.5033 28.9826 11.772 28.8526C12.0493 28.714 12.188 28.506 12.188 28.2286C12.188 28.09 12.162 27.9686 12.11 27.8646C12.058 27.752 11.967 27.661 11.837 27.5916C11.707 27.5223 11.5293 27.4703 11.304 27.4356C11.0786 27.3923 10.7926 27.3706 10.446 27.3706ZM12.435 25.6936H8.46997V24.6406H12.435V25.6936Z" fill="black"/>
<path d="M2.5 16.9946V6.50138C2.5 6.18283 2.65176 5.88334 2.90864 5.69497L9.38778 0.943596C9.74969 0.678199 10.2441 0.686412 10.597 0.963683L16.6178 5.69435C16.8591 5.88394 17 6.17381 17 6.48067V15.9946C17 16.5469 16.5523 16.9946 16 16.9946H8.5C7.94772 16.9946 7.5 16.5469 7.5 15.9946V9.99464C7.5 9.44235 7.94772 8.99464 8.5 8.99464H12C12.5523 8.99464 13 9.44235 13 9.99464V13.4946" stroke="black" stroke-width="1.5"/>
<circle cx="3" cy="15.4946" r="3" fill="black"/>
<circle cx="17" cy="6.49464" r="3" fill="black"/>
</svg>
