<svg width="18" height="20" viewBox="0 0 18 20" fill="none" xmlns="http://www.w3.org/2000/svg">
<path d="M12.5 11.2001V16.7001" stroke="black" stroke-linecap="round"/>
<path d="M8.5 13.2001V16.7001" stroke="black" stroke-linecap="round"/>
<path d="M5 14.7001V16.7001" stroke="black" stroke-linecap="round"/>
<path d="M4 12.2001L6.20997 9.9901C6.63142 9.56866 7.32562 9.6071 7.69795 10.0725L8.25938 10.7743C8.64648 11.2582 9.37597 11.2771 9.78765 10.814L13 7.20007" stroke="black" stroke-linecap="round"/>
<path d="M0.5 18.2001V7.73623C0.5 7.43336 0.637259 7.14682 0.87326 6.957L8.62684 0.720745C9.00211 0.418915 9.5392 0.427433 9.90471 0.741012L17.1511 6.95792C17.3726 7.14789 17.5 7.42511 17.5 7.71688V18.2001C17.5 18.7524 17.0523 19.2001 16.5 19.2001H1.5C0.947715 19.2001 0.5 18.7524 0.5 18.2001Z" stroke="black"/>
<path d="M13.2641 6.59007C13.5719 6.58208 13.8137 6.85151 13.7726 7.15665L13.4265 9.7257C13.3696 10.1483 12.8437 10.3103 12.5589 9.9929L10.3136 7.49111C10.0288 7.17375 10.2465 6.66838 10.6727 6.65732L13.2641 6.59007Z" fill="black"/>
</svg>
