<svg width="16" height="18" viewBox="0 0 16 18" fill="none" xmlns="http://www.w3.org/2000/svg">
<path d="M3.66714 2.43981L3.70286 2.39814C4.73551 1.19337 6.24306 0.5 7.82983 0.5C9.41661 0.5 10.9242 1.19337 11.9568 2.39814L11.9925 2.43981C12.8555 3.4466 13.3298 4.72887 13.3298 6.05489V9.5506C13.3298 10.1585 13.5713 10.7415 14.0012 11.1713L14.5586 11.7287C15.007 12.1772 15.0766 12.8798 14.7248 13.4075C14.4781 13.7777 14.0626 14 13.6178 14H1.68106C1.17272 14 0.721405 13.6747 0.560652 13.1925C0.419191 12.7681 0.529642 12.3002 0.845957 11.9839L1.52729 11.3025C2.04115 10.7887 2.32983 10.0917 2.32983 9.36503V6.05489C2.32983 4.72887 2.80418 3.4466 3.66714 2.43981Z" fill="black" stroke="black"/>
<path d="M10.3298 15.5C10.3298 16.0304 10.0664 16.5391 9.5976 16.9142C9.12876 17.2893 8.49288 17.5 7.82983 17.5C7.16679 17.5 6.53091 17.2893 6.06207 16.9142C5.59323 16.5391 5.32983 16.0304 5.32983 15.5H7.82983L8.82983 15.5H10.3298Z" fill="black"/>
</svg>
