<svg width="20" height="19" viewBox="0 0 20 19" fill="none" xmlns="http://www.w3.org/2000/svg">
<path d="M2.5 16.9946V6.50137C2.5 6.18282 2.65176 5.88334 2.90864 5.69496L9.38778 0.943588C9.74969 0.678191 10.2441 0.686404 10.597 0.963675L16.6178 5.69435C16.8591 5.88393 17 6.1738 17 6.48066V15.9946C17 16.5469 16.5523 16.9946 16 16.9946H8.5C7.94772 16.9946 7.5 16.5469 7.5 15.9946V9.99463C7.5 9.44234 7.94772 8.99463 8.5 8.99463H12C12.5523 8.99463 13 9.44234 13 9.99463V13.4946" stroke="black" stroke-width="1.5"/>
<circle cx="3" cy="15.4946" r="3" fill="black"/>
<circle cx="17" cy="6.49463" r="3" fill="black"/>
</svg>
